<svg width="20" height="17" viewBox="0 0 20 17" fill="none" xmlns="http://www.w3.org/2000/svg">
<path d="M10.2186 14.0111H1.20219C0.883346 14.0111 0.577566 13.894 0.352112 13.6856C0.126658 13.4773 0 13.1946 0 12.9V1.78885C0 1.49416 0.126658 1.21154 0.352112 1.00317C0.577566 0.794797 0.883346 0.677734 1.20219 0.677734H18.0328C18.3516 0.677734 18.6574 0.794797 18.8829 1.00317C19.1083 1.21154 19.235 1.49416 19.235 1.78885V7.54996C18.4342 6.60731 17.2693 5.98812 15.9851 5.82243C14.7008 5.65673 13.397 5.95743 12.3475 6.66136C11.2981 7.36529 10.5845 8.41769 10.3568 9.59755C10.1291 10.7774 10.4048 11.9929 11.1262 12.9888L10.5672 13.6222L10.2186 14.0111ZM3.00546 4.01107V4.89996H13.224V4.01107H3.00546ZM3.00546 7.12218H9.61749V6.23329H3.00546V7.12218ZM3.00546 11.0111H9.01639V10.1222H3.00546V11.0111Z" fill="#324C5B"/>
<path d="M19.133 10.45C19.1346 9.86419 18.9789 9.2872 18.6797 8.77077C18.3806 8.25434 17.9475 7.8146 17.4191 7.49102C16.8908 7.16745 16.2839 6.97014 15.6527 6.9168C15.0215 6.86346 14.3859 6.95577 13.8029 7.18543C13.2198 7.41509 12.7076 7.77493 12.3121 8.23267C11.9166 8.6904 11.6502 9.23172 11.5368 9.80805C11.4235 10.3844 11.4667 10.9777 11.6626 11.5348C11.8585 12.0919 12.2009 12.5953 12.6592 13L11.4931 14.3166L12.0341 16.3222L14.2341 13.8444C14.9305 14.0347 15.6716 14.0347 16.368 13.8444L18.568 16.3222L19.109 14.3166L17.9428 13C18.3179 12.6717 18.6167 12.2763 18.8213 11.838C19.0259 11.3996 19.132 10.9274 19.133 10.45ZM12.6773 10.45C12.6701 9.96843 12.8181 9.49581 13.1023 9.09221C13.3866 8.6886 13.7943 8.37224 14.2736 8.18337C14.7529 7.99449 15.2821 7.94164 15.794 8.03151C16.3059 8.12139 16.7774 8.34994 17.1483 8.68811C17.5193 9.02628 17.7731 9.45877 17.8774 9.9306C17.9817 10.4024 17.9318 10.8923 17.7341 11.3378C17.5364 11.7834 17.1998 12.1646 16.7671 12.4328C16.3344 12.7011 15.8251 12.8444 15.304 12.8444C14.6137 12.8459 13.9507 12.595 13.4597 12.1464C12.9687 11.6978 12.6896 11.088 12.6833 10.45H12.6773Z" fill="#324C5B"/>
</svg>
