<svg width="18" height="17" viewBox="0 0 18 17" fill="none" xmlns="http://www.w3.org/2000/svg">
<path d="M1.8 0C0.801 0 0 0.796316 0 1.78947V10.7368C0 11.2114 0.189642 11.6666 0.527208 12.0022C0.864773 12.3378 1.32261 12.5263 1.8 12.5263H9V17L11.7 14.3158L14.4 17V12.5263H16.2C16.6774 12.5263 17.1352 12.3378 17.4728 12.0022C17.8104 11.6666 18 11.2114 18 10.7368V1.78947C18 1.31488 17.8104 0.859716 17.4728 0.524125C17.1352 0.188533 16.6774 0 16.2 0H1.8ZM9 1.78947L11.7 3.57895L14.4 1.78947V4.92105L17.1 6.26316L14.4 7.60526V10.7368L11.7 8.94737L9 10.7368V7.60526L6.3 6.26316L9 4.92105V1.78947ZM1.8 1.78947H6.3V3.57895H1.8V1.78947ZM1.8 5.36842H4.5V7.15789H1.8V5.36842ZM1.8 8.94737H6.3V10.7368H1.8V8.94737Z" fill="white"/>
</svg>
