<svg width="20" height="15" viewBox="0 0 20 15" fill="none" xmlns="http://www.w3.org/2000/svg">
<path d="M10.2186 14.0111H1.20219C0.883346 14.0111 0.577566 13.894 0.352112 13.6857C0.126658 13.4773 0 13.1947 0 12.9V1.78888C0 1.49419 0.126658 1.21158 0.352112 1.0032C0.577566 0.794828 0.883346 0.677765 1.20219 0.677765H18.0328C18.3516 0.677765 18.6574 0.794828 18.8829 1.0032C19.1083 1.21158 19.235 1.49419 19.235 1.78888V7.54999C18.4342 6.60734 17.2693 5.98815 15.9851 5.82246C14.7008 5.65676 13.397 5.95746 12.3475 6.66139C11.2981 7.36532 10.5845 8.41772 10.3568 9.59758C10.1291 10.7774 10.4048 11.993 11.1262 12.9889L10.5672 13.6222L10.2186 14.0111ZM3.00546 4.0111V4.89999H13.224V4.0111H3.00546ZM3.00546 7.12221H9.61749V6.23332H3.00546V7.12221ZM3.00546 11.0111H9.01639V10.1222H3.00546V11.0111Z" fill="#324C5B"/>
</svg>
