<svg width="20" height="17" viewBox="0 0 20 17" fill="none" xmlns="http://www.w3.org/2000/svg">
<path d="M10.2186 14.0111H1.20219C0.883346 14.0111 0.577566 13.894 0.352112 13.6857C0.126658 13.4773 0 13.1947 0 12.9V1.78888C0 1.49419 0.126658 1.21158 0.352112 1.0032C0.577566 0.794828 0.883346 0.677765 1.20219 0.677765H18.0328C18.3516 0.677765 18.6574 0.794828 18.8829 1.0032C19.1083 1.21158 19.235 1.49419 19.235 1.78888V7.54999C18.4342 6.60734 17.2693 5.98815 15.9851 5.82246C14.7008 5.65676 13.397 5.95746 12.3475 6.66139C11.2981 7.36532 10.5845 8.41772 10.3568 9.59758C10.1291 10.7774 10.4048 11.993 11.1262 12.9889L10.5672 13.6222L10.2186 14.0111ZM3.00546 4.0111V4.89999H13.224V4.0111H3.00546ZM3.00546 7.12221H9.61749V6.23332H3.00546V7.12221ZM3.00546 11.0111H9.01639V10.1222H3.00546V11.0111Z" fill="#324C5B"/>
<path d="M19.133 10.45C19.1346 9.86422 18.9789 9.28724 18.6797 8.7708C18.3806 8.25437 17.9475 7.81464 17.4191 7.49106C16.8908 7.16748 16.2839 6.97017 15.6527 6.91683C15.0215 6.86349 14.3859 6.9558 13.8029 7.18546C13.2198 7.41512 12.7076 7.77496 12.3121 8.2327C11.9166 8.69043 11.6502 9.23175 11.5368 9.80808C11.4235 10.3844 11.4667 10.9777 11.6626 11.5348C11.8585 12.0919 12.2009 12.5954 12.6592 13L11.4931 14.3167L12.0341 16.3222L14.2341 13.8444C14.9305 14.0348 15.6716 14.0348 16.368 13.8444L18.568 16.3222L19.109 14.3167L17.9428 13C18.3179 12.6717 18.6167 12.2763 18.8213 11.838C19.0259 11.3996 19.132 10.9274 19.133 10.45ZM12.6773 10.45C12.6701 9.96846 12.8181 9.49584 13.1023 9.09224C13.3866 8.68863 13.7943 8.37227 14.2736 8.1834C14.7529 7.99453 15.2821 7.94167 15.794 8.03154C16.3059 8.12142 16.7773 8.34998 17.1483 8.68814C17.5193 9.02631 17.7731 9.45881 17.8774 9.93063C17.9817 10.4025 17.9318 10.8923 17.7341 11.3379C17.5364 11.7834 17.1998 12.1646 16.7671 12.4329C16.3344 12.7011 15.8251 12.8444 15.304 12.8444C14.6137 12.8459 13.9507 12.595 13.4597 12.1465C12.9687 11.6979 12.6896 11.088 12.6833 10.45H12.6773Z" fill="#324C5B"/>
</svg>
