<svg width="539" height="606" viewBox="0 0 539 606" fill="none" xmlns="http://www.w3.org/2000/svg">
<path d="M538.183 113.645V490.956C538.183 516.644 532.787 538.771 523.832 556.349C507.051 589.363 484.676 599.303 456.953 603.366C419.651 609.099 374.388 604.54 320.394 598.584C294.816 595.739 289.993 594.986 272.864 594.46C260.153 594.152 240.945 594.106 211.101 595.304C160.987 597.578 145.273 598.766 121.314 599.71C120.103 599.768 118.888 599.838 117.67 599.913C94.9328 601.301 45.119 606.009 21.6571 569.743C9.46083 550.891 0 530.336 0 490.956V113.645C0 8.84588 87.4544 4.72004 123.872 8.2829C138.84 9.71866 144.775 10.8896 161.016 12.7945C184.962 15.7008 205.944 16.6105 233.007 12.4386C264.271 7.59508 299.91 4.44928 331.269 2.40693H331.668C382.957 -0.827483 437.085 -1.29623 472.143 4.09447C504.58 9.05581 527.251 42.0298 535.066 80.8787C537.104 91.0974 538.183 102.067 538.183 113.645Z" fill="#DEEBE9"/>
<g opacity="0.6">
<path d="M335.707 379.647C335.707 379.647 360.264 190.743 411.281 199.331C462.297 207.92 366.774 322.268 361.367 377.486L335.707 379.647Z" fill="#A3C9D9"/>
</g>
<path d="M336.417 424.522C336.417 424.522 420.343 212.815 487.594 236.835C554.847 260.855 394.091 366.735 371.974 429.108L336.417 424.522Z" fill="#5E6C73"/>
<path d="M356.285 427.262C370.775 383.909 401.305 342.153 424.363 314.759C449.363 285.06 471.199 265.386 471.417 265.191L470.197 263.832C469.978 264.028 448.047 283.787 422.966 313.583C399.804 341.1 369.134 383.057 354.552 426.683L356.285 427.262Z" fill="#C4C695"/>
<path d="M511.168 411.479C491.519 423.411 506.155 454.334 479.893 456.732C457.679 458.748 455.304 457.455 450.256 465.799C448.525 468.658 447.257 471.769 446.394 474.999C445.359 478.869 442.865 484.906 437.026 488.144C401.351 507.926 330.022 469.71 358.949 425.078C361.037 421.855 364.905 419.556 369.266 417.241C392.929 404.7 404.688 413.486 414.207 377.211C423.729 340.925 465.075 373.948 481.333 366.667C497.592 359.386 510.635 349.25 529.845 362.506C549.061 375.775 530.824 399.561 511.168 411.479Z" fill="#A3C9D9"/>
<g opacity="0.5">
<path d="M385.165 461.752L383.958 460.842C384.359 460.31 425.352 407.122 534.599 366.512L535.126 367.929C426.289 408.388 385.565 461.223 385.165 461.752Z" fill="#A3C9D9"/>
<path d="M439 395.562C419.957 387.507 413.815 378.012 413.563 377.613L414.842 376.806C414.901 376.9 421.032 386.32 439.589 394.17L439 395.562Z" fill="#A3C9D9"/>
<path d="M446.841 410.108C440.275 404.326 437.081 393.828 437.604 379.751C437.995 369.208 440.345 360.235 440.368 360.146L441.83 360.533C441.737 360.883 432.745 395.677 447.842 408.975L446.841 410.108Z" fill="#A3C9D9"/>
<path d="M474.969 397.614C472.74 396.764 471.481 396.147 471.424 396.118L472.101 394.767C472.365 394.899 498.899 407.876 527.674 396.958L528.21 398.371C505.023 407.169 483.272 400.78 474.969 397.614Z" fill="#A3C9D9"/>
<path d="M500.666 425.725C491.474 420.613 487.025 413.871 484.912 409.114C482.612 403.937 482.502 400.005 482.498 399.839L484.01 399.806C484.013 399.957 484.57 415.046 501.402 424.403L500.666 425.725Z" fill="#A3C9D9"/>
</g>
<path d="M443.732 205.392C445.982 198.777 448.753 197.523 451.347 198.405C453.94 199.286 455.373 201.969 453.124 208.585C449.025 220.635 442.349 224.864 442.349 224.864C442.349 224.864 439.575 217.618 443.732 205.392Z" fill="#A3C9D9"/>
<path d="M489.644 340.038C496.376 336.895 499.377 338.098 500.609 340.737C501.841 343.375 500.838 346.448 494.107 349.592C481.844 355.318 473.686 353.309 473.686 353.309C473.686 353.309 477.203 345.848 489.644 340.038Z" fill="#A3C9D9"/>
<path d="M465.501 334.765C467.785 328.162 470.563 326.923 473.151 327.818C475.74 328.713 477.159 331.402 474.876 338.006C470.715 350.036 464.018 354.229 464.018 354.229C464.018 354.229 461.28 346.97 465.501 334.765Z" fill="#A3C9D9"/>
<path d="M258.346 512.434C258.346 512.434 160.671 314.241 107.88 342.761C55.0876 371.282 202.761 461.068 229.367 519.664L258.346 512.434Z" fill="#A3C9D9"/>
<path d="M241.499 519.847C241.499 519.847 104.767 346.715 49.0374 387.694C-6.6921 428.674 171.916 482.252 209.778 533.984L241.499 519.847Z" fill="#9BBCB6"/>
<path d="M223.823 527.912C198.325 491.709 158.388 461.446 129.375 442.433C97.9201 421.821 72.1881 409.633 71.9316 409.512L72.6857 407.912C72.9431 408.033 98.7878 420.275 130.344 440.953C159.486 460.051 199.611 490.462 225.269 526.893L223.823 527.912Z" fill="#A3C9D9"/>
<path d="M297.547 592.105C295.529 591.895 293.511 591.727 291.493 591.517C283.798 590.802 274.97 590.34 265.342 590.087C257.185 589.919 248.482 589.877 239.399 589.962C238.348 589.962 237.255 589.962 236.205 590.003C229.309 590.087 222.245 590.214 215.056 590.424C210.22 590.55 205.302 590.676 200.382 590.844C194.959 591.054 189.577 591.264 184.111 591.433C183.943 591.475 183.732 591.475 183.565 591.475C181.378 591.559 179.192 591.685 177.006 591.769C175.492 591.811 173.936 591.895 172.381 591.937C162.248 592.4 152.242 592.862 142.529 593.282C129.58 593.871 117.219 594.417 105.95 594.796C103.764 588.784 102.041 582.142 99.266 576.131V576.089C99.0973 575.795 98.9711 575.543 98.8027 575.206V575.164C95.7336 568.816 91.3607 563.183 83.9609 559.736C76.099 556.079 68.2363 551.16 61.5515 545.485C61.0049 545.023 60.458 544.56 59.9117 544.055C46.7942 532.327 38.974 517.782 46.3738 505.129C46.5419 504.834 46.7519 504.54 46.9203 504.246C48.2652 502.144 50.0314 500.126 52.26 498.192C75.5525 478.014 94.1358 489.406 116.546 496.553C124.451 499.117 135.76 494.577 147.827 489.742C154.681 486.968 161.744 484.068 168.598 482.302C168.891 482.26 169.143 482.176 169.396 482.133C172.17 481.419 174.904 480.957 177.594 480.746C178.435 480.662 179.234 480.62 180.033 480.62H180.664C191.175 480.62 200.383 485.497 206.185 500.588C206.353 501.009 206.521 501.429 206.69 501.807C207.363 503.531 208.035 505.212 208.708 506.768C209.423 508.366 210.095 509.879 210.768 511.308C210.768 511.308 210.768 511.35 210.81 511.392C216.57 523.499 222.12 529.889 228.301 533.672C239.148 540.314 251.929 539.011 271.017 546.536C277.115 548.932 282.496 551.412 285.733 555.322C295.782 567.598 299.061 580.209 297.547 592.105Z" fill="#5E6C73"/>
<path d="M239.4 589.96C238.349 589.96 237.255 589.96 236.205 590.002C216.948 575.583 183.481 554.186 133.321 534.091C132.565 533.756 131.808 533.461 131.051 533.167C106.707 523.498 78.4957 514.165 46.1211 506.094L46.3737 505.127L46.6257 504.16C46.7099 504.202 46.8361 504.202 46.9203 504.244C96.2382 516.603 136.012 531.821 167.125 546.703C167.714 546.997 168.345 547.291 168.933 547.586H168.975C201.938 563.518 225.02 578.988 239.4 589.96Z" fill="#C4C695"/>
<path d="M176.342 528.299C200.155 514.942 206.826 501.583 207.098 501.021L205.302 500.149C205.237 500.282 198.569 513.542 175.363 526.559L176.342 528.299Z" fill="#C4C695"/>
<path d="M168.179 548.538C175.949 539.989 178.605 525.744 175.859 507.345C173.804 493.567 169.407 482.135 169.363 482.021L167.502 482.742C167.674 483.188 184.568 527.537 166.7 547.196L168.179 548.538Z" fill="#C4C695"/>
<path d="M129.436 536.254C132.236 534.812 133.799 533.818 133.87 533.772L132.784 532.098C132.457 532.31 99.531 553.222 60.1698 543.103L59.6733 545.035C91.39 553.189 119.002 541.623 129.436 536.254Z" fill="#C4C695"/>
<path d="M99.823 576.907C111.14 568.855 115.991 559.355 118.069 552.803C120.33 545.672 119.898 540.495 119.88 540.277L117.891 540.455C117.908 540.654 119.385 560.539 98.6646 575.281L99.823 576.907Z" fill="#C4C695"/>
<path d="M36.8434 460.014C27.2081 457.322 25.1975 453.46 26.2528 449.685C27.3081 445.909 31.0297 443.649 40.6644 446.341C58.2158 451.244 64.7883 460.451 64.7883 460.451C64.7883 460.451 54.6502 464.989 36.8434 460.014Z" fill="#A3C9D9"/>
<path d="M198.557 325.529C198.557 325.529 189.174 381.567 208.976 414.281C219.366 431.446 224.39 427.867 228.829 434.656C239.743 451.348 235.265 483.232 241.35 497.134C249.631 516.049 261.195 514.148 261.195 514.148L412.141 474.524C412.141 474.524 405.538 459.762 396.998 422.367C393.876 408.698 387.145 392.702 394.978 371.747C405.902 342.526 394.937 305.023 388.1 269.719C384.893 253.164 376.806 222.374 372.243 211.488C367.434 200.017 365.48 155.269 348.743 156.1C319.169 157.569 334.301 197.138 332.336 217.996C330.373 238.854 198.557 325.529 198.557 325.529Z" fill="#FBE0CC"/>
<path d="M302.589 428.443C302.136 428.496 301.665 428.337 301.335 427.973C301.046 427.654 294.223 420.019 290.829 407.153C288.836 399.599 288.454 391.81 289.694 384.001C291.239 374.279 295.314 364.514 301.808 354.977C302.262 354.31 303.171 354.138 303.838 354.591C304.505 355.045 304.677 355.953 304.223 356.621C297.973 365.799 294.056 375.165 292.58 384.46C291.404 391.864 291.766 399.249 293.654 406.407C296.869 418.593 303.435 425.939 303.501 426.011C304.042 426.61 303.997 427.533 303.399 428.074C303.164 428.286 302.88 428.408 302.589 428.443Z" fill="#D6B4A1"/>
<path d="M363.241 372.951L344.027 164.285C343.718 161.584 342.908 159.309 341.75 157.418C337.352 150.243 327.977 148.391 321.225 149.162L243.016 158.344L241.626 158.537L214.927 161.662L207.365 162.549C198.799 163.552 192.664 171.306 193.668 179.87L194.632 190.363L195.172 195.996L195.635 201.049L196.522 210.655L199.339 240.9L200.265 250.66V250.699L200.96 258.106L201.384 262.581V263.005L202.349 273.19L204.085 291.9L204.972 301.39V301.428L205.088 302.547V302.779L206.671 319.792L206.709 320.1L207.481 328.24L208.253 336.612L208.368 337.769V337.807L213.654 394.863C214.657 403.389 223.03 408.366 231.596 407.362L289.316 398.991H289.355L292.21 398.567L349.545 390.273C358.11 389.269 364.244 381.515 363.241 372.951Z" fill="#6F4975"/>
<path d="M321.746 153.105L207.766 166.481C201.4 167.228 196.827 172.851 197.553 179.04L218.304 384.342C219.837 398.38 227.317 396.957 233.684 396.21L348.171 379.561C354.539 378.813 358.999 370.882 358.273 364.691L339.397 163.734C338.671 157.544 328.114 152.358 321.746 153.105Z" fill="#96B4E0"/>
<path d="M325.768 315.599L238.222 325.873C233.332 326.447 229.82 330.766 230.378 335.52L232.816 354.616C233.994 365.398 239.739 364.305 244.63 363.732L332.566 350.944C337.457 350.37 340.883 344.278 340.325 339.523L339.326 323.762C339.029 315.544 330.66 315.025 325.768 315.599Z" fill="white"/>
<path d="M323.042 319.057L241.94 328.574C237.409 329.106 234.116 332.765 234.583 336.746L236.643 352.737C237.621 361.768 242.948 360.792 247.479 360.261L328.968 348.631C333.499 348.099 336.731 342.954 336.264 338.972L335.502 325.764C335.312 318.874 327.574 318.525 323.042 319.057Z" fill="#004461"/>
<path d="M259.89 343.01C259.818 342.404 259.269 341.972 258.664 342.044L254.345 342.558L257.401 339.167C257.809 338.714 257.773 338.017 257.32 337.608C256.868 337.2 256.169 337.237 255.761 337.689L252.372 341.449L252.039 336.261C252 335.652 251.476 335.191 250.866 335.23C250.258 335.269 249.797 335.794 249.835 336.402L250.176 341.716L245.53 337.855C245.062 337.466 244.366 337.53 243.976 337.999C243.586 338.468 243.651 339.163 244.119 339.553L248.562 343.245L243.416 343.857C242.811 343.929 242.379 344.478 242.451 345.083C242.517 345.644 242.994 346.056 243.546 346.056C243.589 346.056 243.633 346.054 243.677 346.048L248.771 345.443L245.661 348.892C245.253 349.345 245.289 350.043 245.742 350.451C245.953 350.641 246.217 350.734 246.48 350.734C246.782 350.734 247.083 350.611 247.301 350.37L250.504 346.817L250.788 351.247C250.825 351.831 251.311 352.28 251.888 352.28C251.912 352.28 251.936 352.279 251.96 352.278C252.569 352.239 253.03 351.714 252.991 351.106L252.708 346.689L256.344 349.71C256.55 349.881 256.8 349.965 257.048 349.965C257.365 349.965 257.68 349.829 257.898 349.566C258.288 349.097 258.223 348.402 257.755 348.012L253.925 344.83L258.924 344.236C259.53 344.164 259.962 343.615 259.89 343.01Z" fill="white"/>
<path d="M282.784 339.832C282.712 339.227 282.163 338.794 281.558 338.866L277.238 339.38L280.295 335.99C280.703 335.537 280.667 334.839 280.214 334.431C279.762 334.023 279.063 334.059 278.655 334.511L275.266 338.271L274.933 333.083C274.894 332.475 274.37 332.013 273.76 332.052C273.152 332.091 272.69 332.616 272.729 333.224L273.07 338.538L268.424 334.678C267.956 334.289 267.26 334.352 266.87 334.821C266.48 335.29 266.545 335.986 267.013 336.375L271.456 340.067L266.31 340.679C265.705 340.751 265.273 341.3 265.345 341.905C265.411 342.466 265.888 342.879 266.44 342.879C266.483 342.879 266.527 342.876 266.571 342.871L271.664 342.266L268.555 345.714C268.146 346.167 268.183 346.865 268.635 347.273C268.846 347.463 269.111 347.557 269.374 347.557C269.676 347.557 269.976 347.434 270.194 347.192L273.397 343.639L273.682 348.069C273.719 348.653 274.205 349.102 274.782 349.102C274.806 349.102 274.83 349.102 274.854 349.1C275.462 349.061 275.924 348.536 275.885 347.928L275.601 343.511L279.237 346.532C279.444 346.703 279.693 346.787 279.942 346.787C280.259 346.787 280.574 346.651 280.792 346.389C281.181 345.92 281.117 345.224 280.648 344.834L276.819 341.652L281.818 341.058C282.424 340.986 282.856 340.437 282.784 339.832Z" fill="white"/>
<path d="M306.903 336.553C306.831 335.947 306.282 335.515 305.677 335.587L301.357 336.1L304.414 332.71C304.822 332.257 304.786 331.56 304.334 331.151C303.881 330.743 303.183 330.78 302.775 331.232L299.385 334.992L299.052 329.804C299.013 329.195 298.489 328.734 297.88 328.773C297.271 328.812 296.809 329.337 296.849 329.945L297.19 335.259L292.543 331.398C292.075 331.009 291.379 331.073 290.989 331.542C290.599 332.011 290.664 332.706 291.132 333.096L295.576 336.788L290.43 337.4C289.824 337.472 289.392 338.021 289.464 338.626C289.53 339.187 290.007 339.599 290.559 339.599C290.602 339.599 290.646 339.597 290.691 339.591L295.783 338.986L292.674 342.435C292.266 342.888 292.302 343.586 292.754 343.994C292.965 344.184 293.23 344.277 293.493 344.277C293.795 344.277 294.096 344.154 294.313 343.913L297.517 340.36L297.801 344.79C297.838 345.374 298.324 345.823 298.901 345.823C298.925 345.823 298.949 345.822 298.973 345.821C299.581 345.782 300.043 345.257 300.004 344.649L299.721 340.232L303.356 343.253C303.563 343.424 303.813 343.508 304.061 343.508C304.378 343.508 304.693 343.372 304.911 343.109C305.301 342.64 305.236 341.945 304.768 341.555L300.938 338.373L305.937 337.779C306.543 337.707 306.976 337.158 306.903 336.553Z" fill="white"/>
<path d="M331.071 333.047C330.999 332.441 330.45 332.008 329.844 332.081L325.525 332.595L328.582 329.204C328.99 328.752 328.954 328.054 328.501 327.646C328.049 327.238 327.35 327.274 326.942 327.726L323.552 331.486L323.219 326.298C323.18 325.689 322.657 325.228 322.047 325.267C321.439 325.306 320.977 325.831 321.016 326.439L321.357 331.753L316.711 327.892C316.242 327.503 315.546 327.567 315.156 328.036C314.767 328.505 314.831 329.201 315.3 329.59L319.743 333.282L314.597 333.894C313.992 333.966 313.559 334.515 313.631 335.12C313.698 335.681 314.175 336.093 314.726 336.093C314.77 336.093 314.813 336.091 314.858 336.086L319.951 335.48L316.841 338.929C316.433 339.382 316.47 340.08 316.922 340.488C317.133 340.678 317.398 340.772 317.661 340.772C317.963 340.772 318.263 340.649 318.481 340.407L321.684 336.854L321.969 341.284C322.006 341.868 322.491 342.317 323.069 342.317C323.093 342.317 323.117 342.316 323.141 342.315C323.749 342.276 324.211 341.751 324.172 341.143L323.888 336.726L327.524 339.747C327.73 339.918 327.98 340.002 328.229 340.002C328.546 340.002 328.861 339.866 329.079 339.604C329.468 339.135 329.404 338.439 328.935 338.049L325.106 334.868L330.105 334.274C330.711 334.201 331.143 333.652 331.071 333.047Z" fill="white"/>
<path d="M321.701 256.93C320.644 261.964 318.679 266.585 316.017 270.716C312.727 275.827 308.366 280.189 303.332 283.661C302.303 284.37 301.245 285.042 300.163 285.674C289.297 292.043 275.927 294.531 263.473 291.917C260.522 291.297 257.746 290.38 255.152 289.196C251.884 287.707 248.908 285.802 246.238 283.555C244.729 282.282 243.316 280.899 242.009 279.421L242.009 279.419C232.112 268.24 228.095 251.561 231.523 235.236C236.84 209.913 256.218 191.48 285.813 198.76C310.288 204.781 327.018 231.607 321.701 256.93Z" fill="white"/>
<path d="M246.084 274.951C242.791 271.893 240.232 268.324 238.365 264.441C236.054 259.639 234.806 254.353 234.54 248.949C234.487 247.844 234.474 246.735 234.503 245.624C234.776 234.462 239.133 223.118 246.903 214.754C248.744 212.773 250.727 211.058 252.826 209.603C255.469 207.766 258.289 206.34 261.222 205.301C262.883 204.715 264.581 204.251 266.301 203.911L266.302 203.913C279.321 201.334 293.737 205.713 304.417 215.631C320.984 231.016 325.818 254.084 306.554 273.479C290.622 289.52 262.652 290.337 246.084 274.951Z" fill="#004461"/>
<path d="M293.236 245.555L259.135 249.269L257.51 234.355C257.032 229.973 258.29 225.668 261.051 222.232C263.813 218.796 267.747 216.64 272.13 216.163L273.416 216.023C277.798 215.546 282.105 216.803 285.541 219.564C288.978 222.325 291.133 226.259 291.611 230.641L293.236 245.555ZM263.518 243.815L287.78 241.172L286.691 231.177C286.001 224.843 280.286 220.252 273.952 220.942L272.665 221.082C268.422 221.823 265 224.354 263.377 227.838C262.547 229.62 262.195 231.676 262.429 233.82L263.518 243.815Z" fill="white"/>
<path d="M290.376 269.87L267.164 272.399C262.841 272.87 258.955 269.748 258.484 265.426L255.627 239.2C255.478 237.837 256.463 236.612 257.826 236.464L291.756 232.768C293.119 232.619 294.344 233.604 294.492 234.966L297.35 261.192C297.821 265.514 294.698 269.4 290.376 269.87Z" fill="white"/>
<path d="M278.342 248.278C278.22 247.152 277.207 246.339 276.081 246.461C274.955 246.584 274.142 247.596 274.265 248.722C274.326 249.282 274.607 249.764 275.012 250.093L275.873 257.998C275.96 258.798 276.679 259.375 277.479 259.288C278.279 259.201 278.856 258.482 278.769 257.683L277.908 249.777C278.233 249.369 278.403 248.837 278.342 248.278Z" fill="#004461"/>
<path d="M165.005 285.682L197.936 299.674C206.14 305.288 217.345 303.192 222.963 294.991C228.58 286.789 226.485 275.588 218.28 269.969L197.017 255.41C182.418 245.717 169.411 241.405 160.375 254.617C147.618 273.272 157.073 280.25 165.005 285.682Z" fill="#FBE0CC"/>
<path d="M458.957 598.073C461.806 597.717 464.602 597.31 467.344 596.839C446.898 539.501 411.886 441.092 411.239 439.265C409.889 435.561 405.799 433.363 399.472 432.707H399.433C385.851 431.318 361.891 437.105 332.336 450.645C295.681 467.466 258.603 461.602 236.302 460.714H236.263C232.134 460.521 228.508 460.56 225.498 460.907C218.58 461.711 213.465 495.353 210.183 531.666C209.978 533.934 209.375 565.107 208.86 590.572C235.472 589.779 253.217 589.837 265.342 590.086C283.358 590.559 288.43 591.234 315.332 593.785C372.12 599.127 419.724 603.215 458.957 598.073Z" fill="#68A1BF"/>
<path d="M211.328 294.744C211.144 294.744 210.962 294.725 210.782 294.689C210.169 294.578 200.338 292.768 195.775 289.51C193.894 288.167 193.714 285.351 195.267 281.581C196.403 278.824 198.372 275.776 200.535 273.428C202.309 271.501 204.911 269.283 207.226 269.659C212.492 270.517 220.36 275.302 220.221 280.561C220.113 284.589 216.809 291.361 213.794 293.737C212.943 294.407 212.116 294.744 211.328 294.744ZM206.672 271.887C204.538 271.887 199.615 276.994 197.368 282.446C196.306 285.025 196.201 287.022 197.096 287.661C201.29 290.655 211.099 292.437 211.198 292.455L211.235 292.462C211.482 292.515 211.914 292.324 212.387 291.952C214.896 289.976 217.858 283.875 217.948 280.5C218.046 276.832 211.207 272.61 206.861 271.902C206.801 271.892 206.738 271.887 206.672 271.887Z" fill="#D6B4A1"/>
<path d="M166.988 241.351L197.574 259.918C204.888 266.649 216.278 266.181 223.013 258.868C229.749 251.556 229.28 240.17 221.966 233.433L203.009 215.978C189.949 204.293 177.696 198.162 166.859 209.943C151.559 226.577 159.916 234.838 166.988 241.351Z" fill="#FBE0CC"/>
<path d="M211.944 256.984C211.616 256.984 211.302 256.93 211.002 256.822C210.408 256.624 200.941 253.424 196.892 249.546C195.223 247.948 195.448 245.135 197.525 241.627C199.045 239.061 201.431 236.326 203.907 234.313C205.94 232.66 208.833 230.837 211.07 231.541C213.579 232.332 216.525 234.176 218.761 236.353C221.498 239.02 222.779 241.803 222.367 244.192C221.684 248.163 217.444 254.392 214.118 256.311C213.342 256.759 212.614 256.984 211.944 256.984ZM209.98 233.652C207.72 233.652 202.386 237.879 199.482 242.784C198.061 245.183 197.671 247.145 198.464 247.905C202.186 251.47 211.639 254.639 211.734 254.671L211.769 254.683C212.007 254.771 212.461 254.644 212.983 254.343C215.749 252.747 219.555 247.134 220.128 243.807C220.751 240.191 214.588 235.032 210.387 233.709C210.266 233.67 210.13 233.652 209.98 233.652Z" fill="#D6B4A1"/>
<path d="M180.375 329.911L209.63 336.956C217.213 340.476 226.216 337.186 229.74 329.604C233.263 322.022 229.973 313.022 222.389 309.497L202.735 300.366C189.281 294.348 177.895 292.573 172.231 304.785C164.233 322.026 173.043 326.504 180.375 329.911Z" fill="#FBE0CC"/>
<path d="M219.679 331.223C219.65 331.223 219.62 331.222 219.59 331.221C219.04 331.214 210.615 331.071 206.35 328.986C205.29 328.468 203.671 326.907 204.733 322.277C205.823 317.521 209.654 310.605 213.176 310.591C213.19 310.591 213.204 310.591 213.218 310.591C217.77 310.591 225.021 313.528 225.644 317.989C226.119 321.386 224.294 327.536 222.094 329.955C221.328 330.797 220.517 331.223 219.679 331.223ZM213.217 312.863C213.206 312.863 213.196 312.863 213.186 312.863C211.547 312.87 208.044 318.002 206.948 322.784C206.452 324.95 206.609 326.583 207.348 326.944C211.205 328.829 219.549 328.948 219.633 328.949L219.67 328.95C219.755 328.952 220.029 328.849 220.413 328.426C222.158 326.508 223.774 321.021 223.394 318.304C222.98 315.342 216.864 312.863 213.217 312.863Z" fill="#D6B4A1"/>
<path d="M209.385 265.939C196.866 265.939 174.894 247.689 173.907 246.863C173.425 246.46 173.362 245.744 173.764 245.263C174.167 244.781 174.884 244.718 175.365 245.12C175.428 245.173 181.735 250.43 189.346 255.303C199.227 261.63 206.772 264.461 211.168 263.488C211.78 263.352 212.388 263.739 212.523 264.351C212.659 264.964 212.272 265.571 211.659 265.706C210.945 265.864 210.184 265.939 209.385 265.939Z" fill="#D6B4A1"/>
<path d="M207.516 304.143C199.902 304.143 187.709 296.66 187.14 296.308C186.606 295.977 186.441 295.277 186.771 294.744C187.101 294.21 187.801 294.045 188.335 294.375C192.402 296.89 204.079 303.102 209.201 301.672C209.807 301.502 210.433 301.856 210.602 302.46C210.771 303.064 210.418 303.691 209.813 303.86C209.116 304.054 208.342 304.143 207.516 304.143Z" fill="#D6B4A1"/>
<path d="M358.925 191.26C357.406 191.26 355.517 190.927 353.507 189.784C352.123 188.997 350.25 186.718 349.959 176.046C349.805 170.422 350.182 165.025 350.186 164.971C350.231 164.345 350.774 163.874 351.401 163.919C352.026 163.963 352.498 164.507 352.454 165.132C352.45 165.186 352.079 170.485 352.231 175.999C352.502 185.846 354.136 187.528 354.63 187.809C358.305 189.898 361.38 188.597 361.509 188.54C362.082 188.29 362.752 188.547 363.006 189.118C363.26 189.689 363.008 190.356 362.439 190.614C362.341 190.658 360.968 191.26 358.925 191.26Z" fill="#D6B4A1"/>
<path d="M243.273 437.215C243.188 437.225 243.1 437.228 243.011 437.222C230.082 436.426 222.242 431.795 217.941 428.049C213.203 423.922 211.587 419.957 211.521 419.79C211.222 419.04 211.588 418.191 212.337 417.893C213.085 417.594 213.933 417.958 214.233 418.704C214.247 418.74 215.724 422.291 219.996 425.963C223.948 429.361 231.181 433.566 243.19 434.306C243.996 434.356 244.608 435.049 244.559 435.854C244.515 436.571 243.962 437.134 243.273 437.215Z" fill="#D6B4A1"/>
<path d="M214.401 339.806C214.366 339.806 214.331 339.806 214.295 339.806C206.624 339.772 178.774 330.229 177.592 329.823C176.998 329.619 176.683 328.973 176.886 328.38C177.091 327.786 177.737 327.47 178.331 327.674C178.616 327.773 207.005 337.501 214.305 337.534C214.337 337.534 214.369 337.534 214.401 337.534C221.348 337.534 224.679 334.239 224.713 334.206C225.153 333.759 225.873 333.754 226.319 334.195C226.766 334.635 226.771 335.354 226.33 335.802C226.169 335.965 222.287 339.806 214.401 339.806Z" fill="#D6B4A1"/>
<path d="M241.175 501.858C240.758 498.31 243.605 494.142 247.079 493.303C251.612 492.21 255.466 494.899 255.883 498.448C256.371 502.602 253.176 506.964 248.882 507.468C245.333 507.884 241.592 505.407 241.175 501.858Z" fill="#41718C"/>
<path d="M248.477 335.847C241.867 332.967 234.684 338.169 231.23 344.596C217.539 370.078 189.467 430.71 181.401 429.536C176.134 428.768 178.668 421.284 166.888 419.324C157.366 417.739 154.665 426.193 149.582 426.088C142.257 425.935 143.403 423.349 136.964 420.346C127.217 415.8 121.629 428.876 114.229 425.042C106.831 421.21 101.421 410.123 88.5941 417.839C80.1213 422.933 74.4465 435.335 59.5873 485.2C51.7141 511.619 44.5865 569.607 42.105 592.249C64.3526 597.452 88.1163 595.706 102.118 594.977C103.399 594.91 104.676 594.848 105.95 594.795C130.88 593.958 147.329 592.906 198.72 590.909C213.932 568.464 217.872 545.594 224.151 526.514C227.763 515.55 231.247 502.046 215.002 481.325C223.75 445.348 274.226 347.072 248.477 335.847Z" fill="#FBE0CC"/>
<path d="M210.91 512.077L208.854 511.995C209.291 501.016 213.802 481.891 213.993 481.082L215.995 481.557C215.949 481.752 211.339 501.297 210.91 512.077Z" fill="#D6B4A1"/>
<path d="M245.352 359.472C243.507 359.472 241.141 358.991 238.614 357.873C235.425 356.462 233.651 354.615 233.746 352.805C233.975 348.471 239.958 341.85 240.283 341.493C240.686 341.022 241.403 340.853 242.476 340.975C245.635 341.334 252.088 344.534 252.743 345.807C253.51 347.299 251.269 355.934 248.699 358.528C248.107 359.126 246.918 359.472 245.352 359.472ZM241.862 341.82C241.411 341.82 241.089 341.906 240.95 342.069L240.939 342.082C240.878 342.149 234.84 348.805 234.626 352.851C234.552 354.255 236.176 355.831 238.971 357.067C242.65 358.695 246.903 359.088 248.072 357.908C250.571 355.385 252.427 347.124 251.958 346.21C251.586 345.488 245.713 342.23 242.375 341.851C242.191 341.83 242.018 341.82 241.862 341.82Z" fill="#9E7C6B"/>
<path d="M188.527 424.485C188.31 424.485 188.09 424.421 187.899 424.288C187.398 423.94 187.273 423.253 187.621 422.752C187.734 422.589 199.087 406.123 212.14 379.455C212.408 378.907 213.069 378.68 213.617 378.949C214.164 379.217 214.391 379.878 214.123 380.425C200.991 407.256 189.549 423.845 189.435 424.01C189.221 424.319 188.876 424.485 188.527 424.485Z" fill="#D6B4A1"/>
<path d="M215.002 482.427C214.905 482.427 214.805 482.414 214.706 482.387C214.119 482.224 213.775 481.615 213.938 481.028C218.038 466.268 247.989 385.404 248.291 384.589C248.503 384.017 249.137 383.725 249.71 383.937C250.281 384.149 250.573 384.784 250.361 385.356C250.06 386.17 220.141 466.947 216.066 481.619C215.93 482.107 215.486 482.427 215.002 482.427Z" fill="#D6B4A1"/>
</svg>
