<svg width="1222" height="1019" viewBox="0 0 1222 1019" fill="none" xmlns="http://www.w3.org/2000/svg">
<path fill-rule="evenodd" clip-rule="evenodd" d="M450.325 434.911C450.325 430.302 448.545 425.944 445.299 422.676C442.053 419.449 437.651 417.647 433.071 417.647C375.44 417.647 189.963 417.647 132.333 417.647C127.752 417.647 123.35 419.449 120.104 422.676C116.858 425.944 115.035 430.302 115.035 434.911C115.035 476.687 115.035 583.035 115.035 624.81C115.035 629.38 116.858 633.78 120.104 637C123.35 640.27 127.752 642.07 132.333 642.07C189.963 642.07 375.44 642.07 433.071 642.07C437.651 642.07 442.053 640.27 445.299 637C448.545 633.78 450.325 629.38 450.325 624.81C450.325 583.035 450.325 476.687 450.325 434.911Z" fill="#004461"/>
<path fill-rule="evenodd" clip-rule="evenodd" d="M411.288 294.65C411.288 286.729 404.876 280.306 396.938 280.306C352.023 280.306 214.801 280.306 169.885 280.306C161.947 280.306 155.502 286.729 155.502 294.65C155.502 334.978 155.502 446.159 155.502 446.159C155.502 446.159 234.917 506.047 268.604 531.452C277.356 538.068 289.433 538.068 298.185 531.452C331.872 506.047 411.288 446.159 411.288 446.159C411.288 446.159 411.288 334.978 411.288 294.65Z" fill="white"/>
<path fill-rule="evenodd" clip-rule="evenodd" d="M413.39 294.65C413.39 285.57 405.995 278.229 396.937 278.229H169.885C160.793 278.229 153.431 285.57 153.431 294.65C153.431 334.978 153.431 446.159 153.431 446.159C153.431 446.835 153.737 447.414 154.28 447.8C154.28 447.8 233.662 507.738 267.348 533.094C276.847 540.29 289.941 540.29 299.439 533.094C333.126 507.738 412.542 447.8 412.542 447.8C413.085 447.414 413.39 446.835 413.39 446.159V294.65ZM409.218 294.65V445.144C400.737 451.519 328.615 505.951 296.964 529.809C288.924 535.847 277.865 535.847 269.825 529.809L157.57 445.144V294.65C157.57 287.888 163.1 282.334 169.885 282.334H396.937C403.722 282.334 409.218 287.888 409.218 294.65Z" fill="#000045"/>
<path fill-rule="evenodd" clip-rule="evenodd" d="M119.921 421.963C119.921 421.963 227.092 502.802 267.239 533.022C276.779 540.239 289.999 540.239 299.539 533.022C339.637 502.802 446.855 421.963 446.855 421.963C447.727 421.261 447.921 419.958 447.243 419.055C446.565 418.153 445.257 417.953 444.337 418.654C444.337 418.654 337.167 499.494 297.069 529.715C288.981 535.829 277.795 535.829 269.707 529.715C229.61 499.494 122.441 418.654 122.441 418.654C121.521 417.953 120.213 418.153 119.535 419.055C118.857 419.958 119.001 421.261 119.921 421.963Z" fill="white"/>
<path fill-rule="evenodd" clip-rule="evenodd" d="M195.486 333.939H286.158C287.314 333.939 288.247 333.005 288.247 331.849C288.247 330.737 287.314 329.803 286.158 329.803H195.486C194.374 329.803 193.442 330.737 193.442 331.849C193.442 333.005 194.374 333.939 195.486 333.939Z" fill="#004461"/>
<path fill-rule="evenodd" clip-rule="evenodd" d="M195.355 370.418H369.776C370.973 370.418 371.914 369.477 371.914 368.279C371.914 367.167 370.973 366.226 369.776 366.226H195.355C194.243 366.226 193.304 367.167 193.304 368.279C193.304 369.477 194.243 370.418 195.355 370.418Z" fill="#004461"/>
<path fill-rule="evenodd" clip-rule="evenodd" d="M195.355 406.893H369.776C370.973 406.893 371.914 405.952 371.914 404.755C371.914 403.642 370.973 402.701 369.776 402.701H195.355C194.243 402.701 193.304 403.642 193.304 404.755C193.304 405.952 194.243 406.893 195.355 406.893Z" fill="#004461"/>
<path fill-rule="evenodd" clip-rule="evenodd" d="M195.355 443.316H369.776C370.973 443.316 371.914 442.375 371.914 441.178C371.914 440.066 370.973 439.125 369.776 439.125H195.355C194.243 439.125 193.304 440.066 193.304 441.178C193.304 442.375 194.243 443.316 195.355 443.316Z" fill="#004461"/>
<path fill-rule="evenodd" clip-rule="evenodd" d="M423.178 557.039L432.257 573.382C432.815 574.407 434.076 574.75 435.07 574.203C436.064 573.656 436.442 572.37 435.883 571.393L426.805 555.003C426.246 554.025 424.985 553.634 423.992 554.181C422.997 554.775 422.619 556.014 423.178 557.039Z" fill="#000045"/>
<path fill-rule="evenodd" clip-rule="evenodd" d="M145.373 268.128L88.6863 211.441C87.8773 210.632 86.5662 210.632 85.7572 211.441C84.9492 212.249 84.9492 213.561 85.7582 214.37L142.445 271.056C143.254 271.865 144.566 271.865 145.374 271.057C146.182 270.249 146.182 268.937 145.373 268.128Z" fill="#004461"/>
<path fill-rule="evenodd" clip-rule="evenodd" d="M169.847 243.065L158.636 201.223C158.341 200.122 157.204 199.466 156.101 199.761C154.997 200.057 154.341 201.193 154.636 202.295L165.847 244.137C166.144 245.242 167.279 245.895 168.383 245.599C169.486 245.303 170.144 244.17 169.847 243.065Z" fill="#004461"/>
<path fill-rule="evenodd" clip-rule="evenodd" d="M118.452 291.53L73.2355 279.415C72.1345 279.119 70.9985 279.775 70.7025 280.879C70.4075 281.983 71.0626 283.119 72.1646 283.415L117.381 295.53C118.482 295.825 119.622 295.17 119.918 294.066C120.214 292.962 119.554 291.825 118.452 291.53Z" fill="#004461"/>
<path fill-rule="evenodd" clip-rule="evenodd" d="M741.43 382.611C745.61 383.144 749.79 383.5 753.93 383.723C755.08 383.811 756.06 382.922 756.11 381.766C756.15 380.61 755.31 379.676 754.15 379.588C750.1 379.41 746.06 379.009 741.92 378.52C740.81 378.342 739.74 379.143 739.61 380.299C739.48 381.411 740.28 382.477 741.43 382.611ZM779.05 383.145C783.28 382.7 787.46 382.122 791.5 381.366C792.66 381.144 793.42 380.077 793.19 378.965C792.97 377.853 791.9 377.097 790.79 377.275C786.79 378.031 782.74 378.609 778.65 379.009C777.5 379.098 776.7 380.121 776.78 381.277C776.92 382.389 777.94 383.234 779.05 383.145ZM704.79 373.895C708.79 375.318 712.8 376.563 716.8 377.675C717.87 377.942 719.02 377.319 719.33 376.207C719.64 375.096 718.98 373.984 717.86 373.673C714 372.606 710.08 371.36 706.17 369.982C705.1 369.626 703.9 370.204 703.55 371.271C703.15 372.339 703.72 373.54 704.79 373.895ZM815.83 374.963C819.83 373.584 823.74 372.027 827.57 370.382C828.59 369.893 829.08 368.693 828.64 367.625C828.15 366.603 826.95 366.113 825.88 366.558C822.19 368.203 818.36 369.715 814.49 371.049C813.38 371.449 812.85 372.606 813.21 373.717C813.61 374.784 814.76 375.363 815.83 374.963ZM670.64 358.198C674.33 360.332 678.02 362.289 681.71 364.112C682.73 364.646 683.94 364.246 684.47 363.223C684.96 362.2 684.56 360.955 683.54 360.421C679.93 358.642 676.33 356.686 672.69 354.64C671.71 354.062 670.42 354.418 669.88 355.397C669.31 356.375 669.66 357.664 670.64 358.198ZM849.71 358.465C853.27 356.153 856.69 353.707 859.99 351.172C860.87 350.505 861.05 349.216 860.38 348.282C859.67 347.392 858.38 347.214 857.45 347.926C854.25 350.372 850.91 352.729 847.45 354.952C846.51 355.575 846.2 356.864 846.82 357.842C847.44 358.776 848.73 359.088 849.71 358.465ZM639.51 337.52C642.4 339.432 645.29 341.478 648.18 343.613C648.67 343.924 649.12 344.279 649.61 344.591C650.54 345.258 651.83 345.08 652.5 344.146C653.16 343.212 652.94 341.923 652.01 341.256C651.56 340.9 651.12 340.589 650.67 340.233C647.69 338.054 644.72 336.008 641.78 334.096C640.8 333.429 639.51 333.697 638.89 334.675C638.27 335.609 638.53 336.898 639.51 337.52ZM878.57 334.23C881.46 331.117 884.18 327.915 886.75 324.624C887.42 323.735 887.24 322.401 886.36 321.734C885.47 321.022 884.13 321.201 883.46 322.09C880.97 325.292 878.35 328.404 875.55 331.428C874.79 332.273 874.84 333.563 875.68 334.363C876.48 335.119 877.82 335.075 878.57 334.23ZM465.731 332.584C465.731 332.584 469.466 330.005 476.269 326.537C477.247 326.048 477.692 324.803 477.158 323.78C476.625 322.757 475.381 322.356 474.358 322.846C467.288 326.492 463.373 329.205 463.373 329.205C462.44 329.827 462.173 331.117 462.84 332.051C463.507 333.029 464.797 333.251 465.731 332.584ZM606.92 320.4C610.65 321.867 614.39 323.558 618.17 325.381C619.19 325.87 620.43 325.425 620.92 324.402C621.41 323.379 621.01 322.134 619.99 321.645C616.12 319.778 612.25 318.088 608.47 316.576C607.41 316.131 606.21 316.665 605.8 317.732C605.36 318.755 605.89 320 606.92 320.4ZM498.904 317.199C502.595 315.998 506.508 314.842 510.688 313.819C511.8 313.552 512.466 312.396 512.2 311.284C511.933 310.172 510.778 309.506 509.711 309.773C505.397 310.84 501.394 312.04 497.614 313.241C496.502 313.596 495.924 314.797 496.28 315.864C496.636 316.976 497.793 317.554 498.904 317.199ZM571.521 310.751C575.479 311.329 579.48 312.084 583.57 313.063C584.68 313.329 585.8 312.618 586.06 311.506C586.28 310.395 585.62 309.283 584.51 309.016C580.33 308.038 576.19 307.282 572.143 306.66C570.987 306.482 569.964 307.282 569.786 308.393C569.608 309.55 570.409 310.573 571.521 310.751ZM534.835 309.728C538.793 309.372 542.883 309.15 547.107 309.106C548.219 309.061 549.153 308.127 549.153 307.015C549.109 305.859 548.175 304.925 547.064 304.97C542.75 305.014 538.525 305.237 534.479 305.593C533.323 305.681 532.478 306.704 532.612 307.86C532.7 308.972 533.723 309.816 534.835 309.728Z" fill="#A3C9D9"/>
<path fill-rule="evenodd" clip-rule="evenodd" d="M481.319 979.32C485.366 979.55 489.545 979.68 493.814 979.72C494.97 979.72 495.905 978.83 495.905 977.68C495.905 976.52 494.971 975.59 493.859 975.59C489.634 975.54 485.544 975.41 481.542 975.19C480.385 975.14 479.406 976.03 479.362 977.14C479.273 978.3 480.163 979.28 481.319 979.32ZM518.806 978.88C522.897 978.57 527.033 978.17 531.257 977.68C532.413 977.54 533.213 976.52 533.079 975.37C532.946 974.25 531.924 973.41 530.767 973.54C526.632 974.03 522.54 974.43 518.493 974.74C517.337 974.83 516.494 975.81 516.583 976.97C516.672 978.08 517.694 978.97 518.806 978.88ZM444.055 974.52C448.057 975.36 452.193 976.12 456.417 976.79C457.529 976.97 458.596 976.17 458.774 975.05C458.952 973.9 458.151 972.87 457.039 972.7C452.859 972.03 448.856 971.32 444.899 970.47C443.787 970.25 442.675 970.96 442.453 972.07C442.231 973.23 442.943 974.3 444.055 974.52ZM555.98 973.94C559.983 973.19 564.074 972.34 568.209 971.41C569.321 971.18 570.032 970.07 569.765 968.96C569.543 967.85 568.431 967.14 567.32 967.36C563.229 968.29 559.182 969.09 555.18 969.85C554.068 970.07 553.312 971.14 553.535 972.25C553.757 973.41 554.824 974.12 555.98 973.94ZM408.035 963.8C411.86 965.32 415.774 966.74 419.865 968.07C420.932 968.43 422.087 967.85 422.442 966.74C422.798 965.67 422.221 964.52 421.154 964.16C417.151 962.83 413.283 961.45 409.592 959.94C408.525 959.53 407.323 960.07 406.879 961.14C406.478 962.2 406.968 963.4 408.035 963.8ZM592.4 965.45C596.36 964.38 600.36 963.31 604.41 962.2C605.52 961.89 606.18 960.78 605.87 959.67C605.56 958.56 604.41 957.89 603.34 958.2C599.29 959.31 595.29 960.38 591.33 961.4C590.22 961.71 589.55 962.87 589.86 963.94C590.18 965.05 591.29 965.72 592.4 965.45ZM628.37 955.49C632.29 954.38 636.29 953.22 640.29 952.06C641.4 951.71 642.03 950.6 641.72 949.49C641.4 948.37 640.25 947.75 639.14 948.06C635.13 949.22 631.18 950.37 627.22 951.53C626.11 951.84 625.48 952.95 625.8 954.06C626.11 955.18 627.26 955.8 628.37 955.49ZM374.507 946.86C377.931 949.04 381.532 951.13 385.312 953.22C386.334 953.75 387.58 953.35 388.113 952.38C388.692 951.35 388.291 950.11 387.313 949.57C383.577 947.53 380.065 945.48 376.686 943.35C375.707 942.77 374.418 943.04 373.84 944.02C373.218 944.99 373.529 946.28 374.507 946.86ZM664.17 945.04C668.08 943.88 672.09 942.68 676.04 941.48C677.16 941.17 677.78 940.01 677.47 938.9C677.11 937.83 675.96 937.21 674.89 937.52C670.89 938.72 666.93 939.88 662.97 941.08C661.86 941.39 661.24 942.55 661.59 943.61C661.9 944.73 663.06 945.35 664.17 945.04ZM699.88 934.41C703.84 933.21 707.8 932.05 711.8 930.85C712.86 930.54 713.49 929.38 713.18 928.27C712.86 927.21 711.71 926.58 710.6 926.89C706.64 928.1 702.64 929.25 698.68 930.45C697.61 930.76 696.99 931.92 697.3 932.99C697.61 934.1 698.77 934.72 699.88 934.41ZM344.669 923.92C347.559 926.63 350.671 929.43 354.095 932.23C354.985 932.94 356.319 932.81 357.031 931.92C357.742 931.03 357.608 929.74 356.763 929.03C353.384 926.27 350.315 923.56 347.514 920.94C346.669 920.14 345.38 920.18 344.58 921.03C343.779 921.83 343.824 923.16 344.669 923.92ZM735.63 923.87C739.59 922.72 743.55 921.56 747.55 920.4C748.62 920.09 749.28 918.94 748.97 917.87C748.66 916.76 747.5 916.13 746.39 916.44C742.39 917.6 738.43 918.71 734.48 919.87C733.36 920.23 732.74 921.38 733.05 922.45C733.36 923.56 734.52 924.18 735.63 923.87ZM771.43 913.64C775.43 912.53 779.39 911.46 783.39 910.35C784.5 910.04 785.17 908.93 784.86 907.82C784.55 906.71 783.39 906.08 782.32 906.35C778.32 907.46 774.32 908.57 770.32 909.69C769.2 909.95 768.58 911.11 768.89 912.22C769.21 913.33 770.32 913.96 771.43 913.64ZM320.256 895.14C320.256 895.14 322.613 899.19 327.593 905.51C328.305 906.4 329.638 906.53 330.527 905.82C331.417 905.11 331.55 903.82 330.838 902.93C326.08 896.88 323.814 893.05 323.814 893.05C323.236 892.08 321.99 891.72 321.012 892.3C319.989 892.88 319.678 894.17 320.256 895.14ZM807.4 903.99C811.41 902.97 815.41 901.95 819.41 900.93C820.52 900.66 821.19 899.55 820.92 898.44C820.65 897.32 819.5 896.66 818.39 896.92C814.39 897.9 810.38 898.92 806.34 899.99C805.22 900.26 804.56 901.42 804.87 902.53C805.13 903.59 806.29 904.26 807.4 903.99ZM843.51 895.14C847.56 894.21 851.6 893.28 855.61 892.39C856.76 892.17 857.43 891.05 857.21 889.94C856.94 888.83 855.87 888.12 854.72 888.34C850.72 889.23 846.67 890.16 842.58 891.1C841.47 891.36 840.8 892.48 841.07 893.59C841.29 894.7 842.4 895.37 843.51 895.14ZM1063.27 885.94C1067.19 887.23 1071.01 888.7 1074.75 890.25C1075.81 890.7 1077.01 890.21 1077.46 889.19C1077.9 888.12 1077.41 886.92 1076.35 886.47C1072.57 884.83 1068.61 883.36 1064.61 882.03C1063.49 881.63 1062.34 882.25 1061.98 883.32C1061.63 884.38 1062.21 885.58 1063.27 885.94ZM879.89 887.36C883.98 886.56 888.02 885.81 892.07 885.09C893.23 884.87 893.94 883.81 893.76 882.69C893.54 881.54 892.47 880.83 891.36 881C887.27 881.76 883.22 882.52 879.13 883.32C877.97 883.54 877.26 884.61 877.48 885.72C877.71 886.83 878.78 887.58 879.89 887.36ZM916.53 881.09C920.66 880.47 924.76 879.94 928.8 879.4C929.96 879.27 930.76 878.2 930.58 877.09C930.45 875.93 929.42 875.13 928.27 875.31C924.18 875.8 920.08 876.38 915.95 877C914.79 877.14 914.04 878.2 914.17 879.31C914.35 880.47 915.42 881.27 916.53 881.09ZM1027.34 877.8C1031.48 878.38 1035.53 879.05 1039.53 879.8C1040.64 880.03 1041.71 879.27 1041.93 878.16C1042.15 877.05 1041.39 875.93 1040.28 875.71C1036.24 874.96 1032.1 874.29 1027.92 873.71C1026.81 873.53 1025.74 874.33 1025.61 875.49C1025.43 876.6 1026.23 877.67 1027.34 877.8ZM953.44 876.82C957.57 876.47 961.71 876.2 965.75 875.98C966.91 875.89 967.8 874.91 967.71 873.8C967.67 872.64 966.69 871.76 965.53 871.84C961.44 872.07 957.26 872.33 953.08 872.69C951.92 872.78 951.08 873.8 951.17 874.91C951.3 876.07 952.28 876.91 953.44 876.82ZM990.48 875.36C994.61 875.36 998.75 875.49 1002.8 875.67C1003.95 875.71 1004.93 874.82 1004.97 873.67C1005.02 872.56 1004.13 871.58 1002.97 871.53C998.88 871.35 994.7 871.22 990.48 871.22C989.37 871.18 988.43 872.11 988.43 873.27C988.39 874.38 989.32 875.31 990.48 875.36Z" fill="#A3C9D9"/>
<path fill-rule="evenodd" clip-rule="evenodd" d="M453.496 878.98C447.048 878.98 441.801 884.23 441.801 890.68C441.801 897.17 447.048 902.41 453.496 902.41C459.989 902.41 465.237 897.17 465.237 890.68C465.237 884.23 459.989 878.98 453.496 878.98ZM453.496 883.12C457.721 883.12 461.101 886.5 461.101 890.68C461.101 894.9 457.721 898.28 453.496 898.28C449.316 898.28 445.937 894.9 445.937 890.68C445.937 886.5 449.316 883.12 453.496 883.12Z" fill="#A3C9D9"/>
<path fill-rule="evenodd" clip-rule="evenodd" d="M975.37 559.541C970.3 559.541 966.25 563.643 966.25 568.657C966.25 573.671 970.3 577.773 975.37 577.773C980.38 577.773 984.48 573.671 984.48 568.657C984.48 563.643 980.38 559.541 975.37 559.541ZM975.37 563.694C978.1 563.694 980.33 565.922 980.33 568.657C980.33 571.392 978.1 573.621 975.37 573.621C972.58 573.621 970.35 571.392 970.35 568.657C970.35 565.922 972.58 563.694 975.37 563.694Z" fill="#A3C9D9"/>
<path fill-rule="evenodd" clip-rule="evenodd" d="M910.07 469.377L964.861 444.03C965.881 443.541 966.321 442.296 965.881 441.273C965.391 440.206 964.141 439.761 963.121 440.251L908.34 465.642C907.31 466.131 906.871 467.331 907.361 468.398C907.801 469.421 909.05 469.866 910.07 469.377Z" fill="#004461"/>
<path fill-rule="evenodd" clip-rule="evenodd" d="M251.932 774.64C251.237 774.25 250.348 774.29 249.691 774.79C249.035 775.29 248.765 776.14 248.958 776.91L275.302 886.31C275.457 886.93 275.92 887.47 276.499 887.7C277.117 887.97 277.813 887.93 278.354 887.59L325.364 860.47L370.753 843.55C371.487 843.28 372.028 842.58 372.067 841.77C372.144 840.96 371.72 840.19 371.024 839.8L251.932 774.64ZM254.057 780.51C254.057 780.51 344.796 830.18 365.037 841.27L323.742 856.64C323.626 856.68 323.549 856.72 323.433 856.8L278.702 882.64L254.057 780.51Z" fill="#004461"/>
<path fill-rule="evenodd" clip-rule="evenodd" d="M941.9 223.066C942.1 222.254 941.8 221.442 941.15 220.922C940.5 220.434 939.63 220.369 938.91 220.759L838.72 275.581C838.04 275.971 837.62 276.751 837.65 277.563C837.72 278.343 838.24 279.058 839.02 279.351L877.17 293.551L916.68 316.364C917.24 316.689 917.92 316.754 918.54 316.494C919.12 316.234 919.58 315.714 919.71 315.064L941.9 223.066ZM936.8 226.641L916.33 311.392L879.09 289.88C878.99 289.815 878.89 289.75 878.76 289.717L844.7 277.043L936.8 226.641Z" fill="#004461"/>
<path fill-rule="evenodd" clip-rule="evenodd" d="M324.977 856.95L254.287 777.11C253.553 776.26 252.239 776.14 251.389 776.91C250.54 777.69 250.424 779 251.196 779.85L321.887 859.69C322.621 860.54 323.934 860.62 324.784 859.85C325.672 859.12 325.749 857.8 324.977 856.95Z" fill="#004461"/>
<path fill-rule="evenodd" clip-rule="evenodd" d="M880.48 292.805L939.92 225.634C940.7 224.79 940.6 223.49 939.76 222.71C938.91 221.962 937.58 222.06 936.83 222.905L877.36 290.075C876.62 290.92 876.68 292.252 877.56 293C878.4 293.747 879.7 293.682 880.48 292.805Z" fill="#004461"/>
<path fill-rule="evenodd" clip-rule="evenodd" d="M320.808 858.77L308.717 883.49L299.755 872.64C299.021 871.75 297.707 871.63 296.819 872.33C295.93 873.06 295.815 874.37 296.549 875.26L307.558 888.59C308.021 889.13 308.717 889.4 309.412 889.32C310.107 889.25 310.725 888.82 311.034 888.2L324.515 860.58C325.017 859.58 324.593 858.34 323.588 857.84C322.546 857.34 321.31 857.76 320.808 858.77Z" fill="#004461"/>
<path fill-rule="evenodd" clip-rule="evenodd" d="M877.69 293.519L889.06 316.722C889.39 317.339 890.01 317.794 890.69 317.859C891.4 317.957 892.09 317.664 892.54 317.112L901.8 305.9C902.52 305.023 902.39 303.723 901.51 303.008C900.63 302.261 899.33 302.391 898.62 303.268L891.37 312.01L881.43 291.7C880.91 290.66 879.67 290.237 878.66 290.725C877.62 291.245 877.2 292.479 877.69 293.519Z" fill="#004461"/>
<path fill-rule="evenodd" clip-rule="evenodd" d="M1081.56 649.7C1079.82 643.21 1073.17 639.38 1066.67 641.12C1042.33 647.64 986.601 662.57 962.241 669.1C955.761 670.84 951.911 677.49 953.651 683.98C958.031 700.33 965.921 729.78 970.301 746.13C972.031 752.6 978.701 756.45 985.181 754.72C1009.54 748.19 1065.27 733.26 1089.61 726.73C1096.11 724.99 1099.94 718.33 1098.21 711.86C1093.83 695.5 1085.94 666.06 1081.56 649.7Z" fill="#004461"/>
<path fill-rule="evenodd" clip-rule="evenodd" d="M953.43 675.61C953.43 675.61 998.71 693.93 1018.05 701.74C1023.98 704.15 1030.8 702.32 1034.73 697.27C1047.53 680.89 1077.43 642.59 1077.43 642.59C1078.14 641.7 1077.97 640.4 1077.07 639.7C1076.17 639 1074.86 639.16 1074.15 640.05L1031.48 694.72C1028.68 698.32 1023.82 699.62 1019.6 697.9L954.98 671.78C953.93 671.36 952.72 671.87 952.29 672.92C951.86 673.98 952.37 675.2 953.43 675.61Z" fill="white"/>
<path fill-rule="evenodd" clip-rule="evenodd" d="M587.03 415.446C587.03 415.446 592.49 446.885 598.68 460.848C598.68 460.848 588.59 491.753 609.88 485.35C609.88 485.35 627.17 534.62 673.28 511.542L681.44 535.91L769.29 520.213L749.66 472.054L705.25 393.835L587.03 415.446Z" fill="white"/>
<path fill-rule="evenodd" clip-rule="evenodd" d="M586.62 413.4C585.52 413.623 584.78 414.69 584.97 415.802C584.97 415.802 590.38 446.529 596.48 460.981C595.84 463.16 594.14 469.608 594.23 475.522C594.32 480.502 595.84 484.994 599.55 487.084C601.67 488.24 604.6 488.729 608.64 487.84C611.12 493.665 620.34 512.297 638.64 518.033C647.54 520.835 658.6 520.657 672.04 514.431L679.47 536.577C679.79 537.555 680.8 538.133 681.81 537.955L769.66 522.213C770.3 522.124 770.81 521.725 771.13 521.191C771.4 520.658 771.45 519.99 771.22 519.412L751.58 471.253C751.54 471.209 751.49 471.12 751.45 471.031L707.04 392.811C706.63 392.055 705.75 391.656 704.88 391.789L586.62 413.4ZM589.42 417.091L704.19 396.146C704.19 396.146 745.89 469.653 747.78 472.943L766.4 518.612L682.82 533.553L675.25 510.874C675.07 510.296 674.61 509.852 674.06 509.629C673.5 509.407 672.86 509.407 672.36 509.674C659.15 516.299 648.41 516.789 639.88 514.076C619.88 507.806 611.85 484.682 611.85 484.682C611.48 483.615 610.34 483.038 609.28 483.393C605.75 484.416 603.27 484.416 601.57 483.438C599.05 482.059 598.45 478.813 598.36 475.478C598.27 468.852 600.66 461.47 600.66 461.47C600.84 461.026 600.79 460.492 600.61 460.002C595.38 448.307 590.75 424.206 589.42 417.091Z" fill="#000045"/>
<path fill-rule="evenodd" clip-rule="evenodd" d="M701.64 419.602C701.64 419.602 690.8 425.265 680.76 437.694C680.05 438.581 680.16 439.884 681.05 440.6C681.97 441.327 683.27 441.184 683.97 440.291C693.38 428.617 703.59 423.276 703.59 423.276C704.59 422.744 705.01 421.495 704.46 420.48C703.91 419.465 702.69 419.077 701.64 419.602Z" fill="#000045"/>
<path fill-rule="evenodd" clip-rule="evenodd" d="M701.41 435.441C701.41 435.441 694.77 431.344 689.8 429.747C688.68 429.394 687.52 429.995 687.18 431.084C686.83 432.172 687.46 433.343 688.53 433.689C693.13 435.162 699.22 438.96 699.22 438.96C700.21 439.564 701.48 439.261 702.1 438.293C702.67 437.314 702.4 436.045 701.41 435.441Z" fill="#000045"/>
<path fill-rule="evenodd" clip-rule="evenodd" d="M672.22 420.515C672.22 420.515 674.13 429.231 673.73 444.306C673.73 444.662 673.46 445.017 673.11 445.195C672.75 445.373 672.35 445.284 672.04 445.017C669.1 442.216 662.48 435.235 655.9 423.362C655.9 423.362 611.25 429.765 587.59 417.669L589.11 425.14C589.11 425.14 569.851 415.046 574.297 391.878L565.36 401.305C565.36 401.305 572.474 314.681 655.9 297.872C722.95 284.398 750.75 325.665 750.75 325.665C750.75 325.665 803.26 350.967 786.85 404.151C772.8 449.731 766.18 456.668 754.57 482.726L743.45 484.86L706.64 447.819C706.64 447.819 721.89 435.857 710.59 417.669C704.41 407.753 685.73 403.751 672.22 420.515Z" fill="#000045"/>
<path fill-rule="evenodd" clip-rule="evenodd" d="M605.95 433.821C605.95 433.821 609.7 429.238 617.76 426.592C618.82 426.243 619.42 425.064 619.06 423.965C618.7 422.91 617.549 422.283 616.439 422.679C607.059 425.772 602.75 431.221 602.75 431.221C602.03 432.136 602.179 433.421 603.069 434.146C603.949 434.871 605.23 434.692 605.95 433.821Z" fill="#000045"/>
<path fill-rule="evenodd" clip-rule="evenodd" d="M649.62 473.542C649.62 473.542 647.89 489.053 631 489.949C629.9 490.056 629.02 491.052 629.06 492.127C629.11 493.277 630.1 494.193 631.27 494.075C651.75 492.963 653.75 474.009 653.75 474.009C653.83 472.837 653.03 471.811 651.89 471.692C650.76 471.574 649.71 472.444 649.62 473.542Z" fill="#000045"/>
<path d="M617.2 451.371C620.41 450.936 622.66 447.982 622.23 444.773C621.79 441.563 618.84 439.313 615.63 439.747C612.42 440.182 610.17 443.136 610.6 446.345C611.04 449.555 613.99 451.805 617.2 451.371Z" fill="#000045"/>
<path fill-rule="evenodd" clip-rule="evenodd" d="M649.5 1016.94L627.57 733.41V601.789L773.65 582.223L866.5 621.49C883.27 623.18 937.61 833.91 956.68 1016.94H649.5Z" fill="white"/>
<path fill-rule="evenodd" clip-rule="evenodd" d="M647.411 1017.08C647.501 1018.14 648.43 1018.99 649.5 1018.99H956.681C957.261 1018.99 957.84 1018.77 958.24 1018.32C958.64 1017.88 958.82 1017.3 958.771 1016.72C943.48 870.07 905.541 705.71 882.421 644.97C878.241 634.03 874.51 626.42 871.48 622.69C869.93 620.73 868.37 619.76 867.08 619.49C862.01 617.35 774.45 580.311 774.45 580.311C774.14 580.178 773.741 580.134 773.391 580.178L627.311 599.744C626.291 599.878 625.48 600.767 625.48 601.79V733.42C625.48 733.46 625.491 733.5 625.531 733.55L647.411 1017.08ZM651.411 1014.85C649.501 990.35 630.021 738.44 629.661 733.33C629.661 729.95 629.661 619.18 629.661 603.61C645.721 601.434 764.23 585.559 773.391 584.359C780.811 587.516 865.661 623.36 865.661 623.36C865.881 623.45 866.061 623.49 866.281 623.53C866.591 623.58 866.9 623.85 867.26 624.2C867.971 624.82 868.68 625.76 869.48 626.91C872.1 630.87 875.131 637.5 878.551 646.44C901.501 706.69 938.981 869.22 954.411 1014.85H651.411Z" fill="#000045"/>
<path fill-rule="evenodd" clip-rule="evenodd" d="M637.89 568.571C637.89 568.571 636.34 547.047 654.75 534.507C673.2 522.012 786.911 489.862 838.311 509.25C857.561 516.498 861.92 535.13 869.13 562.211C872.91 576.486 870.46 580.977 881.58 601.299C892.65 621.62 875 639.5 851.87 639.41C828.75 639.27 769.3 635.9 710.46 613.75C651.63 591.56 639.051 602.41 625.931 609.17C625.931 609.17 616.37 580.888 637.89 568.571Z" fill="#004461"/>
<path fill-rule="evenodd" clip-rule="evenodd" d="M646.78 569.392C646.78 569.392 663.67 565.615 676.89 568.646C677.98 568.895 679.08 568.198 679.33 567.105C679.62 565.962 678.93 564.869 677.78 564.62C663.82 561.39 645.88 565.317 645.88 565.317C644.79 565.566 644.09 566.709 644.34 567.802C644.59 568.945 645.68 569.64 646.78 569.392Z" fill="#000045"/>
<path fill-rule="evenodd" clip-rule="evenodd" d="M865.77 583.405C865.77 583.405 843.86 595.281 791.43 583.255C790.34 582.957 789.2 583.654 788.95 584.797C788.7 585.89 789.39 587.033 790.49 587.281C845 599.754 867.76 587.033 867.76 587.033C868.75 586.486 869.1 585.243 868.55 584.249C868.01 583.255 866.77 582.858 865.77 583.405Z" fill="#000045"/>
<path fill-rule="evenodd" clip-rule="evenodd" d="M55.7322 1018.98H1135.46C1136.6 1018.98 1137.53 1018.05 1137.53 1016.94C1137.53 1015.78 1136.6 1014.85 1135.46 1014.85H55.7322C54.5942 1014.85 53.6592 1015.78 53.6592 1016.94C53.6592 1018.05 54.5942 1018.98 55.7322 1018.98Z" fill="#000045"/>
<path fill-rule="evenodd" clip-rule="evenodd" d="M458.672 608.74C458.672 608.74 450.896 591.98 449.267 581.922C447.637 571.817 441.351 560.782 436.694 556.125C432.224 551.655 424.773 556.125 424.773 556.125C424.773 556.125 402.096 525.393 392.597 512.495C390.315 509.422 385.939 508.77 382.866 511.005C379.7 513.333 378.861 517.711 380.863 521.063C388.36 533.589 405.217 561.574 405.217 561.574C405.217 561.574 395.252 565.066 392.271 573.54C392.271 573.54 382.167 578.849 381.655 588.348C381.655 588.348 374.95 594.913 377.278 605.06C379.606 615.21 392.272 623.92 399.396 628.16C406.52 632.44 413.225 640.78 413.225 640.78L434.97 634.26L458.672 608.74Z" fill="white"/>
<path fill-rule="evenodd" clip-rule="evenodd" d="M460.164 610.14C460.769 609.53 460.909 608.6 460.536 607.86C460.536 607.86 452.9 591.467 451.316 581.595C449.64 571.072 443.028 559.524 438.138 554.635C435.857 552.353 432.97 551.84 430.363 552.12C428.407 552.306 426.637 552.958 425.426 553.47L394.228 511.284C391.295 507.279 385.661 506.394 381.656 509.374C377.605 512.307 376.534 517.849 379.095 522.133L402.239 560.641C398.979 562.271 393.112 565.95 390.598 572.096C388.223 573.586 380.539 578.941 379.608 587.462C377.932 589.418 373.135 596.076 375.277 605.53C376.302 609.95 379.05 614.1 382.542 617.77C387.478 623.04 393.949 627.32 398.326 629.97C405.218 634.07 411.644 642.08 411.644 642.08C412.157 642.73 413.041 643.01 413.833 642.78L435.577 636.26C435.903 636.17 436.229 635.93 436.509 635.7L460.164 610.14ZM456.206 608.32L433.855 632.44L413.973 638.4C411.831 635.98 406.29 629.88 400.469 626.39C396.325 623.92 390.224 619.87 385.521 614.93C382.588 611.81 380.166 608.32 379.328 604.6C377.279 595.657 383.1 589.79 383.1 589.79C383.473 589.418 383.66 588.952 383.706 588.44C384.172 580.012 393.252 575.355 393.252 575.355C393.717 575.123 394.089 574.704 394.228 574.191C396.929 566.601 405.869 563.528 405.869 563.528C406.475 563.295 406.942 562.83 407.128 562.271C407.361 561.666 407.314 561.014 406.988 560.501L382.635 519.991C381.145 517.57 381.797 514.404 384.079 512.681C386.267 511.097 389.34 511.563 390.923 513.705L423.098 557.335C423.75 558.219 424.915 558.453 425.846 557.894C425.846 557.894 428.127 556.497 430.781 556.218C432.271 556.078 433.901 556.264 435.205 557.567C439.675 562.038 445.682 572.608 447.218 582.246C448.615 590.814 454.343 604.18 456.206 608.32Z" fill="#000045"/>
<path fill-rule="evenodd" clip-rule="evenodd" d="M481.94 626.56C488.121 626.69 492.123 628.56 496.703 632.92C509.466 645.15 535.08 672.49 576.657 728.66C576.657 728.66 604.85 632.65 625.35 610.1C645.85 587.603 726.34 620.11 706.33 707.89C686.36 795.71 653.45 876.69 598.18 877.98C542.863 879.27 504.13 827.78 463.708 770.81C423.242 713.85 416.839 679.87 420.885 668.18C420.885 668.18 421.02 667.69 421.42 666.85C420.309 664.58 416.483 658.49 413.326 652.53C410.435 647.01 411.415 640.25 415.728 635.76C423.11 628.16 436.717 616.33 456.505 608.01C460.685 606.28 465.531 607.44 468.466 610.9C473.891 617.17 481.94 626.56 481.94 626.56Z" fill="white"/>
<path fill-rule="evenodd" clip-rule="evenodd" d="M482.918 624.51C480.961 622.24 474.602 614.77 470.022 609.53C466.509 605.44 460.729 604.06 455.704 606.1C435.604 614.55 421.73 626.6 414.215 634.34C409.279 639.45 408.168 647.15 411.503 653.46C414.305 658.84 417.684 664.27 419.151 666.93C419.018 667.29 418.929 667.47 418.929 667.51C417.239 672.45 417.194 681.08 420.574 693.53C425.465 711.45 437.56 737.55 462.018 772.01C482.295 800.65 502.217 827.86 523.962 847.79C546.018 867.97 570.031 880.69 598.22 880.07C620.95 879.54 640.07 866.02 656.03 844.05C679.51 811.86 696.32 761.34 708.37 708.38C722.69 645.37 686.32 610.24 656.17 602.72C642.69 599.343 630.37 601.522 623.79 608.73C617.57 615.57 610.54 629.18 603.87 644.83C591.2 674.63 579.5 712.03 575.856 724.12C535.612 670.05 510.712 643.46 498.127 631.45C493.369 626.91 489.143 624.82 482.918 624.51ZM480.383 627.89C480.784 628.34 481.318 628.6 481.896 628.6C487.499 628.74 491.1 630.47 495.28 634.43C507.998 646.61 533.522 673.92 574.967 729.9C575.456 730.52 576.212 730.84 577.013 730.7C577.769 730.57 578.39 729.99 578.61 729.23C578.61 729.23 592.4 682.32 607.7 646.48C614.14 631.32 620.81 618.15 626.86 611.53C632.6 605.21 643.4 603.79 655.14 606.73C683.87 613.88 717.98 647.5 704.33 707.45C692.41 759.83 675.91 809.77 652.7 841.65C637.58 862.42 619.61 875.4 598.09 875.93C571.009 876.56 547.975 864.15 526.764 844.72C505.197 824.97 485.498 797.98 465.398 769.61C441.341 735.73 429.379 710.07 424.576 692.42C421.463 681.17 421.286 673.29 422.842 668.85C422.842 668.85 422.975 668.4 423.331 667.65C423.553 667.11 423.509 666.49 423.287 665.96C422.175 663.64 418.351 657.55 415.149 651.55C412.703 646.84 413.504 641.05 417.195 637.23C424.444 629.71 437.873 618.11 457.305 609.93C460.685 608.55 464.508 609.48 466.909 612.24C472.334 618.51 480.383 627.89 480.383 627.89Z" fill="#000045"/>
<path fill-rule="evenodd" clip-rule="evenodd" d="M574.87 729.7C574.87 729.7 590.87 756.88 597.38 789.28C597.58 790.37 598.67 791.12 599.82 790.92C600.91 790.67 601.65 789.58 601.41 788.48C594.8 755.34 578.451 727.61 578.451 727.61C577.853 726.62 576.61 726.27 575.617 726.87C574.623 727.46 574.274 728.7 574.87 729.7Z" fill="#000045"/>
<path fill-rule="evenodd" clip-rule="evenodd" d="M431.559 663.66C431.559 663.66 456.802 639.36 473.549 634.24C474.642 633.89 475.288 632.75 474.94 631.66C474.593 630.56 473.45 629.97 472.357 630.27C454.965 635.58 428.677 660.68 428.677 660.68C427.882 661.47 427.832 662.81 428.627 663.61C429.423 664.45 430.714 664.45 431.559 663.66Z" fill="#000045"/>
</svg>
