<svg width="2000" height="2000" viewBox="0 0 2000 2000" fill="none" xmlns="http://www.w3.org/2000/svg">
<g clip-path="url(#clip0_386_7261)">
<path fill-rule="evenodd" clip-rule="evenodd" d="M447.706 1390.05H1540.68C1541.84 1390.05 1542.71 1389.15 1542.71 1388C1542.71 1386.86 1541.84 1385.9 1540.68 1385.9H447.706C446.545 1385.9 445.676 1386.86 445.676 1388C445.676 1389.15 446.545 1390.05 447.706 1390.05Z" fill="#000045"/>
<path fill-rule="evenodd" clip-rule="evenodd" d="M1378.52 869.508C1378.52 866.624 1377.38 863.919 1375.34 861.876C1373.36 859.894 1370.59 858.753 1367.77 858.753C1347.22 858.753 1302.52 858.753 1281.97 858.753C1279.08 858.753 1276.38 859.894 1274.34 861.876C1272.35 863.919 1271.21 866.624 1271.21 869.508C1271.21 894.803 1271.21 957.83 1271.21 983.126C1271.21 985.95 1272.35 988.713 1274.34 990.696C1276.38 992.739 1279.08 993.82 1281.97 993.82C1302.52 993.82 1347.22 993.82 1367.77 993.82C1370.59 993.82 1373.36 992.739 1375.34 990.696C1377.38 988.713 1378.52 985.95 1378.52 983.126C1378.52 957.83 1378.52 894.803 1378.52 869.508Z" fill="white"/>
<path fill-rule="evenodd" clip-rule="evenodd" d="M1380.57 869.507C1380.57 866.083 1379.24 862.837 1376.84 860.434C1374.44 858.03 1371.19 856.709 1367.77 856.709C1347.22 856.709 1302.52 856.709 1281.97 856.709C1278.54 856.709 1275.3 858.03 1272.9 860.434C1270.49 862.837 1269.11 866.083 1269.11 869.507C1269.11 894.803 1269.11 957.83 1269.11 983.125C1269.11 986.49 1270.49 989.735 1272.9 992.138C1275.3 994.541 1278.54 995.922 1281.97 995.922H1367.77C1371.19 995.922 1374.44 994.541 1376.84 992.138C1379.24 989.735 1380.57 986.49 1380.57 983.125V869.507ZM1376.42 869.507V983.125C1376.42 985.409 1375.52 987.631 1373.9 989.253C1372.27 990.876 1370.05 991.778 1367.77 991.778C1347.22 991.778 1302.52 991.778 1281.97 991.778C1279.62 991.778 1277.46 990.876 1275.84 989.253C1274.22 987.631 1273.26 985.409 1273.26 983.125V869.507C1273.26 867.224 1274.22 865 1275.84 863.378C1277.46 861.756 1279.62 860.855 1281.97 860.855H1367.77C1370.05 860.855 1372.27 861.756 1373.9 863.378C1375.52 865 1376.42 867.224 1376.42 869.507Z" fill="#A3C9D9"/>
<path fill-rule="evenodd" clip-rule="evenodd" d="M1325.66 873.371L1342.67 843.751C1343.27 842.789 1342.91 841.467 1341.95 840.926C1340.93 840.385 1339.66 840.686 1339.06 841.708L1322.06 871.328C1321.46 872.289 1321.82 873.552 1322.84 874.153C1323.8 874.693 1325.06 874.393 1325.66 873.371Z" fill="#004461"/>
<path fill-rule="evenodd" clip-rule="evenodd" d="M1288.1 916.708H1329.35C1330.47 916.708 1331.41 915.746 1331.41 914.605C1331.41 913.463 1330.47 912.562 1329.35 912.562H1288.1C1286.93 912.562 1286 913.463 1286 914.605C1286 915.746 1286.93 916.708 1288.1 916.708Z" fill="#004461"/>
<path fill-rule="evenodd" clip-rule="evenodd" d="M1288.15 942.547H1361.78C1362.87 942.547 1363.85 941.586 1363.85 940.445C1363.85 939.303 1362.87 938.402 1361.78 938.402H1288.15C1287 938.402 1286.08 939.303 1286.08 940.445C1286.08 941.586 1287 942.547 1288.15 942.547Z" fill="#004461"/>
<path fill-rule="evenodd" clip-rule="evenodd" d="M1288.15 968.437H1361.78C1362.87 968.437 1363.85 967.475 1363.85 966.334C1363.85 965.192 1362.87 964.291 1361.78 964.291H1288.15C1287 964.291 1286.08 965.192 1286.08 966.334C1286.08 967.475 1287 968.437 1288.15 968.437Z" fill="#004461"/>
<path fill-rule="evenodd" clip-rule="evenodd" d="M671.565 946.491V959.611C671.565 960.749 672.469 961.687 673.607 961.687C674.779 961.687 675.682 960.749 675.682 959.611V946.491C675.682 945.353 674.779 944.416 673.607 944.416C672.469 944.416 671.565 945.353 671.565 946.491Z" fill="#004461"/>
<path fill-rule="evenodd" clip-rule="evenodd" d="M671.565 974.469V987.589C671.565 988.727 672.469 989.664 673.607 989.664C674.779 989.664 675.682 988.727 675.682 987.589V974.469C675.682 973.331 674.779 972.394 673.607 972.394C672.469 972.394 671.565 973.331 671.565 974.469Z" fill="#004461"/>
<path fill-rule="evenodd" clip-rule="evenodd" d="M694.185 964.994H681.064C679.927 964.994 678.989 965.898 678.989 967.036C678.989 968.207 679.927 969.111 681.064 969.111H694.185C695.322 969.111 696.259 968.207 696.259 967.036C696.259 965.898 695.322 964.994 694.185 964.994Z" fill="#004461"/>
<path fill-rule="evenodd" clip-rule="evenodd" d="M666.158 964.994H653.038C651.9 964.994 650.963 965.898 650.963 967.036C650.963 968.207 651.9 969.111 653.038 969.111H666.158C667.296 969.111 668.233 968.207 668.233 967.036C668.233 965.898 667.296 964.994 666.158 964.994Z" fill="#004461"/>
<path fill-rule="evenodd" clip-rule="evenodd" d="M1187.23 969.326C1181.94 969.326 1177.62 973.592 1177.62 978.939C1177.62 984.227 1181.94 988.492 1187.23 988.492C1192.52 988.492 1196.78 984.227 1196.78 978.939C1196.78 973.592 1192.52 969.326 1187.23 969.326ZM1187.23 973.471C1190.24 973.471 1192.64 975.935 1192.64 978.939C1192.64 981.943 1190.24 984.347 1187.23 984.347C1184.23 984.347 1181.76 981.943 1181.76 978.939C1181.76 975.935 1184.23 973.471 1187.23 973.471Z" fill="#A3C9D9"/>
<path fill-rule="evenodd" clip-rule="evenodd" d="M769.351 859.252C762.501 859.252 756.973 864.78 756.973 871.629C756.973 878.479 762.501 884.067 769.351 884.067C776.2 884.067 781.788 878.479 781.788 871.629C781.788 864.78 776.2 859.252 769.351 859.252ZM769.351 863.398C773.917 863.398 777.641 867.063 777.641 871.629C777.641 876.195 773.917 879.921 769.351 879.921C764.785 879.921 761.118 876.195 761.118 871.629C761.118 867.063 764.785 863.398 769.351 863.398Z" fill="#A3C9D9"/>
<path fill-rule="evenodd" clip-rule="evenodd" d="M799.017 721.889V740.305C799.017 741.432 799.956 742.372 801.084 742.372C802.258 742.372 803.15 741.432 803.15 740.305V721.889C803.15 720.715 802.258 719.822 801.084 719.822C799.956 719.822 799.017 720.715 799.017 721.889Z" fill="#004461"/>
<path fill-rule="evenodd" clip-rule="evenodd" d="M799.017 761.147V779.562C799.017 780.69 799.956 781.63 801.084 781.63C802.258 781.63 803.15 780.69 803.15 779.562V761.147C803.15 759.972 802.258 759.079 801.084 759.079C799.956 759.079 799.017 759.972 799.017 761.147Z" fill="#004461"/>
<path fill-rule="evenodd" clip-rule="evenodd" d="M829.937 748.624H811.522C810.394 748.624 809.454 749.563 809.454 750.69C809.454 751.865 810.394 752.756 811.522 752.756H829.937C831.112 752.756 832.005 751.865 832.005 750.69C832.005 749.563 831.112 748.624 829.937 748.624Z" fill="#004461"/>
<path fill-rule="evenodd" clip-rule="evenodd" d="M790.63 748.624H772.215C771.087 748.624 770.148 749.563 770.148 750.69C770.148 751.865 771.087 752.756 772.215 752.756H790.63C791.805 752.756 792.698 751.865 792.698 750.69C792.698 749.563 791.805 748.624 790.63 748.624Z" fill="#004461"/>
<path fill-rule="evenodd" clip-rule="evenodd" d="M1128.77 1014.32C1128.77 1014.32 1143.85 1021.9 1172.09 1079.82C1200.33 1137.74 1232.72 1218.13 1232.72 1218.13L1195.95 1367.56L1115.73 1252.74V1014.32H1128.77Z" fill="white"/>
<path fill-rule="evenodd" clip-rule="evenodd" d="M1129.67 1012.46C1129.43 1012.34 1129.07 1012.22 1128.77 1012.22H1115.73C1114.59 1012.22 1113.63 1013.18 1113.63 1014.32V1252.74C1113.63 1253.16 1113.75 1253.58 1114.05 1253.94L1194.2 1368.7C1194.68 1369.36 1195.52 1369.72 1196.31 1369.54C1197.09 1369.42 1197.75 1368.82 1197.93 1368.04L1234.7 1218.67C1234.82 1218.19 1234.76 1217.77 1234.64 1217.35C1234.64 1217.35 1202.25 1136.89 1173.95 1078.91C1145.23 1019.97 1129.67 1012.46 1129.67 1012.46ZM1128.23 1016.37C1130.63 1017.93 1144.99 1028.92 1170.23 1080.72C1197.03 1135.63 1227.49 1210.74 1230.55 1218.31L1194.98 1362.63C1194.98 1362.63 1123.6 1260.43 1117.78 1252.14V1016.37H1128.23Z" fill="#000045"/>
<path fill-rule="evenodd" clip-rule="evenodd" d="M763.222 1022.68C763.222 1022.68 778.484 1008.2 825.169 979.54L943.353 988.131L1115.85 1005.79C1117.54 1166.52 1118.32 1280.19 1115.85 1378.79L777.883 1369.9L763.222 1022.68Z" fill="white"/>
<path fill-rule="evenodd" clip-rule="evenodd" d="M761.779 1021.17C761.358 1021.59 761.117 1022.2 761.117 1022.8L775.779 1370.02C775.839 1371.1 776.739 1371.94 777.821 1372L1115.79 1380.83C1116.33 1380.89 1116.87 1380.65 1117.23 1380.29C1117.66 1379.93 1117.89 1379.39 1117.89 1378.85C1120.36 1280.19 1119.58 1166.52 1117.89 1005.79C1117.89 1004.71 1117.05 1003.87 1116.03 1003.75L943.532 986.028H943.471L825.287 977.437C824.866 977.437 824.446 977.557 824.085 977.738C777.1 1006.57 761.779 1021.17 761.779 1021.17ZM765.323 1023.58C768.688 1020.51 785.211 1006.51 825.707 981.643L943.17 990.174C943.17 990.174 1095.24 1005.79 1113.75 1007.65C1115.43 1166.22 1116.21 1278.93 1113.81 1376.69C1086.89 1375.97 805.881 1368.58 779.865 1367.92C778.723 1341.06 766.104 1042.74 765.323 1023.58Z" fill="#000045"/>
<path fill-rule="evenodd" clip-rule="evenodd" d="M991.238 1002.73C989.616 1123.8 983.247 1233.69 969.788 1326.94H1022.96C1035.52 1229.24 1038.58 1124.58 1036.66 1016.19L991.238 1002.73Z" fill="#004461"/>
<path fill-rule="evenodd" clip-rule="evenodd" d="M957.851 1008.8C957.851 1008.8 952.791 1116.82 951.257 1149.01C951.155 1151.32 952.023 1153.64 953.607 1155.33C955.243 1157.02 957.442 1157.93 959.794 1157.93C963.679 1157.93 966.847 1154.91 967.001 1151.04C968.33 1121.67 973.341 1008.8 973.341 1008.8H957.851Z" fill="#000045"/>
<path fill-rule="evenodd" clip-rule="evenodd" d="M1051.4 1010.49C1051.4 1010.49 1051.35 1116.69 1051.37 1150.06C1051.38 1152.6 1052.42 1155.04 1054.3 1156.79C1056.17 1158.46 1058.67 1159.3 1061.22 1159.08C1064.58 1158.8 1067.22 1155.97 1067.16 1152.59C1067.14 1124.71 1066.86 1009.18 1066.86 1009.18L1051.4 1010.49Z" fill="#000045"/>
<path fill-rule="evenodd" clip-rule="evenodd" d="M957.112 860.994C957.112 860.994 884.109 852.042 867.045 881.904C859.955 894.221 858.033 922.82 858.033 922.82C858.033 922.82 817.417 913.026 818.438 983.925L826.188 979.178C932.777 1049.17 1038.1 1062.93 1128.17 1013.72C1128.17 1013.72 1142.29 964.698 1117.11 957.548C1117.11 957.548 1125.17 901.671 1080.7 898.186L957.112 860.994Z" fill="#004461"/>
<path fill-rule="evenodd" clip-rule="evenodd" d="M996.972 1043.52C996.972 1043.52 1012.38 1046.71 1030.27 1044.67C1031.36 1044.52 1032.2 1043.52 1032.05 1042.38C1031.96 1041.24 1030.91 1040.39 1029.77 1040.54C1012.63 1042.53 997.767 1039.5 997.767 1039.5C996.674 1039.25 995.581 1039.95 995.332 1041.09C995.133 1042.23 995.829 1043.33 996.972 1043.52Z" fill="#000045"/>
<path d="M1160.69 1372.18H1022V1390.46H1160.69V1372.18Z" fill="#A3C9D9"/>
<path fill-rule="evenodd" clip-rule="evenodd" d="M1525.18 1185.61C1527.66 1180.29 1527.04 1173.47 1523.58 1168.15C1520.11 1162.84 1514.3 1159.8 1507.99 1159.8H1269.26C1261.96 1159.8 1255.28 1163.59 1252.32 1170.42C1231.29 1216.74 1151.5 1390.62 1151.5 1390.62H1437.11C1437.11 1390.62 1499.21 1246.35 1525.18 1185.61Z" fill="#A3C9D9"/>
<path fill-rule="evenodd" clip-rule="evenodd" d="M1179.54 1373.73L1266.55 1185.3C1268.19 1181.82 1271.72 1179.58 1275.6 1179.58C1315.4 1179.58 1496.78 1179.58 1496.78 1179.58C1497.92 1179.58 1498.87 1178.64 1498.87 1177.5C1498.87 1176.35 1497.92 1175.41 1496.78 1175.41H1275.6C1270.08 1175.41 1265.11 1178.59 1262.83 1183.61C1246.73 1218.39 1175.82 1371.99 1175.82 1371.99C1175.32 1373.04 1175.77 1374.28 1176.81 1374.77C1177.85 1375.22 1179.1 1374.78 1179.54 1373.73Z" fill="white"/>
<path fill-rule="evenodd" clip-rule="evenodd" d="M580.775 1302.35V1253.44H574.046C571.162 1253.44 568.459 1252.3 566.416 1250.32C564.433 1248.28 563.292 1245.57 563.292 1242.69C563.292 1230.97 563.292 1213.91 563.292 1213.91H539.437C530.124 1213.91 522.555 1206.34 522.555 1197.03V1150.58H535.654C535.654 1150.58 535.654 1176.3 535.654 1189.21C535.654 1191.14 536.435 1193 537.757 1194.38C539.139 1195.7 541.001 1196.48 542.864 1196.48C549.834 1196.48 560.227 1196.48 567.137 1196.48C569.059 1196.48 570.922 1195.7 572.244 1194.38C573.626 1193 574.408 1191.14 574.408 1189.21V1145.77H586.964V1226.71C586.964 1230.55 590.028 1233.62 593.813 1233.62C598.199 1233.62 603.848 1233.62 608.174 1233.62C612.02 1233.62 615.084 1230.55 615.084 1226.71C615.084 1211.63 615.084 1177.02 615.084 1177.02H629.084V1242.69C629.084 1245.57 627.94 1248.28 625.958 1250.32C623.915 1252.3 621.212 1253.44 618.328 1253.44C613.341 1253.44 608.475 1253.44 608.475 1253.44V1302.35H580.775Z" fill="white"/>
<path fill-rule="evenodd" clip-rule="evenodd" d="M578.732 1302.35C578.732 1303.49 579.632 1304.39 580.774 1304.39H608.473C609.615 1304.39 610.515 1303.49 610.515 1302.35V1255.55H618.326C621.751 1255.55 624.996 1254.16 627.4 1251.76C629.803 1249.36 631.186 1246.11 631.186 1242.69V1177.02C631.186 1175.88 630.224 1174.98 629.083 1174.98H615.083C613.941 1174.98 612.98 1175.88 612.98 1177.02V1226.71C612.98 1229.41 610.877 1231.51 608.173 1231.51H593.812C591.168 1231.51 589.005 1229.41 589.005 1226.71V1145.77C589.005 1144.63 588.105 1143.67 586.963 1143.67H574.407C573.265 1143.67 572.304 1144.63 572.304 1145.77V1189.21C572.304 1190.6 571.763 1191.92 570.802 1192.88C569.84 1193.84 568.517 1194.38 567.135 1194.38H542.863C541.541 1194.38 540.219 1193.84 539.258 1192.88C538.296 1191.92 537.756 1190.6 537.756 1189.21V1150.58C537.756 1149.44 536.794 1148.48 535.653 1148.48H522.554C521.412 1148.48 520.51 1149.44 520.51 1150.58V1197.03C520.51 1207.48 528.981 1215.95 539.436 1215.95H561.188V1242.69C561.188 1246.11 562.568 1249.36 564.972 1251.76C567.375 1254.16 570.62 1255.55 574.045 1255.55H578.732V1302.35ZM582.877 1300.25V1253.44C582.877 1252.3 581.916 1251.4 580.774 1251.4H574.045C571.702 1251.4 569.538 1250.44 567.856 1248.82C566.234 1247.2 565.333 1245.03 565.333 1242.69C565.333 1230.97 565.333 1213.91 565.333 1213.91C565.333 1212.77 564.433 1211.81 563.291 1211.81H539.436C531.265 1211.81 524.657 1205.2 524.657 1197.03V1152.62H533.608V1189.21C533.608 1191.74 534.57 1194.08 536.312 1195.82C538.055 1197.57 540.399 1198.53 542.863 1198.53H567.135C569.599 1198.53 572.002 1197.57 573.745 1195.82C575.487 1194.08 576.448 1191.74 576.448 1189.21V1147.82H584.921V1226.71C584.921 1231.69 588.885 1235.66 593.812 1235.66C598.198 1235.66 603.847 1235.66 608.173 1235.66C613.16 1235.66 617.125 1231.69 617.125 1226.71V1179.12H627.038V1242.69C627.038 1245.03 626.077 1247.2 624.454 1248.82C622.832 1250.44 620.609 1251.4 618.326 1251.4H608.473C607.332 1251.4 606.429 1252.3 606.429 1253.44V1300.25H582.877Z" fill="#A3C9D9"/>
<path fill-rule="evenodd" clip-rule="evenodd" d="M522.974 1146.31C524.536 1148.06 526.76 1148.99 529.043 1148.99C546.588 1149.06 625.176 1149.05 649.149 1149.05C653.355 1149.05 656.901 1145.88 657.322 1141.7C658.644 1128.67 657.502 1103.92 626.98 1114.21C626.98 1114.21 639.536 1072.01 623.614 1063.28C611.417 1056.61 601.202 1068.58 601.202 1068.58C601.202 1068.58 602.885 1024.51 566.053 1028.56C551.453 1030.12 538.054 1053.12 546.526 1076.12C546.526 1076.12 529.043 1066.02 515.945 1079.36C503.387 1092.14 502.966 1124.12 522.974 1146.31Z" fill="white"/>
<path fill-rule="evenodd" clip-rule="evenodd" d="M521.472 1147.68C521.472 1147.74 521.472 1147.74 521.472 1147.74C523.395 1149.86 526.159 1151.11 529.044 1151.11C546.588 1151.11 625.176 1151.11 649.15 1151.11C654.437 1151.11 658.823 1147.12 659.364 1141.88C659.905 1137.02 660.026 1130.54 658.524 1124.74C657.502 1120.63 655.639 1116.89 652.635 1114.14C648.189 1110.16 641.099 1108.16 629.984 1111.15C631.666 1104.42 634.79 1089.65 633.408 1077.87C632.567 1070.51 629.923 1064.34 624.635 1061.47C615.623 1056.55 607.571 1060.66 603.125 1064.03C602.945 1061.16 602.526 1057.11 601.444 1052.81C599.522 1045.01 595.496 1036.16 587.625 1030.93C582.338 1027.43 575.247 1025.44 565.814 1026.5C559.445 1027.19 553.197 1031.55 548.69 1038.22C542.862 1046.88 539.857 1059.41 543.222 1072.44C536.793 1070.14 524.475 1067.77 514.501 1077.87C509.154 1083.29 505.849 1091.95 505.188 1101.93C504.227 1116.51 509.035 1133.91 521.472 1147.68ZM524.537 1144.94C512.941 1132.04 508.434 1115.83 509.336 1102.18C509.876 1093.33 512.7 1085.59 517.447 1080.79C529.464 1068.58 545.505 1077.93 545.505 1077.93C546.226 1078.36 547.187 1078.3 547.848 1077.74C548.509 1077.18 548.749 1076.24 548.449 1075.43C543.642 1062.34 546.226 1049.25 552.115 1040.53C555.9 1034.98 560.948 1031.17 566.295 1030.61C574.527 1029.68 580.715 1031.3 585.341 1034.35C592.311 1039.03 595.674 1046.88 597.417 1053.8C599.339 1061.72 599.1 1068.52 599.1 1068.52C599.1 1069.39 599.58 1070.2 600.421 1070.51C601.262 1070.82 602.165 1070.63 602.766 1069.95C602.766 1069.95 611.777 1059.16 622.652 1065.09C625.356 1066.58 627.039 1069.26 628.12 1072.57C629.262 1076.18 629.683 1080.48 629.623 1084.97C629.442 1098.75 624.997 1113.65 624.997 1113.65C624.816 1114.39 624.996 1115.2 625.536 1115.7C626.137 1116.26 626.918 1116.45 627.639 1116.2C638.815 1112.4 645.725 1113.46 649.87 1117.26C652.274 1119.44 653.716 1122.5 654.557 1125.8C655.879 1131.1 655.698 1137.02 655.278 1141.45C654.917 1144.57 652.274 1146.93 649.15 1146.93C625.176 1146.93 546.588 1146.93 529.044 1146.93C527.361 1146.93 525.679 1146.19 524.537 1144.94Z" fill="#A3C9D9"/>
<path fill-rule="evenodd" clip-rule="evenodd" d="M492.213 1101.13C492.213 1101.13 497.981 1077.52 485.784 1075.6C475.57 1073.97 471.905 1090.44 492.213 1101.13Z" fill="white"/>
<path fill-rule="evenodd" clip-rule="evenodd" d="M491.25 1102.99C491.791 1103.29 492.512 1103.29 493.052 1102.99C493.653 1102.75 494.074 1102.27 494.254 1101.61C494.254 1101.61 496.418 1092.72 495.397 1085.15C494.616 1079.38 491.972 1074.45 486.084 1073.55C480.797 1072.71 476.889 1075.66 475.748 1080.34C474.306 1086.29 477.851 1095.9 491.25 1102.99ZM490.769 1097.95C485.421 1094.7 482.239 1091.04 480.677 1087.61C479.655 1085.27 479.355 1083.11 479.775 1081.3C480.436 1078.72 482.538 1077.16 485.422 1077.64C489.388 1078.24 490.769 1081.84 491.25 1085.69C491.851 1090.08 491.249 1094.94 490.769 1097.95Z" fill="#A3C9D9"/>
<path fill-rule="evenodd" clip-rule="evenodd" d="M645.22 1097.15C645.22 1097.15 644.298 1065.88 660.17 1066.73C673.466 1067.43 673.66 1089.14 645.22 1097.15Z" fill="white"/>
<path fill-rule="evenodd" clip-rule="evenodd" d="M643.159 1097.19C643.181 1097.83 643.446 1098.44 644.003 1098.79C644.468 1099.21 645.148 1099.35 645.742 1099.16C664.164 1094 671.145 1083.15 670.91 1075.35C670.743 1069.46 666.795 1064.98 660.307 1064.62C652.954 1064.24 648.576 1069.56 646.092 1076.38C642.806 1085.49 643.159 1097.19 643.159 1097.19ZM647.321 1094.36C647.415 1090.58 647.866 1083.64 649.989 1077.77C651.767 1072.77 654.733 1068.5 660.13 1068.78C664.193 1069.01 666.694 1071.76 666.768 1075.49C666.947 1081.7 661.125 1089.71 647.321 1094.36Z" fill="#A3C9D9"/>
<path fill-rule="evenodd" clip-rule="evenodd" d="M593.393 1173.11C593.933 1177.37 597.599 1180.57 601.864 1180.57C618.748 1180.57 662.61 1180.57 682.497 1180.57C685.261 1180.57 687.846 1179.26 689.468 1177C691.09 1174.8 691.51 1171.92 690.669 1169.35C688.205 1161.7 682.738 1153.81 670.481 1159.01C670.481 1159.01 674.205 1130.05 651.674 1127.35C643.502 1126.35 632.569 1133.18 632.088 1148.54C632.088 1148.54 623.015 1137.13 607.273 1144.03C592.793 1150.42 592.191 1164.46 593.393 1173.11Z" fill="white"/>
<path fill-rule="evenodd" clip-rule="evenodd" d="M591.35 1173.42C592.071 1178.69 596.578 1182.64 601.865 1182.64C618.749 1182.64 662.609 1182.64 682.497 1182.64C685.922 1182.64 689.105 1181.01 691.148 1178.25C693.131 1175.49 693.671 1171.92 692.65 1168.66C690.968 1163.52 687.965 1158.38 682.978 1156.31C680.274 1155.12 676.91 1154.81 672.764 1156C672.884 1153.05 672.764 1148.42 671.562 1143.71C669.459 1135.38 664.292 1126.79 651.915 1125.29C643.684 1124.28 632.748 1130.3 630.405 1144.15C626.199 1141.02 617.906 1137.13 606.43 1142.15C590.868 1148.98 590.029 1164.02 591.35 1173.42ZM595.437 1172.86C594.355 1164.84 594.774 1151.8 608.113 1145.97C622.232 1139.7 630.463 1149.79 630.463 1149.79C631.004 1150.48 631.906 1150.73 632.747 1150.48C633.528 1150.23 634.13 1149.42 634.13 1148.6C634.61 1134.88 644.104 1128.55 651.434 1129.42C661.648 1130.61 665.855 1137.82 667.537 1144.72C669.339 1151.86 668.438 1158.76 668.438 1158.76C668.378 1159.45 668.678 1160.2 669.278 1160.64C669.819 1161.08 670.659 1161.2 671.32 1160.89C675.526 1159.13 678.833 1159.01 681.356 1160.14C685.262 1161.77 687.424 1165.97 688.686 1169.98C689.347 1171.92 688.986 1174.11 687.785 1175.81C686.583 1177.5 684.6 1178.5 682.497 1178.5C662.609 1178.5 618.749 1178.5 601.865 1178.5C598.621 1178.5 595.857 1176.06 595.437 1172.86Z" fill="#A3C9D9"/>
<path fill-rule="evenodd" clip-rule="evenodd" d="M446.35 1166.38C446.295 1168.55 447.172 1170.65 448.707 1172.21C450.186 1173.71 452.268 1174.61 454.46 1174.61C475.009 1174.61 534.025 1174.61 553.697 1174.61C557.697 1174.61 561.149 1171.67 561.752 1167.64C562.848 1159.95 562.573 1147.88 551.45 1142.41C551.45 1142.41 556.93 1107.38 528.491 1104.44C512.874 1102.81 505.694 1117.29 505.804 1131.95C505.804 1131.95 497.694 1115.67 486.734 1121.98C476.104 1128.11 482.188 1145.41 482.188 1145.41C482.188 1145.41 446.185 1139.04 446.35 1166.38Z" fill="white"/>
<path fill-rule="evenodd" clip-rule="evenodd" d="M444.265 1166.38C444.265 1169.09 445.308 1171.73 447.226 1173.65C449.143 1175.58 451.718 1176.66 454.458 1176.66C475.007 1176.66 534.023 1176.66 553.695 1176.66C558.737 1176.66 563.065 1172.99 563.777 1168C563.777 1168 563.777 1168 563.777 1167.94C564.982 1159.89 564.49 1147.52 553.695 1141.27C553.969 1138.32 554.352 1131.29 552.653 1124.02C550.297 1114.17 544.05 1103.96 528.707 1102.39C513.967 1100.83 505.913 1112.25 504.105 1125.65C502.844 1124.02 501.254 1122.4 499.391 1121.08C495.61 1118.44 490.953 1117.17 485.692 1120.18C480.815 1123 478.898 1127.87 478.459 1132.68C478.131 1136.58 478.788 1140.43 479.391 1143.01C475.829 1142.65 469.802 1142.41 463.829 1143.61C457.911 1144.81 452.101 1147.46 448.375 1152.5C445.854 1155.87 444.21 1160.37 444.265 1166.38ZM448.431 1166.44C448.431 1166.38 448.431 1166.38 448.431 1166.38C448.376 1161.46 449.635 1157.73 451.663 1154.97C454.786 1150.76 459.72 1148.72 464.651 1147.7C473.199 1145.95 481.856 1147.46 481.856 1147.46C482.569 1147.58 483.281 1147.34 483.774 1146.74C484.267 1146.19 484.377 1145.41 484.157 1144.75C484.157 1144.75 482.13 1138.92 482.623 1133.04C482.897 1129.49 484.157 1125.83 487.719 1123.78C492.267 1121.2 496.158 1123.36 498.952 1126.07C502.076 1129.07 503.94 1132.86 503.94 1132.86C504.378 1133.7 505.365 1134.18 506.296 1133.94C507.228 1133.7 507.885 1132.86 507.885 1131.89C507.775 1118.5 513.967 1105.04 528.268 1106.48C541.365 1107.86 546.571 1116.63 548.599 1124.98C550.681 1133.76 549.421 1142.11 549.421 1142.11C549.256 1143.01 549.695 1143.91 550.517 1144.27C560.654 1149.26 560.708 1160.37 559.667 1167.34C559.229 1170.35 556.709 1172.57 553.695 1172.57C534.023 1172.57 475.007 1172.57 454.458 1172.51C452.814 1172.51 451.281 1171.85 450.13 1170.71C449.034 1169.57 448.376 1168 448.431 1166.44Z" fill="#A3C9D9"/>
<path fill-rule="evenodd" clip-rule="evenodd" d="M661.744 1302.76C662.39 1300.69 661.929 1298.43 660.638 1296.67C659.347 1294.92 657.317 1293.91 655.103 1293.91C630.381 1293.91 563.041 1293.91 538.411 1293.91C536.197 1293.91 534.167 1294.92 532.876 1296.67C531.584 1298.43 531.124 1300.69 531.77 1302.76C537.028 1320.81 549.02 1361.57 553.909 1378.38C555.2 1382.77 559.166 1385.78 563.779 1385.78C579.276 1385.78 614.052 1385.78 629.642 1385.78C634.162 1385.78 638.223 1382.77 639.515 1378.38C644.404 1361.64 656.394 1320.81 661.744 1302.76Z" fill="#004461"/>
<path fill-rule="evenodd" clip-rule="evenodd" d="M1057.93 1302.85C1057.93 1302.85 1129.97 1287.58 1136.52 1286.86C1143.07 1286.08 1187.29 1312.34 1187.29 1312.34L1180.08 1328.08L1150.4 1316.72L1175.39 1338.29L1162.12 1367.38L1126.01 1359.8C1126.01 1359.8 1096.93 1379.33 1064.96 1366.95L1057.93 1302.85Z" fill="white"/>
<path fill-rule="evenodd" clip-rule="evenodd" d="M1057.51 1300.8C1056.49 1301.04 1055.77 1302.01 1055.89 1303.09L1062.86 1367.2C1062.98 1367.92 1063.46 1368.58 1064.18 1368.88C1094.16 1380.41 1121.56 1364.97 1126.42 1362.03L1161.69 1369.42C1162.66 1369.6 1163.56 1369.12 1163.98 1368.22L1177.32 1339.14C1177.68 1338.3 1177.5 1337.33 1176.77 1336.73L1160.73 1322.91L1179.36 1330C1180.38 1330.42 1181.52 1329.94 1181.94 1328.92L1189.15 1313.18C1189.63 1312.22 1189.27 1311.08 1188.37 1310.54C1188.37 1310.54 1159.89 1293.71 1145.11 1287.28C1140.96 1285.54 1137.78 1284.64 1136.28 1284.76C1129.73 1285.54 1057.51 1300.8 1057.51 1300.8ZM1060.21 1304.47C1071.45 1302.13 1130.81 1289.57 1136.76 1288.91C1137.36 1288.85 1138.38 1289.15 1139.7 1289.63C1142.23 1290.47 1145.65 1292.03 1149.44 1293.89C1162.17 1300.08 1179.36 1310.06 1184.65 1313.18L1179 1325.44L1151.12 1314.8C1150.16 1314.44 1149.14 1314.8 1148.6 1315.64C1148.06 1316.54 1148.23 1317.63 1149.02 1318.29L1172.87 1338.84L1160.91 1365.03L1126.42 1357.76C1125.88 1357.64 1125.34 1357.76 1124.86 1358.06C1124.86 1358.06 1097.4 1376.51 1066.88 1365.45L1060.21 1304.47Z" fill="#000045"/>
<path fill-rule="evenodd" clip-rule="evenodd" d="M1034.86 1384.32C1008.18 1415.68 789.479 1402.71 753.129 1392.91C715.036 1382.64 704.52 1365.57 703.919 1323.21C702.657 1237.48 744.417 1046.47 760.339 1025.92C776.261 1005.37 802.456 1025.92 802.456 1025.92C875.938 1092.97 863.922 1271.24 863.922 1271.24C863.922 1271.24 1001.27 1279.95 1022.78 1290.17C1025.19 1291.31 1027.17 1293.23 1028.91 1295.82C1036.9 1296.06 1049.94 1296.6 1058.89 1297.62C1063.46 1298.64 1067.01 1302.31 1067.79 1306.99C1069.95 1320.15 1073.43 1347.01 1070.25 1367.98C1069.59 1372.06 1066.7 1375.49 1062.8 1376.93C1057.03 1379.03 1047.3 1382.1 1034.86 1384.32Z" fill="white"/>
<path fill-rule="evenodd" clip-rule="evenodd" d="M1035.88 1386.24C1048.2 1383.96 1057.75 1380.95 1063.52 1378.85C1068.15 1377.17 1071.45 1373.14 1072.29 1368.34C1075.48 1347.07 1071.99 1319.97 1069.83 1306.63C1068.93 1301.16 1064.72 1296.78 1059.31 1295.58C1059.25 1295.58 1059.19 1295.58 1059.13 1295.58C1050.54 1294.55 1038.1 1294.01 1029.99 1293.77C1028.19 1291.31 1026.09 1289.45 1023.68 1288.31C1017.14 1285.18 1000.01 1282.18 979.223 1279.53C936.323 1274.07 877.743 1270.1 866.087 1269.32C866.688 1257.78 869.029 1199.98 857.854 1140.86C849.502 1096.52 833.521 1051.46 803.839 1024.36C803.779 1024.36 803.78 1024.3 803.72 1024.3C803.72 1024.3 796.87 1018.89 787.917 1016.25C778.725 1013.42 767.308 1013.54 758.716 1024.66C753.849 1030.91 746.579 1052.66 738.888 1082.46C721.224 1151.25 700.977 1263.13 701.878 1323.21C702.178 1344.9 705.121 1360.17 712.752 1371.28C720.442 1382.46 732.94 1389.61 752.588 1394.89C778.123 1401.8 893.303 1410.28 969.309 1403.91C988.956 1402.28 1006.02 1399.64 1018.22 1395.74C1026.39 1393.15 1032.46 1389.97 1035.88 1386.24ZM1034.5 1382.28C1034.02 1382.4 1033.6 1382.64 1033.24 1383C1030.24 1386.54 1024.59 1389.37 1016.96 1391.83C1004.94 1395.61 988.237 1398.2 968.95 1399.82C893.485 1406.13 779.025 1397.78 753.67 1390.93C735.224 1385.94 723.388 1379.39 716.178 1368.94C708.908 1358.3 706.323 1343.82 706.023 1323.15C705.122 1263.31 725.311 1151.98 742.916 1083.48C750.366 1054.52 757.275 1033.25 761.962 1027.18C769.292 1017.75 778.906 1017.87 786.777 1020.21C794.467 1022.5 800.474 1027 801.075 1027.48C830.155 1054.04 845.597 1098.2 853.829 1141.64C866.146 1207.19 861.82 1271.12 861.82 1271.12C861.82 1271.66 861.999 1272.2 862.36 1272.62C862.72 1273.04 863.203 1273.29 863.803 1273.35C863.803 1273.35 930.977 1277.61 978.744 1283.62C998.932 1286.2 1015.57 1289.03 1021.94 1292.03C1023.99 1292.99 1025.73 1294.73 1027.17 1296.96C1027.59 1297.5 1028.19 1297.86 1028.85 1297.86C1036.78 1298.1 1049.64 1298.64 1058.53 1299.66C1062.26 1300.5 1065.08 1303.51 1065.74 1307.29C1067.91 1320.33 1071.33 1346.89 1068.21 1367.68C1067.61 1371.04 1065.32 1373.8 1062.14 1374.95C1056.37 1377.05 1046.82 1380.05 1034.5 1382.28Z" fill="#000045"/>
<path fill-rule="evenodd" clip-rule="evenodd" d="M1169.75 1345.77L1144.21 1329.74C1143.27 1329.13 1141.97 1329.43 1141.38 1330.39C1140.78 1331.36 1141.03 1332.64 1142.02 1333.25L1167.52 1349.28C1168.51 1349.88 1169.8 1349.6 1170.4 1348.63C1171 1347.66 1170.7 1346.38 1169.75 1345.77Z" fill="#000045"/>
<path fill-rule="evenodd" clip-rule="evenodd" d="M1164.73 1356.8L1137.95 1344.78C1136.91 1344.31 1135.66 1344.78 1135.22 1345.82C1134.72 1346.86 1135.17 1348.09 1136.21 1348.55L1163.04 1360.57C1164.04 1361.04 1165.28 1360.57 1165.78 1359.53C1166.23 1358.49 1165.78 1357.26 1164.73 1356.8Z" fill="#000045"/>
<path fill-rule="evenodd" clip-rule="evenodd" d="M1027.98 1309.58C1027.98 1309.58 1033.35 1337.5 1031.66 1370.95C1031.61 1372.09 1032.5 1373.04 1033.65 1373.13C1034.79 1373.18 1035.73 1372.29 1035.83 1371.15C1037.47 1337.21 1032.06 1308.78 1032.06 1308.78C1031.81 1307.69 1030.76 1306.94 1029.62 1307.14C1028.48 1307.34 1027.78 1308.43 1027.98 1309.58Z" fill="#000045"/>
<path fill-rule="evenodd" clip-rule="evenodd" d="M863.5 1269.23C863.5 1269.23 833.634 1274.59 803.62 1307.79C802.875 1308.63 802.924 1309.92 803.769 1310.72C804.613 1311.46 805.955 1311.41 806.701 1310.57C835.572 1278.62 864.245 1273.3 864.245 1273.3C865.338 1273.1 866.083 1272.01 865.884 1270.87C865.685 1269.77 864.593 1269.03 863.5 1269.23Z" fill="#000045"/>
<path fill-rule="evenodd" clip-rule="evenodd" d="M945.987 940.422C945.987 940.422 907.774 919.899 918.159 892.548C926.706 869.958 966.56 877.178 966.56 877.178L1065.8 909.881C1065.8 909.881 1108.18 951.483 1056.45 964.324L945.987 940.422Z" fill="#004461"/>
<path fill-rule="evenodd" clip-rule="evenodd" d="M1065.86 921.92L1056.49 964.339C1018.82 971.128 982.045 961.575 946.055 940.546L955.187 884.547L1004.52 891.397L1065.86 921.92Z" fill="white"/>
<path fill-rule="evenodd" clip-rule="evenodd" d="M1067.84 922.34C1068.08 921.438 1067.6 920.478 1066.76 920.057L1005.42 889.534C1005.24 889.414 1005 889.353 1004.75 889.353L955.428 882.505C954.346 882.385 953.324 883.105 953.144 884.246L943.951 940.185C943.831 941.026 944.251 941.867 944.972 942.288C981.502 963.618 1018.7 973.231 1056.85 966.381C1057.69 966.261 1058.35 965.6 1058.53 964.758L1067.84 922.34ZM1063.46 923.061L1054.8 962.536C1018.45 968.664 983.065 959.471 948.276 939.463L956.869 886.89L1003.85 893.38L1063.46 923.061Z" fill="#000045"/>
<path fill-rule="evenodd" clip-rule="evenodd" d="M957.477 811.219C957.477 811.219 943.981 800.363 927.622 809.538C911.316 818.705 915.15 837.734 919.825 846.022C924.554 854.308 939.062 861.347 950.34 862.696C950.34 862.696 952.736 892.107 970.936 910.678C989.137 929.248 1027 942.872 1063.82 924.504C1079.28 916.77 1088.75 899.965 1093.77 886.922C1098.72 873.876 1113.11 838.837 1113.11 838.837L1092.21 747.76L995.649 738.673L965.688 810.108L957.477 811.219Z" fill="white"/>
<path fill-rule="evenodd" clip-rule="evenodd" d="M958.003 809.059C954.862 806.846 941.905 799.163 926.612 807.732C908.983 817.625 912.959 838.107 918.049 847.044C922.784 855.378 936.83 862.644 948.454 864.526C949.287 871.087 953.387 895.72 969.436 912.127C988.139 931.176 1026.99 945.197 1064.72 926.36C1080.7 918.377 1090.55 901.11 1095.67 887.659C1100.68 874.627 1115.02 839.623 1115.02 839.623C1115.19 839.229 1115.19 838.797 1115.13 838.373L1094.22 747.298C1094.05 746.424 1093.3 745.781 1092.42 745.696L995.862 736.61C994.976 736.523 994.116 737.034 993.738 737.872C993.738 737.872 967.988 799.238 964.229 808.216L958.003 809.059ZM956.163 812.834C956.648 813.185 957.217 813.344 957.753 813.271L965.964 812.16C966.662 812.066 967.31 811.586 967.547 810.917C967.547 810.917 992.817 750.866 996.986 740.875L1090.5 749.684C1090.5 749.684 1109.11 830.629 1110.9 838.666C1108.97 843.372 1096.41 874.14 1091.81 886.181C1087.01 898.817 1077.86 915.159 1062.85 922.655C1027.07 940.54 990.13 927.315 972.432 909.223C954.736 891.153 952.394 862.528 952.394 862.528C952.316 861.549 951.552 860.761 950.554 860.65C944.106 859.861 936.465 857.118 930.432 853.332C926.604 850.899 923.378 848.061 921.652 844.999C917.285 837.369 913.594 819.793 928.684 811.337C943.719 802.882 956.163 812.834 956.163 812.834Z" fill="#000045"/>
<path fill-rule="evenodd" clip-rule="evenodd" d="M957.383 810.942C957.383 810.942 958.77 826.84 962.194 830.334C965.619 833.834 977.186 804.196 980.997 791.971C980.997 791.971 995.237 782.879 1002.69 772.109C1010.14 761.339 1018.78 758.163 1026.34 771.617C1026.34 771.617 1042.86 754.712 1055.12 754.85C1067.44 754.982 1070.42 764.865 1074.12 782.972C1077.89 801.073 1082.9 827.998 1112.84 838.819L1100.03 870.184C1100.03 870.184 1130.5 861.863 1137.94 819.899L1145.62 828.649C1145.62 828.649 1155.97 743.518 1109.36 701.236C1062.7 658.962 999.589 675.686 981.451 692.721C981.451 692.721 934.301 692.477 920.111 738.278C905.921 784.079 917.501 820.379 917.501 820.379C917.501 820.379 929.327 795.475 957.383 810.942Z" fill="#000045"/>
<path fill-rule="evenodd" clip-rule="evenodd" d="M929.119 822.205C929.119 822.205 940.534 828.199 951.105 841.286C951.827 842.178 953.103 842.316 953.99 841.601C954.877 840.885 955.029 839.58 954.307 838.688C943.14 824.84 931.027 818.536 931.027 818.536C930.026 818.006 928.769 818.399 928.25 819.41C927.73 820.422 928.118 821.674 929.119 822.205Z" fill="#000045"/>
<path fill-rule="evenodd" clip-rule="evenodd" d="M933.734 839.745C933.734 839.745 940.59 835.483 945.723 833.831C946.824 833.48 947.432 832.316 947.067 831.228C946.754 830.133 945.579 829.538 944.479 829.889C938.979 831.656 931.562 836.223 931.562 836.223C930.551 836.83 930.286 838.101 930.855 839.074C931.478 840.045 932.777 840.344 933.734 839.745Z" fill="#000045"/>
<path fill-rule="evenodd" clip-rule="evenodd" d="M1049.64 857.741L1049.59 877.173C1049.58 878.317 1050.53 879.244 1051.68 879.247C1052.77 879.257 1053.74 878.329 1053.75 877.185L1053.8 857.752C1053.81 856.609 1052.86 855.682 1051.71 855.678C1050.57 855.675 1049.65 856.597 1049.64 857.741Z" fill="#000045"/>
<path fill-rule="evenodd" clip-rule="evenodd" d="M1010.08 811.385C1010.08 811.385 1028.22 802.447 1040.7 819.126C1041.37 820.041 1042.66 820.233 1043.6 819.542C1044.49 818.858 1044.7 817.557 1043.97 816.649C1029.42 797.17 1008.27 807.671 1008.27 807.671C1007.24 808.178 1006.81 809.423 1007.33 810.445C1007.8 811.474 1009.06 811.892 1010.08 811.385Z" fill="#000045"/>
<path fill-rule="evenodd" clip-rule="evenodd" d="M1040.83 894.234C1040.83 894.234 1021.43 899.96 1011.97 881.405C1011.46 880.389 1010.23 879.981 1009.18 880.501C1008.19 881.024 1007.76 882.271 1008.32 883.289C1019.35 904.957 1041.98 898.203 1041.98 898.203C1043.08 897.877 1043.72 896.724 1043.38 895.629C1043.09 894.535 1041.92 893.909 1040.83 894.234Z" fill="#000045"/>
<path fill-rule="evenodd" clip-rule="evenodd" d="M1071.21 823.196C1071.21 823.196 1078.55 819.688 1086.83 821.087C1088 821.273 1089.05 820.514 1089.22 819.391C1089.4 818.264 1088.65 817.195 1087.53 817.002C1077.97 815.383 1069.39 819.463 1069.39 819.463C1068.36 819.951 1067.93 821.191 1068.4 822.226C1068.92 823.254 1070.13 823.698 1071.21 823.196Z" fill="#000045"/>
<path d="M1028.27 844.218C1031.86 843.732 1034.37 840.431 1033.89 836.844C1033.4 833.258 1030.1 830.743 1026.52 831.229C1022.93 831.714 1020.42 835.015 1020.9 838.602C1021.39 842.189 1024.69 844.703 1028.27 844.218Z" fill="#000045"/>
<path d="M1084.77 854.186C1088.36 853.7 1090.87 850.399 1090.39 846.813C1089.9 843.226 1086.6 840.712 1083.01 841.197C1079.43 841.682 1076.91 844.983 1077.4 848.57C1077.89 852.157 1081.19 854.671 1084.77 854.186Z" fill="#000045"/>
<path fill-rule="evenodd" clip-rule="evenodd" d="M923.329 923.869C923.329 923.869 932.223 936.143 945.044 942.405C946.038 942.902 947.28 942.454 947.777 941.411C948.323 940.417 947.876 939.175 946.832 938.678C934.906 932.864 926.658 921.435 926.658 921.435C926.012 920.54 924.719 920.34 923.775 920.986C922.831 921.682 922.633 922.975 923.329 923.869Z" fill="#000045"/>
<path fill-rule="evenodd" clip-rule="evenodd" d="M1056.5 966.408C1056.5 966.408 1066.54 966.06 1076.13 957.662C1076.98 956.916 1077.08 955.575 1076.33 954.731C1075.58 953.886 1074.29 953.785 1073.4 954.531C1065.05 961.885 1056.35 962.283 1056.35 962.283C1055.21 962.333 1054.32 963.278 1054.37 964.421C1054.42 965.563 1055.36 966.458 1056.5 966.408Z" fill="#000045"/>
</g>
<defs>
<clipPath id="clip0_386_7261">
<rect width="2000" height="2000" fill="white"/>
</clipPath>
</defs>
</svg>
