<svg width="495" height="458" viewBox="0 0 495 458" fill="none" xmlns="http://www.w3.org/2000/svg">
<g clip-path="url(#clip0_105_12163)">
<path d="M302.7 64.1102C302.926 65.9972 303.785 67.7519 305.12 69.1066C317.669 81.8488 332.24 91.6722 344.967 104.172C355.78 114.793 365.591 129.161 379.969 133.585C407.645 142.101 418.22 105.97 408.173 82.0922C396.902 55.3058 368.942 40.1171 343.91 38.9289C329.849 38.2615 300.022 41.6776 302.7 64.1102Z" fill="#E3EFF4"/>
<path d="M394.164 153.674C364.247 124.653 328.163 106.059 293.059 86.8802C259.905 68.7667 223.783 47.5128 185.868 55.8629C153.579 62.974 129.973 90.5046 106.276 114.399C83.1208 137.748 53.1219 158.791 42.5591 193.84C31.5427 230.395 47.563 269.725 72.8644 292.788C101.084 318.51 138.255 321.86 170.713 337.049C189.118 345.663 205.827 358.632 225.027 365.057C243.516 371.244 262.941 371.529 282.049 371.197C318.989 370.555 357.739 368.903 391.932 351.156C422.761 335.156 448.123 303.145 448.475 262.802C448.861 218.63 422.158 180.83 394.164 153.674Z" fill="#E3EFF4"/>
<path d="M74.7869 282.154C77.1601 294.38 78.249 306.843 80.977 318.998C84.9175 336.558 92.4207 353.255 102.707 368.025L102.707 368.026C110.442 379.135 119.751 389.152 130.3 397.624C132.543 399.427 134.843 401.159 137.194 402.816C137.27 402.87 137.346 402.923 137.421 402.976C138.496 402.873 139.565 402.772 140.628 402.669C141.168 402.619 141.708 402.568 142.245 402.517C142.655 402.477 143.063 402.438 143.471 402.399C143.789 402.37 144.107 402.34 144.424 402.309C142.906 396.014 142.942 389.168 142.191 382.725C140.761 370.448 137.141 358.522 131.91 347.304C131.632 346.703 131.347 346.105 131.056 345.509C128.424 340.077 125.415 334.817 122.097 329.773C121.12 328.286 120.115 326.818 119.087 325.371C107.017 308.39 91.4817 294.631 74.7869 282.154Z" fill="#98B7C9"/>
<path d="M142.245 402.811C142.155 402.811 142.067 402.77 142.009 402.692C140.343 400.46 138.68 398.228 137.016 395.995C136.331 395.078 135.648 394.161 134.967 393.24C133.518 391.286 131.62 388.703 129.796 386.049C128.093 383.57 126.639 381.305 125.351 379.123C122.976 375.102 120.868 370.852 118.83 366.741L118.822 366.725C106.691 342.251 94.5599 317.778 82.4291 293.306C82.3569 293.161 82.4166 292.984 82.5623 292.912C82.7082 292.84 82.8847 292.9 82.9568 293.045C95.0878 317.517 107.219 341.99 119.35 366.464L119.358 366.48C121.391 370.581 123.494 374.822 125.858 378.824C127.139 380.994 128.586 383.249 130.281 385.716C132.1 388.362 133.994 390.94 135.441 392.89C136.121 393.811 136.804 394.727 137.488 395.644C139.152 397.877 140.816 400.108 142.481 402.341C142.578 402.471 142.551 402.655 142.421 402.752C142.368 402.792 142.306 402.811 142.245 402.811Z" fill="#10171B"/>
<path d="M69.8042 352.853C80.5282 379.11 103.05 398.896 130.524 403.562C130.618 403.578 130.713 403.594 130.807 403.609C132.994 403.399 135.163 403.192 137.311 402.986C137.272 402.929 137.233 402.873 137.195 402.816C134.905 399.494 132.593 396.178 130.167 392.955L130.167 392.954C126.713 388.363 123.03 383.964 118.861 380.016C113.955 375.372 108.497 371.457 102.707 368.027L102.707 368.025C92.3817 361.906 80.999 357.322 69.8042 352.853Z" fill="#004461"/>
<path d="M136.696 403.267C136.638 403.267 136.581 403.251 136.53 403.216C115.448 388.833 94.5916 373.537 74.5411 357.751C74.4134 357.65 74.3915 357.465 74.4922 357.338C74.5928 357.21 74.778 357.188 74.9057 357.289C94.9457 373.067 115.791 388.355 136.862 402.731C136.996 402.822 137.031 403.005 136.939 403.139C136.882 403.223 136.79 403.267 136.696 403.267Z" fill="#10171B"/>
<path d="M143.471 402.694C143.372 402.694 143.275 402.644 143.22 402.554C135.322 389.721 133.528 374.109 132.466 360.482C132.125 356.118 131.839 351.689 131.616 347.319C131.467 344.427 131.342 341.496 131.244 338.608C130.987 331.09 130.9 323.449 130.986 315.899L130.994 315.221C131.051 310.419 131.109 305.454 129.861 300.79C129.819 300.634 129.913 300.472 130.07 300.43C130.227 300.389 130.388 300.482 130.43 300.639C131.699 305.38 131.64 310.387 131.582 315.228L131.574 315.906C131.489 323.447 131.576 331.078 131.832 338.588C131.93 341.472 132.055 344.4 132.204 347.289C132.427 351.654 132.713 356.077 133.053 360.436C134.109 373.995 135.892 389.525 143.722 402.246C143.807 402.384 143.763 402.565 143.625 402.65C143.577 402.68 143.524 402.694 143.471 402.694Z" fill="#10171B"/>
<path d="M377.948 162.401C376.725 174.137 376.734 185.989 375.17 197.686C372.912 214.585 367.219 230.966 358.74 245.758V245.759C352.364 256.884 344.412 267.11 335.16 275.981C333.194 277.868 331.167 279.694 329.086 281.453C329.02 281.51 328.952 281.566 328.885 281.622C327.863 281.615 326.846 281.607 325.833 281.599C325.32 281.596 324.806 281.593 324.295 281.589C323.905 281.586 323.516 281.583 323.128 281.58C322.825 281.579 322.522 281.576 322.221 281.574C323.13 275.507 322.527 269.049 322.7 262.906C323.028 251.201 325.452 239.646 329.457 228.625C329.669 228.035 329.888 227.447 330.113 226.86C332.145 221.515 334.547 216.301 337.259 211.266C338.058 209.782 338.884 208.313 339.734 206.862C349.713 189.835 363.23 175.561 377.948 162.401Z" fill="#98B7C9"/>
<path d="M324.295 281.883C324.242 281.883 324.188 281.869 324.14 281.839C324.002 281.754 323.959 281.573 324.044 281.435C325.43 279.19 326.815 276.946 328.199 274.701C328.769 273.779 329.336 272.857 329.902 271.932C331.105 269.972 332.677 267.383 334.174 264.734C335.569 262.264 336.747 260.017 337.775 257.864C339.673 253.892 341.304 249.716 342.882 245.677L342.889 245.66C352.302 221.557 361.715 197.454 371.129 173.352C371.188 173.201 371.359 173.126 371.51 173.185C371.661 173.244 371.736 173.415 371.677 173.566C362.264 197.668 352.851 221.77 343.438 245.873L343.431 245.891C341.849 249.939 340.214 254.126 338.307 258.117C337.273 260.283 336.089 262.542 334.687 265.023C333.185 267.68 331.609 270.275 330.404 272.239C329.838 273.164 329.27 274.087 328.7 275.009C327.316 277.255 325.931 279.498 324.545 281.744C324.49 281.833 324.393 281.883 324.295 281.883Z" fill="#10171B"/>
<path d="M388.53 228.71C380.593 254.379 360.984 274.921 335.444 281.603C335.356 281.626 335.268 281.649 335.18 281.671C333.099 281.654 331.035 281.638 328.99 281.622C329.023 281.565 329.055 281.51 329.086 281.453C330.97 278.128 332.877 274.806 334.898 271.563V271.562C337.776 266.943 340.886 262.486 344.492 258.415C348.736 253.624 353.561 249.477 358.74 245.759V245.758C367.976 239.127 378.337 233.856 388.53 228.71Z" fill="#004461"/>
<path d="M329.57 281.854C329.485 281.854 329.4 281.817 329.342 281.746C329.239 281.621 329.257 281.436 329.383 281.333C348.073 266.018 366.473 249.861 384.074 233.308C384.192 233.197 384.379 233.203 384.49 233.321C384.601 233.439 384.596 233.625 384.478 233.736C366.867 250.298 348.457 266.464 329.757 281.787C329.702 281.832 329.635 281.854 329.57 281.854Z" fill="#10171B"/>
<path d="M323.128 281.874C323.084 281.874 323.039 281.864 322.997 281.843C322.851 281.77 322.792 281.594 322.865 281.449C329.195 268.797 329.585 253.995 329.455 241.113C329.413 236.972 329.315 232.774 329.163 228.636C329.063 225.894 328.937 223.121 328.79 220.393C328.407 213.284 327.854 206.075 327.147 198.966L327.083 198.327C326.626 193.762 326.153 189.041 326.957 184.459C326.985 184.299 327.138 184.192 327.298 184.22C327.458 184.248 327.565 184.4 327.537 184.56C326.747 189.063 327.216 193.743 327.669 198.269L327.732 198.908C328.441 206.026 328.994 213.244 329.378 220.361C329.525 223.093 329.651 225.87 329.751 228.614C329.904 232.758 330.002 236.961 330.044 241.107C330.175 254.057 329.78 268.943 323.392 281.711C323.34 281.815 323.236 281.874 323.128 281.874Z" fill="#10171B"/>
<path d="M88.0999 387.534C74.0025 387.531 58.9421 387.726 47.2983 393.315C35.6544 398.903 32.0376 414.691 66.1327 419.644C105.001 425.292 140.94 428.847 180.304 431.465C197.988 432.641 215.69 433.817 233.449 434.119C254.489 434.477 275.527 433.605 296.537 432.734C343.441 430.789 391.167 428.726 435.176 417.151C452.058 412.712 469.112 397.549 446.267 388.897C429.407 382.512 392.6 385.142 374.195 385.137C312.809 385.122 253.618 385.153 192.232 385.137C157.733 385.129 122.599 387.543 88.0999 387.534Z" fill="#E3EFF4"/>
<path d="M321.686 79.3587H165.646C160.104 79.3587 155.611 83.8462 155.611 89.3817V386.852C155.611 392.717 160.371 397.472 166.243 397.472H321.686C327.558 397.472 332.318 392.717 332.318 386.852V89.978C332.318 84.1131 327.558 79.3587 321.686 79.3587Z" fill="#979797"/>
<path d="M319.545 94.0168H168.384C167.727 94.0168 167.194 94.5493 167.194 95.2059V374.996C167.194 375.653 167.727 376.185 168.384 376.185H319.545C320.202 376.185 320.735 375.653 320.735 374.996V95.2059C320.735 94.5493 320.202 94.0168 319.545 94.0168Z" fill="#E9E9E9"/>
<path d="M262.31 87.8776H225.619V88.8808H262.31V87.8776Z" fill="black"/>
<path d="M155.186 293.935H156.19V91.4182C156.19 88.3207 157.398 85.409 159.592 83.2194C161.784 81.0317 164.697 79.8271 167.795 79.8271C167.798 79.8271 167.801 79.8271 167.803 79.8271L219.689 79.8603L219.69 78.8571L167.804 78.8239C167.801 78.8239 167.798 78.8239 167.795 78.8239C164.429 78.8239 161.264 80.1327 158.882 82.5099C156.498 84.8888 155.186 88.0525 155.186 91.418V293.935Z" fill="black"/>
<path d="M261.265 291.451H226.723C213.817 291.451 203.354 281.001 203.354 268.111C201.902 237.525 200.451 206.939 198.999 176.353C228.802 176.353 258.605 176.353 288.408 176.353C287.15 206.939 285.892 237.525 284.634 268.111C284.634 281.001 274.171 291.451 261.265 291.451Z" fill="#8F9095"/>
<path d="M241.604 164.257C239.416 164.257 237.324 163.482 235.653 162.037C233.81 160.446 232.699 158.233 232.523 155.807C232.347 153.381 233.128 151.031 234.722 149.192C236.315 147.352 238.531 146.242 240.96 146.066C243.389 145.891 245.742 146.67 247.584 148.262C249.426 149.853 250.537 152.066 250.713 154.492C251.076 159.501 247.292 163.87 242.277 164.233C242.052 164.249 241.828 164.257 241.604 164.257ZM241.627 149.471C241.488 149.471 241.348 149.476 241.208 149.486C239.693 149.595 238.312 150.287 237.318 151.435C236.324 152.582 235.838 154.047 235.947 155.56C236.057 157.072 236.75 158.452 237.899 159.444C239.047 160.437 240.515 160.923 242.029 160.813C245.156 160.587 247.516 157.863 247.289 154.739C247.18 153.227 246.487 151.847 245.338 150.855C244.296 149.954 242.991 149.471 241.627 149.471Z" fill="#8F9095"/>
<path d="M244.563 276.955H242.86C240.824 276.955 239.174 275.306 239.174 273.273V194.531C239.174 192.497 240.824 190.849 242.86 190.849H244.563C246.599 190.849 248.249 192.497 248.249 194.531V273.273C248.249 275.306 246.599 276.955 244.563 276.955Z" fill="#C5C5C5"/>
<path d="M263.258 276.913L261.56 276.798C259.529 276.66 257.994 274.904 258.132 272.875L263.478 194.314C263.616 192.285 265.375 190.753 267.406 190.89L269.104 191.006C271.136 191.144 272.67 192.9 272.532 194.929L267.186 273.49C267.048 275.518 265.29 277.051 263.258 276.913Z" fill="#C5C5C5"/>
<path d="M224.343 276.913L226.041 276.798C228.072 276.66 229.607 274.904 229.469 272.875L224.123 194.314C223.985 192.285 222.226 190.753 220.195 190.89L218.497 191.006C216.465 191.144 214.931 192.9 215.069 194.929L220.415 273.49C220.553 275.518 222.311 277.051 224.343 276.913Z" fill="#C5C5C5"/>
<path d="M287.974 166.284L197.448 172.828L197.266 170.316C196.83 164.304 201.356 159.078 207.376 158.643L276.104 153.674C282.124 153.239 287.356 157.759 287.792 163.771L287.974 166.284Z" fill="#8F9095"/>
<path d="M307.486 334.213H180.018C177.475 334.213 175.414 332.155 175.414 329.616V327.493C175.414 324.954 177.475 322.896 180.018 322.896H307.486C310.029 322.896 312.09 324.954 312.09 327.493V329.616C312.09 332.155 310.029 334.213 307.486 334.213Z" fill="#5A8076"/>
<path d="M279.847 334.213H179.825C177.283 334.213 175.222 332.155 175.222 329.616V327.493C175.222 324.954 177.283 322.896 179.825 322.896H279.847C282.39 322.896 284.451 324.954 284.451 327.493V329.616C284.451 332.155 282.39 334.213 279.847 334.213Z" fill="#004461"/>
<path d="M183.523 123.383H189.395C190.719 123.383 191.728 123.484 192.423 123.686C193.356 123.961 194.156 124.449 194.821 125.15C195.487 125.851 195.994 126.709 196.341 127.724C196.688 128.74 196.862 129.992 196.862 131.48C196.862 132.788 196.699 133.915 196.373 134.862C195.976 136.018 195.408 136.954 194.669 137.67C194.112 138.212 193.36 138.634 192.412 138.938C191.703 139.162 190.755 139.274 189.568 139.274H183.523L183.523 123.383ZM186.736 126.071V136.596H189.134C190.031 136.596 190.679 136.546 191.077 136.445C191.598 136.314 192.03 136.094 192.374 135.783C192.718 135.473 192.998 134.961 193.215 134.249C193.432 133.538 193.541 132.568 193.541 131.339C193.541 130.111 193.432 129.167 193.215 128.51C192.998 127.852 192.694 127.339 192.304 126.971C191.913 126.602 191.417 126.353 190.817 126.223C190.368 126.121 189.489 126.071 188.179 126.071H186.736V126.071Z" fill="#C41E0A"/>
<path d="M199.586 139.274V123.383H211.384V126.071H202.799V129.594H210.787V132.271H202.799V136.596H211.688V139.274H199.586Z" fill="#C41E0A"/>
<path d="M214.499 139.274V123.513H217.711V136.596H225.699V139.274L214.499 139.274Z" fill="#C41E0A"/>
<path d="M227.99 139.274V123.383H239.787V126.071H231.202V129.594H239.19V132.271H231.202V136.596H240.091V139.274H227.99Z" fill="#C41E0A"/>
<path d="M246.397 139.274V126.071H241.676V123.383H254.32V126.071H249.61V139.274H246.397Z" fill="#C41E0A"/>
<path d="M256.295 139.274V123.383H259.508V139.274H256.295Z" fill="#C41E0A"/>
<path d="M262.601 139.274V123.383H265.727L272.239 133.995V123.383H275.224V139.274H272.001L265.586 128.911V139.274H262.601Z" fill="#C41E0A"/>
<path d="M286.023 133.431V130.754H292.948V137.084C292.275 137.735 291.299 138.307 290.023 138.802C288.745 139.297 287.452 139.545 286.142 139.545C284.478 139.545 283.028 139.196 281.79 138.499C280.553 137.801 279.623 136.804 279.001 135.507C278.379 134.21 278.067 132.799 278.067 131.274C278.067 129.619 278.415 128.149 279.109 126.862C279.804 125.576 280.82 124.59 282.159 123.903C283.179 123.376 284.449 123.112 285.969 123.112C287.944 123.112 289.487 123.526 290.598 124.353C291.708 125.18 292.423 126.324 292.741 127.784L289.55 128.38C289.326 127.599 288.905 126.983 288.286 126.532C287.667 126.08 286.895 125.854 285.969 125.854C284.565 125.854 283.449 126.299 282.62 127.187C281.792 128.076 281.378 129.395 281.378 131.144C281.378 133.03 281.797 134.445 282.637 135.388C283.476 136.331 284.576 136.802 285.936 136.802C286.609 136.802 287.284 136.67 287.96 136.407C288.637 136.143 289.217 135.823 289.702 135.447V133.431H286.023Z" fill="#C41E0A"/>
<path d="M295.889 139.274V136.228H298.939V139.274H295.889Z" fill="#C41E0A"/>
<path d="M302.064 139.274V136.228H305.114V139.274H302.064Z" fill="#C41E0A"/>
<path d="M308.24 139.274V136.228H311.29V139.274H308.24Z" fill="#C41E0A"/>
<path d="M405.791 394.362V401.365C405.791 404.262 405.894 408.092 403.478 409.99C374.641 432.64 282.75 427.091 278.186 405.388V395.58L405.791 394.362Z" fill="#6C6C71"/>
<path d="M405.791 394.362C405.791 403.923 378.712 417.332 342.024 417.332C305.336 417.332 278.186 405.266 278.186 395.705C278.186 386.145 305.336 374.079 342.024 374.079C378.712 374.079 405.791 384.801 405.791 394.362Z" fill="#BFC0C6"/>
<path d="M342.024 417.626C325.122 417.626 308.864 415.052 296.244 410.38C284.752 406.124 277.891 400.638 277.891 395.705C277.891 390.772 284.752 385.286 296.244 381.031C308.863 376.358 325.122 373.785 342.024 373.785C359.1 373.785 375.343 376.119 387.76 380.357C393.377 382.274 398.012 384.545 401.164 386.925C404.383 389.355 406.085 391.927 406.085 394.362C406.085 396.811 404.387 399.524 401.175 402.21C397.978 404.883 393.344 407.475 387.775 409.705C375.02 414.813 358.772 417.626 342.024 417.626ZM342.024 374.373C325.19 374.373 309.004 376.933 296.449 381.583C290.904 383.636 286.317 386.035 283.184 388.523C280.106 390.966 278.48 393.45 278.48 395.705C278.48 397.961 280.107 400.445 283.184 402.888C286.317 405.375 290.904 407.775 296.449 409.828C309.004 414.477 325.19 417.038 342.024 417.038C358.698 417.038 374.869 414.24 387.556 409.159C398.622 404.728 405.496 399.058 405.496 394.362C405.496 389.772 398.795 384.744 387.57 380.913C375.212 376.696 359.037 374.373 342.024 374.373Z" fill="#302626"/>
<path d="M407.228 301.022L401.078 392.402C385.369 419.835 286.029 419.287 282.975 392.402L281.928 307.3L407.228 301.022Z" fill="#8F9095"/>
<path d="M401.078 392.696C401.071 392.696 401.065 392.696 401.058 392.696C400.896 392.685 400.773 392.545 400.784 392.383L406.934 301.002C406.945 300.84 407.085 300.718 407.248 300.728C407.41 300.739 407.532 300.879 407.522 301.042L401.371 392.422C401.361 392.577 401.232 392.696 401.078 392.696Z" fill="#07242B"/>
<path d="M410.477 278.964C410.477 288.145 381.409 301.022 342.026 301.022C302.644 301.022 273.5 289.436 273.5 280.255C273.5 271.074 302.644 259.487 342.026 259.487C381.409 259.487 410.477 269.783 410.477 278.964Z" fill="#BFC0C6"/>
<path d="M400.346 279.059C400.627 308.763 283.432 309.867 283.151 280.163C285.492 273.06 310.957 267.466 342.027 267.466C371.469 267.466 395.878 272.49 400.346 279.059Z" fill="#6C6C71"/>
<path d="M400.881 274.525L374.994 260.864C374.047 260.364 372.909 260.799 372.452 261.836L357.542 295.705C358.684 295.66 359.873 296.277 360.438 297.36C361.19 298.802 360.982 300.462 360.01 301.606L381.016 312.691C381.442 310.622 383.428 308.868 385.557 308.868C386.325 308.868 387.041 309.028 387.678 309.319L401.77 277.308C402.226 276.271 401.829 275.025 400.881 274.525Z" fill="#FCE2C2"/>
<path d="M368.972 287.106L364.117 280.77L357.542 295.705C358.684 295.66 359.873 296.277 360.438 297.36C361.19 298.802 360.982 300.462 360.01 301.606L368.783 306.236L383.03 305.454L368.972 287.106Z" fill="url(#paint0_linear_105_12163)"/>
<path d="M367.816 272.368L372.452 261.836C372.909 260.799 374.047 260.363 374.994 260.863L387.216 267.313L392.877 275.653L376.836 273.551L367.816 272.368Z" fill="url(#paint1_linear_105_12163)"/>
<path d="M360.677 288.584L381.797 284.82L372.065 262.716L360.677 288.584Z" fill="url(#paint2_linear_105_12163)"/>
<path d="M387.267 283.834L382.416 294.854C382.051 295.682 382.775 296.581 383.573 296.292C383.956 296.152 384.388 295.958 384.862 295.688C387.714 296.93 389.01 292.236 387.475 291.346C390.438 291.618 391.579 285.788 389.326 285.548C389.675 284.361 389.424 283.354 388.852 283.114C388.241 282.858 387.552 283.188 387.267 283.834Z" fill="white"/>
<path d="M394.973 285.19C394.125 285.535 393.156 285.516 392.276 285.051C390.56 284.146 389.839 281.887 390.666 280.008C390.698 279.935 390.733 279.863 390.769 279.794C389.96 280.121 389.264 280.778 388.86 281.695C388.033 283.574 388.753 285.833 390.47 286.738C392.119 287.609 394.088 286.913 394.973 285.19Z" fill="url(#paint3_linear_105_12163)"/>
<path d="M341.824 287.222L313.616 246.297C312.797 245.109 311.169 244.808 309.979 245.626L277.466 267.979C276.276 268.797 275.976 270.423 276.795 271.611L303.539 310.413C304.268 309.025 305.749 307.991 307.315 307.991C309.397 307.991 311.064 309.27 311.648 311.139L341.152 290.855C342.342 290.036 342.643 288.41 341.824 287.222Z" fill="#FCE2C2"/>
<path d="M301.955 291.455L291.746 293.303L303.539 310.413C304.267 309.025 305.749 307.991 307.314 307.991C309.396 307.991 311.064 309.27 311.648 311.139L322.666 303.564L331.517 286.106L301.955 291.455Z" fill="url(#paint4_linear_105_12163)"/>
<path d="M285.111 283.677L276.795 271.612C275.976 270.423 276.276 268.797 277.466 267.979L292.817 257.426L305.757 255.863L292.543 273.666L285.111 283.677Z" fill="url(#paint5_linear_105_12163)"/>
<path d="M297.916 302.255L308.198 274.756L277.489 272.619L297.916 302.255Z" fill="url(#paint6_linear_105_12163)"/>
<path d="M310.849 267.628L319.551 280.252C320.205 281.202 321.678 280.897 321.905 279.767C322.015 279.224 322.097 278.589 322.125 277.857C325.421 275.23 321.189 270.77 319.175 272.047C321.489 268.686 315.915 263.704 314.118 266.24C313.063 265.087 311.795 264.76 311.145 265.292C310.449 265.862 310.339 266.887 310.849 267.628Z" fill="white"/>
<path d="M317.575 259.29C317.372 260.515 316.692 261.657 315.587 262.417C313.431 263.899 310.48 263.355 308.996 261.202C308.939 261.118 308.884 261.032 308.833 260.946C308.638 262.114 308.879 263.351 309.604 264.402C311.088 266.555 314.039 267.099 316.195 265.617C318.266 264.192 318.849 261.415 317.575 259.29Z" fill="url(#paint7_linear_105_12163)"/>
<path d="M344.872 325.189H344.283V409.501H344.872V325.189Z" fill="#302626"/>
<path d="M318.616 324.332H318.027V406.999H318.616V324.332Z" fill="#302626"/>
<path d="M372.886 322.189H372.297V404.857H372.886V322.189Z" fill="#302626"/>
<path d="M291.278 317.114L290.689 317.131L293.018 400.209L293.607 400.192L291.278 317.114Z" fill="#302626"/>
<path d="M396.234 314.132L393.896 397.21L394.484 397.226L396.823 314.148L396.234 314.132Z" fill="#302626"/>
<path d="M353.284 298.959L322.412 295.465C321.671 295.381 321.138 294.713 321.222 293.973L325.954 252.261C326.038 251.521 326.707 250.989 327.448 251.073L358.321 254.566C359.062 254.65 359.594 255.318 359.51 256.058L354.778 297.77C354.694 298.511 354.025 299.043 353.284 298.959Z" fill="#D4D4D4"/>
<path d="M354.364 263.788C354.353 263.788 354.342 263.787 354.331 263.786L329.098 260.93C328.936 260.912 328.82 260.766 328.839 260.605C328.857 260.444 329.001 260.327 329.164 260.346L354.397 263.201C354.559 263.22 354.675 263.365 354.656 263.527C354.639 263.677 354.512 263.788 354.364 263.788Z" fill="white"/>
<path d="M354.063 266.44C354.052 266.44 354.041 266.439 354.03 266.438L328.797 263.582C328.635 263.564 328.519 263.419 328.538 263.257C328.556 263.096 328.7 262.979 328.863 262.998L354.096 265.853C354.258 265.872 354.374 266.017 354.355 266.179C354.338 266.329 354.211 266.44 354.063 266.44Z" fill="white"/>
<path d="M345.823 268.671C345.812 268.671 345.801 268.67 345.79 268.669L328.443 266.706C328.281 266.688 328.165 266.542 328.183 266.381C328.202 266.219 328.346 266.103 328.509 266.121L345.856 268.084C346.018 268.103 346.134 268.248 346.116 268.41C346.099 268.56 345.971 268.671 345.823 268.671Z" fill="white"/>
<path d="M353.139 274.592C353.127 274.592 353.116 274.591 353.105 274.59L327.872 271.734C327.711 271.716 327.595 271.57 327.613 271.409C327.631 271.248 327.776 271.131 327.939 271.15L353.171 274.005C353.333 274.024 353.449 274.169 353.431 274.331C353.414 274.481 353.286 274.592 353.139 274.592Z" fill="white"/>
<path d="M352.838 277.244C352.826 277.244 352.815 277.243 352.804 277.242L327.571 274.386C327.41 274.368 327.294 274.222 327.312 274.061C327.33 273.9 327.474 273.783 327.638 273.802L352.87 276.657C353.032 276.676 353.148 276.821 353.13 276.983C353.113 277.133 352.985 277.244 352.838 277.244Z" fill="white"/>
<path d="M344.598 279.475C344.587 279.475 344.576 279.474 344.564 279.473L327.217 277.51C327.056 277.492 326.939 277.346 326.958 277.185C326.976 277.023 327.12 276.907 327.283 276.925L344.631 278.889C344.792 278.907 344.908 279.053 344.89 279.214C344.873 279.364 344.746 279.475 344.598 279.475Z" fill="white"/>
<path d="M351.913 285.396C351.902 285.396 351.891 285.395 351.879 285.394L326.647 282.539C326.485 282.52 326.369 282.375 326.387 282.213C326.405 282.052 326.55 281.936 326.713 281.954L351.946 284.81C352.107 284.828 352.223 284.974 352.205 285.135C352.188 285.285 352.06 285.396 351.913 285.396Z" fill="white"/>
<path d="M351.612 288.048C351.601 288.048 351.59 288.047 351.578 288.046L326.346 285.191C326.184 285.172 326.068 285.027 326.086 284.865C326.104 284.704 326.25 284.588 326.412 284.606L351.645 287.462C351.806 287.48 351.922 287.626 351.904 287.787C351.887 287.937 351.76 288.048 351.612 288.048Z" fill="white"/>
<path d="M343.372 290.279C343.361 290.279 343.35 290.278 343.339 290.277L325.991 288.314C325.83 288.296 325.714 288.15 325.732 287.989C325.75 287.827 325.894 287.711 326.058 287.73L343.405 289.693C343.566 289.711 343.683 289.857 343.664 290.018C343.647 290.168 343.52 290.279 343.372 290.279Z" fill="white"/>
<path d="M352.811 299.248C352.723 299.248 352.635 299.243 352.545 299.233L340.641 297.886C340.479 297.868 340.363 297.722 340.381 297.56C340.4 297.399 340.544 297.283 340.707 297.301L352.612 298.649C353.576 298.758 354.448 298.063 354.558 297.101L359.138 256.723C359.191 256.256 359.059 255.798 358.767 255.43C358.474 255.064 358.056 254.832 357.589 254.779L348.854 253.791C348.692 253.773 348.576 253.627 348.595 253.466C348.613 253.304 348.759 253.188 348.92 253.207L357.655 254.195C358.278 254.266 358.837 254.574 359.227 255.064C359.618 255.554 359.794 256.167 359.724 256.789L355.143 297.167C355.007 298.363 353.989 299.248 352.811 299.248Z" fill="#07242B"/>
<path d="M410.476 278.964V291.024C410.476 296.136 407.844 300.884 403.518 303.617C374.629 321.859 312.829 320.579 282.548 307.57C277.065 305.215 273.5 299.843 273.5 293.883V280.254L276.662 279.452C276.546 279.804 276.662 282.205 276.662 282.565C276.662 290.168 309.414 294.999 342.027 294.999C374.64 294.999 401.078 288.835 401.078 281.232C401.078 280.493 401.823 279.361 401.342 278.653L410.476 278.964Z" fill="#BFC0C6"/>
<path d="M340.571 317.629C318.363 317.629 296.814 314.019 282.431 307.84C276.826 305.433 273.205 299.954 273.205 293.883V280.255C273.206 277.569 273.632 275.342 278.996 273.15L279.219 273.695C274.172 275.756 273.794 277.631 273.794 280.255V293.883C273.794 299.719 277.276 304.985 282.663 307.3C297.618 313.725 320.378 317.357 343.551 317.019C368.398 316.655 390.198 311.68 403.36 303.368C407.632 300.671 410.182 296.056 410.182 291.023V278.964H410.771V291.023C410.771 296.259 408.118 301.06 403.675 303.866C396.73 308.251 387.671 311.677 376.75 314.047C366.815 316.204 355.338 317.435 343.559 317.607C342.563 317.621 341.565 317.629 340.571 317.629Z" fill="#302626"/>
<path d="M381.433 278.809L357.584 296.184C357.236 296.437 356.747 296.361 356.494 296.013L342.529 276.893C342.275 276.546 342.352 276.058 342.7 275.805L366.549 258.43C366.897 258.177 367.386 258.253 367.639 258.601L381.604 277.721C381.858 278.068 381.781 278.556 381.433 278.809Z" fill="white"/>
<path d="M368.833 260.234L343.722 278.527L342.432 276.76C342.232 276.486 342.292 276.101 342.567 275.901L366.682 258.333C366.957 258.133 367.342 258.193 367.542 258.468L368.833 260.234Z" fill="#838383"/>
<path d="M345.333 275.62C345.458 275.791 345.421 276.031 345.249 276.156C345.078 276.281 344.838 276.243 344.713 276.072C344.587 275.901 344.625 275.661 344.796 275.536C344.968 275.411 345.208 275.449 345.333 275.62Z" fill="white"/>
<path d="M346.281 274.929C346.406 275.1 346.368 275.34 346.197 275.465C346.026 275.59 345.786 275.552 345.66 275.381C345.535 275.21 345.573 274.97 345.744 274.845C345.916 274.72 346.156 274.758 346.281 274.929Z" fill="white"/>
<path d="M344.351 276.335C344.476 276.506 344.439 276.746 344.267 276.871C344.096 276.996 343.856 276.958 343.731 276.787C343.606 276.616 343.643 276.376 343.815 276.251C343.986 276.126 344.226 276.164 344.351 276.335Z" fill="white"/>
<path d="M368.137 267.825L368.931 268.912L365.064 277.029L364.42 278.38C364.034 279.192 363.263 279.754 362.371 279.873L360.953 280.064L351.966 281.272L351.172 280.184C350.804 279.681 350.914 278.975 351.418 278.608L366.559 267.577C367.063 267.211 367.769 267.321 368.137 267.825Z" fill="#D26156"/>
<path d="M368.647 268.523L368.687 268.578C368.319 268.074 367.613 267.964 367.109 268.33L367.163 268.291C367.638 267.945 368.302 268.05 368.647 268.523Z" fill="white"/>
<path d="M369.77 270.06L375.81 278.331C376.073 278.693 376.16 279.155 376.049 279.589L359.944 291.299C359.511 291.274 359.112 291.057 358.857 290.707L352.804 282.419L361.382 281.267L363.21 281.021C364.102 280.902 364.873 280.34 365.259 279.529L366.079 277.807L369.77 270.06Z" fill="#D26156"/>
<path d="M340.854 296.15C330.537 296.15 320.151 295.555 310.723 294.372C299.348 292.945 279.827 289.378 276.901 281.525L277.453 281.32C278.526 284.2 282.196 286.777 288.36 288.979C293.989 290.99 301.747 292.653 310.797 293.789C328.472 296.007 349.537 296.153 367.145 294.18C376.805 293.097 384.933 291.396 390.652 289.26C396.939 286.912 400.344 284.1 400.772 280.903L401.356 280.981C400.897 284.41 397.365 287.38 390.858 289.811C385.095 291.963 376.918 293.676 367.21 294.764C358.95 295.69 349.929 296.15 340.854 296.15Z" fill="#302626"/>
<path d="M173.751 134.977C174.268 127.283 172.319 116.705 168.4 109.974C166.071 105.975 163.373 105.781 163.033 105.596C162.765 105.45 160.871 102.053 156.067 102.373C148.384 102.884 142.324 105.77 138.373 112.475C134.723 118.669 133.319 125.924 132.03 132.904C131.467 135.951 130.903 138.999 130.34 142.046C129.867 144.606 128.7 147.772 129.252 150.368C130.199 154.827 133.949 158.563 138.15 160.031C141.501 161.25 145.133 161.439 148.699 161.435C155.307 161.426 162.578 160.479 167.028 155.6C169.937 152.409 171.131 148.056 172.155 143.863C172.607 142.007 173.046 140.142 173.358 138.26C173.538 137.172 173.676 136.078 173.751 134.977Z" fill="#302626"/>
<path d="M170.121 221.096C169.067 220.187 134.32 219.313 134.32 219.313L128.671 250.532C128.671 250.532 147.07 306.833 146.405 316.902C145.445 331.426 172.99 330.157 173.976 318.802C175.933 296.25 175.554 247.402 170.121 221.096Z" fill="#D26156"/>
<path d="M153.112 228.753C152.189 227.667 132.223 216.771 132.223 216.771C131.058 213.985 123.269 225.623 117.803 243.492C113.623 257.153 120.278 303.685 120.754 322.995C121.046 334.838 149.564 325.714 149.695 321.527C150.548 294.246 154.75 251.669 153.112 228.753Z" fill="#D26156"/>
<path d="M153.101 401.132C153.098 401.128 153.095 401.126 153.093 401.122C153.096 401.134 153.099 401.135 153.101 401.132Z" fill="#F59979"/>
<path d="M163.64 392.362C163.283 388.082 164.031 367.236 164.031 367.236L150.881 370.395L151.021 398.539C151.021 398.539 151.774 398.619 152.934 398.628C153.037 399.903 153.126 401.085 153.1 401.131C156.605 405.795 169.795 399.521 169.795 399.521C164.491 398.12 163.739 393.343 163.64 392.362Z" fill="#F59979"/>
<path d="M151.005 395.39C151.005 395.39 150.685 400.989 151.076 405.044C151.109 405.379 151.329 405.651 151.631 405.735C153.376 406.224 159.519 407.833 167.937 408.437C169.376 408.395 177.247 409.273 180.378 407.636C180.925 407.351 181.246 406.718 181.191 406.065C181.021 404.032 180.11 401.691 169.795 399.521C162.557 401.698 154.628 400.986 151.005 395.39Z" fill="#302626"/>
<path d="M147.938 318.492C147.065 329.061 148.719 372.039 147.805 387.796C156.837 389.939 160.077 390.143 167.991 388.025C171.732 370.03 174.052 330.194 173.975 318.802C173.837 298.194 148.769 308.436 147.938 318.492Z" fill="#D26156"/>
<path d="M113.515 402.515C113.514 402.512 113.511 402.509 113.509 402.505C113.511 402.516 113.513 402.518 113.515 402.515Z" fill="#F59979"/>
<path d="M125.281 395.951C125.621 391.662 129.713 371.262 129.713 371.262L116.288 371.782L111.89 399.55C111.89 399.55 112.617 399.777 113.755 400.016C113.651 401.292 113.548 402.475 113.515 402.515C116.206 407.803 130.174 404.221 130.174 404.221C125.19 401.794 125.22 396.938 125.281 395.951Z" fill="#F59979"/>
<path d="M112.382 396.443C112.382 396.443 111.166 401.899 110.897 405.972C110.875 406.309 111.048 406.621 111.33 406.764C112.965 407.589 118.74 410.387 126.912 412.643C128.332 412.886 135.923 415.304 139.262 414.308C139.845 414.135 140.263 413.575 140.314 412.921C140.475 410.883 139.957 408.395 130.174 404.221C122.713 404.94 115.039 402.674 112.382 396.443Z" fill="#302626"/>
<path d="M120.68 320.821C118.761 332.43 113.552 370.888 110.116 386.238C119.743 391.82 120.227 390.297 129.908 390.447C136.482 373.448 147.217 331.777 150.978 317.519C156.23 297.611 122.318 310.908 120.68 320.821Z" fill="#D26156"/>
<path d="M117.757 390.191C117.739 390.191 117.721 390.189 117.702 390.185C117.543 390.155 117.437 390.002 117.468 389.842C122.302 364.158 123.778 354.466 126.223 338.409C126.76 334.882 127.369 330.885 128.066 326.378C128.041 324.327 128.041 321.87 128.041 319.268C128.04 313.853 128.039 307.716 127.82 303.431C127.616 299.458 127.373 295.504 127.137 291.68C125.891 271.491 124.715 252.421 129.359 231.07C129.393 230.911 129.55 230.81 129.709 230.845C129.868 230.879 129.969 231.036 129.934 231.194C125.307 252.467 126.481 271.497 127.724 291.644C127.96 295.47 128.204 299.425 128.408 303.402C128.627 307.701 128.629 313.846 128.629 319.268C128.63 321.878 128.63 324.343 128.655 326.395C128.655 326.411 128.654 326.427 128.651 326.443C127.953 330.96 127.344 334.964 126.806 338.497C124.359 354.561 122.883 364.256 118.046 389.951C118.02 390.092 117.896 390.191 117.757 390.191Z" fill="#07242B"/>
<path d="M147.675 330.372C147.65 330.372 147.625 330.369 147.6 330.362C147.442 330.321 147.349 330.16 147.39 330.003C150.647 317.618 152.857 263.61 152.879 263.066C152.882 262.989 152.915 262.916 152.972 262.863L157.616 258.519C157.735 258.408 157.921 258.414 158.033 258.533C158.144 258.652 158.138 258.838 158.019 258.949L153.462 263.21C153.343 266.088 151.158 317.991 147.959 330.152C147.925 330.285 147.805 330.372 147.675 330.372Z" fill="#07242B"/>
<path d="M146.74 145.612L146.464 124.938L160.326 131.05L160.479 146.57C160.49 147.628 161.094 148.591 162.042 149.063L168.804 152.423C168.804 152.423 156.713 167.18 137.31 150.793C139.745 150.049 142.867 148.991 144.843 148.31C145.992 147.914 146.756 146.827 146.74 145.612Z" fill="#F59979"/>
<path d="M146.593 134.585L146.502 127.821C147.319 127.248 148.373 127.064 148.825 125.979L160.326 131.05L160.436 142.231C156.597 142.062 149.468 140.012 146.593 134.585Z" fill="#DD7A5C"/>
<path d="M194.207 179.545C196.52 186.14 204.029 191.181 208.805 196.288C210.958 198.59 213.618 200.348 216.286 202.028C216.824 202.367 217.378 202.717 217.754 203.231C218.511 204.267 218.347 205.767 217.663 206.852C216.98 207.938 215.874 208.684 214.756 209.313C207.364 213.473 204.389 206.68 191.564 205.977C189.046 205.839 185.982 207.297 184.064 205.661C179.471 201.745 175.756 196.709 173.854 190.984C171.953 185.259 171.952 178.837 174.318 173.288C176.183 168.915 176.634 154.829 181.534 157.938C184.244 159.954 192.413 174.431 194.207 179.545Z" fill="#CAE3DE"/>
<path d="M119.902 157.806C120.295 156.005 138.857 150.346 140.833 149.665C148.036 158.692 159.721 156.327 164.707 150.516C171.458 152.616 178.089 153.02 183.519 160.193C180.122 165.279 172.04 177.299 172.06 229.722C168.191 230.939 151.05 239.942 122.364 228.532C129.889 207.22 125.828 170.524 119.902 157.806Z" fill="#CAE3DE"/>
<path d="M153.318 155.915C152.791 155.915 152.259 155.889 151.721 155.839C146.969 155.393 142.492 152.973 140.581 149.817C140.497 149.678 140.542 149.498 140.681 149.414C140.82 149.33 141.001 149.374 141.085 149.513C142.904 152.517 147.201 154.824 151.776 155.253C156.701 155.716 161.215 153.963 164.488 150.319C164.597 150.198 164.783 150.188 164.904 150.297C165.025 150.405 165.035 150.591 164.926 150.712C161.883 154.1 157.807 155.915 153.318 155.915Z" fill="#07242B"/>
<path d="M180.409 180.303C180.25 180.303 180.119 180.176 180.115 180.016L179.871 169.499C179.867 169.337 179.996 169.202 180.159 169.198C180.324 169.194 180.456 169.323 180.46 169.485L180.704 180.002C180.708 180.165 180.579 180.299 180.417 180.303C180.414 180.303 180.412 180.303 180.409 180.303Z" fill="#07242B"/>
<path d="M163.62 124.109C163.62 124.109 166.727 120.159 169.129 122.746C169.792 123.46 170.143 124.42 170.129 125.394C170.101 127.459 169.033 130.783 163.88 130.804C163.921 131.031 163.62 124.109 163.62 124.109Z" fill="#DD7A5C"/>
<path d="M144.687 123.293C145.053 132.602 150.577 139.377 157.02 139.691C166.709 140.162 168.394 131.687 168.028 122.379C167.662 113.07 162.141 105.729 155.695 105.981C149.25 106.234 144.321 113.985 144.687 123.293Z" fill="#F59979"/>
<path d="M154.981 122.991C155.045 123.615 154.836 124.148 154.514 124.181C154.192 124.214 153.879 123.735 153.815 123.111C153.751 122.487 153.96 121.954 154.282 121.921C154.604 121.888 154.917 122.367 154.981 122.991Z" fill="#302626"/>
<path d="M165.045 123.5C165.109 124.124 164.9 124.656 164.578 124.69C164.256 124.723 163.943 124.244 163.879 123.62C163.814 122.996 164.023 122.463 164.345 122.43C164.667 122.397 164.981 122.876 165.045 123.5Z" fill="#302626"/>
<path d="M152.363 120.709C152.259 120.709 152.158 120.654 152.105 120.556C152.027 120.414 152.079 120.235 152.222 120.157C154.677 118.815 156.549 120.075 156.627 120.129C156.761 120.222 156.794 120.405 156.701 120.539C156.609 120.672 156.426 120.705 156.293 120.613C156.225 120.568 154.63 119.511 152.504 120.673C152.46 120.698 152.411 120.709 152.363 120.709Z" fill="#07242B"/>
<path d="M162.55 121.15C162.444 121.15 162.343 121.093 162.29 120.994C162.213 120.85 162.268 120.672 162.411 120.596C164.439 119.518 166.142 120.401 166.213 120.439C166.357 120.515 166.411 120.693 166.334 120.837C166.258 120.98 166.08 121.034 165.937 120.958C165.873 120.925 164.428 120.19 162.688 121.115C162.644 121.138 162.596 121.15 162.55 121.15Z" fill="#07242B"/>
<path d="M159.739 129.607C159.355 129.607 158.915 129.56 158.419 129.466C158.259 129.436 158.154 129.282 158.184 129.123C158.215 128.963 158.369 128.858 158.529 128.888C160.137 129.193 160.683 128.902 160.866 128.702C161.06 128.487 161.002 128.207 160.993 128.17C159.661 124.352 160.062 121.852 160.08 121.748C160.107 121.587 160.259 121.48 160.419 121.507C160.579 121.534 160.687 121.685 160.66 121.845C160.654 121.884 160.275 124.329 161.553 127.986C161.554 127.991 161.556 127.996 161.557 128C161.565 128.026 161.733 128.623 161.302 129.097C160.993 129.437 160.469 129.607 159.739 129.607Z" fill="#07242B"/>
<path d="M145.913 123.582C145.913 123.582 142.082 120.328 140.243 123.34C139.735 124.171 139.582 125.181 139.789 126.133C140.228 128.151 141.936 131.197 146.99 130.196C146.995 130.426 145.913 123.582 145.913 123.582Z" fill="#F59979"/>
<path d="M145.405 128.121C145.303 128.121 145.204 128.068 145.149 127.973C143.726 125.504 141.228 125.288 141.203 125.286C141.041 125.274 140.919 125.133 140.931 124.971C140.944 124.809 141.085 124.687 141.247 124.699C141.362 124.708 144.083 124.943 145.66 127.68C145.741 127.821 145.692 128 145.551 128.081C145.505 128.108 145.455 128.121 145.405 128.121Z" fill="#07242B"/>
<path d="M142.619 127.487C142.546 127.487 142.473 127.46 142.416 127.406C142.298 127.294 142.293 127.108 142.405 126.99L143.462 125.879C143.574 125.762 143.761 125.757 143.878 125.869C143.996 125.98 144.001 126.167 143.889 126.284L142.832 127.395C142.774 127.456 142.697 127.487 142.619 127.487Z" fill="#07242B"/>
<path d="M168.01 121.988C168.577 120.607 168.416 117.882 168.191 116.407C167.907 114.539 167.57 112.662 166.848 110.917C166.125 109.171 164.983 107.549 163.378 106.55C161.973 105.675 160.31 105.326 158.677 105.052C156.51 104.689 154.291 104.431 152.118 104.767C149.946 105.102 147.802 106.094 146.468 107.839C145.932 108.541 145.54 109.342 145.206 110.159C143.741 113.74 143.749 117.75 144.411 121.506C144.581 122.467 144.512 122.161 144.668 122.746C145.475 122.504 148.285 122.842 151.964 117.887C156.314 112.03 158.472 109.726 159.349 109.514C160.152 109.321 161.676 110.196 162.342 110.591C163.975 111.559 165.181 113.066 166.019 114.748C166.749 116.215 167.201 117.806 167.522 119.407C167.619 119.887 168.196 121.535 168.01 121.988Z" fill="#302626"/>
<path d="M120.961 156.892C114.89 159.749 98.4454 186.492 102.449 206.436C103.655 212.445 108.446 214.553 112.247 214.899C120.56 215.656 129.677 212.123 133.56 204.742C132.855 197.063 133.62 189.878 132.646 182.228C131.673 174.579 129.269 166.814 124.002 161.176C122.127 159.17 123.702 157.102 120.961 156.892Z" fill="#CAE3DE"/>
<path d="M124.065 188.157C123.904 188.157 123.772 188.027 123.771 187.866C123.753 186.153 123.757 184.33 123.762 182.399C123.775 176.951 123.789 171.317 123.298 167.449C123.278 167.287 123.392 167.14 123.553 167.12C123.715 167.099 123.862 167.214 123.882 167.375C124.378 171.281 124.364 176.934 124.351 182.401C124.346 184.329 124.341 186.151 124.359 187.86C124.361 188.022 124.231 188.155 124.068 188.157C124.067 188.157 124.066 188.157 124.065 188.157Z" fill="#07242B"/>
<path d="M112.393 191.512C112.303 191.512 112.215 191.471 112.157 191.395C112.059 191.265 112.085 191.081 112.215 190.983C114.411 189.327 117.07 188.145 119.702 187.654C122.215 187.186 124.521 187.397 126.029 188.235C126.171 188.314 126.222 188.493 126.143 188.635C126.064 188.777 125.885 188.828 125.743 188.749C123.088 187.274 117.296 187.888 112.57 191.452C112.517 191.492 112.454 191.512 112.393 191.512Z" fill="#07242B"/>
<path d="M121.484 214.664C121.355 214.664 121.237 214.58 121.2 214.45C121.156 214.294 121.247 214.132 121.403 214.087C124.651 213.169 128.513 210.483 129.609 207.129C129.659 206.974 129.825 206.89 129.98 206.94C130.135 206.991 130.219 207.157 130.169 207.311C129.009 210.861 124.962 213.692 121.564 214.653C121.537 214.661 121.51 214.664 121.484 214.664Z" fill="#07242B"/>
<path d="M149.097 234.643C147.367 234.643 145.636 234.571 143.91 234.425C137.762 233.908 131.661 232.461 125.777 230.125C125.626 230.065 125.552 229.894 125.612 229.743C125.672 229.593 125.843 229.519 125.994 229.579C139.188 234.816 150.972 234.506 158.534 233.323C166.733 232.041 171.877 229.485 171.928 229.459C172.073 229.386 172.25 229.444 172.323 229.589C172.396 229.734 172.338 229.911 172.193 229.984C172.141 230.01 166.932 232.601 158.649 233.9C155.493 234.395 152.297 234.643 149.097 234.643Z" fill="#07242B"/>
<path d="M160.411 212.795H250.317V161.828C250.317 159.499 248.392 157.611 246.016 157.611H203.458C202.53 156.136 201.602 154.66 200.674 153.185C199.27 150.955 196.783 149.602 194.11 149.617C184.972 149.667 175.833 149.717 166.695 149.767C163.219 149.786 160.411 152.554 160.411 155.963L160.411 212.795Z" fill="url(#paint8_linear_105_12163)"/>
<path d="M247.514 159.266H163.438V222.577H247.514V159.266Z" fill="white"/>
<path d="M244.151 224.886H166.577C163.171 224.886 160.411 222.179 160.411 218.84V177.884C160.411 173.365 164.147 169.702 168.756 169.702H207.27C208.274 168.105 209.279 166.508 210.284 164.911C211.545 162.907 213.779 161.692 216.181 161.705C225.278 161.755 234.374 161.805 243.471 161.855C247.258 161.876 250.317 164.892 250.317 168.605V218.84C250.317 222.179 247.556 224.886 244.151 224.886Z" fill="url(#paint9_linear_105_12163)"/>
<path d="M147.287 179.018C147.287 179.018 156.216 172.447 160.382 170.839C160.326 170.933 161.667 183.251 160.448 187.643C158.041 188.669 156.624 190.447 150.313 189.271C150.36 189.299 147.91 190.395 147.91 190.395L145.657 180.029L147.287 179.018Z" fill="#F59979"/>
<path d="M173.601 186.178C173.541 184.921 168.737 184.12 164.597 183.662C164.59 183.658 164.583 183.654 164.576 183.65C164.049 183.354 164.161 182.562 164.743 182.403C165.266 182.261 165.682 182.157 165.691 182.184C176.027 180.449 177.772 179.128 177.594 178.044C177.446 177.599 176.675 177.395 175.559 177.348C177.116 176.791 177.506 176.24 177.451 175.717C176.98 173.98 167.48 174.95 163.944 175.374C163.726 175.4 163.546 175.198 163.605 174.987C163.605 174.985 163.606 174.983 163.606 174.981C163.639 174.866 163.734 174.777 163.852 174.754C172.453 173.106 175.708 171.662 175.594 170.578C175.015 168.441 160.382 170.839 160.382 170.839L160.448 187.642L163.516 187.188L163.517 187.188C171.768 187.926 173.488 187.175 173.601 186.178Z" fill="#F59979"/>
<path d="M163.79 178.726C163.639 178.726 163.511 178.612 163.497 178.459C163.482 178.297 163.601 178.154 163.763 178.139L175.532 177.055C175.695 177.04 175.837 177.159 175.852 177.321C175.867 177.483 175.748 177.626 175.586 177.641L163.817 178.725C163.808 178.726 163.799 178.726 163.79 178.726Z" fill="#07242B"/>
<path d="M147.287 179.018C147.287 179.018 149.497 186.334 150.313 189.27C145.532 191.901 122.615 219.884 114.096 208.245C111.79 203.564 108.375 194.292 147.287 179.018Z" fill="#F59979"/>
<path d="M208.947 224.079C209.229 221.598 209.624 219.671 210.236 218.359C210.798 217.154 212.113 217.283 212.394 218.582C212.653 219.781 212.601 221.717 212.291 224.542C212.201 225.365 211.637 226.126 210.765 226.428C209.09 227.01 208.733 225.291 208.947 224.079Z" fill="#F59979"/>
<path d="M212.242 225.64C212.255 222.98 212.392 220.187 212.853 218.645C213.112 217.777 214.313 217.663 214.688 218.488C215.188 219.591 215.661 221.617 216.065 224.787C216.17 225.607 215.848 226.459 215.155 226.924C213.823 227.818 212.326 226.863 212.242 225.64Z" fill="#F59979"/>
<path d="M215.013 225.709C215.027 222.9 215.179 219.942 215.705 218.467C215.966 217.735 216.989 217.64 217.348 218.329C217.889 219.367 218.402 221.452 218.837 224.857C218.941 225.676 218.619 226.528 217.926 226.993C216.594 227.888 215.097 226.932 215.013 225.709Z" fill="#F59979"/>
<path d="M218.674 224.975C218.618 222.54 218.656 220.244 219.02 218.965C219.262 218.113 220.4 217.934 220.862 218.69C221.332 219.459 221.789 220.919 222.205 223.521C222.283 224.014 222.246 224.534 222.027 224.983C221.159 226.758 218.701 226.182 218.674 224.975Z" fill="#F59979"/>
<path d="M212.033 225.646C212.031 225.646 212.028 225.646 212.025 225.646C211.862 225.642 211.734 225.506 211.739 225.344L211.904 219.49C211.908 219.328 212.043 219.2 212.206 219.204C212.369 219.209 212.497 219.344 212.492 219.506L212.327 225.36C212.323 225.52 212.192 225.646 212.033 225.646Z" fill="#07242B"/>
<path d="M215.412 227.01C215.255 227.01 215.124 226.885 215.118 226.726L214.877 219.896C214.871 219.734 214.998 219.598 215.16 219.592C215.323 219.586 215.459 219.713 215.465 219.875L215.707 226.705C215.713 226.868 215.586 227.004 215.423 227.01C215.42 227.01 215.416 227.01 215.412 227.01Z" fill="#07242B"/>
<path d="M218.925 225.877C218.779 225.877 218.652 225.767 218.633 225.618L218.15 221.685C218.13 221.524 218.245 221.377 218.406 221.357C218.568 221.338 218.715 221.452 218.734 221.613L219.218 225.547C219.238 225.708 219.123 225.855 218.962 225.874C218.95 225.876 218.937 225.877 218.925 225.877Z" fill="#07242B"/>
<path d="M149.362 119.718C148.19 119.718 146.948 119.479 145.659 119.006C145.506 118.95 145.428 118.781 145.484 118.628C145.54 118.476 145.709 118.398 145.862 118.454C147.324 118.991 148.715 119.21 149.997 119.104C151.467 118.983 152.798 118.421 153.743 117.521C154.765 116.548 155.32 115.248 155.908 113.873C156.239 113.099 156.582 112.298 157.015 111.562C157.759 110.297 158.795 109.195 160.012 108.374C160.147 108.283 160.33 108.319 160.421 108.453C160.512 108.588 160.476 108.771 160.341 108.862C159.197 109.634 158.222 110.67 157.522 111.859C157.108 112.563 156.774 113.346 156.45 114.104C155.864 115.474 155.259 116.89 154.149 117.946C153.107 118.939 151.649 119.558 150.045 119.69C149.82 119.708 149.592 119.718 149.362 119.718Z" fill="#07242B"/>
<path d="M156.367 132.571C160.211 137.717 162.536 132.321 162.536 132.321L156.367 132.571Z" fill="white"/>
<path d="M442.368 296.291C438.516 297.489 437.543 298.46 436.344 302.307C435.144 298.46 434.172 297.489 430.32 296.291C434.172 295.093 435.144 294.122 436.344 290.275C437.543 294.122 438.516 295.093 442.368 296.291Z" fill="url(#paint10_linear_105_12163)"/>
<path d="M162.509 51.1356C158.819 52.2831 157.888 53.2133 156.739 56.8984C155.59 53.2133 154.659 52.2832 150.969 51.1356C154.659 49.9881 155.59 49.0579 156.739 45.3727C157.888 49.0577 158.819 49.988 162.509 51.1356Z" fill="url(#paint11_linear_105_12163)"/>
<path d="M432.327 125.615C428.637 126.763 427.706 127.693 426.557 131.378C425.408 127.693 424.477 126.763 420.787 125.615C424.477 124.468 425.408 123.538 426.557 119.853C427.706 123.538 428.637 124.468 432.327 125.615Z" fill="url(#paint12_linear_105_12163)"/>
<path d="M118.879 119.447C113.768 121.036 112.478 122.325 110.886 127.43C109.295 122.325 108.004 121.036 102.893 119.447C108.004 117.857 109.295 116.569 110.886 111.464C112.478 116.569 113.768 117.857 118.879 119.447Z" fill="url(#paint13_linear_105_12163)"/>
<path d="M61.1221 227.273C56.011 228.863 54.7208 230.152 53.1292 235.256C51.5376 230.152 50.2474 228.863 45.1362 227.273C50.2474 225.684 51.5375 224.395 53.1292 219.291C54.7208 224.395 56.0111 225.684 61.1221 227.273Z" fill="url(#paint14_linear_105_12163)"/>
<path d="M317.016 51.1942C312.461 52.6108 311.311 53.7592 309.892 58.3084C308.474 53.7592 307.324 52.6109 302.769 51.1942C307.324 49.7776 308.474 48.6291 309.892 44.0799C311.311 48.6291 312.461 49.7776 317.016 51.1942Z" fill="url(#paint15_linear_105_12163)"/>
</g>
<defs>
<linearGradient id="paint0_linear_105_12163" x1="376.624" y1="286.791" x2="367.549" y2="305.642" gradientUnits="userSpaceOnUse">
<stop stop-color="#F4C467"/>
<stop offset="1" stop-color="#F4B267"/>
</linearGradient>
<linearGradient id="paint1_linear_105_12163" x1="384.305" y1="265.344" x2="378.458" y2="277.491" gradientUnits="userSpaceOnUse">
<stop stop-color="#F4C467"/>
<stop offset="1" stop-color="#F4B267"/>
</linearGradient>
<linearGradient id="paint2_linear_105_12163" x1="380.342" y1="266.7" x2="368.089" y2="292.153" gradientUnits="userSpaceOnUse">
<stop stop-color="#F4C467"/>
<stop offset="1" stop-color="#F4B267"/>
</linearGradient>
<linearGradient id="paint3_linear_105_12163" x1="393.128" y1="280.929" x2="390.357" y2="286.686" gradientUnits="userSpaceOnUse">
<stop stop-color="#F4C467"/>
<stop offset="1" stop-color="#F4B267"/>
</linearGradient>
<linearGradient id="paint4_linear_105_12163" x1="306.921" y1="282.87" x2="321.635" y2="304.273" gradientUnits="userSpaceOnUse">
<stop stop-color="#F4C467"/>
<stop offset="1" stop-color="#F4B267"/>
</linearGradient>
<linearGradient id="paint5_linear_105_12163" x1="288.82" y1="260.173" x2="298.602" y2="274.403" gradientUnits="userSpaceOnUse">
<stop stop-color="#F4C467"/>
<stop offset="1" stop-color="#F4B267"/>
</linearGradient>
<linearGradient id="paint6_linear_105_12163" x1="287.408" y1="265.8" x2="307.799" y2="295.461" gradientUnits="userSpaceOnUse">
<stop stop-color="#F4C467"/>
<stop offset="1" stop-color="#F4B267"/>
</linearGradient>
<linearGradient id="paint7_linear_105_12163" x1="311.639" y1="259.017" x2="316.182" y2="265.625" gradientUnits="userSpaceOnUse">
<stop stop-color="#F4C467"/>
<stop offset="1" stop-color="#F4B267"/>
</linearGradient>
<linearGradient id="paint8_linear_105_12163" x1="160.411" y1="181.206" x2="250.317" y2="181.206" gradientUnits="userSpaceOnUse">
<stop stop-color="#F4C467"/>
<stop offset="1" stop-color="#F4B267"/>
</linearGradient>
<linearGradient id="paint9_linear_105_12163" x1="160.411" y1="193.296" x2="250.317" y2="193.296" gradientUnits="userSpaceOnUse">
<stop stop-color="#F4C467"/>
<stop offset="1" stop-color="#F4B267"/>
</linearGradient>
<linearGradient id="paint10_linear_105_12163" x1="430.32" y1="296.291" x2="442.368" y2="296.291" gradientUnits="userSpaceOnUse">
<stop stop-color="#F4C467"/>
<stop offset="1" stop-color="#F4B267"/>
</linearGradient>
<linearGradient id="paint11_linear_105_12163" x1="150.969" y1="51.1355" x2="162.509" y2="51.1355" gradientUnits="userSpaceOnUse">
<stop stop-color="#F4C467"/>
<stop offset="1" stop-color="#F4B267"/>
</linearGradient>
<linearGradient id="paint12_linear_105_12163" x1="420.787" y1="125.615" x2="432.327" y2="125.615" gradientUnits="userSpaceOnUse">
<stop stop-color="#F4C467"/>
<stop offset="1" stop-color="#F4B267"/>
</linearGradient>
<linearGradient id="paint13_linear_105_12163" x1="102.893" y1="119.447" x2="118.879" y2="119.447" gradientUnits="userSpaceOnUse">
<stop stop-color="#F4C467"/>
<stop offset="1" stop-color="#F4B267"/>
</linearGradient>
<linearGradient id="paint14_linear_105_12163" x1="45.1363" y1="227.273" x2="61.1222" y2="227.273" gradientUnits="userSpaceOnUse">
<stop stop-color="#F4C467"/>
<stop offset="1" stop-color="#F4B267"/>
</linearGradient>
<linearGradient id="paint15_linear_105_12163" x1="302.769" y1="51.1941" x2="317.016" y2="51.1941" gradientUnits="userSpaceOnUse">
<stop stop-color="#F4C467"/>
<stop offset="1" stop-color="#F4B267"/>
</linearGradient>
<clipPath id="clip0_105_12163">
<rect width="495" height="458" fill="white"/>
</clipPath>
</defs>
</svg>
