<svg width="672" height="783" viewBox="0 0 672 783" fill="none" xmlns="http://www.w3.org/2000/svg">
<path d="M84 0H547V537.5C547 665.354 443.354 769 315.5 769V769C187.646 769 84 665.354 84 537.5V0Z" fill="url(#paint0_linear_73_30965)"/>
<path d="M46 0H586V541.5C586 670.458 481.458 775 352.5 775H279.5C150.541 775 46 670.458 46 541.5V0Z" fill="url(#paint1_linear_73_30965)"/>
<path d="M115.737 418.254C135.781 384.719 117.855 352.856 75.428 334.958C63.3993 368.846 73.2053 413.904 115.737 418.254Z" fill="#DA3925"/>
<path d="M129.4 456.362C124.406 394.282 71.6494 369.434 0 385.385C15.7027 440.515 70.1458 489.988 129.4 456.362Z" fill="#004461"/>
<path d="M129.4 456.362C105.735 445.088 52.1943 410.638 16.252 393.328Z" fill="#004461"/>
<path d="M129.4 456.362C105.735 445.088 52.1943 410.638 16.252 393.328" stroke="#DCDCE4" stroke-width="2.21" stroke-linecap="round" stroke-linejoin="round"/>
<path d="M515.352 559.327C577.091 569.164 613.818 523.675 615.23 450.125C557.727 452.372 496.59 493.667 515.352 559.327Z" fill="#D9E3E7"/>
<path d="M515.353 559.327C531.944 538.947 578.242 494.961 603.633 464.064" stroke="#BBC0E6" stroke-width="2" stroke-linecap="round" stroke-linejoin="round"/>
<path d="M492.131 571.881C549.738 518.92 619.583 541.011 671.999 616.782C610.444 654.197 518.019 653.374 492.131 571.881Z" fill="#618DA0"/>
<path d="M492.131 571.881C523.562 581.666 602.338 595.566 650.23 610.25" stroke="#D9E3E7" stroke-width="2" stroke-linecap="round" stroke-linejoin="round"/>
<path d="M562.917 588.772L575.835 625.13" stroke="#D9E3E7" stroke-width="2" stroke-linecap="round" stroke-linejoin="round"/>
<path d="M585.21 593.501L612.34 575.186" stroke="#D9E3E7" stroke-width="2" stroke-linecap="round" stroke-linejoin="round"/>
<path d="M623.767 603.692L631.324 615.737" stroke="#D9E3E7" stroke-width="2" stroke-linecap="round" stroke-linejoin="round"/>
<path d="M533.342 582.227L564.813 554.375" stroke="#D9E3E7" stroke-width="2" stroke-linecap="round" stroke-linejoin="round"/>
<path d="M623.99 184.957C638.974 194.742 652.558 184.722 660.103 178.112C655.291 175.46 635.208 165.897 623.99 184.957Z" fill="#004461"/>
<path d="M478.116 244.321C507.443 221.354 562.396 193.816 626.671 184.331" stroke="#004461" stroke-width="2.69" stroke-linecap="round" stroke-linejoin="round"/>
<path d="M493.819 223.692C511.522 192.221 492.001 174.245 477.645 159.939C472.951 169.986 453.875 203.691 493.819 223.692Z" fill="#004461"/>
<path d="M523.407 205.716C543.464 184.775 531.879 166.903 523.577 152.925C517.929 159.796 496.342 182.201 523.407 205.716Z" fill="#004461"/>
<path d="M558.878 192.914C579.85 179.445 573.77 162.187 569.651 148.836C563.546 153.434 541.005 167.818 558.878 192.914Z" fill="#004461"/>
<path d="M594.063 183.351C608.916 178.948 608.275 167.583 608.131 158.908C603.686 160.607 587.748 165.283 594.063 183.351Z" fill="#004461"/>
<path d="M506.2 237.905C537.566 232.157 546.98 253.595 554.812 269.651C545.084 270.683 511.456 276.941 506.2 237.905Z" fill="#004461"/>
<path d="M538.743 218.963C564.696 209.857 575.601 226.854 584.439 239.5C576.281 241.681 548.471 251.531 538.743 218.963Z" fill="#004461"/>
<path d="M580.413 202.437C599.175 201.366 603.124 214.587 606.523 224.541C600.757 224.437 580.635 225.652 580.413 202.437Z" fill="#004461"/>
<path d="M609.269 193.293C619.898 190.667 623.572 197.826 626.593 203.169C623.285 203.718 611.884 206.566 609.269 193.293Z" fill="#004461"/>
<path d="M484.862 654.987V225.208C484.862 208.068 470.963 194.181 453.809 194.181H145.979C163.133 194.181 177.031 208.068 177.031 225.208V654.987C177.031 690.612 196.042 763 269.639 763H577.47C503.859 763 484.862 690.599 484.862 654.987Z" fill="#E9EDF7"/>
<path d="M177.032 337.009V225.208C177.032 208.068 163.133 194.181 145.979 194.181C128.825 194.181 114.927 208.068 114.927 225.208V434.179C114.927 485.717 96.0207 499.042 74.8789 508.004H177.032V337.009Z" fill="#CCDBE2"/>
<path d="M467.812 300.417H194.08V593.834H467.812V300.417Z" fill="#528398"/>
<path d="M399.04 509.715C413.16 525.784 421.75 546.817 421.75 569.835C421.75 578.144 420.613 586.178 418.521 593.834H420.142C422.195 586.178 423.319 578.131 423.319 569.835C423.319 550.331 417.253 532.224 406.924 517.266C423.228 531.375 444.448 539.945 467.656 539.945C467.708 539.945 467.76 539.945 467.813 539.945V538.377C467.813 538.377 467.708 538.377 467.656 538.377C440.918 538.377 416.834 526.842 400.112 508.487C416.834 490.132 440.918 478.597 467.656 478.597C467.708 478.597 467.76 478.597 467.813 478.597V477.029C467.813 477.029 467.708 477.029 467.656 477.029C444.448 477.029 423.215 485.599 406.924 499.708C417.253 484.75 423.319 466.643 423.319 447.138C423.319 427.634 417.253 409.514 406.924 394.556C423.228 408.665 444.448 417.235 467.656 417.235C467.708 417.235 467.76 417.235 467.813 417.235V415.667C467.813 415.667 467.708 415.667 467.656 415.667C440.918 415.667 416.834 404.132 400.112 385.777C416.834 367.422 440.918 355.887 467.656 355.887C467.708 355.887 467.76 355.887 467.813 355.887V354.319C467.813 354.319 467.708 354.319 467.656 354.319C444.448 354.319 423.215 362.889 406.924 376.998C417.253 362.04 423.319 343.933 423.319 324.415C423.319 316.133 422.208 308.098 420.155 300.456H418.534C420.626 308.098 421.75 316.133 421.75 324.415C421.75 347.434 413.16 368.467 399.04 384.536C384.919 368.467 376.329 347.434 376.329 324.415C376.329 316.12 377.466 308.085 379.545 300.456H377.924C375.871 308.112 374.76 316.133 374.76 324.415C374.76 343.92 380.827 362.04 391.156 376.998C374.852 362.889 353.631 354.319 330.424 354.319C307.216 354.319 285.983 362.889 269.692 376.998C280.021 362.04 286.087 343.933 286.087 324.428C286.087 316.146 284.976 308.112 282.923 300.469H281.302C283.394 308.112 284.518 316.146 284.518 324.428C284.518 347.447 275.928 368.48 261.808 384.549C247.687 368.48 239.097 347.447 239.097 324.428C239.097 316.133 240.234 308.098 242.313 300.469H240.692C238.639 308.125 237.528 316.146 237.528 324.428C237.528 343.933 243.595 362.04 253.924 376.998C237.842 363.072 216.948 354.567 194.094 354.345V355.913C220.465 356.174 244.196 367.631 260.722 385.777C244.196 403.923 220.465 415.38 194.094 415.641V417.209C216.948 416.987 237.842 408.482 253.924 394.556C243.595 409.514 237.528 427.621 237.528 447.125C237.528 466.63 243.595 484.737 253.924 499.695C237.842 485.769 216.948 477.264 194.094 477.042V478.61C220.465 478.871 244.196 490.328 260.722 508.474C244.196 526.62 220.452 538.077 194.094 538.338V539.906C216.948 539.684 237.829 531.179 253.924 517.253C243.595 532.211 237.528 550.318 237.528 569.822C237.528 578.118 238.652 586.165 240.705 593.821H242.326C240.234 586.165 239.097 578.131 239.097 569.822C239.097 546.804 247.687 525.771 261.808 509.702C275.928 525.771 284.518 546.804 284.518 569.822C284.518 578.131 283.381 586.165 281.289 593.821H282.91C284.963 586.165 286.087 578.118 286.087 569.822C286.087 550.318 280.021 532.211 269.692 517.253C285.996 531.362 307.216 539.919 330.424 539.919C353.631 539.919 374.865 531.349 391.156 517.24C380.827 532.198 374.76 550.305 374.76 569.809C374.76 578.105 375.884 586.152 377.937 593.808H379.558C377.466 586.152 376.329 578.118 376.329 569.809C376.329 546.791 384.919 525.758 399.04 509.689V509.715ZM421.75 447.112C421.75 470.131 413.16 491.164 399.04 507.233C384.919 491.164 376.329 470.131 376.329 447.112C376.329 424.094 384.919 403.061 399.04 386.992C413.16 403.061 421.75 424.094 421.75 447.112ZM391.156 499.682C374.852 485.573 353.631 477.003 330.424 477.003C307.216 477.003 285.996 485.573 269.692 499.669C280.021 484.71 286.087 466.604 286.087 447.099C286.087 427.595 280.021 409.488 269.692 394.53C285.996 408.639 307.216 417.209 330.424 417.209C353.631 417.209 374.865 408.639 391.156 394.53C380.827 409.488 374.76 427.595 374.76 447.112C374.76 466.63 380.827 484.724 391.156 499.682ZM330.424 355.847C357.161 355.847 381.245 367.383 397.968 385.738C381.245 404.093 357.161 415.628 330.424 415.628C303.686 415.628 279.602 404.093 262.88 385.738C279.602 367.383 303.686 355.847 330.424 355.847ZM239.097 447.099C239.097 424.081 247.687 403.048 261.808 386.979C275.928 403.048 284.518 424.081 284.518 447.099C284.518 470.118 275.928 491.151 261.808 507.22C247.687 491.151 239.097 470.118 239.097 447.099ZM330.424 538.351C303.686 538.351 279.602 526.816 262.88 508.461C279.602 490.106 303.686 478.57 330.424 478.57C357.161 478.57 381.245 490.106 397.968 508.461C381.245 526.816 357.161 538.351 330.424 538.351Z" fill="#E9EDF7"/>
<path d="M324.684 250.016C324.684 246.554 327.495 243.759 330.946 243.759C334.398 243.759 337.209 246.568 337.209 250.016C337.209 253.465 334.398 256.274 330.946 256.274C327.495 256.274 324.684 253.465 324.684 250.016Z" fill="#004461"/>
<path d="M358.678 256.274C362.137 256.274 364.941 253.472 364.941 250.016C364.941 246.56 362.137 243.759 358.678 243.759C355.219 243.759 352.415 246.56 352.415 250.016C352.415 253.472 355.219 256.274 358.678 256.274Z" fill="#004461"/>
<path d="M309.491 250.016C309.491 246.554 306.68 243.759 303.229 243.759C299.777 243.759 296.966 246.568 296.966 250.016C296.966 253.465 299.777 256.274 303.229 256.274C306.68 256.274 309.491 253.465 309.491 250.016Z" fill="#004461"/>
<path d="M411.002 269.9H250.902V276.184H411.002V269.9Z" fill="#004461"/>
<path d="M467.826 613.274H337.223V619.558H467.826V613.274Z" fill="#004461"/>
<path d="M431.478 628.572H337.223V634.856H431.478V628.572Z" fill="#004461"/>
<path d="M450.332 317.949H211.627V324.233H450.332V317.949Z" fill="#004461"/>
<path d="M407.394 347.409H211.627V353.693H407.394V347.409Z" fill="#004461"/>
<path d="M313.139 332.686H211.627V338.969H313.139V332.686Z" fill="#004461"/>
<path d="M450.332 394.543H211.627V400.827H450.332V394.543Z" fill="#004461"/>
<path d="M450.332 424.003H211.627V430.287H450.332V424.003Z" fill="#004461"/>
<path d="M266.018 453.462H211.627V459.746H266.018V453.462Z" fill="#004461"/>
<path d="M450.332 409.268H211.627V415.551H450.332V409.268Z" fill="#004461"/>
<path d="M450.332 438.739H211.627V445.023H450.332V438.739Z" fill="#004461"/>
<path d="M238.77 646.312C238.77 675.64 235.842 699.116 256.46 722.253C256.434 717.654 259.415 710.456 265.103 700.148C261.873 681.284 261.795 665.398 261.795 646.312H238.77Z" fill="#6E8692"/>
<path d="M261.795 646.312C261.795 665.398 261.873 681.284 265.103 700.148C278.047 710.312 285.408 716.7 302.51 722.253C282.95 697.94 284.819 675.993 284.819 646.312C275.615 646.312 271 646.312 261.795 646.312Z" fill="#376071"/>
<path d="M309.739 616.839C309.739 613.795 310.981 609.144 312.511 606.518L314.381 603.265C315.91 600.626 315.91 596.328 314.381 593.676L312.511 590.424C310.994 587.798 309.739 583.147 309.739 580.103V576.341C309.739 573.31 307.582 569.573 304.954 568.045L301.698 566.164C299.057 564.648 295.658 561.239 294.128 558.613L292.245 555.36C290.729 552.721 286.989 550.565 283.956 550.565H280.19C277.144 550.565 272.502 549.324 269.861 547.809L266.606 545.928C263.978 544.412 259.663 544.412 257.022 545.928L253.766 547.809C251.125 549.324 246.484 550.565 243.437 550.565H239.672C236.626 550.565 232.886 552.721 231.369 555.36L229.487 558.613C227.957 561.252 224.558 564.648 221.916 566.164L218.661 568.045C216.02 569.573 213.862 573.31 213.862 576.341V580.103C213.862 583.147 212.62 587.798 211.091 590.424L209.208 593.676C207.678 596.315 207.678 600.626 209.208 603.265L211.091 606.518C212.62 609.157 213.862 613.795 213.862 616.839V620.588C213.862 623.632 216.02 627.368 218.661 628.884L221.916 630.752C224.558 632.281 227.957 635.677 229.487 638.316L231.369 641.569C232.886 644.195 236.626 646.363 239.672 646.363H243.437C246.484 646.363 251.125 647.605 253.766 649.12L257.022 651.001C259.663 652.517 263.978 652.517 266.606 651.001L269.861 649.12C272.502 647.605 277.144 646.363 280.19 646.363H283.956C287.002 646.363 290.742 644.208 292.245 641.569L294.128 638.316C295.658 635.677 299.057 632.281 301.698 630.752L304.954 628.884C307.595 627.355 309.739 623.632 309.739 620.588V616.839Z" fill="#004461"/>
<path d="M224.623 598.471C224.623 577.961 241.28 561.317 261.807 561.317C282.335 561.317 298.979 577.961 298.979 598.471C298.979 618.982 282.322 635.625 261.807 635.625C241.293 635.625 224.623 618.995 224.623 598.471Z" fill="#6E8692"/>
<path d="M228.546 598.471C228.546 580.116 243.438 565.236 261.808 565.236C280.178 565.236 295.057 580.116 295.057 598.471C295.057 616.826 280.165 631.706 261.808 631.706C243.451 631.706 228.546 616.826 228.546 598.471Z" fill="#D83A3A"/>
<path d="M231.409 611.927C235.488 621.124 243.621 628.087 253.545 630.635L293.985 590.228C291.448 580.312 284.466 572.199 275.275 568.11L231.422 611.927H231.409Z" fill="#BD2512"/>
<path d="M228.546 598.301L261.625 565.249C243.399 565.34 228.65 580.09 228.546 598.301Z" fill="#BD2512"/>
<path d="M264.501 603.696H252.616L251.204 606.962C250.746 608.047 250.511 608.948 250.511 609.667C250.511 610.607 250.89 611.3 251.648 611.744C252.093 612.005 253.191 612.201 254.943 612.345V613.259H243.751V612.345C244.954 612.162 245.948 611.665 246.732 610.842C247.503 610.019 248.471 608.334 249.608 605.773L261.637 578.953H262.108L274.241 606.518C275.405 609.131 276.346 610.777 277.091 611.456C277.654 611.966 278.451 612.266 279.471 612.345V613.259H263.193V612.345H263.86C265.167 612.345 266.083 612.162 266.619 611.796C266.985 611.535 267.168 611.156 267.168 610.659C267.168 610.359 267.115 610.058 267.024 609.745C266.985 609.601 266.736 608.974 266.279 607.89L264.487 603.696H264.501ZM263.651 601.867L258.643 590.293L253.479 601.867H263.651Z" fill="#DEB164"/>
<path d="M379.702 703.467C371.373 695.146 373.125 659.494 384.736 659.494C396.346 659.494 390.672 683.636 389.011 689.358C393.836 681.559 407.368 669.606 423.11 681.481C432.315 688.431 428.771 710.535 419.567 705.871C400.517 696.243 440.264 657.835 440.264 657.835" stroke="#004461" stroke-width="2" stroke-linecap="round" stroke-linejoin="round"/>
<defs>
<linearGradient id="paint0_linear_73_30965" x1="315.5" y1="0" x2="315.5" y2="769" gradientUnits="userSpaceOnUse">
<stop stop-color="#004461" stop-opacity="0"/>
<stop offset="1" stop-color="#004461" stop-opacity="0.56"/>
</linearGradient>
<linearGradient id="paint1_linear_73_30965" x1="316" y1="0" x2="316" y2="775" gradientUnits="userSpaceOnUse">
<stop stop-color="#004461" stop-opacity="0"/>
<stop offset="1" stop-color="#024F70" stop-opacity="0.55"/>
</linearGradient>
</defs>
</svg>
