<svg xmlns="http://www.w3.org/2000/svg" xmlns:xlink="http://www.w3.org/1999/xlink" viewBox="0 0 485.68 451.58"><defs><style>.cls-1{isolation:isolate;}.cls-2,.cls-6{fill:#241a14;}.cls-2{stroke:#faf4e8;}.cls-11,.cls-12,.cls-2,.cls-28,.cls-30,.cls-4,.cls-42,.cls-50{stroke-linecap:round;stroke-linejoin:round;}.cls-11,.cls-2{stroke-width:0.25px;}.cls-3{fill:#edbaae;}.cls-11,.cls-12,.cls-18,.cls-28,.cls-30,.cls-36,.cls-37,.cls-4,.cls-42,.cls-50{fill:none;}.cls-11,.cls-12,.cls-28,.cls-4{stroke:#241a14;}.cls-4{stroke-width:0.5px;}.cls-13,.cls-5{fill:#739299;}.cls-7{fill:#f1c3b5;}.cls-8{fill:#ff7171;}.cls-9{fill:url(#linear-gradient);}.cls-10{fill:url(#linear-gradient-2);}.cls-12{stroke-width:0.46px;}.cls-13{opacity:0.42;}.cls-13,.cls-15,.cls-20,.cls-33,.cls-47,.cls-48,.cls-49{mix-blend-mode:multiply;}.cls-14{fill:#faf4e8;}.cls-15,.cls-31{fill:#fcdfde;}.cls-15{opacity:0.63;}.cls-16,.cls-20,.cls-38{fill:#d88c84;}.cls-17{fill:#f5bb60;}.cls-18,.cls-36,.cls-42{stroke:#739299;}.cls-18,.cls-36,.cls-37{stroke-miterlimit:10;}.cls-18{stroke-width:0.31px;}.cls-19,.cls-43{fill:#fff;}.cls-20{opacity:0.41;}.cls-21{opacity:0.44;}.cls-22{fill:#ffe9e9;}.cls-23{fill:#21386e;}.cls-24{fill:#06a6a4;}.cls-25{fill:#00ccbe;}.cls-26{fill:#0397c7;}.cls-27{fill:#252420;}.cls-28{stroke-width:0.18px;}.cls-29{fill:#bb5646;}.cls-30{stroke:#ff7171;stroke-width:3.05px;}.cls-32{fill:#fff2e9;}.cls-34{fill:#ffeadc;}.cls-35{fill:#e5d0c3;}.cls-36{stroke-width:0.65px;}.cls-37{stroke:#fff;stroke-width:0.88px;}.cls-38{font-size:22.33px;font-family:BebasNeueBold;}.cls-39{letter-spacing:0.01em;}.cls-40{letter-spacing:0em;}.cls-41{letter-spacing:-0.08em;}.cls-42{stroke-width:1.14px;}.cls-43{font-size:10.96px;font-family:BebasNeueBook;}.cls-44{letter-spacing:-0.04em;}.cls-45{letter-spacing:-0.01em;}.cls-46{letter-spacing:0em;}.cls-47,.cls-48,.cls-49{fill:#000061;}.cls-47{opacity:0.21;}.cls-48{opacity:0.09;}.cls-49{opacity:0.31;}.cls-50{stroke:#f5bb60;stroke-width:0.55px;}</style><linearGradient id="linear-gradient" x1="427.67" y1="210.58" x2="395.88" y2="169.21" gradientUnits="userSpaceOnUse"><stop offset="0" stop-color="#f1c3b5" stop-opacity="0"/><stop offset="1" stop-color="#ff7171" stop-opacity="0.3"/></linearGradient><linearGradient id="linear-gradient-2" x1="386.84" y1="226.35" x2="359.1" y2="190.26" xlink:href="#linear-gradient"/></defs><title>loginpicsvg</title><g class="cls-1"><g id="Layer_3" data-name="Layer 3"><path class="cls-2" d="M201.11,396.84a4.38,4.38,0,0,1-3.25-7.25c4.5-5.31,12.32-11.63,24-11.63,13.52,0,22.64,8.87,27.16,14.66a3,3,0,0,1-2.42,4.84Z" transform="translate(-5.56 -18.96)"/><path class="cls-3" d="M322.51,332.24s-2.72,15.65-3.91,31.33L256,371.83s-24.55-5.4-34.82-2.56-26.85,15.18-27.23,19.18c-.63,6.58,18.68,8.36,23.4,5.18,5-3.34,9.14-5.92,13.72-5.92s15.8,6.51,25.83,1.15l75.43,7.81a33.94,33.94,0,0,0,4.78.5l.32,0v0c8.66.24,17.74-2.38,21.25-5.88,7.26-7.26,8.48-59.06,8.48-59.06Z" transform="translate(-5.56 -18.96)"/><path class="cls-3" d="M241.88,379.72s-17.36,11.55-15.82,14.21,1.62,3.81,5.74,3,19.57-6.27,19.58-7-8.75-10.07-8.75-10.07" transform="translate(-5.56 -18.96)"/><path class="cls-4" d="M204.71,394.61s10.66-8.52,16.1-11.49c6.22-3.4,10.39-3.83,10.39-3.83" transform="translate(-5.56 -18.96)"/><path class="cls-4" d="M198.76,393.55s11.5-10.52,15.75-13.16a116.71,116.71,0,0,1,12-5.95" transform="translate(-5.56 -18.96)"/><path class="cls-4" d="M194.45,390.52s11.21-11.4,16.75-14.38a101.46,101.46,0,0,1,10.38-4.85" transform="translate(-5.56 -18.96)"/><path class="cls-4" d="M229.15,388.45s12.68-4.6,16.42-5.39" transform="translate(-5.56 -18.96)"/><path class="cls-4" d="M318.6,363.57s6,.71,8.83,4.21" transform="translate(-5.56 -18.96)"/><path class="cls-5" d="M355.41,257.47s-17,13.74-26.51,43S318,343.72,318,343.72h25.88Z" transform="translate(-5.56 -18.96)"/><line class="cls-4" x1="313.24" y1="319.52" x2="325.35" y2="319.52"/><path class="cls-6" d="M423.62,213.84s15.18-36,17.37-44.3S428.7,165,428.7,165l-7.49,19.75Z" transform="translate(-5.56 -18.96)"/><path class="cls-6" d="M360.7,147s-2.37,16,.4,22.54l6-22.54Z" transform="translate(-5.56 -18.96)"/><path class="cls-7" d="M421.19,206.72c-4.34,7.71-10.07,14.93-17.82,19.22s-17.76,5.17-25.33.6c-4.38-2.64-7.52-6.75-9.84-11.37-.22-.44-.44-.88-.64-1.33a55.5,55.5,0,0,1-2.58-6.73,92,92,0,0,1-3.83-18.94s0-.1,0-.15a100.48,100.48,0,0,1-.42-11.51c0-1.68.11-3.36.23-5,0-.65.09-1.29.15-1.94.76-8.56,2.62-17.22,7.17-24.51,5.26-8.46,15.53-14.78,25.74-14.26,18-.17,32.06,16.11,35.46,32.71C432.48,178.17,428.55,193.66,421.19,206.72Z" transform="translate(-5.56 -18.96)"/><path class="cls-6" d="M423.81,125.55s-13.21,13.28-11.17,22.73S423.81,161,423.81,161s-2,15.58,3.4,22.09L438.77,176s9.35-23.55,4.51-35.81A31.45,31.45,0,0,0,427,123.54Z" transform="translate(-5.56 -18.96)"/><path class="cls-6" d="M346.26,136.3a15.29,15.29,0,0,0,.44,1.93c2.27,7.63,11.23,13.27,19.11,11.44,13.64-3.18,18.24-10.33,18.24-10.33s10.52,13.28,28.75,3.83L427,123.54s-8-13.43-21.51-10.88-17.1,6.25-27.83,5c-6.72-.8-14.2-1.59-20.63,1.07C350,121.63,345.05,128.71,346.26,136.3Z" transform="translate(-5.56 -18.96)"/><path class="cls-7" d="M424.57,200.25l-1.86,39.81c-11.16,15.53-29.79,24.2-37.94,23.46s-5.59-10.12-5.59-10.12c1.4-2.61,2.95-8.74,4.2-14.49.82-3.76,1.51-7.36,1.94-9.69.3-1.67.48-2.7.48-2.7Z" transform="translate(-5.56 -18.96)"/><path class="cls-8" d="M412.41,218.86c-.25.8-6,20-16.81,23-5.52,1.5-10.82,1.17-12.22-2.94.82-3.76,1.51-7.36,1.94-9.69C385.32,229.22,398.16,233.62,412.41,218.86Z" transform="translate(-5.56 -18.96)"/><path class="cls-6" d="M393.34,171.08a15.31,15.31,0,0,1,5.75-2.52,17.28,17.28,0,0,1,6.38-.23,18.25,18.25,0,0,1,3.18.79,16.38,16.38,0,0,1,2.92,1.49,14,14,0,0,1,4.47,4.51,1.63,1.63,0,0,1-2.15,2.32l-.18-.1a41,41,0,0,0-4.5-2.37c-.73-.35-1.52-.55-2.26-.83a22.68,22.68,0,0,0-2.34-.53,25.55,25.55,0,0,0-4.92-.39c-1.68,0-3.49.2-5.18.37l-.21,0a1.4,1.4,0,0,1-1.54-1.25A1.43,1.43,0,0,1,393.34,171.08Z" transform="translate(-5.56 -18.96)"/><path class="cls-6" d="M378.14,172.58a1.24,1.24,0,0,1-1.11.54h-.18c-1.51-.11-3.11-.21-4.6-.19a23.54,23.54,0,0,0-4.34.48c-.7.12-1.36.36-2.05.54s-1.33.46-2,.8a24.09,24.09,0,0,0-3.18,1.77c0-1.68.11-3.36.23-5a7.67,7.67,0,0,1,.74-.53,13.83,13.83,0,0,1,2.53-1.4,16.06,16.06,0,0,1,2.79-.78,15.12,15.12,0,0,1,5.65,0,13.5,13.5,0,0,1,5.15,2.07A1.23,1.23,0,0,1,378.14,172.58Z" transform="translate(-5.56 -18.96)"/><path class="cls-6" d="M401.77,181.36a2.29,2.29,0,1,1-2.29-2.29A2.28,2.28,0,0,1,401.77,181.36Z" transform="translate(-5.56 -18.96)"/><path class="cls-6" d="M374.11,182.5a2.29,2.29,0,1,1-2.29-2.29A2.3,2.3,0,0,1,374.11,182.5Z" transform="translate(-5.56 -18.96)"/><circle class="cls-9" cx="404.04" cy="179.84" r="14.01"/><path class="cls-10" d="M374.11,202a14,14,0,0,1-6.55,11.85,55.5,55.5,0,0,1-2.58-6.73,92,92,0,0,1-3.83-18.94s0-.1,0-.15A14,14,0,0,1,374.11,202Z" transform="translate(-5.56 -18.96)"/><path class="cls-4" d="M382.23,178.66a40.52,40.52,0,0,1,.53,8.15,13.65,13.65,0,0,1-2.67,7.59c-.95,1.18-2.22,2.29-2.31,3.8a3.64,3.64,0,0,0,1.62,3,10.71,10.71,0,0,0,3.25,1.45" transform="translate(-5.56 -18.96)"/><path class="cls-4" d="M378.8,208.4s10.4,4.47,22.51-3.31" transform="translate(-5.56 -18.96)"/><path class="cls-11" d="M386.85,213s5.57.34,8.75-1.78" transform="translate(-5.56 -18.96)"/><path class="cls-7" d="M426.52,184.7s4.33-11.88,12.25-8.66,3.21,28.1-6.76,26.82-8.39-5.82-8.39-5.82Z" transform="translate(-5.56 -18.96)"/><path class="cls-12" d="M429,187.13s3.87-8.73,9.25-6.51,1,22.17-9.53,16.47" transform="translate(-5.56 -18.96)"/><path class="cls-12" d="M431.63,183s-3.91,8,1,15.09" transform="translate(-5.56 -18.96)"/><path class="cls-6" d="M423.6,188.18c.09.69.54,1.6,1.19,1.36a1,1,0,0,0,.46-.41,16.85,16.85,0,0,0,1.66-3.81,46.94,46.94,0,0,1,2.94-5.62,15.52,15.52,0,0,0,2.11-5.94,6.72,6.72,0,0,0-2.1-5.74,4.65,4.65,0,0,0-5.11-.48c-1.66,1-1.47,2.89-1.61,4.67A75.48,75.48,0,0,0,423.6,188.18Z" transform="translate(-5.56 -18.96)"/><path class="cls-5" d="M381.83,245.49s-5.44,16.17,3,16.4,38.1-24.51,38.1-24.51,39.26,19.15,49,36.51,12.51,66.64,9.95,84.77a309,309,0,0,1-7.57,35.87L324.6,393.19s9.81-124.15,32-136.52C377.49,245,381.83,245.49,381.83,245.49Z" transform="translate(-5.56 -18.96)"/><path class="cls-4" d="M344,279.94s-13.79,52.73-15.11,74.55-4.3,33.7-4.3,33.7" transform="translate(-5.56 -18.96)"/><path class="cls-4" d="M334,322.82s3.8-25.52,5-30.8" transform="translate(-5.56 -18.96)"/><path class="cls-4" d="M347,272.11s5.33-13.47,14.11-17.91" transform="translate(-5.56 -18.96)"/><path class="cls-13" d="M430.49,309.73s-18.87,56.08-19.64,71.14h27.32Z" transform="translate(-5.56 -18.96)"/><path class="cls-4" d="M378.36,247.55s-8.46,17.52,1.93,20.27,24.59-4.69,48.26-27.52" transform="translate(-5.56 -18.96)"/><path class="cls-7" d="M435.48,331.6s-2.93,16.87-4.22,33.76l-67.5,8.9s-28.39-8-39.46-5S292,391.17,294.68,394.53s22.64,6.94,28.43,4.9,8.85-4.9,13.79-4.9,17,3.87,27.83-1.91L446,401a37.74,37.74,0,0,0,5.15.54l.35,0v0c9.34.25,19.12-2.56,22.9-6.33,7.83-7.83,9.15-63.66,9.15-63.66Z" transform="translate(-5.56 -18.96)"/><path class="cls-4" d="M315.49,399.94s8.77-11.45,18.09-14.9" transform="translate(-5.56 -18.96)"/><path class="cls-4" d="M306.92,398.85s7-9.94,13.93-14.53,7.74-4.85,7.74-4.85" transform="translate(-5.56 -18.96)"/><path class="cls-4" d="M300.05,396.56s9.19-14.41,22.85-21.56" transform="translate(-5.56 -18.96)"/><path class="cls-4" d="M431.26,365.36s14.7-2,27.85,1.85" transform="translate(-5.56 -18.96)"/><path class="cls-5" d="M450.68,269.3s-19.73,14-20.74,49.81c-1,35.06-2.94,42.2-2.94,42.2l56.88.92s.37-61.48-8.88-81S450.68,269.3,450.68,269.3Z" transform="translate(-5.56 -18.96)"/><path class="cls-4" d="M449.75,259.17s-15.92,8.17-18.34,40.17-4.41,62-4.41,62l56.88.92" transform="translate(-5.56 -18.96)"/><path class="cls-4" d="M429.24,292s0,36.33-.46,43.43" transform="translate(-5.56 -18.96)"/><line class="cls-4" x1="422.14" y1="336.38" x2="478.31" y2="336.38"/><rect class="cls-6" x="18.83" y="192.29" width="267.55" height="175.19"/><path class="cls-14" d="M262.16,365.72h-69.6a1,1,0,0,1-1-1h0a1,1,0,0,1,1-1h69.6a1,1,0,0,1,1,1h0A1,1,0,0,1,262.16,365.72Z" transform="translate(-5.56 -18.96)"/><path class="cls-14" d="M262.16,369.83h-69.6a1,1,0,0,1-1-1h0a1,1,0,0,1,1-1h69.6a1,1,0,0,1,1,1h0A1,1,0,0,1,262.16,369.83Z" transform="translate(-5.56 -18.96)"/><path class="cls-14" d="M262.16,361.61h-69.6a1,1,0,0,1-1-1h0a1,1,0,0,1,1-1h69.6a1,1,0,0,1,1,1h0A1,1,0,0,1,262.16,361.61Z" transform="translate(-5.56 -18.96)"/><path class="cls-6" d="M89.33,418.85a.17.17,0,0,1-.12-.05.13.13,0,0,1,0-.13L127,286a16.22,16.22,0,0,1,31.72,6.28L144.29,418.73a.14.14,0,0,1-.14.12Z" transform="translate(-5.56 -18.96)"/><path class="cls-14" d="M142.58,274.41a16.07,16.07,0,0,1,16,17.89l-14.4,126.41H89.33l37.79-132.63a16.07,16.07,0,0,1,15.46-11.67m0-.29A16.42,16.42,0,0,0,126.84,286L89.05,418.63a.25.25,0,0,0,0,.25.29.29,0,0,0,.23.12h54.82a.28.28,0,0,0,.28-.26l14.41-126.4a16.37,16.37,0,0,0-16.26-18.22Z" transform="translate(-5.56 -18.96)"/><path class="cls-6" d="M215.76,423.21H39a5.74,5.74,0,0,1,5.75-5.75H210a5.75,5.75,0,0,1,5.75,5.75Z" transform="translate(-5.56 -18.96)"/><path class="cls-14" d="M46.25,373.74A3.23,3.23,0,1,1,43,370.51,3.23,3.23,0,0,1,46.25,373.74Z" transform="translate(-5.56 -18.96)"/><path class="cls-14" d="M59.17,373.74a3.23,3.23,0,1,1-3.23-3.23A3.23,3.23,0,0,1,59.17,373.74Z" transform="translate(-5.56 -18.96)"/><path class="cls-14" d="M71,373.74a3.23,3.23,0,1,1-3.23-3.23A3.23,3.23,0,0,1,71,373.74Z" transform="translate(-5.56 -18.96)"/><ellipse class="cls-15" cx="387.92" cy="435.32" rx="51.11" ry="4.16"/><path class="cls-16" d="M436.08,454.29h-5.2a4.28,4.28,0,0,1-4.26-4.26h0a4.28,4.28,0,0,1,4.26-4.27h5.2a4.28,4.28,0,0,1,4.26,4.27h0A4.28,4.28,0,0,1,436.08,454.29Z" transform="translate(-5.56 -18.96)"/><rect class="cls-17" x="346.17" y="426.8" width="82.04" height="8.53"/><rect class="cls-5" x="425.32" y="426.8" width="2.9" height="8.53"/><polygon class="cls-14" points="346.18 426.8 346.18 435.32 340.17 432.77 337.36 431.59 339.71 430.3 346.18 426.8"/><path class="cls-5" d="M345.73,451.74l-2.81-1.19,2.36-1.28A3.52,3.52,0,0,1,345.73,451.74Z" transform="translate(-5.56 -18.96)"/><line class="cls-18" x1="346.18" y1="428.36" x2="425.32" y2="428.36"/><line class="cls-18" x1="346.18" y1="432.77" x2="425.32" y2="432.77"/><ellipse class="cls-15" cx="224.05" cy="443.96" rx="77.78" ry="7.62"/><path class="cls-16" d="M307,430.84a.79.79,0,0,1-.78.78H194.14a11.89,11.89,0,0,1-11.89-11.9V411a11.91,11.91,0,0,1,11.91-11.91H305.92a1.07,1.07,0,1,1,0,2.13H293.39a1.07,1.07,0,0,0-1.06,1.07V429a1.07,1.07,0,0,0,1.06,1.07h12.83A.79.79,0,0,1,307,430.84Z" transform="translate(-5.56 -18.96)"/><path class="cls-19" d="M305.44,401.2v28.86H216.55a9.89,9.89,0,0,1-9.91-9.91v-9a9.93,9.93,0,0,1,3.24-7.34l.11-.09a10.19,10.19,0,0,1,.83-.64l0,0h0a9.85,9.85,0,0,1,5.71-1.82Z" transform="translate(-5.56 -18.96)"/><path class="cls-16" d="M307,430.84a.79.79,0,0,1-.78.78H210.65c-4.38-.78-8.32-3.45-8.32-17.58s9.91-15,9.91-15h93.68a1.07,1.07,0,1,1,0,2.13H293.39a1.07,1.07,0,0,0-1.06,1.07V429a1.07,1.07,0,0,0,1.06,1.07h12.83A.79.79,0,0,1,307,430.84Z" transform="translate(-5.56 -18.96)"/><path class="cls-20" d="M307,430.84a.79.79,0,0,1-.78.78H210.65c-4.38-.78-8.32-3.45-8.32-17.58s9.91-15,9.91-15h93.68a1.07,1.07,0,1,1,0,2.13H293.39a1.07,1.07,0,0,0-1.06,1.07V429a1.07,1.07,0,0,0,1.06,1.07h12.83A.79.79,0,0,1,307,430.84Z" transform="translate(-5.56 -18.96)"/><path class="cls-16" d="M307,430.84a.79.79,0,0,1-.78.78H304a.78.78,0,0,1,0-1.56h2.2A.79.79,0,0,1,307,430.84Z" transform="translate(-5.56 -18.96)"/><g class="cls-21"><path class="cls-16" d="M307,430.84a.79.79,0,0,1-.78.78H210.65c-4.38-.78-8.32-3.45-8.32-17.58s9.91-15,9.91-15h93.68a1.07,1.07,0,1,1,0,2.13H293.39a1.07,1.07,0,0,0-1.06,1.07V429a1.07,1.07,0,0,0,1.06,1.07h12.83A.79.79,0,0,1,307,430.84Z" transform="translate(-5.56 -18.96)"/><path class="cls-20" d="M307,430.84a.79.79,0,0,1-.78.78H210.65c-4.38-.78-8.32-3.45-8.32-17.58s9.91-15,9.91-15h93.68a1.07,1.07,0,1,1,0,2.13H293.39a1.07,1.07,0,0,0-1.06,1.07V429a1.07,1.07,0,0,0,1.06,1.07h12.83A.79.79,0,0,1,307,430.84Z" transform="translate(-5.56 -18.96)"/><path class="cls-20" d="M307,430.84a.79.79,0,0,1-.78.78H304a.78.78,0,0,1,0-1.56h2.2A.79.79,0,0,1,307,430.84Z" transform="translate(-5.56 -18.96)"/></g><path class="cls-19" d="M305.44,401.2v28.86H216.55a9.87,9.87,0,0,1-6.64-2.55l-.33-.3a9.36,9.36,0,0,1-.73-.81c-.19-.25-.38-.51-.56-.78a7.4,7.4,0,0,1-.49-.82c-.05-.1-.11-.19-.16-.3s0,0,0-.05a4.17,4.17,0,0,1-.19-.44,6.32,6.32,0,0,1-.32-.86,7.88,7.88,0,0,1-.28-1.06,2.5,2.5,0,0,1-.05-.29,9,9,0,0,1-.14-1.65V411a10.87,10.87,0,0,1,.1-1.3c0-.15,0-.3.08-.45a6.58,6.58,0,0,1,.15-.67c0-.09.06-.2.08-.29s.14-.42.22-.63a5.56,5.56,0,0,1,.25-.61,13,13,0,0,1,.61-1.17c.06-.1.13-.19.2-.29s.23-.33.35-.5.21-.26.31-.38a8.67,8.67,0,0,1,.89-.93l.11-.09.66-.51.19-.15.23-.15a9.82,9.82,0,0,1,5.48-1.67Z" transform="translate(-5.56 -18.96)"/><path class="cls-22" d="M305.44,402.87v.3H210.65a1.09,1.09,0,0,1,.17-.13l0,0,.23-.15Z" transform="translate(-5.56 -18.96)"/><path class="cls-22" d="M305.44,405.58v.29H208.13l.2-.29Z" transform="translate(-5.56 -18.96)"/><path class="cls-22" d="M305.44,408.28v.29H207c0-.09.06-.2.08-.29Z" transform="translate(-5.56 -18.96)"/><rect class="cls-22" x="201.08" y="392.02" width="98.8" height="0.29"/><rect class="cls-22" x="201.08" y="394.73" width="98.8" height="0.29"/><rect class="cls-22" x="201.08" y="397.43" width="98.8" height="0.29"/><rect class="cls-22" x="201.08" y="400.14" width="98.8" height="0.29"/><rect class="cls-22" x="201.08" y="402.83" width="98.8" height="0.3"/><path class="cls-22" d="M305.44,424.5v.3H207.8c-.05-.1-.11-.19-.16-.3Z" transform="translate(-5.56 -18.96)"/><path class="cls-22" d="M305.44,427.21v.3H209.91l-.33-.3Z" transform="translate(-5.56 -18.96)"/><path class="cls-6" d="M212.4,416.4a2.53,2.53,0,0,1,0,.28,20.86,20.86,0,0,1-.25,2.42,2.26,2.26,0,0,1,0,.29,17,17,0,0,1-.59,2.41,1.4,1.4,0,0,1-.09.29,11.45,11.45,0,0,1-1.09,2.41,3,3,0,0,1-.19.3,8.62,8.62,0,0,1-1.29,1.6c-.19-.25-.38-.51-.56-.78a7.4,7.4,0,0,1-.49-.82c-.05-.1-.11-.19-.16-.3s0,0,0-.05a4.17,4.17,0,0,1-.19-.44,6.32,6.32,0,0,1-.32-.86,7.88,7.88,0,0,1-.28-1.06,2.5,2.5,0,0,1-.05-.29,9,9,0,0,1-.14-1.65V411a10.87,10.87,0,0,1,.1-1.3c0-.15,0-.3.08-.45a6.58,6.58,0,0,1,.15-.67c0-.09.06-.2.08-.29s.14-.42.22-.63a5.56,5.56,0,0,1,.25-.61,13,13,0,0,1,.61-1.17c.06-.1.13-.19.2-.29s.23-.33.35-.5.21-.26.31-.38a8.67,8.67,0,0,1,.89-.93l.11-.09.66-.51.19-.15,0,.15c.1.33.31,1.18.56,2.41a1.5,1.5,0,0,1,.06.29c.15.71.3,1.52.42,2.41a1.25,1.25,0,0,1,.05.29c.11.76.22,1.57.3,2.42,0,.1,0,.19,0,.28.07.79.12,1.6.15,2.42a1.4,1.4,0,0,1,0,.29C212.45,414.78,212.45,415.59,212.4,416.4Z" transform="translate(-5.56 -18.96)"/><polygon class="cls-17" points="222.35 389.27 231.85 389.27 231.85 403.48 227.1 400.96 222.35 402.8 222.35 389.27"/><path class="cls-23" d="M287.87,463.7a.79.79,0,0,1-.78.77H175a11.88,11.88,0,0,1-11.88-11.89v-8.75a11.9,11.9,0,0,1,11.9-11.9H286.79a1.07,1.07,0,1,1,0,2.13H274.26a1.07,1.07,0,0,0-1.06,1.06v26.73a1.07,1.07,0,0,0,1.06,1.07h12.83A.79.79,0,0,1,287.87,463.7Z" transform="translate(-5.56 -18.96)"/><path class="cls-19" d="M286.31,434.06v28.86H197.42a9.89,9.89,0,0,1-9.91-9.91v-9a10,10,0,0,1,3.24-7.34l.12-.09a8.57,8.57,0,0,1,.82-.64l0,0h0a9.88,9.88,0,0,1,5.71-1.82Z" transform="translate(-5.56 -18.96)"/><path class="cls-24" d="M287.87,463.7a.79.79,0,0,1-.78.77H191.52c-4.38-.77-8.31-3.44-8.31-17.58s9.9-15,9.9-15h93.68a1.07,1.07,0,1,1,0,2.13H274.26a1.07,1.07,0,0,0-1.06,1.06v26.73a1.07,1.07,0,0,0,1.06,1.07h12.83A.79.79,0,0,1,287.87,463.7Z" transform="translate(-5.56 -18.96)"/><path class="cls-25" d="M287.87,463.7a.79.79,0,0,1-.78.77h-2.2a.78.78,0,1,1,0-1.55h2.2A.79.79,0,0,1,287.87,463.7Z" transform="translate(-5.56 -18.96)"/><path class="cls-26" d="M287.87,463.7a.79.79,0,0,1-.78.77h-2.2a.78.78,0,1,1,0-1.55h2.2A.79.79,0,0,1,287.87,463.7Z" transform="translate(-5.56 -18.96)"/><path class="cls-19" d="M286.31,434.06v28.86H197.42a9.79,9.79,0,0,1-6.63-2.56c-.12-.09-.23-.19-.34-.29a9.36,9.36,0,0,1-.73-.81c-.19-.25-.38-.52-.55-.78a6.91,6.91,0,0,1-.5-.82l-.16-.3a.11.11,0,0,1,0-.06,3.3,3.3,0,0,1-.19-.43A6,6,0,0,1,188,456a7.37,7.37,0,0,1-.28-1.05,2.5,2.5,0,0,1,0-.29,10,10,0,0,1-.14-1.65v-9.17c0-.44.05-.87.1-1.3,0-.14,0-.29.08-.44s.09-.46.15-.68.06-.19.08-.28.14-.42.22-.63a4.85,4.85,0,0,1,.25-.61,10.92,10.92,0,0,1,.62-1.17c.05-.1.12-.19.19-.3s.23-.33.35-.49.21-.26.31-.39a9.67,9.67,0,0,1,.89-.92l.12-.09.65-.52.19-.14a1.5,1.5,0,0,1,.23-.15,9.82,9.82,0,0,1,5.48-1.67Z" transform="translate(-5.56 -18.96)"/><path class="cls-22" d="M286.31,435.73V436H191.52a1,1,0,0,1,.17-.12l0,0a1.5,1.5,0,0,1,.23-.15Z" transform="translate(-5.56 -18.96)"/><path class="cls-22" d="M286.31,438.43v.3H189l.19-.3Z" transform="translate(-5.56 -18.96)"/><path class="cls-22" d="M286.31,441.14v.28H187.84c0-.09.06-.19.08-.28Z" transform="translate(-5.56 -18.96)"/><rect class="cls-22" x="181.95" y="424.88" width="98.8" height="0.29"/><rect class="cls-22" x="181.95" y="427.59" width="98.8" height="0.29"/><rect class="cls-22" x="181.95" y="430.29" width="98.8" height="0.29"/><rect class="cls-22" x="181.95" y="433" width="98.8" height="0.29"/><rect class="cls-22" x="181.95" y="435.69" width="98.8" height="0.3"/><path class="cls-22" d="M286.31,457.36v.3H188.67l-.16-.3Z" transform="translate(-5.56 -18.96)"/><path class="cls-22" d="M286.31,460.07v.29H190.79c-.12-.09-.23-.19-.34-.29Z" transform="translate(-5.56 -18.96)"/><path class="cls-27" d="M193.27,449.26a2.53,2.53,0,0,1,0,.28A21.32,21.32,0,0,1,193,452a2.54,2.54,0,0,1,0,.29,15.71,15.71,0,0,1-.59,2.41,1.4,1.4,0,0,1-.09.29,11.45,11.45,0,0,1-1.09,2.41c-.06.1-.12.2-.19.3a8.23,8.23,0,0,1-1.29,1.6c-.19-.25-.38-.52-.55-.78a6.91,6.91,0,0,1-.5-.82l-.16-.3a.11.11,0,0,1,0-.06,3.3,3.3,0,0,1-.19-.43A6,6,0,0,1,188,456a7.37,7.37,0,0,1-.28-1.05,2.5,2.5,0,0,1,0-.29,10,10,0,0,1-.14-1.65v-9.17c0-.44.05-.87.1-1.3,0-.14,0-.29.08-.44s.09-.46.15-.68.06-.19.08-.28.14-.42.22-.63a4.85,4.85,0,0,1,.25-.61,10.92,10.92,0,0,1,.62-1.17c.05-.1.12-.19.19-.3s.23-.33.35-.49.21-.26.31-.39a9.67,9.67,0,0,1,.89-.92l.12-.09.65-.52.19-.14,0,.14c.09.34.3,1.19.55,2.41a1.77,1.77,0,0,1,.06.3c.15.71.3,1.52.42,2.41a1.26,1.26,0,0,1,.05.28c.11.77.22,1.58.3,2.42,0,.11,0,.2,0,.29.07.79.12,1.6.15,2.42a1.4,1.4,0,0,1,0,.29C193.32,447.64,193.32,448.45,193.27,449.26Z" transform="translate(-5.56 -18.96)"/><polygon class="cls-16" points="203.22 424.89 213.05 424.89 213.05 439.1 208.14 436.58 203.22 438.42 203.22 424.89"/><ellipse class="cls-15" cx="77.31" cy="446.9" rx="25.07" ry="4.09"/><path class="cls-5" d="M80.61,434.08C78,424.6,75.8,415,73.8,405.38c-3.34-16.07-6.65-32.89-6-49.39.19-4.7.64-9.49,3-13.69,2.65-4.82,5.5,5.77,6,7.27a112.82,112.82,0,0,1,3.88,22.2A383,383,0,0,1,80.61,434.08Z" transform="translate(-5.56 -18.96)"/><line class="cls-28" x1="66.34" y1="322.09" x2="75.17" y2="413.8"/><path class="cls-5" d="M85,430.18c-.92-9.78-1.43-19.62-1.72-29.44-.5-16.41-.84-33.55,2.69-49.68,1-4.6,2.28-9.24,5.29-13,3.44-4.28,4.41,6.64,4.59,8.2a113.84,113.84,0,0,1,0,22.53A383.65,383.65,0,0,1,85,430.18Z" transform="translate(-5.56 -18.96)"/><line class="cls-28" x1="86.98" y1="318.09" x2="79.74" y2="409.94"/><path class="cls-5" d="M86.62,433.55c1.29-9.75,3-19.45,4.92-29.09,3.19-16.1,6.7-32.88,13.76-47.81,2-4.25,4.29-8.49,8-11.45,4.32-3.4,2.82,7.46,2.64,9a112.74,112.74,0,0,1-5.07,21.95A384.31,384.31,0,0,1,86.62,433.55Z" transform="translate(-5.56 -18.96)"/><line class="cls-28" x1="109.31" y1="325.53" x2="81.68" y2="413.41"/><path class="cls-29" d="M102.78,450.35a10.07,10.07,0,0,1-.17,1.1v0a17.72,17.72,0,0,1-17.44,14.39H83.41a17.52,17.52,0,0,1-3.41-.32h0a18.14,18.14,0,0,1-4.32-1.44h0c-.38-.21-.75-.41-1.12-.64h0a17.7,17.7,0,0,1-7.27-8v0a7,7,0,0,1-.39-.93c-.18-.45-.34-.91-.48-1.39a17.43,17.43,0,0,1-.6-7.05l0-.46.09-.84.87-7.5.46-4.08.1-.85,1.63-14,.11-1,.93-8h30.05l.23,3.05.07.9.71,9.59.07.83.35,4.75.78,10.36.06.84.34,4.51.2,2.56A17.74,17.74,0,0,1,102.78,450.35Z" transform="translate(-5.56 -18.96)"/><path class="cls-16" d="M82.87,409.38c0,.08,0,.16,0,.24A12,12,0,0,1,79,415.93a16.19,16.19,0,0,0-2.62,2.68c-2.46,3.73.15,8.8-.84,13.16-.75,3.3-4,6-7.34,5.71a10.74,10.74,0,0,1-1.36-.22l.46-4.08.1-.85,1.63-14,.11-1,.93-8Z" transform="translate(-5.56 -18.96)"/><path class="cls-16" d="M81.58,431c0,1.37.25,2.73.21,4.1s-.43,2.88-.5,4.33a5,5,0,0,0,1.31,4,4.29,4.29,0,0,0,5.07.11,9.19,9.19,0,0,0,3.22-4.3,22.22,22.22,0,0,0,1.74-9.52,11.72,11.72,0,0,0-1.45-5.64c-1.37-2.26-4.08-4.07-6.13-1.88A13.73,13.73,0,0,0,81.58,431Z" transform="translate(-5.56 -18.96)"/><path class="cls-16" d="M80.86,463.73a3.55,3.55,0,0,1-.86,1.81h0a18.14,18.14,0,0,1-4.32-1.44h0c-.38-.21-.75-.41-1.12-.64h0a17.7,17.7,0,0,1-7.27-8v0a7,7,0,0,1-.39-.93c-.18-.45-.34-.91-.48-1.39a4.89,4.89,0,0,1,3.73-2.36,5.38,5.38,0,0,1,3.64.32A5.6,5.6,0,0,1,75.37,453l4.17,6.77A6.37,6.37,0,0,1,80.86,463.73Z" transform="translate(-5.56 -18.96)"/><path class="cls-16" d="M102.78,450.35a10.07,10.07,0,0,1-.17,1.1v0A17.82,17.82,0,0,1,91.3,464.78a2.16,2.16,0,0,1-1.64-1.72,3.56,3.56,0,0,1,.16-1.25l1-3.92a23.79,23.79,0,0,1,2.43-6.75c1.81-2.93,4.82-4.92,7.84-6.45a4,4,0,0,1,1.63-.48l.2,2.56A17.74,17.74,0,0,1,102.78,450.35Z" transform="translate(-5.56 -18.96)"/><path class="cls-16" d="M101.5,428.5a4.8,4.8,0,0,1-2-2.05,23.69,23.69,0,0,1-2-5.44l-1.23-4.43a20.19,20.19,0,0,1-.72-3.35,11.45,11.45,0,0,1,.37-3.85h4.12l.23,3.05.07.9.71,9.59.07.83Z" transform="translate(-5.56 -18.96)"/><ellipse class="cls-15" cx="407.84" cy="412.55" rx="33.21" ry="5.11"/><path class="cls-29" d="M440.33,373.58c0,2.1-12.05,3.8-26.91,3.8s-26.91-1.7-26.91-3.8,12.05-3.8,26.91-3.8S440.33,371.48,440.33,373.58Z" transform="translate(-5.56 -18.96)"/><path class="cls-6" d="M438.81,375.35c0,2.1-11.48,3.8-25.64,3.8s-25.64-1.7-25.64-3.8,11.48-3.81,25.64-3.81S438.81,373.25,438.81,375.35Z" transform="translate(-5.56 -18.96)"/><path class="cls-30" d="M433.74,391.23s6.14-13.52,15.26-10.57,2.39,37.6-14.06,30.5" transform="translate(-5.56 -18.96)"/><path class="cls-8" d="M440.3,373.78l-1.49,10.37-.29,2-5,34.69-.09.65v0l-.93,6.43a5.53,5.53,0,0,1-5.58,4.74l-1.76-.05h-.59l-18.21-.38-.63,0-9.08-.2a3.83,3.83,0,0,1-3.72-3.38l-1.08-9.25-.11-.92L390,403.64l-.09-.77-1.89-16.16L388,386l-1.44-12.36c0,1.09,3.31,2.08,8.6,2.77a5.77,5.77,0,0,0,.58.08c2.57.32,5.56.57,8.85.73l.57,0c2.62.12,5.4.18,8.3.18,4,0,7.73-.12,11.12-.34l.67,0,1.74-.14.6-.05C434.85,376.18,439.84,375.06,440.3,373.78Z" transform="translate(-5.56 -18.96)"/><path class="cls-29" d="M392.87,380.19c-1.62,2.13-3.26,4.29-4.82,6.52L388,386c1.47-2.07,3-4.09,4.51-6.06.89-1.16,1.77-2.33,2.65-3.53a5.77,5.77,0,0,0,.58.08C394.76,377.71,393.82,379,392.87,380.19Z" transform="translate(-5.56 -18.96)"/><path class="cls-29" d="M405.12,377.2c-2,3.34-3.79,6.78-5.57,10.15A148.14,148.14,0,0,1,390,403.64l-.09-.77a151.63,151.63,0,0,0,9.15-15.75c1.75-3.31,3.52-6.67,5.46-9.95Z" transform="translate(-5.56 -18.96)"/><path class="cls-29" d="M414.16,389.61c-6.66,7.13-14.25,15.74-20,25.64-.87,1.49-1.62,2.87-2.25,4.19l-.11-.92c.56-1.12,1.19-2.28,1.91-3.52,5.81-9.94,13.43-18.59,20.12-25.73l1.45-1.55A119.85,119.85,0,0,0,424.54,377l.67,0a119.06,119.06,0,0,1-9.58,11.06Z" transform="translate(-5.56 -18.96)"/><path class="cls-29" d="M427.55,376.81c-.24.47-.47.93-.68,1.38-3.93,8.21-6.62,17.09-9.22,25.69-1.93,6.41-3.94,13-6.45,19.37a35.78,35.78,0,0,1-4.81,9l-.63,0a34.69,34.69,0,0,0,5-9.21c2.51-6.3,4.5-12.92,6.44-19.32,2.6-8.62,5.29-17.53,9.24-25.78.17-.35.36-.72.54-1.1Z" transform="translate(-5.56 -18.96)"/><path class="cls-29" d="M438.81,384.15l-.29,2c-1.47,3.49-3.1,6.94-4.7,10.29-3.76,7.94-7.66,16.14-9.39,24.86-.61,3-1.2,7.46.63,11.11,0,.08.08.16.13.24h-.59c-1.9-3.79-1.29-8.35-.67-11.43,1.74-8.79,5.65-17,9.44-25C435.23,392.31,437.15,388.26,438.81,384.15Z" transform="translate(-5.56 -18.96)"/><path class="cls-31" d="M411.59,428.54c2.75,0,5.5,0,8.22,0,1.36,0,2.72-.12,4.06-.22a15.15,15.15,0,0,0,3.87-.68h0a.4.4,0,0,1,.52.24.41.41,0,0,1-.17.48,10.57,10.57,0,0,1-4.1,1.33,29.62,29.62,0,0,1-4.2.27,51.32,51.32,0,0,1-8.31-.61.39.39,0,0,1-.32-.45.39.39,0,0,1,.39-.33Z" transform="translate(-5.56 -18.96)"/><path class="cls-32" d="M395.34,373.62c-.4.18-.83.45-.87.88a.85.85,0,0,0,.42.78,2.17,2.17,0,0,0,.87.32,14.73,14.73,0,0,0,3.86.4.67.67,0,0,0,.46-.13.62.62,0,0,0,.11-.63,1.74,1.74,0,0,1-.13-.67c.06-.46.58-.68,1-.81.9-.25,1.8-.49,2.7-.7a8.09,8.09,0,0,0,2.29-.56c-.37-.35-1.21-.26-1.68-.22-1,.08-2,.14-3.07.2A17,17,0,0,0,395.34,373.62Z" transform="translate(-5.56 -18.96)"/><path class="cls-16" d="M369.48,90.37a2.66,2.66,0,1,1-2.66-2.66A2.66,2.66,0,0,1,369.48,90.37Z" transform="translate(-5.56 -18.96)"/><path class="cls-16" d="M38,181.67A2.66,2.66,0,1,1,35.37,179,2.66,2.66,0,0,1,38,181.67Z" transform="translate(-5.56 -18.96)"/><path class="cls-17" d="M167.19,51.43l1.87,4.11a2.22,2.22,0,0,0,1,1l3.34,1.83-4,2.18-2.18,4.8L165,60.59l-4-2.18,4-2.19Z" transform="translate(-5.56 -18.96)"/><path class="cls-17" d="M438,57.59l1.88,4.11a2.18,2.18,0,0,0,1,1l3.34,1.83-4,2.19L438,71.55l-2.18-4.79-4-2.19,4-2.18Z" transform="translate(-5.56 -18.96)"/><path class="cls-17" d="M472.33,181.67l1.87,4.11a2.38,2.38,0,0,0,1,1l3.34,1.82-4,2.19-2.19,4.79-2.19-4.79-4-2.19,4-2.18Z" transform="translate(-5.56 -18.96)"/><path class="cls-17" d="M316.09,248l1.87,4.11a2.22,2.22,0,0,0,1,1l3.34,1.83-4,2.19L316.09,262l-2.19-4.79-4-2.19,4-2.19Z" transform="translate(-5.56 -18.96)"/><path class="cls-17" d="M485.06,265.84l1.87,4.11a2.33,2.33,0,0,0,1,1l3.34,1.83-4,2.19-2.19,4.79L482.87,275l-4-2.19,4-2.19Z" transform="translate(-5.56 -18.96)"/><path class="cls-17" d="M11.75,324.62l1.87,4.11a2.22,2.22,0,0,0,1,1l3.34,1.83-4,2.18-2.18,4.79-2.19-4.79-4-2.18,4-2.19Z" transform="translate(-5.56 -18.96)"/><path class="cls-17" d="M39.79,112.9,41.66,117a2.33,2.33,0,0,0,1,1L46,119.88l-4,2.18-2.19,4.8-2.19-4.8-4-2.18,4-2.19Z" transform="translate(-5.56 -18.96)"/><path class="cls-17" d="M296.33,28.18l1.87,4.11a2.35,2.35,0,0,0,1,1.05l3.34,1.82-4,2.19-2.19,4.79-2.19-4.79-4-2.19,4-2.18Z" transform="translate(-5.56 -18.96)"/><path class="cls-7" d="M89,22.86A3.9,3.9,0,1,1,85.1,19,3.89,3.89,0,0,1,89,22.86Z" transform="translate(-5.56 -18.96)"/><path class="cls-17" d="M31.35,51.43a2.66,2.66,0,1,1-2.66-2.66A2.66,2.66,0,0,1,31.35,51.43Z" transform="translate(-5.56 -18.96)"/><path class="cls-16" d="M229.31,29.44a2.66,2.66,0,1,1-2.66-2.66A2.66,2.66,0,0,1,229.31,29.44Z" transform="translate(-5.56 -18.96)"/><path class="cls-7" d="M438.7,22.34A2.66,2.66,0,1,1,436,19.68,2.66,2.66,0,0,1,438.7,22.34Z" transform="translate(-5.56 -18.96)"/><circle class="cls-7" cx="471.17" cy="116.07" r="2.66"/><g class="cls-33"><path class="cls-34" d="M340,66.72V222a14.46,14.46,0,0,1-14.48,16.41h-251c-8.65,0-15.65-7.35-15.65-16.41V66.72c0-9.08,7-16.42,15.65-16.42h251A14.45,14.45,0,0,1,340,66.72Z" transform="translate(-5.56 -18.96)"/></g><path class="cls-19" d="M337.69,64.37V219.66c0,9.06-7,16.41-15.65,16.41h-251c-8.65,0-15.65-7.35-15.65-16.41V64.37C55.4,55.3,62.4,48,71.05,48H322C330.69,48,337.69,55.3,337.69,64.37Z" transform="translate(-5.56 -18.96)"/><path class="cls-5" d="M337.69,62.92v13H55.4v-13c0-8.27,7-15,15.65-15H322C330.69,48,337.69,54.65,337.69,62.92Z" transform="translate(-5.56 -18.96)"/><path class="cls-17" d="M287,61.91a5.49,5.49,0,1,1-5.49-5.49A5.49,5.49,0,0,1,287,61.91Z" transform="translate(-5.56 -18.96)"/><path class="cls-8" d="M304.56,61.91a5.5,5.5,0,1,1-5.5-5.49A5.5,5.5,0,0,1,304.56,61.91Z" transform="translate(-5.56 -18.96)"/><path class="cls-7" d="M322.13,61.91a5.49,5.49,0,1,1-5.49-5.49A5.49,5.49,0,0,1,322.13,61.91Z" transform="translate(-5.56 -18.96)"/><path class="cls-19" d="M149.44,67.41H72.71a4.83,4.83,0,0,1-4.82-4.82h0a4.83,4.83,0,0,1,4.82-4.82h76.73a4.84,4.84,0,0,1,4.82,4.82h0A4.84,4.84,0,0,1,149.44,67.41Z" transform="translate(-5.56 -18.96)"/><rect class="cls-35" x="97.12" y="70.67" width="191.65" height="121.48"/><rect class="cls-32" x="95.17" y="68.72" width="191.65" height="121.48"/><rect class="cls-36" x="99.72" y="73.62" width="182.55" height="113.69"/><polygon class="cls-8" points="250.28 170.16 234.51 192.28 242.62 190.88 245.5 197.94 255.66 173.97 250.28 170.16"/><polygon class="cls-8" points="262.92 170.16 278.69 192.28 270.58 190.88 267.69 197.94 257.53 173.97 262.92 170.16"/><path class="cls-17" d="M265.64,166.6h0a2.1,2.1,0,0,0,3.64.89h0a2.1,2.1,0,0,1,3.62,1.9h0a2.1,2.1,0,0,0,2.8,2.49h0a2.09,2.09,0,0,1,2.32,3.36h0a2.1,2.1,0,0,0,1.33,3.5h0a2.1,2.1,0,0,1,.49,4.06h0a2.09,2.09,0,0,0-.45,3.71h0a2.1,2.1,0,0,1-1.45,3.83h0a2.1,2.1,0,0,0-2.13,3.08h0a2.1,2.1,0,0,1-3.06,2.71h0a2.09,2.09,0,0,0-3.31,1.74h0a2.1,2.1,0,0,1-4,1h0a2.09,2.09,0,0,0-3.74,0h0a2.1,2.1,0,0,1-4-1h0a2.1,2.1,0,0,0-3.32-1.74h0a2.1,2.1,0,0,1-3.06-2.71h0a2.1,2.1,0,0,0-2.12-3.08h0a2.1,2.1,0,0,1-1.45-3.83h0a2.1,2.1,0,0,0-.45-3.71h0a2.1,2.1,0,0,1,.49-4.06h0a2.1,2.1,0,0,0,1.33-3.5h0a2.09,2.09,0,0,1,2.32-3.36h0a2.1,2.1,0,0,0,2.8-2.49h0a2.1,2.1,0,0,1,3.62-1.9h0a2.1,2.1,0,0,0,3.63-.89h0A2.1,2.1,0,0,1,265.64,166.6Z" transform="translate(-5.56 -18.96)"/><circle class="cls-37" cx="263.6" cy="183.44" r="11.01" transform="translate(19.17 379.15) rotate(-76.78)"/><text class="cls-38" transform="translate(143.24 104.14)">CE<tspan class="cls-39" x="23.93" y="0">R</tspan><tspan x="36.14" y="0">TIFI</tspan><tspan class="cls-40" x="68.78" y="0">C</tspan><tspan class="cls-41" x="81.82" y="0">A</tspan><tspan x="93.77" y="0">TION</tspan></text><path class="cls-5" d="M174.42,192.07H131a.37.37,0,0,1-.36-.37h0a.37.37,0,0,1,.36-.37h43.44a.37.37,0,0,1,.37.37h0A.37.37,0,0,1,174.42,192.07Z" transform="translate(-5.56 -18.96)"/><path class="cls-5" d="M240.36,192.07H196.92a.38.38,0,0,1-.37-.37h0a.38.38,0,0,1,.37-.37h43.44a.38.38,0,0,1,.37.37h0A.38.38,0,0,1,240.36,192.07Z" transform="translate(-5.56 -18.96)"/><line class="cls-42" x1="122.77" y1="130.2" x2="263.7" y2="130.2"/><line class="cls-42" x1="158" y1="120.33" x2="228.46" y2="120.33"/><line class="cls-42" x1="122.77" y1="135.84" x2="263.7" y2="135.84"/><line class="cls-42" x1="122.77" y1="141.49" x2="263.7" y2="141.49"/><path class="cls-5" d="M244.88,227.69h-94.7a5.42,5.42,0,0,1-5.4-5.4h0a5.41,5.41,0,0,1,5.4-5.39h94.7a5.41,5.41,0,0,1,5.4,5.39h0A5.42,5.42,0,0,1,244.88,227.69Z" transform="translate(-5.56 -18.96)"/><text class="cls-43" transform="translate(164.14 207.3)">DOWN<tspan class="cls-44" x="31.34" y="0">L</tspan><tspan class="cls-45" x="36.08" y="0">O</tspan><tspan class="cls-46" x="43.48" y="0">AD HERE</tspan></text><path class="cls-23" d="M129.63,73.71l4.5,13.3s-4.78,2.09-7.33,2.83-6.24,4.5-8.12,5.31a10.27,10.27,0,0,1-1.19.45c-1.72.53-3.57.61-7.58.54a21.73,21.73,0,0,0-9.64,2.56L95.35,84.14a122.57,122.57,0,0,1,16.5-7.1C122.47,73.22,129.63,73.71,129.63,73.71Z" transform="translate(-5.56 -18.96)"/><path class="cls-47" d="M130.49,76.23l.58,1.74a14.31,14.31,0,0,1-2.2,2.41,71.67,71.67,0,0,1-9.58,7.42,17.36,17.36,0,0,1-3.75,2h0a18.39,18.39,0,0,1-3.3.67,49.88,49.88,0,0,1-9.53.53A25.08,25.08,0,0,1,98,90.29a2,2,0,0,1-.71-.3.41.41,0,0,1-.18-.5c.2-.5,1.25-1,1.92-1.26q7.13-2.49,14.18-5.17,8.4-3.18,16.7-6.62Z" transform="translate(-5.56 -18.96)"/><path class="cls-48" d="M129.86,74.38,134.13,87s-4.78,2.09-7.33,2.83-6.24,4.5-8.12,5.31a10.27,10.27,0,0,1-1.19.45L111.86,79Z" transform="translate(-5.56 -18.96)"/><path class="cls-49" d="M129.86,74.38,134.13,87s-4.78,2.09-7.33,2.83-6.24,4.5-8.12,5.31a10.27,10.27,0,0,1-1.19.45L111.86,79Z" transform="translate(-5.56 -18.96)"/><path class="cls-23" d="M80.92,89.32l27.67-21.91,32.26,1.85a.58.58,0,0,1,.31,1.06L114.83,89.1l-33.6,1.08A.48.48,0,0,1,80.92,89.32Z" transform="translate(-5.56 -18.96)"/><path class="cls-49" d="M113.42,76.9c.16.46-.37,1.06-1.17,1.33s-1.57.11-1.73-.35.37-1.06,1.17-1.33S113.26,76.44,113.42,76.9Z" transform="translate(-5.56 -18.96)"/><path class="cls-50" d="M112,77a7,7,0,0,0-6.12-3.53,9.82,9.82,0,0,0-6.67,2.84,16.74,16.74,0,0,0-3.92,6.24c-2,5.23-2.24,10.94-2.43,16.53-.3,8.63-.52,17.3.65,25.85" transform="translate(-5.56 -18.96)"/><path class="cls-17" d="M93.05,120.91a10.46,10.46,0,0,0-2,7.78l5-.51S96.92,123.24,93.05,120.91Z" transform="translate(-5.56 -18.96)"/></g></g></svg>