<svg width="18" height="18" viewBox="0 0 18 18" fill="none" xmlns="http://www.w3.org/2000/svg">
<path fill-rule="evenodd" clip-rule="evenodd" d="M12.5785 9.00008C12.5785 8.82106 12.5099 8.64937 12.3879 8.52279C12.2659 8.3962 12.1004 8.32508 11.9279 8.32508H2.40938L4.11045 6.81308C4.17538 6.75541 4.22872 6.68503 4.26744 6.60596C4.30615 6.52689 4.32948 6.44069 4.33608 6.35227C4.34269 6.26385 4.33245 6.17494 4.30593 6.09063C4.27942 6.00632 4.23717 5.92825 4.18158 5.86088C4.12599 5.79351 4.05815 5.73817 3.98194 5.698C3.90574 5.65783 3.82265 5.63363 3.73743 5.62678C3.65221 5.61992 3.56652 5.63055 3.48526 5.65806C3.40399 5.68556 3.32875 5.72941 3.26382 5.78708L0.227755 8.48708C0.156334 8.55045 0.0989924 8.62912 0.0596755 8.71768C0.0203587 8.80624 0 8.90258 0 9.00008C0 9.09758 0.0203587 9.19393 0.0596755 9.28249C0.0989924 9.37104 0.156334 9.44971 0.227755 9.51308L3.26382 12.2131C3.39495 12.3296 3.56532 12.3872 3.73743 12.3734C3.90954 12.3595 4.06931 12.2753 4.18158 12.1393C4.29385 12.0032 4.34942 11.8265 4.33608 11.6479C4.32275 11.4693 4.24158 11.3036 4.11045 11.1871L2.41025 9.67508H11.9279C12.1004 9.67508 12.2659 9.60397 12.3879 9.47738C12.5099 9.35079 12.5785 9.1791 12.5785 9.00008Z" fill="white"/>
<path d="M6.72314 5.4C6.72314 6.0318 6.72314 6.3477 6.86974 6.5754C6.93288 6.6733 7.01393 6.75739 7.10829 6.8229C7.32776 6.975 7.63223 6.975 8.24118 6.975H11.9278C12.4455 6.975 12.9419 7.18835 13.3079 7.56811C13.6739 7.94787 13.8796 8.46294 13.8796 9C13.8796 9.53706 13.6739 10.0521 13.3079 10.4319C12.9419 10.8117 12.4455 11.025 11.9278 11.025H8.24118C7.63223 11.025 7.32776 11.025 7.10829 11.1762C7.01385 11.242 6.93279 11.3264 6.86974 11.4246C6.72314 11.6523 6.72314 11.9682 6.72314 12.6C6.72314 15.1452 6.72314 16.4187 7.48563 17.2089C8.24725 18 9.47382 18 11.927 18H12.7944C15.2493 18 16.475 18 17.2375 17.2089C18 16.4187 18 15.1452 18 12.6V5.4C18 2.8548 18 1.5813 17.2375 0.7911C16.475 -5.36442e-08 15.2484 0 12.7953 0H11.9278C9.47382 0 8.24725 -5.36442e-08 7.48563 0.7911C6.72314 1.5813 6.72314 2.8548 6.72314 5.4Z" fill="white"/>
</svg>
