<svg width="18" height="19" viewBox="0 0 18 19" fill="none" xmlns="http://www.w3.org/2000/svg">
<path fill-rule="evenodd" clip-rule="evenodd" d="M12.5785 9.50008C12.5785 9.32106 12.5099 9.14937 12.3879 9.02279C12.2659 8.8962 12.1004 8.82508 11.9279 8.82508H2.40938L4.11045 7.31308C4.17538 7.25541 4.22872 7.18503 4.26744 7.10596C4.30615 7.02689 4.32948 6.94069 4.33608 6.85227C4.34269 6.76385 4.33245 6.67494 4.30593 6.59063C4.27942 6.50632 4.23717 6.42825 4.18158 6.36088C4.12599 6.29351 4.05815 6.23817 3.98194 6.198C3.90574 6.15783 3.82265 6.13363 3.73743 6.12678C3.65221 6.11992 3.56652 6.13055 3.48526 6.15806C3.40399 6.18556 3.32875 6.22941 3.26382 6.28708L0.227755 8.98708C0.156334 9.05045 0.0989924 9.12912 0.0596755 9.21768C0.0203587 9.30624 0 9.40258 0 9.50008C0 9.59758 0.0203587 9.69393 0.0596755 9.78249C0.0989924 9.87104 0.156334 9.94971 0.227755 10.0131L3.26382 12.7131C3.39495 12.8296 3.56532 12.8872 3.73743 12.8734C3.90954 12.8595 4.06931 12.7753 4.18158 12.6393C4.29385 12.5032 4.34942 12.3265 4.33608 12.1479C4.32275 11.9693 4.24158 11.8036 4.11045 11.6871L2.41025 10.1751H11.9279C12.1004 10.1751 12.2659 10.104 12.3879 9.97738C12.5099 9.85079 12.5785 9.6791 12.5785 9.50008Z" fill="#C41E0A"/>
<path d="M6.72314 5.9C6.72314 6.5318 6.72314 6.8477 6.86974 7.0754C6.93288 7.1733 7.01393 7.25739 7.10829 7.3229C7.32776 7.475 7.63223 7.475 8.24118 7.475H11.9278C12.4455 7.475 12.9419 7.68835 13.3079 8.06811C13.6739 8.44787 13.8796 8.96294 13.8796 9.5C13.8796 10.0371 13.6739 10.5521 13.3079 10.9319C12.9419 11.3117 12.4455 11.525 11.9278 11.525H8.24118C7.63223 11.525 7.32776 11.525 7.10829 11.6762C7.01385 11.742 6.93279 11.8264 6.86974 11.9246C6.72314 12.1523 6.72314 12.4682 6.72314 13.1C6.72314 15.6452 6.72314 16.9187 7.48563 17.7089C8.24725 18.5 9.47382 18.5 11.927 18.5H12.7944C15.2493 18.5 16.475 18.5 17.2375 17.7089C18 16.9187 18 15.6452 18 13.1V5.9C18 3.3548 18 2.0813 17.2375 1.2911C16.475 0.5 15.2484 0.5 12.7953 0.5H11.9278C9.47382 0.5 8.24725 0.5 7.48563 1.2911C6.72314 2.0813 6.72314 3.3548 6.72314 5.9Z" fill="#C41E0A"/>
</svg>
