<svg width="257" height="298" viewBox="0 0 257 298" fill="none" xmlns="http://www.w3.org/2000/svg">
<path d="M128.214 283.077C188.531 283.077 237.428 234.18 237.428 173.863C237.428 113.546 188.531 64.6495 128.214 64.6495C67.8967 64.6495 19 113.546 19 173.863C19 234.18 67.8967 283.077 128.214 283.077Z" fill="#C9DEE7"/>
<g filter="url(#filter0_d_105_9787)">
<path d="M190.83 127.265H65.5978C61.5767 127.265 58.3169 130.525 58.3169 134.546V287.446C58.3169 291.467 61.5767 294.727 65.5978 294.727H190.83C194.851 294.727 198.111 291.467 198.111 287.446V134.546C198.111 130.525 194.851 127.265 190.83 127.265Z" fill="white"/>
</g>
<path d="M113.652 149.108H75.7914C73.3787 149.108 71.4229 151.064 71.4229 153.477C71.4229 155.889 73.3787 157.845 75.7914 157.845H113.652C116.065 157.845 118.021 155.889 118.021 153.477C118.021 151.064 116.065 149.108 113.652 149.108Z" fill="#CEEEFB"/>
<path d="M139.864 168.039H75.7914C73.3787 168.039 71.4229 169.994 71.4229 172.407C71.4229 174.82 73.3787 176.776 75.7914 176.776H139.864C142.276 176.776 144.232 174.82 144.232 172.407C144.232 169.994 142.276 168.039 139.864 168.039Z" fill="#4C85A5" fill-opacity="0.65"/>
<path d="M113.652 188.425H75.7914C73.3787 188.425 71.4229 190.381 71.4229 192.794C71.4229 195.206 73.3787 197.162 75.7914 197.162H113.652C116.065 197.162 118.021 195.206 118.021 192.794C118.021 190.381 116.065 188.425 113.652 188.425Z" fill="#CEEEFB"/>
<path d="M139.864 207.356H75.7914C73.3787 207.356 71.4229 209.311 71.4229 211.724C71.4229 214.137 73.3787 216.093 75.7914 216.093H139.864C142.276 216.093 144.232 214.137 144.232 211.724C144.232 209.311 142.276 207.356 139.864 207.356Z" fill="#4C85A5" fill-opacity="0.65"/>
<path d="M113.652 227.742H75.7914C73.3787 227.742 71.4229 229.698 71.4229 232.111C71.4229 234.523 73.3787 236.479 75.7914 236.479H113.652C116.065 236.479 118.021 234.523 118.021 232.111C118.021 229.698 116.065 227.742 113.652 227.742Z" fill="#CEEEFB"/>
<path d="M139.864 246.673H75.7914C73.3787 246.673 71.4229 248.628 71.4229 251.041C71.4229 253.454 73.3787 255.41 75.7914 255.41H139.864C142.276 255.41 144.232 253.454 144.232 251.041C144.232 248.628 142.276 246.673 139.864 246.673Z" fill="#4C85A5" fill-opacity="0.65"/>
<g filter="url(#filter1_d_105_9787)">
<path d="M190.83 53H65.5978C61.5767 53 58.3169 56.2598 58.3169 60.2809V103.966C58.3169 107.988 61.5767 111.247 65.5978 111.247H190.83C194.851 111.247 198.111 107.988 198.111 103.966V60.2809C198.111 56.2598 194.851 53 190.83 53Z" fill="#004461"/>
</g>
<path d="M113.652 69.018H75.7914C73.3787 69.018 71.4229 70.9739 71.4229 73.3866C71.4229 75.7993 73.3787 77.7551 75.7914 77.7551H113.652C116.065 77.7551 118.021 75.7993 118.021 73.3866C118.021 70.9739 116.065 69.018 113.652 69.018Z" fill="#CFF1FF"/>
<path d="M139.864 87.9484H75.7914C73.3787 87.9484 71.4229 89.9043 71.4229 92.317C71.4229 94.7297 73.3787 96.6855 75.7914 96.6855H139.864C142.276 96.6855 144.232 94.7297 144.232 92.317C144.232 89.9043 142.276 87.9484 139.864 87.9484Z" fill="white"/>
<defs>
<filter id="filter0_d_105_9787" x="52.3169" y="118.265" width="151.794" height="179.461" filterUnits="userSpaceOnUse" color-interpolation-filters="sRGB">
<feFlood flood-opacity="0" result="BackgroundImageFix"/>
<feColorMatrix in="SourceAlpha" type="matrix" values="0 0 0 0 0 0 0 0 0 0 0 0 0 0 0 0 0 0 127 0" result="hardAlpha"/>
<feOffset dy="-3"/>
<feGaussianBlur stdDeviation="3"/>
<feColorMatrix type="matrix" values="0 0 0 0 0.788235 0 0 0 0 0.803922 0 0 0 0 0.85098 0 0 0 0.349 0"/>
<feBlend mode="normal" in2="BackgroundImageFix" result="effect1_dropShadow_105_9787"/>
<feBlend mode="normal" in="SourceGraphic" in2="effect1_dropShadow_105_9787" result="shape"/>
</filter>
<filter id="filter1_d_105_9787" x="52.3169" y="44" width="151.794" height="70.2474" filterUnits="userSpaceOnUse" color-interpolation-filters="sRGB">
<feFlood flood-opacity="0" result="BackgroundImageFix"/>
<feColorMatrix in="SourceAlpha" type="matrix" values="0 0 0 0 0 0 0 0 0 0 0 0 0 0 0 0 0 0 127 0" result="hardAlpha"/>
<feOffset dy="-3"/>
<feGaussianBlur stdDeviation="3"/>
<feColorMatrix type="matrix" values="0 0 0 0 0.788235 0 0 0 0 0.803922 0 0 0 0 0.85098 0 0 0 0.349 0"/>
<feBlend mode="normal" in2="BackgroundImageFix" result="effect1_dropShadow_105_9787"/>
<feBlend mode="normal" in="SourceGraphic" in2="effect1_dropShadow_105_9787" result="shape"/>
</filter>
</defs>
</svg>
