<svg width="880" height="955" viewBox="0 0 880 955" fill="none" xmlns="http://www.w3.org/2000/svg">
<path d="M57.6168 231.975C56.6975 247.872 43.0654 260.014 27.1687 259.094C11.2714 258.175 -0.870416 244.543 0.0489482 228.646C0.968312 212.749 14.6004 200.607 30.4971 201.526C46.3944 202.446 58.5362 216.078 57.6168 231.975Z" fill="#DA3925"/>
<path d="M97.9526 185.062C74.7774 185.062 55.9219 166.211 55.9219 143.031C55.9219 119.851 74.7774 101 97.9526 101C121.128 101 139.984 119.852 139.984 143.031C139.984 166.211 121.129 185.062 97.9526 185.062ZM97.9526 119.393C84.9166 119.393 74.3152 129.999 74.3152 143.031C74.3152 156.062 84.9166 166.669 97.9526 166.669C110.989 166.669 121.591 156.062 121.591 143.031C121.591 129.999 110.989 119.393 97.9526 119.393Z" fill="#004461"/>
<path d="M108.518 287.287C107.958 296.959 99.6643 304.346 89.9929 303.787C80.3215 303.227 72.9344 294.933 73.4936 285.262C74.0534 275.591 82.3468 268.203 92.0182 268.763C101.69 269.322 109.077 277.616 108.518 287.287Z" fill="#DA3925"/>
<path d="M540.01 587.306C678.81 587.306 791.329 474.787 791.329 335.987C791.329 197.187 678.81 84.6681 540.01 84.6681C401.211 84.6681 288.691 197.187 288.691 335.987C288.691 474.787 401.211 587.306 540.01 587.306Z" fill="url(#paint0_linear_456_7046)"/>
<g clip-path="url(#clip0_456_7046)">
<path d="M679.834 403.076C689.315 403.076 697.001 395.389 697.001 385.907C697.001 376.424 689.315 368.737 679.834 368.737C670.352 368.737 662.666 376.424 662.666 385.907C662.666 395.389 670.352 403.076 679.834 403.076Z" fill="white"/>
<path d="M399.168 301.068C408.649 301.068 416.335 293.381 416.335 283.899C416.335 274.416 408.649 266.729 399.168 266.729C389.686 266.729 382 274.416 382 283.899C382 293.381 389.686 301.068 399.168 301.068Z" fill="white"/>
<path d="M469.546 275.764H411.008V292.034H469.546V275.764Z" fill="white"/>
<path d="M597.967 406.396C603.369 406.396 607.747 402.017 607.747 396.615C607.747 391.213 603.369 386.834 597.967 386.834C592.566 386.834 588.188 391.213 588.188 396.615C588.188 402.017 592.566 406.396 597.967 406.396Z" fill="white"/>
<path d="M641.989 390.865H600.29V402.364H641.989V390.865Z" fill="white"/>
<path d="M641.987 390.865H649.027C646.764 395.28 644.428 399.194 641.987 402.364" fill="white"/>
<path d="M667.042 377.928H618.827V390.865H667.042V377.928Z" fill="white"/>
<path d="M660.494 356.045C661.642 349.364 662.273 342.509 662.273 335.501C662.273 268.95 608.329 215 541.786 215C501.896 215 466.551 234.399 444.622 264.265H470.974C473.24 260.816 477.138 258.535 481.574 258.535C488.578 258.535 494.255 264.213 494.255 271.218C494.255 278.222 488.578 283.9 481.574 283.9C476.176 283.9 471.576 280.521 469.747 275.766H437.162C427.087 293.377 421.298 313.757 421.298 335.501C421.298 402.052 475.242 456.002 541.786 456.002C593.787 456.002 638.093 423.057 654.975 376.898C654.83 377.193 654.704 377.497 654.552 377.787V377.792H593.663C549.736 413.887 510.208 413.087 477.385 356.034H654.552V356.047L660.494 356.045ZM544.57 328.16C529.61 328.16 517.483 316.031 517.483 301.07C517.483 286.108 529.61 273.98 544.57 273.98C559.53 273.98 571.657 286.108 571.657 301.07C571.657 316.031 559.53 328.16 544.57 328.16Z" fill="white"/>
</g>
<path d="M321.462 554.535C219.273 452.346 202.603 291.098 278.828 170.691C285.706 159.826 283.14 145.517 272.821 137.845C261.426 129.374 245.191 132.313 237.584 144.303C196.92 208.395 177.58 284.304 182.851 360.791C188.787 446.929 225.72 528.031 286.843 589.154C347.967 650.278 429.069 687.211 515.207 693.147C591.694 698.418 667.603 679.078 731.695 638.414C743.684 630.807 746.624 614.572 738.153 603.177C730.481 592.858 716.171 590.293 705.307 597.17C584.9 673.395 423.651 656.724 321.462 554.535Z" fill="url(#paint1_linear_456_7046)"/>
<path d="M308.492 58.3089C296.732 70.0686 296.732 89.1351 308.492 100.895C320.251 112.654 339.318 112.654 351.077 100.895C361.695 90.2764 362.692 73.7182 354.136 61.9439C484.543 -27.0964 660.218 -12.0626 774.139 101.859C888.148 215.867 903.111 391.721 813.843 522.159C813.843 522.158 813.842 522.158 813.841 522.158C813.736 522.091 813.626 522.033 813.52 521.968C813.414 521.903 813.307 521.842 813.2 521.779C813.093 521.715 812.987 521.652 812.879 521.589C812.772 521.527 812.666 521.461 812.558 521.4C812.451 521.339 812.347 521.27 812.238 521.211C812.13 521.151 812.026 521.079 811.918 521.021C811.805 520.962 811.691 520.909 811.578 520.851C811.464 520.792 811.345 520.746 811.23 520.689C811.115 520.632 810.997 520.583 810.882 520.527C810.766 520.472 810.65 520.42 810.534 520.366C810.418 520.311 810.302 520.257 810.185 520.204C810.069 520.152 809.954 520.094 809.837 520.042C809.72 519.991 809.606 519.93 809.489 519.881C809.371 519.831 809.258 519.767 809.14 519.719C809.016 519.669 808.887 519.636 808.763 519.587C808.638 519.538 808.51 519.502 808.384 519.455C808.259 519.408 808.133 519.368 808.007 519.323C807.882 519.278 807.755 519.234 807.629 519.191C807.504 519.147 807.378 519.1 807.251 519.059C807.125 519.017 807.001 518.966 806.874 518.926C806.747 518.886 806.623 518.833 806.496 518.795C806.363 518.755 806.229 518.723 806.096 518.685C805.96 518.646 805.821 518.621 805.686 518.585C805.55 518.548 805.412 518.52 805.276 518.485C805.139 518.45 805.003 518.418 804.866 518.385C804.729 518.352 804.593 518.316 804.456 518.285C804.318 518.254 804.183 518.214 804.046 518.185C803.908 518.156 803.774 518.112 803.636 518.085C803.49 518.056 803.343 518.041 803.197 518.014C803.049 517.987 802.9 517.975 802.751 517.95C802.603 517.926 802.454 517.908 802.305 517.886C802.157 517.864 802.008 517.842 801.859 517.821C801.711 517.801 801.563 517.775 801.414 517.757C801.265 517.739 801.118 517.708 800.968 517.693C800.814 517.677 800.661 517.659 800.507 517.644C800.345 517.63 800.182 517.633 800.02 517.621C799.858 517.609 799.696 517.607 799.534 517.598C799.371 517.589 799.209 517.581 799.047 517.575C798.884 517.568 798.722 517.555 798.56 517.551C798.398 517.547 798.236 517.529 798.074 517.528C797.904 517.527 797.734 517.526 797.564 517.527C797.386 517.529 797.207 517.548 797.029 517.553C796.85 517.558 796.672 517.571 796.493 517.578C796.315 517.586 796.137 517.593 795.958 517.604C795.78 517.615 795.601 517.616 795.423 517.629C795.243 517.643 795.062 517.642 794.883 517.659C794.683 517.679 794.486 517.722 794.287 517.745C794.088 517.769 793.89 517.804 793.691 517.831C793.492 517.858 793.294 517.886 793.095 517.917C792.897 517.949 792.697 517.968 792.499 518.003C792.293 518.04 792.087 518.069 791.882 518.11C791.656 518.155 791.433 518.224 791.208 518.275C790.982 518.325 790.758 518.383 790.533 518.439C790.308 518.495 790.082 518.543 789.858 518.604C789.631 518.666 789.401 518.71 789.175 518.778C788.91 518.856 788.654 518.965 788.391 519.052C788.128 519.138 787.867 519.232 787.606 519.326C787.345 519.42 787.08 519.499 786.822 519.601C786.527 519.716 786.236 519.844 785.943 519.969C785.623 520.106 785.309 520.262 784.992 520.411C784.675 520.56 784.353 520.692 784.04 520.853C783.642 521.058 783.257 521.293 782.866 521.517C782.448 521.756 782.028 521.992 781.62 522.253C781.033 522.628 780.466 523.043 779.901 523.462C778.726 524.335 777.583 525.27 776.518 526.335C775.452 527.401 774.517 528.544 773.644 529.719C773.225 530.284 772.81 530.851 772.435 531.437C772.174 531.846 771.938 532.266 771.699 532.684C771.475 533.075 771.24 533.46 771.035 533.858C770.874 534.171 770.742 534.494 770.593 534.81C770.444 535.127 770.289 535.441 770.151 535.761C770.026 536.054 769.898 536.344 769.783 536.64C769.682 536.898 769.602 537.163 769.509 537.424C769.415 537.685 769.32 537.946 769.234 538.209C769.148 538.471 769.039 538.728 768.96 538.993C768.893 539.218 768.849 539.449 768.787 539.676C768.725 539.9 768.678 540.126 768.622 540.351C768.566 540.576 768.508 540.8 768.457 541.026C768.407 541.251 768.338 541.473 768.293 541.7C768.252 541.905 768.222 542.111 768.186 542.317C768.15 542.514 768.131 542.714 768.1 542.913C768.068 543.111 768.041 543.31 768.014 543.509C767.986 543.708 767.951 543.905 767.928 544.104C767.904 544.304 767.861 544.501 767.842 544.701C767.824 544.88 767.826 545.061 767.812 545.241C767.798 545.419 767.797 545.598 767.786 545.776C767.775 545.955 767.769 546.133 767.761 546.311C767.753 546.49 767.74 546.668 767.735 546.847C767.73 547.026 767.711 547.204 767.71 547.383C767.708 547.552 767.709 547.722 767.71 547.892C767.712 548.055 767.729 548.216 767.733 548.378C767.737 548.541 767.75 548.703 767.757 548.865C767.763 549.028 767.771 549.19 767.78 549.352C767.789 549.514 767.791 549.676 767.803 549.838C767.815 550 767.812 550.163 767.827 550.325C767.841 550.479 767.859 550.633 767.875 550.787C767.89 550.936 767.921 551.083 767.939 551.233C767.957 551.382 767.984 551.529 768.004 551.678C768.024 551.827 768.046 551.975 768.068 552.123C768.09 552.272 768.108 552.421 768.132 552.569C768.157 552.717 768.17 552.867 768.196 553.015C768.223 553.161 768.239 553.308 768.267 553.454C768.294 553.591 768.338 553.726 768.367 553.864C768.396 554.001 768.436 554.137 768.467 554.274C768.498 554.411 768.535 554.547 768.567 554.684C768.6 554.821 768.632 554.957 768.667 555.094C768.702 555.23 768.731 555.367 768.767 555.504C768.804 555.64 768.829 555.778 768.867 555.914C768.905 556.047 768.937 556.181 768.977 556.314C769.015 556.441 769.069 556.565 769.109 556.692C769.149 556.819 769.199 556.943 769.241 557.069C769.283 557.196 769.33 557.321 769.373 557.447C769.416 557.574 769.46 557.7 769.505 557.825C769.55 557.951 769.591 558.078 769.637 558.203C769.684 558.328 769.721 558.456 769.769 558.581C769.818 558.705 769.851 558.834 769.902 558.958C769.949 559.076 770.014 559.189 770.063 559.307C770.113 559.424 770.174 559.538 770.225 559.655C770.276 559.772 770.334 559.886 770.387 560.003C770.439 560.12 770.494 560.235 770.548 560.351C770.602 560.468 770.654 560.584 770.71 560.699C770.765 560.815 770.814 560.933 770.871 561.048C770.929 561.163 770.974 561.282 771.033 561.396C771.091 561.51 771.144 561.623 771.204 561.736C771.261 561.844 771.334 561.947 771.393 562.056C771.452 562.165 771.522 562.269 771.583 562.376C771.643 562.485 771.71 562.59 771.772 562.697C771.834 562.804 771.898 562.911 771.961 563.018C772.025 563.124 772.086 563.232 772.151 563.338C772.216 563.444 772.274 563.553 772.34 563.659C772.407 563.764 772.462 563.875 772.53 563.979C772.597 564.083 772.659 564.189 772.728 564.291C772.795 564.392 772.875 564.485 772.944 564.585C773.012 564.685 773.09 564.78 773.16 564.879C773.229 564.978 773.305 565.074 773.376 565.173C773.447 565.272 773.52 565.37 773.592 565.467C773.664 565.565 773.734 565.664 773.808 565.761C773.882 565.858 773.949 565.958 774.024 566.054C774.099 566.151 774.164 566.253 774.24 566.348C774.451 566.613 774.676 566.869 774.897 567.129C775.116 567.386 775.351 567.633 775.58 567.884C775.808 568.135 776.024 568.394 776.262 568.639C776.352 568.73 776.426 568.83 776.517 568.92C776.669 569.073 776.836 569.2 776.99 569.348C777.237 569.585 777.493 569.804 777.745 570.031C777.998 570.257 778.242 570.496 778.5 570.713C778.763 570.933 779.031 571.142 779.299 571.351C779.571 571.564 779.851 571.759 780.127 571.96C780.404 572.162 780.673 572.379 780.956 572.57C781.244 572.765 781.54 572.945 781.834 573.129C782.131 573.316 782.435 573.488 782.737 573.663C783.039 573.839 783.334 574.033 783.641 574.197C783.959 574.367 784.285 574.509 784.608 574.667C784.933 574.825 785.26 574.977 785.59 575.123C785.921 575.27 786.245 575.436 786.579 575.571C786.93 575.711 787.29 575.816 787.645 575.943C787.999 576.07 788.352 576.202 788.71 576.315C789.078 576.432 789.448 576.54 789.82 576.642C790.203 576.747 790.59 576.835 790.975 576.924C791.363 577.014 791.747 577.126 792.137 577.2C792.553 577.28 792.974 577.32 793.393 577.381C793.812 577.443 794.229 577.518 794.649 577.563C795.097 577.61 795.547 577.627 795.996 577.654C796.453 577.681 796.91 577.712 797.368 577.719C797.857 577.726 798.345 577.708 798.833 577.691C799.336 577.674 799.84 577.661 800.343 577.619C800.892 577.573 801.436 577.493 801.982 577.417C802.548 577.338 803.114 577.272 803.676 577.161C804.315 577.035 804.946 576.865 805.577 576.697C806.278 576.511 806.969 576.292 807.657 576.055C808.456 575.778 809.244 575.472 810.023 575.126C811.032 574.679 812.017 574.169 812.982 573.605C815.163 572.33 817.233 570.791 819.104 568.92C820.975 567.05 822.513 564.98 823.789 562.798C824.353 561.834 824.862 560.848 825.31 559.839C825.655 559.061 825.962 558.273 826.238 557.474C826.476 556.786 826.694 556.094 826.88 555.394C827.049 554.763 827.218 554.131 827.345 553.493C827.455 552.931 827.522 552.365 827.6 551.799C827.676 551.253 827.757 550.708 827.803 550.159C827.845 549.657 827.858 549.153 827.875 548.65C827.891 548.161 827.91 547.673 827.903 547.185C827.896 546.727 827.865 546.27 827.837 545.813C827.81 545.363 827.793 544.914 827.746 544.466C827.702 544.046 827.627 543.628 827.565 543.21C827.503 542.791 827.463 542.37 827.384 541.954C827.309 541.563 827.198 541.18 827.108 540.792C827.018 540.406 826.931 540.02 826.826 539.637C826.723 539.265 826.615 538.895 826.499 538.526C826.386 538.168 826.253 537.816 826.126 537.461C825.999 537.107 825.895 536.746 825.754 536.396C825.62 536.061 825.453 535.738 825.306 535.407C825.16 535.077 825.009 534.75 824.85 534.425C824.693 534.102 824.55 533.775 824.38 533.458C824.216 533.151 824.022 532.856 823.847 532.554C823.671 532.252 823.5 531.948 823.313 531.651C823.128 531.357 822.949 531.061 822.753 530.773C822.562 530.49 822.346 530.221 822.144 529.944C821.943 529.667 821.747 529.387 821.535 529.116C821.326 528.847 821.117 528.58 820.897 528.317C820.68 528.059 820.441 527.814 820.214 527.562C819.988 527.31 819.768 527.054 819.532 526.807C819.384 526.653 819.257 526.486 819.104 526.334C819.014 526.243 818.914 526.168 818.823 526.079C818.578 525.841 818.319 525.625 818.068 525.397C817.96 525.298 817.852 525.2 817.744 525.103C858.547 465.311 878.983 393.755 875.647 320.558C871.827 236.699 837.007 157.801 777.603 98.3964C718.198 38.9919 639.299 4.17237 555.44 0.352335C482.271 -2.98244 410.742 17.4348 350.964 58.2064C339.195 46.5556 320.215 46.5854 308.492 58.3089Z" fill="url(#paint2_linear_456_7046)"/>
<path d="M250.04 875.6C242.253 875.6 235.427 873.947 229.56 870.64C223.693 867.333 219.107 862.587 215.8 856.4C212.493 850.107 210.84 842.64 210.84 834C210.84 825.253 212.44 817.787 215.64 811.6C218.947 805.413 223.48 800.667 229.24 797.36C235.107 794.053 241.72 792.4 249.08 792.4C256.653 792.4 263.107 794 268.44 797.2C273.773 800.4 277.827 804.827 280.6 810.48C283.48 816.027 284.92 822.427 284.92 829.68C284.92 831.493 284.867 833.147 284.76 834.64C284.653 836.133 284.547 837.413 284.44 838.48H222.04V826.64H276.76L268.28 829.2C268.28 824.187 267.48 819.973 265.88 816.56C264.387 813.04 262.2 810.373 259.32 808.56C256.44 806.747 253.027 805.84 249.08 805.84C244.6 805.84 240.707 806.96 237.4 809.2C234.2 811.333 231.747 814.533 230.04 818.8C228.333 822.96 227.48 828.08 227.48 834.16C227.48 840.24 228.387 845.36 230.2 849.52C232.013 853.68 234.627 856.827 238.04 858.96C241.453 861.093 245.453 862.16 250.04 862.16C254.947 862.16 259 861.147 262.2 859.12C265.4 856.987 267.907 854.107 269.72 850.48L283.48 856.56C281.667 860.507 279.107 863.92 275.8 866.8C272.6 869.68 268.813 871.867 264.44 873.36C260.067 874.853 255.267 875.6 250.04 875.6ZM360.528 823.76V839.6H306.288V823.76H360.528ZM474.574 845.84C471.48 855.547 466.147 862.96 458.574 868.08C451 873.093 442.147 875.6 432.014 875.6C422.094 875.6 413.507 873.413 406.254 869.04C399 864.667 393.4 858.427 389.454 850.32C385.507 842.107 383.534 832.4 383.534 821.2C383.534 810 385.507 800.347 389.454 792.24C393.4 784.027 399 777.733 406.254 773.36C413.507 768.987 421.987 766.8 431.694 766.8C438.627 766.8 444.814 767.813 450.254 769.84C455.8 771.76 460.494 774.693 464.334 778.64C468.174 782.48 471.054 787.387 472.974 793.36L457.134 800.24C455.214 793.733 452.227 788.987 448.174 786C444.12 783.013 438.894 781.52 432.494 781.52C426.307 781.52 420.867 783.067 416.174 786.16C411.48 789.253 407.854 793.787 405.294 799.76C402.734 805.627 401.454 812.773 401.454 821.2C401.454 829.52 402.68 836.667 405.134 842.64C407.587 848.507 411.107 853.04 415.694 856.24C420.387 859.333 425.934 860.88 432.334 860.88C438.627 860.88 444.067 859.173 448.654 855.76C453.24 852.347 456.387 847.227 458.094 840.4L474.574 845.84ZM527.54 875.6C519.753 875.6 512.927 873.947 507.06 870.64C501.193 867.333 496.607 862.587 493.3 856.4C489.993 850.107 488.34 842.64 488.34 834C488.34 825.253 489.94 817.787 493.14 811.6C496.447 805.413 500.98 800.667 506.74 797.36C512.607 794.053 519.22 792.4 526.58 792.4C534.153 792.4 540.607 794 545.94 797.2C551.273 800.4 555.327 804.827 558.1 810.48C560.98 816.027 562.42 822.427 562.42 829.68C562.42 831.493 562.367 833.147 562.26 834.64C562.153 836.133 562.047 837.413 561.94 838.48H499.54V826.64H554.26L545.78 829.2C545.78 824.187 544.98 819.973 543.38 816.56C541.887 813.04 539.7 810.373 536.82 808.56C533.94 806.747 530.527 805.84 526.58 805.84C522.1 805.84 518.207 806.96 514.9 809.2C511.7 811.333 509.247 814.533 507.54 818.8C505.833 822.96 504.98 828.08 504.98 834.16C504.98 840.24 505.887 845.36 507.7 849.52C509.513 853.68 512.127 856.827 515.54 858.96C518.953 861.093 522.953 862.16 527.54 862.16C532.447 862.16 536.5 861.147 539.7 859.12C542.9 856.987 545.407 854.107 547.22 850.48L560.98 856.56C559.167 860.507 556.607 863.92 553.3 866.8C550.1 869.68 546.313 871.867 541.94 873.36C537.567 874.853 532.767 875.6 527.54 875.6ZM583.148 874V794H598.028L599.308 809.2C601.228 803.867 604.161 799.76 608.108 796.88C612.161 793.893 617.068 792.4 622.828 792.4C624.534 792.4 626.081 792.56 627.468 792.88C628.961 793.093 630.241 793.573 631.308 794.32L629.068 809.04C628.108 808.613 626.881 808.293 625.388 808.08C624.001 807.76 622.081 807.6 619.628 807.6C616.534 807.6 613.494 808.507 610.508 810.32C607.521 812.133 605.068 814.853 603.148 818.48C601.334 822 600.428 826.373 600.428 831.6V874H583.148ZM664.614 770.32V849.68C664.614 853.733 665.627 856.773 667.654 858.8C669.68 860.72 672.4 861.68 675.814 861.68C678.587 861.68 680.934 861.253 682.854 860.4C684.88 859.44 686.694 858.213 688.294 856.72L691.814 868.88C689.36 871.013 686.427 872.667 683.014 873.84C679.6 875.013 675.867 875.6 671.814 875.6C664.774 875.6 658.907 873.84 654.214 870.32C649.627 866.8 647.334 860.88 647.334 852.56V775.12L664.614 770.32ZM690.534 794V807.44H632.774V794H690.534ZM724.178 794V874H706.898V794H724.178ZM716.018 780.88C712.178 780.88 709.191 779.973 707.058 778.16C705.031 776.24 704.018 773.52 704.018 770C704.018 766.48 705.031 763.813 707.058 762C709.191 760.08 712.178 759.12 716.018 759.12C719.858 759.12 722.791 760.08 724.818 762C726.844 763.813 727.858 766.48 727.858 770C727.858 773.52 726.844 776.24 724.818 778.16C722.791 779.973 719.858 780.88 716.018 780.88ZM781.866 756.88C785.173 756.88 788.106 757.307 790.666 758.16C793.333 758.907 795.413 759.867 796.906 761.04L793.866 773.04C792.8 772.293 791.52 771.707 790.026 771.28C788.64 770.853 786.986 770.64 785.066 770.64C780.906 770.64 777.6 771.707 775.146 773.84C772.693 775.973 771.466 779.387 771.466 784.08V795.76L772.106 799.76V874H754.826V782.8C754.826 777.253 755.946 772.56 758.186 768.72C760.426 764.88 763.573 761.947 767.626 759.92C771.68 757.893 776.426 756.88 781.866 756.88ZM796.266 794V807.44H740.746V794H796.266ZM879.44 794L846.16 882.64C844.027 888.613 841.627 893.467 838.96 897.2C836.4 901.04 833.307 903.867 829.68 905.68C826.053 907.493 821.68 908.4 816.56 908.4C812.827 908.4 809.36 907.867 806.16 906.8C802.96 905.84 800.187 904.507 797.84 902.8L802 889.84C803.813 891.547 805.84 892.773 808.08 893.52C810.32 894.267 812.72 894.64 815.28 894.64C818.48 894.64 821.147 893.84 823.28 892.24C825.413 890.64 827.28 887.653 828.88 883.28L832.24 874.48L823.92 854.48L799.92 794H819.12L836.24 845.2L840.4 859.76L845.36 844.08L861.68 794H879.44Z" fill="#00364D"/>
<defs>
<linearGradient id="paint0_linear_456_7046" x1="716" y1="439.5" x2="321.858" y2="84.049" gradientUnits="userSpaceOnUse">
<stop stop-color="#004461"/>
<stop offset="0.9999" stop-color="#1F627E"/>
<stop offset="1" stop-color="#93CFE9"/>
</linearGradient>
<linearGradient id="paint1_linear_456_7046" x1="781.653" y1="591.64" x2="285.823" y2="94.6121" gradientUnits="userSpaceOnUse">
<stop stop-color="#004461"/>
<stop offset="1" stop-color="#6396AB"/>
</linearGradient>
<linearGradient id="paint2_linear_456_7046" x1="915.711" y1="472.311" x2="405.1" y2="-38.3001" gradientUnits="userSpaceOnUse">
<stop stop-color="#DA3925"/>
<stop offset="1" stop-color="#6396AB"/>
</linearGradient>
<clipPath id="clip0_456_7046">
<rect width="315" height="241" fill="white" transform="translate(382 215)"/>
</clipPath>
</defs>
</svg>
