<svg xmlns="http://www.w3.org/2000/svg" xmlns:xlink="http://www.w3.org/1999/xlink" viewBox="0 0 484.43 448.31"><defs><style>.cls-1{isolation:isolate;}.cls-2{fill:#f4ddc3;}.cls-10,.cls-12,.cls-15,.cls-27,.cls-28,.cls-29,.cls-3,.cls-31,.cls-34,.cls-35,.cls-39,.cls-40,.cls-41,.cls-42,.cls-44,.cls-45,.cls-6{fill:none;}.cls-10,.cls-12,.cls-3,.cls-39{stroke:#fff;}.cls-10,.cls-12,.cls-27,.cls-28,.cls-29,.cls-3,.cls-31,.cls-34,.cls-35,.cls-39,.cls-40,.cls-41,.cls-6{stroke-linecap:round;stroke-linejoin:round;}.cls-3{stroke-width:1.03px;stroke-dasharray:6.17 0 0;}.cls-4{fill:#fff;}.cls-5{fill:#f2a6a0;}.cls-6{stroke:#252420;stroke-width:0.43px;}.cls-7{fill:#ffcc73;}.cls-8{fill:#5c7bff;}.cls-43,.cls-9{fill:#ff5776;}.cls-10{stroke-width:0.94px;}.cls-11,.cls-17{fill:#789afe;}.cls-12{stroke-width:1.24px;}.cls-13{fill:#ddcdbf;opacity:0.87;}.cls-13,.cls-25,.cls-38,.cls-43,.cls-46,.cls-48,.cls-49{mix-blend-mode:multiply;}.cls-14{fill:#fff3e9;}.cls-15{stroke:#f1c3b5;stroke-width:1.08px;}.cls-15,.cls-42,.cls-44,.cls-45{stroke-miterlimit:10;}.cls-16{fill:#ffb149;}.cls-17{font-size:26.35px;font-family:Raleway-Bold, Raleway Bold;font-weight:700;}.cls-18{letter-spacing:0.01em;}.cls-19{letter-spacing:0em;}.cls-20{letter-spacing:-0.08em;}.cls-21,.cls-46{fill:#5d82f0;}.cls-22{fill:#ffe9e9;}.cls-23{fill:#252420;}.cls-24{fill:#00ccbe;}.cls-25{opacity:0.48;}.cls-26{fill:#ff7171;}.cls-27,.cls-31,.cls-34,.cls-35,.cls-42,.cls-44{stroke:#0f0f3a;}.cls-27{stroke-width:0.53px;}.cls-28,.cls-29{stroke:#ff7171;}.cls-28{stroke-width:2px;}.cls-29{stroke-width:0.99px;}.cls-30{fill:#0f0f3a;}.cls-31{stroke-width:0.22px;}.cls-32{fill:url(#linear-gradient);}.cls-33{fill:url(#linear-gradient-2);}.cls-34{stroke-width:0.29px;}.cls-35{stroke-width:0.15px;}.cls-36{fill:url(#linear-gradient-3);}.cls-37,.cls-38,.cls-48,.cls-49{fill:#000061;}.cls-38{opacity:0.35;}.cls-39,.cls-40{stroke-width:0.23px;}.cls-40{stroke:#789afe;}.cls-41{stroke:#ffb149;stroke-width:1.86px;}.cls-42{stroke-width:0.46px;}.cls-43{opacity:0.36;}.cls-44{stroke-width:0.86px;}.cls-45{stroke:#5d82f0;stroke-width:1.02px;}.cls-46{opacity:0.44;}.cls-47{fill:#f3ddc3;}.cls-48{opacity:0.21;}.cls-49{opacity:0.09;}.cls-50{fill:#fcb05f;}</style><linearGradient id="linear-gradient" x1="330.92" y1="230.65" x2="311.84" y2="199.5" gradientTransform="matrix(-1, -0.08, -0.08, 1, 456, 26.68)" gradientUnits="userSpaceOnUse"><stop offset="0.01" stop-color="#ffb2a8" stop-opacity="0.2"/><stop offset="1" stop-color="#ff7171" stop-opacity="0.5"/></linearGradient><linearGradient id="linear-gradient-2" x1="315.44" y1="232.88" x2="296.14" y2="201.38" xlink:href="#linear-gradient"/><linearGradient id="linear-gradient-3" x1="340.67" y1="198.22" x2="328.15" y2="208.28" xlink:href="#linear-gradient"/></defs><title>8622517_3949286</title><g class="cls-1"><g id="OBJECTS"><path class="cls-2" d="M16.26,330.92c-9.3-16.07-10.1-37.29-.19-53,11-17.45,32-25.18,49.32-36.41a125.94,125.94,0,0,0,48.4-59.26c10.86-27.68,11.52-58.28,19.64-86.9,4-14,10.25-28.14,22-36.67,7.6-5.51,16.89-8.21,26.16-9.68A117.26,117.26,0,0,1,272,73C287.4,85.3,300,101.75,318,109.68c13.2,5.81,28,6.42,42.46,6.23,24.29-.32,49.08-2.58,72.47,4s45.64,24.6,48.3,48.74c1.64,14.91-4.35,29.69-12.41,42.33s-18.24,23.83-26.41,36.4c-7.88,12.14-13.78,28.16-6.5,40.66,9.13,15.71,32.47,15.66,45.73,28.07,10.09,9.45,12.4,26.13,5.26,38-10.47,17.35-34.21,19.86-54.47,20-82.88.5-165.91-7-248.55-.72-31.46,2.4-63.89,6.73-95.09-.16C63.25,367.48,30,354.6,16.26,330.92Z" transform="translate(-7.17 -11.71)"/><path class="cls-3" d="M27.15,301.15c-8.47-11.28-14.35-25.43-13.38-39.8,1.23-18.19,12.79-33.41,20.66-49.63A129.74,129.74,0,0,0,45.68,136c-2.06-13.29-6.19-26.23-7.1-39.67s2.05-28.14,11.7-36.91c13.83-12.58,34.81-8.31,52.2-2.52C137.3,68.49,171.63,83.46,208,87s76.42-6.82,98.92-37.25c4-5.43,7.52-11.92,7-18.79s-6.72-13.51-13-11.81c-9.15,2.45-8.35,17.07-2.84,25.17,12.95,19,37.14,24.7,59.22,26.61S402.79,72.73,421.67,85c22.5,14.64,33.26,46.73,24.53,73.12-2.9,8.77-7.63,16.75-10.56,25.5s-3.86,19,.72,26.92c8.28,14.35,28.95,13.57,40.42,25.21,7.66,7.76,9.89,19.86,9.51,31.08-.64,19-7.7,37.41-18.7,52.4-5.87,8-12.95,15.16-21.41,19.88-12.13,6.76-26.2,8.11-39.86,9.33-26.71,2.4-53.73,4.78-80.22.44-15.09-2.48-30-7.14-45.24-7.36-30.13-.43-58,16.27-87.67,21.86-20.36,3.84-41.24,2.38-61.88.9-23.54-1.68-42.5-5.64-60.63-22.38C56.15,328.5,39.26,317.26,27.15,301.15Z" transform="translate(-7.17 -11.71)"/><path class="cls-4" d="M480.75,41.65a2.42,2.42,0,1,1-2.42-2.42A2.42,2.42,0,0,1,480.75,41.65Z" transform="translate(-7.17 -11.71)"/><path class="cls-4" d="M146.3,41.29,148,45a2.05,2.05,0,0,0,.89.95l3,1.67-3.64,2-2,4.37-2-4.37-3.64-2,3.64-2Z" transform="translate(-7.17 -11.71)"/><path class="cls-4" d="M393,46.91l1.71,3.74a2,2,0,0,0,.88,1l3.05,1.67-3.65,2-2,4.36-2-4.36-3.64-2,3.64-2Z" transform="translate(-7.17 -11.71)"/><path class="cls-4" d="M482.78,207.13l1.71,3.74a2,2,0,0,0,.88.95l3,1.67-3.64,2-2,4.37-2-4.37-3.65-2,3.65-2Z" transform="translate(-7.17 -11.71)"/><path class="cls-4" d="M284.76,382.83l1.71,3.75a2,2,0,0,0,.88.95l3,1.66-3.65,2-2,4.36-2-4.36-3.64-2,3.64-2Z" transform="translate(-7.17 -11.71)"/><path class="cls-4" d="M482.78,405.6l1.71,3.74a2,2,0,0,0,.88,1l3,1.67-3.64,2-2,4.37-2-4.37-3.65-2,3.65-2Z" transform="translate(-7.17 -11.71)"/><path class="cls-4" d="M17.93,363.67l1.7,3.75a2.1,2.1,0,0,0,.89.95l3,1.66-3.64,2-2,4.37-2-4.37-3.64-2,3.64-2Z" transform="translate(-7.17 -11.71)"/><path class="cls-4" d="M17.93,188.6l1.7,3.74a2.05,2.05,0,0,0,.89.95l3,1.67-3.64,2-2,4.37-2-4.37-3.64-2,3.64-2Z" transform="translate(-7.17 -11.71)"/><path class="cls-4" d="M264,20.11l1.71,3.74a2,2,0,0,0,.88.95l3.05,1.67-3.65,2-2,4.37-2-4.37-3.64-2,3.64-2Z" transform="translate(-7.17 -11.71)"/><path class="cls-4" d="M75,15.26a3.55,3.55,0,1,1-3.55-3.55A3.54,3.54,0,0,1,75,15.26Z" transform="translate(-7.17 -11.71)"/><path class="cls-4" d="M22.52,41.29a2.43,2.43,0,1,1-2.42-2.42A2.42,2.42,0,0,1,22.52,41.29Z" transform="translate(-7.17 -11.71)"/><path class="cls-4" d="M202.9,21.25a2.43,2.43,0,1,1-2.42-2.42A2.43,2.43,0,0,1,202.9,21.25Z" transform="translate(-7.17 -11.71)"/><path class="cls-4" d="M393.7,14.78a2.42,2.42,0,1,1-2.42-2.42A2.42,2.42,0,0,1,393.7,14.78Z" transform="translate(-7.17 -11.71)"/><circle class="cls-4" cx="471.16" cy="266.54" r="2.42"/><circle class="cls-4" cx="341.7" cy="396" r="2.42"/><path class="cls-4" d="M46.9,382.83a2.43,2.43,0,1,1-2.42-2.42A2.43,2.43,0,0,1,46.9,382.83Z" transform="translate(-7.17 -11.71)"/><circle class="cls-4" cx="177.66" cy="396" r="2.42"/><path class="cls-5" d="M391.65,176.8s-19.55-33,10.34-86.54S446.09,20,446.09,20s12.29,52.47,3.46,86.39S391.65,176.8,391.65,176.8Z" transform="translate(-7.17 -11.71)"/><path class="cls-6" d="M391.65,176.8c1.8-21.89,10.32-42.28,19.56-62,9.47-20.16,18.7-40.16,25.6-61.38q5.37-16.53,9.26-33.49" transform="translate(-7.17 -11.71)"/><polyline class="cls-6" points="427.99 23.45 431.75 35.07 442.38 26.87"/><polyline class="cls-6" points="417.58 39.65 425.07 54.81 444.57 44.65"/><polyline class="cls-6" points="407.86 55.77 417 74.71 445.56 67.08"/><polyline class="cls-6" points="397.02 74.63 407.94 94.8 443.43 90.03"/><polyline class="cls-6" points="386.84 95.03 398.31 115.78 435.25 111.24"/><polyline class="cls-6" points="379.87 118.22 391.39 133.53 421.7 130.07"/><polyline class="cls-6" points="378.35 140.54 386.41 151.72 407.35 145.32"/><path class="cls-7" d="M392.12,185.85s-9.38-37.16,34.5-80S488.88,51,488.88,51s-3.12,53.8-21.24,83.81S392.12,185.85,392.12,185.85Z" transform="translate(-7.17 -11.71)"/><path class="cls-6" d="M392.12,185.85c7.95-20.48,21.91-37.61,36.36-53.84,14.8-16.64,29.34-33.19,42-51.58Q480.31,66.1,488.86,51" transform="translate(-7.17 -11.71)"/><polyline class="cls-6" points="466.92 50.7 467.22 62.91 479.74 58.07"/><polyline class="cls-6" points="452.34 63.27 455.2 79.93 476.79 75.74"/><polyline class="cls-6" points="438.43 75.97 441.81 96.73 471.36 97.52"/><polyline class="cls-6" points="422.68 90.97 427.42 113.41 462.8 118.92"/><polyline class="cls-6" points="407.12 107.64 412.22 130.79 448.94 136.94"/><polyline class="cls-6" points="393.85 127.88 400.55 145.84 430.59 151.13"/><polyline class="cls-6" points="386.05 148.85 390.6 161.86 412.49 161.68"/><path class="cls-5" d="M104.6,183.29s19.55-33-10.34-86.54-44.1-70.28-44.1-70.28-12.3,52.47-3.46,86.39S104.6,183.29,104.6,183.29Z" transform="translate(-7.17 -11.71)"/><path class="cls-6" d="M104.6,183.29C102.8,161.4,94.27,141,85,121.34,75.57,101.18,66.34,81.18,59.44,60q-5.37-16.53-9.26-33.49" transform="translate(-7.17 -11.71)"/><polyline class="cls-6" points="53.92 29.94 50.16 41.56 39.53 33.36"/><polyline class="cls-6" points="64.32 46.14 56.84 61.3 37.34 51.14"/><polyline class="cls-6" points="74.05 62.27 64.91 81.2 36.35 73.57"/><polyline class="cls-6" points="84.89 81.12 73.97 101.29 38.48 96.52"/><polyline class="cls-6" points="95.07 101.52 83.6 122.28 46.65 117.73"/><polyline class="cls-6" points="102.04 124.71 90.52 140.02 60.2 136.56"/><polyline class="cls-6" points="103.56 147.03 95.5 158.21 74.56 151.81"/><path class="cls-7" d="M104.13,192.34s9.38-37.16-34.5-80S7.37,57.45,7.37,57.45s3.12,53.8,21.23,83.81S104.13,192.34,104.13,192.34Z" transform="translate(-7.17 -11.71)"/><path class="cls-6" d="M104.13,192.34c-7.95-20.48-21.91-37.6-36.36-53.84-14.8-16.64-29.34-33.19-42-51.58Q15.94,72.61,7.39,57.44" transform="translate(-7.17 -11.71)"/><polyline class="cls-6" points="14.99 57.19 14.69 69.4 2.17 64.56"/><polyline class="cls-6" points="29.57 69.76 26.7 86.43 5.12 82.23"/><polyline class="cls-6" points="43.48 82.46 40.09 103.22 10.54 104.01"/><polyline class="cls-6" points="59.23 97.46 54.49 119.9 19.11 125.41"/><polyline class="cls-6" points="74.79 114.13 69.69 137.28 32.97 143.43"/><polyline class="cls-6" points="88.06 134.37 81.36 152.33 51.31 157.63"/><polyline class="cls-6" points="95.86 155.34 91.31 168.35 69.41 168.17"/><path class="cls-4" d="M464.79,83.26V353.83A13,13,0,0,1,452.11,367h-395a13,13,0,0,1-12.67-13.14V83.26A13,13,0,0,1,57.15,70.12h395A13,13,0,0,1,464.79,83.26Z" transform="translate(-7.17 -11.71)"/><path class="cls-8" d="M464.79,83.26v26.81H44.48V83.26A13,13,0,0,1,57.15,70.12h395A13,13,0,0,1,464.79,83.26Z" transform="translate(-7.17 -11.71)"/><path class="cls-7" d="M404.2,90.21a5.58,5.58,0,1,1-5.58-5.58A5.58,5.58,0,0,1,404.2,90.21Z" transform="translate(-7.17 -11.71)"/><path class="cls-5" d="M422.06,90.21a5.58,5.58,0,1,1-5.58-5.58A5.58,5.58,0,0,1,422.06,90.21Z" transform="translate(-7.17 -11.71)"/><path class="cls-9" d="M439.92,90.21a5.58,5.58,0,1,1-5.58-5.58A5.58,5.58,0,0,1,439.92,90.21Z" transform="translate(-7.17 -11.71)"/><path class="cls-4" d="M336.05,95.36H141.62a5.8,5.8,0,0,1-5.78-5.78h0a5.8,5.8,0,0,1,5.78-5.78H336.05a5.8,5.8,0,0,1,5.78,5.78h0A5.8,5.8,0,0,1,336.05,95.36Z" transform="translate(-7.17 -11.71)"/><circle class="cls-10" cx="348.08" cy="77.8" r="5.95"/><line class="cls-10" x1="352.78" y1="81.44" x2="357.78" y2="85.63"/><rect class="cls-11" x="62.99" y="144.08" width="260.63" height="177.08"/><rect class="cls-11" x="338.86" y="144.61" width="93.53" height="53.93"/><rect class="cls-11" x="338.86" y="206.61" width="93.53" height="53.93"/><rect class="cls-11" x="338.86" y="267.57" width="93.53" height="53.93"/><rect class="cls-11" x="37.24" y="98.37" width="420.37" height="26.27"/><line class="cls-12" x1="410.48" y1="106.55" x2="428.19" y2="106.55"/><line class="cls-12" x1="410.48" y1="110.91" x2="428.19" y2="110.91"/><line class="cls-12" x1="410.48" y1="115.69" x2="428.19" y2="115.69"/><rect class="cls-13" x="94.92" y="138.43" width="317.42" height="201.21"/><rect class="cls-14" x="91.7" y="135.2" width="317.42" height="201.21"/><rect class="cls-15" x="99.23" y="142.74" width="302.36" height="188.3"/><polygon class="cls-11" points="356.13 288.97 339.18 312.74 347.89 311.24 350.99 318.83 361.91 293.07 356.13 288.97"/><polygon class="cls-11" points="369.71 288.97 386.66 312.74 377.95 311.24 374.85 318.83 363.92 293.07 369.71 288.97"/><path class="cls-16" d="M373.83,276.46h0a2.26,2.26,0,0,0,3.91,1h0a2.25,2.25,0,0,1,3.89,2h0a2.26,2.26,0,0,0,3,2.67h0a2.25,2.25,0,0,1,2.5,3.61h0a2.26,2.26,0,0,0,1.42,3.77h0a2.25,2.25,0,0,1,.53,4.36h0a2.25,2.25,0,0,0-.48,4h0a2.26,2.26,0,0,1-1.56,4.11h0a2.26,2.26,0,0,0-2.29,3.31h0a2.26,2.26,0,0,1-3.29,2.92h0a2.25,2.25,0,0,0-3.56,1.87h0a2.25,2.25,0,0,1-4.26,1.05h0a2.26,2.26,0,0,0-4,0h0a2.25,2.25,0,0,1-4.26-1.05h0a2.26,2.26,0,0,0-3.57-1.87h0a2.26,2.26,0,0,1-3.29-2.92h0a2.25,2.25,0,0,0-2.28-3.31h0a2.26,2.26,0,0,1-1.56-4.11h0a2.25,2.25,0,0,0-.48-4h0a2.25,2.25,0,0,1,.53-4.36h0a2.26,2.26,0,0,0,1.42-3.77h0a2.25,2.25,0,0,1,2.5-3.61h0a2.26,2.26,0,0,0,3-2.67h0a2.25,2.25,0,0,1,3.89-2h0a2.26,2.26,0,0,0,3.91-1h0A2.25,2.25,0,0,1,373.83,276.46Z" transform="translate(-7.17 -11.71)"/><text class="cls-17" transform="translate(156.14 180.96)">CE<tspan class="cls-18" x="28.24" y="0">R</tspan><tspan x="42.65" y="0">TIFI</tspan><tspan class="cls-19" x="81.17" y="0">C</tspan><tspan class="cls-20" x="96.55" y="0">A</tspan><tspan x="110.65" y="0">TION</tspan></text><path class="cls-11" d="M321.68,212.55H200.1a1.62,1.62,0,0,1-1.62-1.62h0a1.61,1.61,0,0,1,1.62-1.61H321.68a1.62,1.62,0,0,1,1.62,1.61h0A1.63,1.63,0,0,1,321.68,212.55Z" transform="translate(-7.17 -11.71)"/><rect class="cls-11" x="197.56" y="206.22" width="112.32" height="3.23" rx="1.53"/><path class="cls-11" d="M373.87,244.83h-226a1.62,1.62,0,0,1-1.61-1.62h0a1.61,1.61,0,0,1,1.61-1.61h226a1.61,1.61,0,0,1,1.61,1.61h0A1.62,1.62,0,0,1,373.87,244.83Z" transform="translate(-7.17 -11.71)"/><path class="cls-11" d="M373.87,253.43h-226a1.61,1.61,0,0,1-1.61-1.61h0a1.61,1.61,0,0,1,1.61-1.61h226a1.61,1.61,0,0,1,1.61,1.61h0A1.61,1.61,0,0,1,373.87,253.43Z" transform="translate(-7.17 -11.71)"/><path class="cls-11" d="M373.87,263.12h-226a1.61,1.61,0,0,1-1.61-1.62h0a1.61,1.61,0,0,1,1.61-1.61h226a1.61,1.61,0,0,1,1.61,1.61h0A1.61,1.61,0,0,1,373.87,263.12Z" transform="translate(-7.17 -11.71)"/><rect class="cls-11" x="182.16" y="257.87" width="143.11" height="3.23" rx="1.28"/><path class="cls-11" d="M220.92,319.21H149a.61.61,0,0,1-.61-.61h0A.62.62,0,0,1,149,318h71.95a.61.61,0,0,1,.61.61h0A.61.61,0,0,1,220.92,319.21Z" transform="translate(-7.17 -11.71)"/><path class="cls-11" d="M149.14,317.31a.55.55,0,0,1-.51-.36.54.54,0,0,1,.34-.69,36.3,36.3,0,0,0,12.84-7.71,18.26,18.26,0,0,1-1.27-15.91,10,10,0,0,1,4.62-5.49c2.16-1,5.41-.73,6.91,1.53,1.11,1.69,1.07,4-.14,7a37.25,37.25,0,0,1-8.75,13,15.53,15.53,0,0,0,1.55,2c2.78,3.05,7.71,5.12,11.36,3a13,13,0,0,0,3.24-3.11,21.25,21.25,0,0,1,2.4-2.54,2.38,2.38,0,0,1,1.78-.71c1.09.13,1.6,1.29,1.88,1.91a8.73,8.73,0,0,0,3.14,4.11,4,4,0,0,0,4.56-.05,7.85,7.85,0,0,0,1.32-1.77c.72-1.18,1.46-2.39,2.93-2.6,1.66-.24,2.74,1,3.78,2.21a5.15,5.15,0,0,0,2.59,2c1.43.26,2.76-1.09,3.92-2.27l.09-.1c1.43-1.45,3.7-2.71,5.42-1.48a4.55,4.55,0,0,1,1.4,2.12,8.69,8.69,0,0,0,.5,1.06,3.51,3.51,0,0,0,5.11.7.53.53,0,1,1,.73.78,4.58,4.58,0,0,1-6.76-.92,8.31,8.31,0,0,1-.57-1.21,3.72,3.72,0,0,0-1-1.65c-1.16-.84-2.89.21-4,1.36l-.09.09c-1.29,1.31-2.88,2.94-4.88,2.58a6,6,0,0,1-3.21-2.37c-.93-1.07-1.73-2-2.82-1.84s-1.52,1-2.16,2.09a8.67,8.67,0,0,1-1.53,2,5,5,0,0,1-5.84.15,9.66,9.66,0,0,1-3.55-4.59c-.26-.58-.58-1.22-1-1.27a1.6,1.6,0,0,0-1,.46,19.13,19.13,0,0,0-2.26,2.41,14.26,14.26,0,0,1-3.53,3.35c-4.17,2.46-9.55.27-12.7-3.17a17,17,0,0,1-1.54-2,37.4,37.4,0,0,1-13.08,7.81A.47.47,0,0,1,149.14,317.31Zm18.65-29.66a5.22,5.22,0,0,0-2.17.47,9.09,9.09,0,0,0-4.09,4.92,17.21,17.21,0,0,0,1.08,14.75,36.3,36.3,0,0,0,8.32-12.48c1.07-2.69,1.15-4.66.24-6A4,4,0,0,0,167.79,287.65Z" transform="translate(-7.17 -11.71)"/><path class="cls-11" d="M326.37,319.21h-72a.61.61,0,0,1-.61-.61h0a.62.62,0,0,1,.61-.61h72a.61.61,0,0,1,.61.61h0A.61.61,0,0,1,326.37,319.21Z" transform="translate(-7.17 -11.71)"/><path class="cls-11" d="M293.9,314.48c-2.54,0-4.87-1.74-7-3.31l-.21-.16c-1.15-.86-5.11-3.5-7.67-1.5a7.31,7.31,0,0,0-1.48,1.82,6.78,6.78,0,0,1-2.19,2.39,3.83,3.83,0,0,1-3.07.24,6.5,6.5,0,0,1-3.68-3.32,17.5,17.5,0,0,1-1.21-4.26,22.05,22.05,0,0,0-.72-3c-.72-2.14-2.61-4.25-4.74-3.94a5,5,0,0,0-2.89,1.92,12.7,12.7,0,0,0-2.79,5.8.54.54,0,0,1-.64.42.53.53,0,0,1-.42-.63,13.75,13.75,0,0,1,3-6.28,5.91,5.91,0,0,1,3.55-2.29c2.73-.41,5,2,5.92,4.66a23.75,23.75,0,0,1,.76,3.13,16.19,16.19,0,0,0,1.12,4,5.43,5.43,0,0,0,3,2.76,2.82,2.82,0,0,0,2.21-.16,5.76,5.76,0,0,0,1.82-2,8.12,8.12,0,0,1,1.72-2.08c3.07-2.4,7.29.24,9,1.49l.22.16c2.3,1.71,4.9,3.65,7.49,2.94a9.57,9.57,0,0,0,3.85-2.86c1.52-1.57,3.08-3.17,5.37-3.13,2.12.07,3.57,1.6,5,3.07a14.15,14.15,0,0,0,2.42,2.19,6.23,6.23,0,0,0,9-4,.54.54,0,0,1,.61-.45.53.53,0,0,1,.45.61,7.29,7.29,0,0,1-10.66,4.78,15.25,15.25,0,0,1-2.61-2.35c-1.31-1.37-2.55-2.68-4.22-2.73s-3.14,1.33-4.57,2.8c-1.27,1.3-2.58,2.66-4.33,3.14A5.28,5.28,0,0,1,293.9,314.48Z" transform="translate(-7.17 -11.71)"/><path class="cls-21" d="M455.2,439.41a.28.28,0,0,1-.27.27h-38.6a4.07,4.07,0,0,1-2.28-.7h0a3.57,3.57,0,0,1-.43-.34,4.12,4.12,0,0,1-1.37-3.06v-3a4.12,4.12,0,0,1,2.57-3.81,5.2,5.2,0,0,1,.77-.22,3.84,3.84,0,0,1,.76-.07h38.49a.37.37,0,1,1,0,.73h-4.32a.37.37,0,0,0-.36.37v9.2a.36.36,0,0,0,.36.37h4.42A.27.27,0,0,1,455.2,439.41Z" transform="translate(-7.17 -11.71)"/><path class="cls-4" d="M454.66,429.2v9.94H424.05a3.41,3.41,0,0,1-2.65-1.26,3.37,3.37,0,0,1-.76-2.15v-3.11a3.43,3.43,0,0,1,1.11-2.53l0,0a2,2,0,0,1,.29-.22h0a3.45,3.45,0,0,1,2-.63Z" transform="translate(-7.17 -11.71)"/><path class="cls-11" d="M455.2,439.41a.28.28,0,0,1-.27.27H422c-1.51-.27-2.86-1.19-2.86-6.06s3.41-5.15,3.41-5.15h32.26a.37.37,0,1,1,0,.73h-4.32a.37.37,0,0,0-.36.37v9.2a.36.36,0,0,0,.36.37h4.42A.27.27,0,0,1,455.2,439.41Z" transform="translate(-7.17 -11.71)"/><path class="cls-11" d="M455.2,439.41a.28.28,0,0,1-.27.27h-.76a.28.28,0,0,1-.27-.27.28.28,0,0,1,.27-.27h.76A.27.27,0,0,1,455.2,439.41Z" transform="translate(-7.17 -11.71)"/><path class="cls-4" d="M454.66,429.2v9.94H424.05a3.36,3.36,0,0,1-2.28-.88l-.12-.1a3.33,3.33,0,0,1-.25-.28l-.19-.27a1.61,1.61,0,0,1-.17-.28l-.06-.1v0a1,1,0,0,1-.07-.15c0-.1-.08-.2-.11-.3s-.07-.24-.1-.36a.36.36,0,0,0,0-.1,3.64,3.64,0,0,1,0-.57v-3.16a3.4,3.4,0,0,1,0-.45l0-.15a1.55,1.55,0,0,1,.05-.23l0-.1.07-.21.09-.22a3.84,3.84,0,0,1,.21-.4.86.86,0,0,0,.07-.1l.12-.17.11-.13a2.27,2.27,0,0,1,.3-.32l0,0,.23-.18.06-.05.08-.05a3.4,3.4,0,0,1,1.89-.58Z" transform="translate(-7.17 -11.71)"/><path class="cls-22" d="M454.66,429.78v.1H422l.06,0h0l.08-.05Z" transform="translate(-7.17 -11.71)"/><path class="cls-22" d="M454.66,430.71v.1H421.15a.36.36,0,0,0,.07-.1Z" transform="translate(-7.17 -11.71)"/><path class="cls-22" d="M454.66,431.64v.1H420.75l0-.1Z" transform="translate(-7.17 -11.71)"/><rect class="cls-22" x="413.47" y="420.87" width="34.02" height="0.1"/><rect class="cls-22" x="413.47" y="421.8" width="34.02" height="0.1"/><rect class="cls-22" x="413.47" y="422.73" width="34.02" height="0.1"/><rect class="cls-22" x="413.47" y="423.66" width="34.02" height="0.1"/><rect class="cls-22" x="413.47" y="424.59" width="34.02" height="0.1"/><path class="cls-22" d="M454.66,437.23v.1H421l-.06-.1Z" transform="translate(-7.17 -11.71)"/><path class="cls-22" d="M454.66,438.16v.1H421.77l-.12-.1Z" transform="translate(-7.17 -11.71)"/><path class="cls-23" d="M422.62,434.44v.09a7.45,7.45,0,0,1-.09.84s0,.06,0,.1a7.72,7.72,0,0,1-.2.83.42.42,0,0,1,0,.1,4.12,4.12,0,0,1-.37.83l-.07.1a2.59,2.59,0,0,1-.44.55l-.19-.27a1.61,1.61,0,0,1-.17-.28l-.06-.1v0a1,1,0,0,1-.07-.15c0-.1-.08-.2-.11-.3s-.07-.24-.1-.36a.36.36,0,0,0,0-.1,3.64,3.64,0,0,1,0-.57v-3.16a3.4,3.4,0,0,1,0-.45l0-.15a1.55,1.55,0,0,1,.05-.23l0-.1.07-.21.09-.22a3.84,3.84,0,0,1,.21-.4.86.86,0,0,0,.07-.1l.12-.17.11-.13a2.27,2.27,0,0,1,.3-.32l0,0,.23-.18.06-.05,0,.05c0,.11.1.41.19.83,0,0,0,.07,0,.1.05.25.1.52.14.83a.3.3,0,0,1,0,.1c0,.26.07.54.1.83a.38.38,0,0,1,0,.1c0,.27,0,.55.05.83v.1A7.85,7.85,0,0,1,422.62,434.44Z" transform="translate(-7.17 -11.71)"/><path class="cls-7" d="M417.89,432.68c-.19,3.34.48,6.13,1.28,7h-.32c-.76-1-1.41-3.68-1.21-7a5.12,5.12,0,0,1,2.24-4.19h.5A4.67,4.67,0,0,0,417.89,432.68Z" transform="translate(-7.17 -11.71)"/><path class="cls-7" d="M413.13,432.68A13.05,13.05,0,0,0,414,439a3.57,3.57,0,0,1-.43-.34,14.44,14.44,0,0,1-.73-6,5.08,5.08,0,0,1,1.93-3.9,5.2,5.2,0,0,1,.77-.22A4.74,4.74,0,0,0,413.13,432.68Z" transform="translate(-7.17 -11.71)"/><polygon class="cls-21" points="420.79 420.96 425.41 420.96 425.41 425.86 423.1 424.99 420.79 425.62 420.79 420.96"/><path class="cls-24" d="M459.13,428a.27.27,0,0,1-.27.27h-38.6a4.09,4.09,0,0,1-4.09-4.1v-3a4.11,4.11,0,0,1,4.1-4.1h38.49a.37.37,0,0,1,0,.74h-4.32a.36.36,0,0,0-.36.36v9.21a.37.37,0,0,0,.36.37h4.42A.27.27,0,0,1,459.13,428Z" transform="translate(-7.17 -11.71)"/><path class="cls-4" d="M458.59,417.75v9.94H428a3.42,3.42,0,0,1-3.41-3.42v-3.11a3.41,3.41,0,0,1,1.12-2.53l0,0a3.15,3.15,0,0,1,.29-.22h0a3.38,3.38,0,0,1,2-.62Z" transform="translate(-7.17 -11.71)"/><path class="cls-24" d="M459.13,428a.27.27,0,0,1-.27.27H426c-1.51-.27-2.86-1.19-2.86-6.05S426.5,417,426.5,417h32.26a.37.37,0,0,1,0,.74h-4.32a.36.36,0,0,0-.36.36v9.21a.37.37,0,0,0,.36.37h4.42A.27.27,0,0,1,459.13,428Z" transform="translate(-7.17 -11.71)"/><path class="cls-24" d="M459.13,428a.27.27,0,0,1-.27.27h-.76a.27.27,0,1,1,0-.53h.76A.27.27,0,0,1,459.13,428Z" transform="translate(-7.17 -11.71)"/><g class="cls-25"><path class="cls-24" d="M459.13,428a.27.27,0,0,1-.27.27H426c-1.51-.27-2.86-1.19-2.86-6.05S426.5,417,426.5,417h32.26a.37.37,0,0,1,0,.74h-4.32a.36.36,0,0,0-.36.36v9.21a.37.37,0,0,0,.36.37h4.42A.27.27,0,0,1,459.13,428Z" transform="translate(-7.17 -11.71)"/><path class="cls-24" d="M459.13,428a.27.27,0,0,1-.27.27h-.76a.27.27,0,1,1,0-.53h.76A.27.27,0,0,1,459.13,428Z" transform="translate(-7.17 -11.71)"/></g><path class="cls-4" d="M458.59,417.75v9.94H428a3.37,3.37,0,0,1-2.28-.89l-.12-.1a2.26,2.26,0,0,1-.25-.28,2.48,2.48,0,0,1-.19-.26,2.75,2.75,0,0,1-.17-.29l-.06-.1v0a1,1,0,0,1-.07-.15,2.09,2.09,0,0,1-.11-.3,2.37,2.37,0,0,1-.09-.36.36.36,0,0,1,0-.1,2.69,2.69,0,0,1-.05-.57v-3.15a3.19,3.19,0,0,1,0-.45l0-.16c0-.07,0-.15.05-.23l0-.1c0-.07.05-.14.07-.21a2.2,2.2,0,0,1,.09-.21c.06-.14.14-.28.21-.41a.86.86,0,0,0,.07-.1l.12-.17.11-.13a3.11,3.11,0,0,1,.31-.32l0,0,.23-.18.07-.05.07-.05a3.42,3.42,0,0,1,1.89-.57Z" transform="translate(-7.17 -11.71)"/><path class="cls-22" d="M458.59,418.32v.1H426l.06,0h0l.07-.05Z" transform="translate(-7.17 -11.71)"/><path class="cls-22" d="M458.59,419.25v.1H425.08a.36.36,0,0,0,.07-.1Z" transform="translate(-7.17 -11.71)"/><path class="cls-22" d="M458.59,420.18v.1H424.68l0-.1Z" transform="translate(-7.17 -11.71)"/><rect class="cls-22" x="417.4" y="409.41" width="34.02" height="0.1"/><rect class="cls-22" x="417.4" y="410.34" width="34.02" height="0.1"/><rect class="cls-22" x="417.4" y="411.27" width="34.02" height="0.1"/><rect class="cls-22" x="417.4" y="412.2" width="34.02" height="0.1"/><rect class="cls-22" x="417.4" y="413.13" width="34.02" height="0.1"/><path class="cls-22" d="M458.59,425.77v.1H425l-.06-.1Z" transform="translate(-7.17 -11.71)"/><path class="cls-22" d="M458.59,426.7v.1H425.7l-.12-.1Z" transform="translate(-7.17 -11.71)"/><path class="cls-23" d="M426.55,423v.1a7.52,7.52,0,0,1-.09.83.31.31,0,0,1,0,.1,6.72,6.72,0,0,1-.2.83l0,.1a3.7,3.7,0,0,1-.38.83l-.06.1a3,3,0,0,1-.45.55,2.48,2.48,0,0,1-.19-.26,2.75,2.75,0,0,1-.17-.29l-.06-.1v0a1,1,0,0,1-.07-.15,2.09,2.09,0,0,1-.11-.3,2.37,2.37,0,0,1-.09-.36.36.36,0,0,1,0-.1,2.69,2.69,0,0,1-.05-.57v-3.15a3.19,3.19,0,0,1,0-.45l0-.16c0-.07,0-.15.05-.23l0-.1c0-.07.05-.14.07-.21a2.2,2.2,0,0,1,.09-.21c.06-.14.14-.28.21-.41a.86.86,0,0,0,.07-.1l.12-.17.11-.13a3.11,3.11,0,0,1,.31-.32l0,0,.23-.18.07-.05v.05c0,.12.1.41.19.83a.44.44,0,0,1,0,.1c.05.25.1.53.15.83,0,0,0,.07,0,.1,0,.27.08.55.1.84a.28.28,0,0,1,0,.09c0,.28,0,.55.05.84a.17.17,0,0,1,0,.1A7.69,7.69,0,0,1,426.55,423Z" transform="translate(-7.17 -11.71)"/><polygon class="cls-26" points="424.72 409.51 429.34 409.51 429.34 414.4 427.03 413.53 424.72 414.17 424.72 409.51"/><path class="cls-26" d="M452.1,416.51a.25.25,0,0,1-.25.25H416.79a3.58,3.58,0,0,1-1.91-.55,2.83,2.83,0,0,1-.45-.32h0a3.84,3.84,0,0,1-1.35-2.95v-2.81a3.79,3.79,0,0,1,2.36-3.56,3.68,3.68,0,0,1,1.37-.27h35a.34.34,0,0,1,.34.34.35.35,0,0,1-.34.35h-3.92a.34.34,0,0,0-.33.34v8.6a.34.34,0,0,0,.33.34h4A.25.25,0,0,1,452.1,416.51Z" transform="translate(-7.17 -11.71)"/><path class="cls-4" d="M451.61,407v9.28H423.8a3.06,3.06,0,0,1-2.41-1.18,3.24,3.24,0,0,1-.69-2v-2.91a3.25,3.25,0,0,1,1-2.36l0,0a2.43,2.43,0,0,1,.25-.2h0a3,3,0,0,1,1.79-.58Z" transform="translate(-7.17 -11.71)"/><path class="cls-5" d="M452.09,416.51a.25.25,0,0,1-.24.25H422c-1.37-.25-2.6-1.11-2.6-5.65s3.1-4.82,3.1-4.82h29.31a.34.34,0,0,1,.33.34.34.34,0,0,1-.33.35h-3.92a.34.34,0,0,0-.34.34v8.6a.34.34,0,0,0,.34.34h4A.25.25,0,0,1,452.09,416.51Z" transform="translate(-7.17 -11.71)"/><path class="cls-5" d="M452.09,416.51a.25.25,0,0,1-.24.25h-.69a.25.25,0,0,1-.24-.25.25.25,0,0,1,.24-.25h.69A.25.25,0,0,1,452.09,416.51Z" transform="translate(-7.17 -11.71)"/><path class="cls-4" d="M451.61,407v9.28H423.8a3,3,0,0,1-2.08-.82.94.94,0,0,1-.1-.1,1.94,1.94,0,0,1-.23-.26l-.18-.25-.15-.26a.31.31,0,0,1-.05-.1h0l-.06-.14c0-.09-.07-.19-.1-.28s-.06-.23-.08-.34a.3.3,0,0,1,0-.1,3.08,3.08,0,0,1,0-.53v-2.95a2.73,2.73,0,0,1,0-.41s0-.1,0-.15a1.6,1.6,0,0,1,.05-.21.36.36,0,0,0,0-.1,1.59,1.59,0,0,0,.07-.2,1.67,1.67,0,0,1,.08-.2c.06-.13.12-.25.19-.37l.06-.1.12-.15.09-.13a2.68,2.68,0,0,1,.28-.3l0,0,.2-.16.06-.05.07-.05a3,3,0,0,1,1.72-.53Z" transform="translate(-7.17 -11.71)"/><path class="cls-22" d="M451.61,407.51v.1H422l.05,0h0l.07-.05Z" transform="translate(-7.17 -11.71)"/><path class="cls-22" d="M451.61,408.38v.1H421.16a.33.33,0,0,0,.06-.1Z" transform="translate(-7.17 -11.71)"/><path class="cls-22" d="M451.61,409.25v.1H420.8a.36.36,0,0,0,0-.1Z" transform="translate(-7.17 -11.71)"/><rect class="cls-22" x="413.52" y="398.42" width="30.91" height="0.09"/><rect class="cls-22" x="413.52" y="399.29" width="30.91" height="0.09"/><rect class="cls-22" x="413.52" y="400.16" width="30.91" height="0.09"/><rect class="cls-22" x="413.52" y="401.03" width="30.91" height="0.09"/><rect class="cls-22" x="413.52" y="401.9" width="30.91" height="0.1"/><path class="cls-22" d="M451.61,414.47v.1H421.06a.31.31,0,0,1-.05-.1Z" transform="translate(-7.17 -11.71)"/><path class="cls-22" d="M451.61,415.34v.1H421.72a.94.94,0,0,1-.1-.1Z" transform="translate(-7.17 -11.71)"/><path class="cls-23" d="M422.5,411.87V412c0,.26,0,.52-.08.78,0,0,0,.06,0,.09a4.56,4.56,0,0,1-.18.77l0,.1a3.83,3.83,0,0,1-.34.77l-.06.1a2.5,2.5,0,0,1-.4.51l-.18-.25-.15-.26a.31.31,0,0,1-.05-.1h0l-.06-.14c0-.09-.07-.19-.1-.28s-.06-.23-.08-.34a.3.3,0,0,1,0-.1,3.08,3.08,0,0,1,0-.53v-2.95a2.73,2.73,0,0,1,0-.41s0-.1,0-.15a1.6,1.6,0,0,1,.05-.21.36.36,0,0,0,0-.1,1.59,1.59,0,0,0,.07-.2,1.67,1.67,0,0,1,.08-.2c.06-.13.12-.25.19-.37l.06-.1.12-.15.09-.13a2.68,2.68,0,0,1,.28-.3l0,0,.2-.16.06-.05v.05c0,.1.1.38.18.77,0,0,0,.07,0,.1.05.23.1.49.14.77,0,0,0,.06,0,.1,0,.24.07.5.09.77a.38.38,0,0,1,0,.1c0,.25,0,.51.05.78v.09C422.51,411.34,422.51,411.6,422.5,411.87Z" transform="translate(-7.17 -11.71)"/><polygon class="cls-16" points="421.62 398.3 426.24 398.3 426.24 403.19 423.93 402.32 421.62 402.96 421.62 398.3"/><path class="cls-16" d="M418.45,411.86c.16,3.37,1,4.54,1.41,4.9h-.36c-.46-.55-1.16-1.87-1.3-4.89-.15-3.18,1-4.85,1.68-5.58h.36C419.61,406.87,418.29,408.51,418.45,411.86Z" transform="translate(-7.17 -11.71)"/><path class="cls-16" d="M413.9,411.86a9.43,9.43,0,0,0,1,4.35,2.83,2.83,0,0,1-.45-.32h0a11.37,11.37,0,0,1-.77-4,7.75,7.75,0,0,1,1.21-5,3.81,3.81,0,0,1,.57-.29A7.08,7.08,0,0,0,413.9,411.86Z" transform="translate(-7.17 -11.71)"/><line class="cls-27" x1="420.5" y1="308.05" x2="427.31" y2="334.9"/><path class="cls-16" d="M430.94,317.77a4,4,0,1,1-4.29-3.61A4,4,0,0,1,430.94,317.77Z" transform="translate(-7.17 -11.71)"/><line class="cls-27" x1="431.29" y1="303.9" x2="429.57" y2="331.55"/><path class="cls-16" d="M442.18,314.71a4,4,0,1,1-3-4.75A4,4,0,0,1,442.18,314.71Z" transform="translate(-7.17 -11.71)"/><line class="cls-27" x1="440.46" y1="309.04" x2="431.93" y2="335.39"/><path class="cls-16" d="M451.46,320.8a4,4,0,1,1-1.71-5.34A4,4,0,0,1,451.46,320.8Z" transform="translate(-7.17 -11.71)"/><path class="cls-5" d="M449.1,365.63c0,.24-.07.47-.11.71h0a11.38,11.38,0,0,1-11.16,9.21H436.7a11.26,11.26,0,0,1-5-1.13h0c-.25-.13-.48-.25-.72-.4h0a11.39,11.39,0,0,1-4.65-5.13h0c-.09-.2-.18-.4-.25-.6a11.25,11.25,0,0,1-.7-5.41l0-.28.06-.55.85-7.41.07-.54,1-9,.07-.61.59-5.12h19.24l.15,2,0,.58.46,6.14,0,.54.73,9.67,0,.53.34,4.53A12.43,12.43,0,0,1,449.1,365.63Z" transform="translate(-7.17 -11.71)"/><path class="cls-22" d="M439.93,339.4c-1.93.87-3.84,1.77-5.74,2.67l-4,1.88c-.88.4-1.79.81-2.72,1.18l.07-.61c.81-.33,1.62-.69,2.43-1.07,1.33-.6,2.66-1.24,4-1.87q2.3-1.09,4.67-2.18Z" transform="translate(-7.17 -11.71)"/><path class="cls-22" d="M447.55,341.93a32.25,32.25,0,0,0-3.18,1.91c-1.63,1.12-3.18,2.39-4.69,3.62S436.6,350,435,351.11a19.21,19.21,0,0,1-8.61,3.53l.07-.54a18.84,18.84,0,0,0,8.23-3.43c1.63-1.1,3.19-2.38,4.69-3.61s3.08-2.54,4.74-3.66a31.38,31.38,0,0,1,3.43-2Z" transform="translate(-7.17 -11.71)"/><path class="cls-22" d="M448.05,348.61a12.78,12.78,0,0,0-6.93,3.64A31.09,31.09,0,0,0,438,356c-.48.66-1,1.33-1.49,2-2,2.47-3.84,3.92-5.89,4.56a8,8,0,0,1-2.5.38,11,11,0,0,1-2.72-.36l.06-.55a8.8,8.8,0,0,0,5,0c1.94-.59,3.72-2,5.62-4.38.5-.64,1-1.31,1.47-2a30.8,30.8,0,0,1,3.14-3.84,13.36,13.36,0,0,1,7.27-3.81Z" transform="translate(-7.17 -11.71)"/><path class="cls-22" d="M448.82,358.81a12.75,12.75,0,0,0-2.32.21c-3.59.67-6.53,3.26-8.43,5.13-.2.2-.41.42-.62.62a20.89,20.89,0,0,1-3.07,2.71,10.29,10.29,0,0,1-5.7,1.67,10.73,10.73,0,0,1-2.33-.25h0c-.09-.2-.18-.4-.25-.6a10,10,0,0,0,8-1.26,20.19,20.19,0,0,0,3-2.63c.2-.22.41-.42.62-.63,1.95-1.93,5-4.58,8.7-5.27a13.6,13.6,0,0,1,2.38-.22Z" transform="translate(-7.17 -11.71)"/><path class="cls-22" d="M449.1,365.63c0,.24-.07.47-.11.71h0a66.57,66.57,0,0,1-13.71,7,24.21,24.21,0,0,1-3.54,1.09h0c-.25-.13-.48-.25-.72-.4l.28,0a22.94,22.94,0,0,0,3.8-1.14A65.61,65.61,0,0,0,449.1,365.63Z" transform="translate(-7.17 -11.71)"/><path class="cls-26" d="M469.33,380.34H400.39a2.72,2.72,0,0,1-2.71-2.71h0a2.72,2.72,0,0,1,2.71-2.7h68.94a2.71,2.71,0,0,1,2.7,2.7h0A2.71,2.71,0,0,1,469.33,380.34Z" transform="translate(-7.17 -11.71)"/><line class="cls-28" x1="401.06" y1="368.63" x2="390.51" y2="430.27"/><line class="cls-28" x1="453.74" y1="368.63" x2="464.29" y2="430.27"/><line class="cls-29" x1="398.54" y1="387.59" x2="456.34" y2="387.59"/><line class="cls-29" x1="398.54" y1="383.85" x2="456.34" y2="383.85"/><line class="cls-29" x1="398.54" y1="380.02" x2="456.34" y2="380.02"/><path class="cls-16" d="M91.51,331.49H135a9.79,9.79,0,0,1,9.79,9.79v2.48a0,0,0,0,1,0,0H81.72a0,0,0,0,1,0,0v-2.48A9.79,9.79,0,0,1,91.51,331.49Z"/><path class="cls-16" d="M92.72,446.73h-.09a.92.92,0,0,1-.83-1l8.79-90.33a.93.93,0,0,1,1.85.18l-8.8,90.33A.92.92,0,0,1,92.72,446.73Z" transform="translate(-7.17 -11.71)"/><path class="cls-16" d="M149.53,446.73a.92.92,0,0,1-.92-.84l-8.8-90.33a.93.93,0,0,1,1.85-.18l8.8,90.33a.94.94,0,0,1-.84,1Z" transform="translate(-7.17 -11.71)"/><path class="cls-16" d="M146.32,412.48H96.06a.93.93,0,1,1,0-1.85h50.26a.93.93,0,1,1,0,1.85Z" transform="translate(-7.17 -11.71)"/><path class="cls-30" d="M118.8,175.56c3.27-1.9,9.7-2.44,13.16-1.63a12.55,12.55,0,0,1,8.28,6.13c1,1.84,1.41,4,2.76,5.54s3.18,2.26,4.58,3.62c3.1,3,2.92,8.1,1.51,12.19-.61,1.77-1.41,3.62-1,5.43,1,3.9,6.69,4.63,8.4,8.26s-1.21,8,.66,11.36c1.39,2.51,4.74,3.18,6.65,5.32,2.11,2.36,2,5.92,1.76,9.08H123.2c-.86-2.44-1.48-1.79-2-4.32-.8-4.15-.56-8.41-.86-12.63-.43-6.07-2-12-2.3-18.1-.3-5.2.28-10.43-.21-15.61C117.36,184.85,112.83,179,118.8,175.56Z" transform="translate(-7.17 -11.71)"/><path class="cls-30" d="M124.38,218.44c0,.91,0,1.81-.08,2.71-.06,1.36-.16,2.71-.31,4.07-.11,1-.25,2-.43,3,0,.29-.09.57-.14.86h0a51.68,51.68,0,0,1-2.08,7.93,15.05,15.05,0,0,1-.51,1.42c-.08.26-.17.51-.27.77-8.11,1.49-16.4,1.37-24.64,1.23l-2,0-9-.14h-.08c-.26-1.33-.8-2.6-1.17-3.9a15.94,15.94,0,0,1-.46-6.48,16.51,16.51,0,0,0-1.83,10.3h0c-2,0-3.93-.12-5.89-.29a1.89,1.89,0,0,1-2.3-2.06,46.55,46.55,0,0,1,.35-11.38,15.85,15.85,0,0,1,5.52-9.7c3.16-2.38,7.35-3.07,10.46-5.5a2.59,2.59,0,0,0,.82-.92,3.54,3.54,0,0,0-.25-2.52A11.51,11.51,0,0,1,94.7,195c2.29-1.46,5.16-2.11,7-4.13,2-2.17,2.31-5.39,3.8-7.95A13.24,13.24,0,0,1,117,177.06a4,4,0,0,1,1.61.55,1,1,0,0,1,.2.13,3.37,3.37,0,0,1,.6.54,4.51,4.51,0,0,1,.76,1.15c.17.38.35.76.5,1.14s.41,1,.59,1.43a38.67,38.67,0,0,1,2.38,9.54c.13,1.07.23,2.15.3,3.23,0,.68.09,1.38.11,2.07.08,1.87.11,3.75.13,5.63,0,1.19,0,2.36,0,3.55,0,2.61.15,5.23.19,7.86C124.39,215.4,124.41,216.92,124.38,218.44Z" transform="translate(-7.17 -11.71)"/><path class="cls-9" d="M161.13,271.36a256.72,256.72,0,0,0-13.3-34.17c-1.1-2.32-4.18-6-6.7-6.55l-9.52-2-15.08-.76s-20.42,9-23,13c0,0,5.37,40.46,4,46s-7.9,15.32-9.32,24.49c0,0,49.77,3,62.25-1.27,0,0-2.15-9.09-3.66-16.39C149.79,293.3,167,290.44,161.13,271.36Z" transform="translate(-7.17 -11.71)"/><path class="cls-5" d="M116.89,285s9,0,13.55,1.27,9,8.06,8.66,9.25-23.27.71-23.27.71Z" transform="translate(-7.17 -11.71)"/><path class="cls-5" d="M142.76,197.54a45.26,45.26,0,0,1-.2,5.83.31.31,0,0,1,0,.1,50.72,50.72,0,0,1-1.18,7.06c-.06.25-.13.5-.19.75-.92,3.72-2.48,8.12-6.44,9.38a13.51,13.51,0,0,1-3.6.21s0,0,0,0a.27.27,0,0,0-.05.13.25.25,0,0,0,0,.09c0,.08,0,.18,0,.29,0,.36,0,.87,0,1.46v.35c0,.11,0,.22,0,.33s0,.21,0,.32,0,.2,0,.31,0,.37,0,.55l0,.49c0,.06,0,.13,0,.19.09,1.85.23,3.58.23,3.58a13.35,13.35,0,0,1-2.36,0c-4.46.05-15.17.13-10.7.13h-1.74c-.06,0,0-5.76,0-6.11.22-5.41-2-10.05-4-14.81a34.53,34.53,0,0,1-2.87-9.74c0-.34-.06-.69-.08-1,0-.12,0-.23,0-.35a28.78,28.78,0,0,1,.49-6.87c.49-2.53,1.24-5.47,2.79-7.54a16.13,16.13,0,0,1,9.61-6.27c.26-.06.52-.11.79-.15l.41-.06.78-.09a15.8,15.8,0,0,1,3.57.14,16.79,16.79,0,0,1,10.84,6.9,21.07,21.07,0,0,1,3.27,8.34h0c.05.25.09.48.14.73s.07.43.08.65c.07.42.13.86.17,1.29a2.83,2.83,0,0,1,0,.41c.08.77.14,1.54.17,2.3Z" transform="translate(-7.17 -11.71)"/><path class="cls-26" d="M131.11,225.41c-5.72-.77-10.33-9.07-10.33-9.07,2.3,2.2,10.36,4.53,10.36,4.53C130.93,220.88,131,223.22,131.11,225.41Z" transform="translate(-7.17 -11.71)"/><path class="cls-30" d="M139.78,200a1,1,0,1,1-1.93.05,1,1,0,1,1,1.93-.05Z" transform="translate(-7.17 -11.71)"/><path class="cls-30" d="M127.93,199.41a1.16,1.16,0,0,1-.87,1.36,1.15,1.15,0,0,1-.45-2.25A1.12,1.12,0,0,1,127.93,199.41Z" transform="translate(-7.17 -11.71)"/><path class="cls-31" d="M136.83,197.22a13,13,0,0,0-.94,5.45,3,3,0,0,0,.82,2.22c.2.18.46.32.53.57a.91.91,0,0,1,0,.54,4,4,0,0,1-1.64,2.11" transform="translate(-7.17 -11.71)"/><path class="cls-30" d="M124.84,194.43a3.18,3.18,0,0,0-2,1.21.9.9,0,0,0,0,1.07,1,1,0,0,0,.86.17c.78-.08,1.54-.33,2.3-.48a10.33,10.33,0,0,1,2.41-.2c1.51.06,1.48-1.71.23-2.14A7.9,7.9,0,0,0,124.84,194.43Z" transform="translate(-7.17 -11.71)"/><path class="cls-30" d="M142.73,196.91a5.69,5.69,0,0,0-.81-.13c-.78-.09-1.57-.08-2.34-.23a1.07,1.07,0,0,1-.77-.43.87.87,0,0,1,.28-1,3.11,3.11,0,0,1,2.27-.56c.34,0,.76,0,1.2.08C142.64,195.38,142.7,196.15,142.73,196.91Z" transform="translate(-7.17 -11.71)"/><path class="cls-32" d="M127.83,208.07a6.07,6.07,0,1,1-6.24-6.09A6.17,6.17,0,0,1,127.83,208.07Z" transform="translate(-7.17 -11.71)"/><path class="cls-33" d="M142.65,201.19a45.8,45.8,0,0,1-.56,5.84c-.19,1.29-.54,2.81-.93,4.34a5.27,5.27,0,0,1-2.85-4.74A5.35,5.35,0,0,1,142.65,201.19Z" transform="translate(-7.17 -11.71)"/><path class="cls-34" d="M136.9,211.06s-4.87,2-8.27-1.91" transform="translate(-7.17 -11.71)"/><path class="cls-35" d="M134.85,213.34a3.45,3.45,0,0,1-3.12-.26" transform="translate(-7.17 -11.71)"/><path class="cls-5" d="M111.87,200.75c-.53-.63-2.47-5.48-6.05-4.61s-3.75,9.64.75,11.78,6.45,0,6.45,0Z" transform="translate(-7.17 -11.71)"/><path class="cls-36" d="M106.36,198.23A1.82,1.82,0,0,0,105,199.3a4.11,4.11,0,0,0-.32,1.74,7.59,7.59,0,0,0,.86,3.87,4.34,4.34,0,0,0,3.17,2.22c.67.07,1.47-.17,1.65-.81s-.3-1.14-.62-1.66c-.82-1.29-.48-2.5-.73-3.89C108.83,199.65,107.63,198.09,106.36,198.23Z" transform="translate(-7.17 -11.71)"/><path class="cls-30" d="M113,201.21s9.61-7,8.74-14.86-1.69-9.21-1.69-9.21-6.18,1.34-8.8,6.59-1.74,13.68-1.74,13.68Z" transform="translate(-7.17 -11.71)"/><path class="cls-30" d="M124.54,181.52a7.47,7.47,0,0,1,4.67,1.93,31.67,31.67,0,0,1,1.95,2.75,7.16,7.16,0,0,0,4.78,2.7c1.61.19,3.45-.11,4.67,1,.77.67,1.09,1.76,1.84,2.45a2.78,2.78,0,0,0,3.7,0,.53.53,0,0,0,.2-.37.55.55,0,0,0-.16-.31c-.94-1.17-2.17-2.07-3.14-3.22-1.63-1.91-2.44-4.38-3.89-6.43-2.87-4.06-8-6-13-6.31-1.89-.12-6.29-.09-6.81,2.41C118.79,180.89,122.71,181.34,124.54,181.52Z" transform="translate(-7.17 -11.71)"/><path class="cls-30" d="M113.05,204.12a.86.86,0,0,0,.23.53c.35.3.85-.13,1.1-.51a37.44,37.44,0,0,0,4.64-9.92,2.81,2.81,0,0,0,0-2.13,1.85,1.85,0,0,0-1.74-.87,3.76,3.76,0,0,0-1.88.75,7.89,7.89,0,0,0-3.26,5.35C111.86,199.5,112.71,202,113.05,204.12Z" transform="translate(-7.17 -11.71)"/><path class="cls-5" d="M116.54,229.17s3.94,14.59,11.29,12.81,3.51-13,3.51-13Z" transform="translate(-7.17 -11.71)"/><polygon class="cls-5" points="119.25 399.85 113.26 405.53 119.48 411.7 125.5 406.44 119.25 399.85"/><path class="cls-5" d="M129.78,448.68c-2.85.44-16-25-14.92-27.37a3.72,3.72,0,0,1,.21-.39c1-1.51,3.37-2.78,4.7-3.39a1.38,1.38,0,0,1,.28-.13l.64-.27,6,6.28a117.18,117.18,0,0,1,3.35,14.7C130.74,443.51,131.06,448.48,129.78,448.68Z" transform="translate(-7.17 -11.71)"/><path class="cls-21" d="M129.78,448.68c-2.85.44-16-25-14.92-27.37a3.72,3.72,0,0,1,.21-.39c1-1.51,3.37-2.78,4.7-3.39a1.38,1.38,0,0,1,.28-.13c.6,2,.34,5.16.59,6.86a36.43,36.43,0,0,0,6.06,15.3c.38.54.88,1.15,1.56,1.18.83,0,1.44-.8,1.61-1.61a5.93,5.93,0,0,0,.13-1C130.74,443.51,131.06,448.48,129.78,448.68Z" transform="translate(-7.17 -11.71)"/><polygon class="cls-5" points="128.7 422.48 128.7 431.54 138.31 431.25 138.68 422.48 128.7 422.48"/><path class="cls-5" d="M168,459.55c-1.81,2.59-32-6.2-33.05-8.8a4.72,4.72,0,0,1-.16-.45c-.48-1.91.33-4.78.85-6.31a1.52,1.52,0,0,1,.12-.32c.15-.44.25-.71.25-.71h9.5a127.88,127.88,0,0,1,14.23,8.43C164.57,454.87,168.78,458.37,168,459.55Z" transform="translate(-7.17 -11.71)"/><path class="cls-21" d="M168,459.55c-1.81,2.59-32-6.2-33.05-8.8a4.72,4.72,0,0,1-.16-.45c-.48-1.91.33-4.78.85-6.31a1.52,1.52,0,0,1,.12-.32c2.05,1.05,4.35,3.63,5.89,4.71a40,40,0,0,0,16.75,6.73,2.54,2.54,0,0,0,2.13-.35,2,2,0,0,0-.07-2.5,6.05,6.05,0,0,0-.72-.87C164.57,454.87,168.78,458.37,168,459.55Z" transform="translate(-7.17 -11.71)"/><path class="cls-37" d="M90.12,311.41S84.63,328,87.35,338.68c3.83,15.08,28.33,19.59,28.33,19.59l29.42-3.79s.74-11-4.37-20.33S126,312.33,126,312.33Z" transform="translate(-7.17 -11.71)"/><path class="cls-37" d="M115.68,358.27s-3.78,19.27,3.65,37.76,16.27,38.16,16.27,38.16h10.6l-1.57-80.75Z" transform="translate(-7.17 -11.71)"/><path class="cls-37" d="M169.3,353.91a20.86,20.86,0,0,0,1.37-7.06,35.46,35.46,0,0,0-4.35-16.39A68.12,68.12,0,0,0,157.69,318c-1.44-1.7-2.95-3.33-4.38-5-.48-.57-2-3-2.85-2.92L126,312.33l18.2,40.07-21,60.06,9.21,10c6-10.78,12.41-21.44,17.85-32.46,4.73-9.56,11-18.56,15.59-28.27A79,79,0,0,0,169.3,353.91Z" transform="translate(-7.17 -11.71)"/><path class="cls-38" d="M141,327.93c2.56,2.81,5.17,5.7,6.67,9.21a25,25,0,0,1,1.61,6.09,97.23,97.23,0,0,1,.64,16.81,222.82,222.82,0,0,1-1.45,25.32c-.31,2.31-.77,4.77-2.41,6.42a230.38,230.38,0,0,0,1.39-34.64c-.24-6.87-.84-13.92-3.84-20.1a55.27,55.27,0,0,0-3.49-5.89c-.53-.81-4.59-5.92-4.22-6.63C136.54,323.22,140.46,327.37,141,327.93Z" transform="translate(-7.17 -11.71)"/><path class="cls-39" d="M130.42,318.32s15.13,17.08,16.52,28.43-1.36,55.56-1.36,55.56l.62,31.88" transform="translate(-7.17 -11.71)"/><line class="cls-39" x1="128.31" y1="312.89" x2="134.76" y2="305.64"/><path class="cls-39" d="M117.64,349.34s-1.9,8.57-2.71,15.21c-.88,7.31-.13,21.53,5.5,34.19,5.73,12.91,15.17,35.45,15.17,35.45" transform="translate(-7.17 -11.71)"/><path class="cls-40" d="M94.78,311.53a65,65,0,0,0-1.89,23.57,20.56,20.56,0,0,0,2.1,8c2.33,4.22,6.86,6.69,11.26,8.65,2.72,1.21,5.49,2.31,8.29,3.3a4.2,4.2,0,0,1,1.71.93,3.84,3.84,0,0,1,.8,1.92c1.52,7.74-.72,15.79.49,23.58a50.73,50.73,0,0,0,2.84,9.69,414.87,414.87,0,0,0,18.72,42.87" transform="translate(-7.17 -11.71)"/><path class="cls-40" d="M92.59,324.83c2.44.46,5.93-2.81,7.52-4.38a21.87,21.87,0,0,0,5.26-8.68" transform="translate(-7.17 -11.71)"/><polygon class="cls-37" points="196.86 285.7 117.32 285.7 123.25 231.77 203.46 231.77 196.86 285.7"/><polygon class="cls-30" points="92.19 281.62 117.32 285.7 117.72 281.14 92.19 281.62"/><rect class="cls-30" x="117.32" y="285.7" width="79.54" height="3.27"/><polygon class="cls-30" points="92.19 281.62 92.19 283.99 117.32 288.97 117.32 285.7 92.19 281.62"/><polygon class="cls-4" points="179.84 264.49 144.7 264.49 146.56 252.31 181.7 252.31 179.84 264.49"/><rect class="cls-16" x="18.68" y="282.66" width="246.48" height="17.39"/><polyline class="cls-41" points="9.5 434.09 39.56 294.17 69.03 431.72"/><line class="cls-41" x1="18.68" y1="391.39" x2="60.24" y2="391.39"/><polyline class="cls-41" points="185.71 434.09 215.77 294.17 245.24 431.72"/><line class="cls-41" x1="195.09" y1="391.39" x2="236.65" y2="391.39"/><line class="cls-42" x1="18.68" y1="289.38" x2="265.16" y2="289.38"/><path class="cls-9" d="M93.62,240.39s-20.78,38.8-21,48.77,26.4,7.78,26.4,7.78l2.37-22.74Z" transform="translate(-7.17 -11.71)"/><path class="cls-9" d="M87.06,274.36c.41-.16,29.83,8.48,29.83,8.48l-1,14.16-26.1.08Z" transform="translate(-7.17 -11.71)"/><path class="cls-34" d="M106.23,251.62s-5,17.46-6.87,26.53" transform="translate(-7.17 -11.71)"/><line class="cls-34" x1="94.8" y1="255.55" x2="99.58" y2="246.55"/><polyline class="cls-34" points="81.04 263.46 109.72 271.14 108.67 285.3"/><path class="cls-34" d="M97.63,237.62s6.65,3.89,9.13,9.57" transform="translate(-7.17 -11.71)"/><path class="cls-34" d="M75.16,279.6s7.28,5.24,5.39,16.31" transform="translate(-7.17 -11.71)"/><path class="cls-43" d="M106.28,257.52c0-.56-.11-1.29-.67-1.4s-1,.63-1.13,1.22q-1.59,6-3.17,12.06c-.3,1.12-3.37,9.07-.51,9,1.71,0,3.6-8.25,4-9.65A49.46,49.46,0,0,0,106.28,257.52Z" transform="translate(-7.17 -11.71)"/><path class="cls-26" d="M259.56,293.87a.29.29,0,0,1-.28.28H219.84a4.18,4.18,0,0,1-4.18-4.19v-3.07a4.19,4.19,0,0,1,4.19-4.19h39.33a.37.37,0,0,1,.38.37.38.38,0,0,1-.38.38h-4.41a.38.38,0,0,0-.38.37v9.4a.38.38,0,0,0,.38.38h4.51A.28.28,0,0,1,259.56,293.87Z" transform="translate(-7.17 -11.71)"/><path class="cls-4" d="M259,283.45V293.6H227.73a3.49,3.49,0,0,1-3.49-3.49v-3.18a3.49,3.49,0,0,1,1.14-2.58l0,0,.29-.23h0a3.41,3.41,0,0,1,2-.64Z" transform="translate(-7.17 -11.71)"/><path class="cls-5" d="M259.56,293.87a.29.29,0,0,1-.28.28H225.65c-1.54-.28-2.92-1.22-2.92-6.19s3.48-5.26,3.48-5.26h33a.37.37,0,0,1,.38.37.38.38,0,0,1-.38.38h-4.41a.38.38,0,0,0-.38.37v9.4a.38.38,0,0,0,.38.38h4.51A.28.28,0,0,1,259.56,293.87Z" transform="translate(-7.17 -11.71)"/><path class="cls-5" d="M259.56,293.87a.29.29,0,0,1-.28.28h-.77a.28.28,0,1,1,0-.55h.77A.28.28,0,0,1,259.56,293.87Z" transform="translate(-7.17 -11.71)"/><path class="cls-4" d="M259,283.45V293.6H227.73a3.48,3.48,0,0,1-2.34-.9l-.11-.1a3.58,3.58,0,0,1-.26-.29l-.2-.27a2.75,2.75,0,0,1-.17-.29l-.05-.1v0l-.07-.16a2.65,2.65,0,0,1-.11-.3,2.54,2.54,0,0,1-.1-.37.36.36,0,0,1,0-.11,3.68,3.68,0,0,1,0-.58v-3.22c0-.16,0-.31,0-.46a1.1,1.1,0,0,1,0-.16,1.55,1.55,0,0,1,.05-.23l0-.1a1.42,1.42,0,0,1,.07-.22l.09-.22c.07-.14.14-.28.22-.41a.36.36,0,0,1,.07-.1l.12-.18.11-.13a3.26,3.26,0,0,1,.31-.33l0,0,.23-.18.07-.05.08-.06a3.46,3.46,0,0,1,1.93-.58Z" transform="translate(-7.17 -11.71)"/><path class="cls-22" d="M259,284v.11H225.65l.06-.05h0l.08-.06Z" transform="translate(-7.17 -11.71)"/><path class="cls-22" d="M259,285v.1H224.77a.36.36,0,0,1,.07-.1Z" transform="translate(-7.17 -11.71)"/><path class="cls-22" d="M259,285.94v.1H224.36l0-.1Z" transform="translate(-7.17 -11.71)"/><rect class="cls-22" x="217.07" y="275.18" width="34.77" height="0.1"/><rect class="cls-22" x="217.07" y="276.13" width="34.77" height="0.1"/><rect class="cls-22" x="217.07" y="277.09" width="34.77" height="0.1"/><rect class="cls-22" x="217.07" y="278.04" width="34.77" height="0.1"/><rect class="cls-22" x="217.07" y="278.99" width="34.77" height="0.1"/><path class="cls-22" d="M259,291.65v.1H224.65l-.05-.1Z" transform="translate(-7.17 -11.71)"/><path class="cls-22" d="M259,292.6v.1H225.39l-.11-.1Z" transform="translate(-7.17 -11.71)"/><path class="cls-23" d="M226.27,288.79v.1c0,.29-.05.58-.09.86,0,0,0,.06,0,.1a5.72,5.72,0,0,1-.2.84l0,.11a5,5,0,0,1-.39.85l-.06.1a3.51,3.51,0,0,1-.46.56l-.2-.27a2.75,2.75,0,0,1-.17-.29l-.05-.1v0l-.07-.16a2.65,2.65,0,0,1-.11-.3,2.54,2.54,0,0,1-.1-.37.36.36,0,0,1,0-.11,3.68,3.68,0,0,1,0-.58v-3.22c0-.16,0-.31,0-.46a1.1,1.1,0,0,1,0-.16,1.55,1.55,0,0,1,.05-.23l0-.1a1.42,1.42,0,0,1,.07-.22l.09-.22c.07-.14.14-.28.22-.41a.36.36,0,0,1,.07-.1l.12-.18.11-.13a3.26,3.26,0,0,1,.31-.33l0,0,.23-.18.07-.05v.05c0,.11.11.42.2.85a.3.3,0,0,1,0,.1c.05.25.1.53.15.85a.31.31,0,0,1,0,.1c0,.27.08.55.11.85,0,0,0,.07,0,.1,0,.28,0,.56.05.85v.1A8,8,0,0,1,226.27,288.79Z" transform="translate(-7.17 -11.71)"/><polygon class="cls-21" points="224.56 275.54 229.27 275.54 229.27 280.54 226.91 279.65 224.56 280.3 224.56 275.54"/><path class="cls-24" d="M263.57,282.17a.27.27,0,0,1-.27.27H223.86a4.18,4.18,0,0,1-4.18-4.18v-3.08a4.18,4.18,0,0,1,4.19-4.19h39.32a.38.38,0,1,1,0,.75h-4.41a.38.38,0,0,0-.37.37v9.41a.37.37,0,0,0,.37.37h4.52A.28.28,0,0,1,263.57,282.17Z" transform="translate(-7.17 -11.71)"/><path class="cls-4" d="M263,271.74v10.15H231.75a3.47,3.47,0,0,1-3.49-3.48v-3.18a3.51,3.51,0,0,1,1.14-2.59l0,0a3.15,3.15,0,0,1,.29-.22h0a3.48,3.48,0,0,1,2-.64Z" transform="translate(-7.17 -11.71)"/><path class="cls-24" d="M263.57,282.17a.27.27,0,0,1-.27.27H229.67c-1.54-.27-2.93-1.21-2.93-6.19s3.49-5.26,3.49-5.26h33a.38.38,0,1,1,0,.75h-4.41a.38.38,0,0,0-.37.37v9.41a.37.37,0,0,0,.37.37h4.52A.28.28,0,0,1,263.57,282.17Z" transform="translate(-7.17 -11.71)"/><path class="cls-24" d="M263.57,282.17a.27.27,0,0,1-.27.27h-.78a.27.27,0,0,1-.27-.27.28.28,0,0,1,.27-.28h.78A.28.28,0,0,1,263.57,282.17Z" transform="translate(-7.17 -11.71)"/><g class="cls-25"><path class="cls-24" d="M263.57,282.17a.27.27,0,0,1-.27.27H229.67c-1.54-.27-2.93-1.21-2.93-6.19s3.49-5.26,3.49-5.26h33a.38.38,0,1,1,0,.75h-4.41a.38.38,0,0,0-.37.37v9.41a.37.37,0,0,0,.37.37h4.52A.28.28,0,0,1,263.57,282.17Z" transform="translate(-7.17 -11.71)"/><path class="cls-24" d="M263.57,282.17a.27.27,0,0,1-.27.27h-.78a.27.27,0,0,1-.27-.27.28.28,0,0,1,.27-.28h.78A.28.28,0,0,1,263.57,282.17Z" transform="translate(-7.17 -11.71)"/></g><path class="cls-4" d="M263,271.74v10.15H231.75a3.43,3.43,0,0,1-2.34-.9.52.52,0,0,1-.11-.1,2.27,2.27,0,0,1-.26-.28l-.2-.28a2.75,2.75,0,0,1-.17-.29l-.06-.1v0l-.06-.15c0-.1-.08-.21-.12-.31a2.22,2.22,0,0,1-.09-.37.36.36,0,0,1,0-.1,2.84,2.84,0,0,1-.05-.58v-3.23a2.38,2.38,0,0,1,0-.46.77.77,0,0,1,0-.15l.06-.24s0-.07,0-.1,0-.15.08-.22a1.45,1.45,0,0,1,.09-.22,2.73,2.73,0,0,1,.22-.41l.06-.1a1.09,1.09,0,0,1,.13-.17.76.76,0,0,1,.11-.14,2.42,2.42,0,0,1,.31-.33l0,0,.23-.18.07-.05.08-.05a3.44,3.44,0,0,1,1.93-.59Z" transform="translate(-7.17 -11.71)"/><path class="cls-22" d="M263,272.33v.1H229.67l.06,0h0l.08-.05Z" transform="translate(-7.17 -11.71)"/><path class="cls-22" d="M263,273.28v.1H228.79l.06-.1Z" transform="translate(-7.17 -11.71)"/><path class="cls-22" d="M263,274.23v.1H228.38s0-.07,0-.1Z" transform="translate(-7.17 -11.71)"/><rect class="cls-22" x="221.09" y="263.48" width="34.77" height="0.1"/><rect class="cls-22" x="221.09" y="264.43" width="34.77" height="0.1"/><rect class="cls-22" x="221.09" y="265.38" width="34.77" height="0.1"/><rect class="cls-22" x="221.09" y="266.33" width="34.77" height="0.1"/><rect class="cls-22" x="221.09" y="267.28" width="34.77" height="0.1"/><path class="cls-22" d="M263,279.94v.1H228.67l-.06-.1Z" transform="translate(-7.17 -11.71)"/><path class="cls-22" d="M263,280.89v.1H229.41a.52.52,0,0,1-.11-.1Z" transform="translate(-7.17 -11.71)"/><path class="cls-23" d="M230.29,277.09a.38.38,0,0,1,0,.1,7.89,7.89,0,0,1-.08.85s0,.07,0,.1a5.86,5.86,0,0,1-.21.85.38.38,0,0,1,0,.1,4.08,4.08,0,0,1-.38.85.61.61,0,0,1-.07.1,3.14,3.14,0,0,1-.45.57l-.2-.28a2.75,2.75,0,0,1-.17-.29l-.06-.1v0l-.06-.15c0-.1-.08-.21-.12-.31a2.22,2.22,0,0,1-.09-.37.36.36,0,0,1,0-.1,2.84,2.84,0,0,1-.05-.58v-3.23a2.38,2.38,0,0,1,0-.46.77.77,0,0,1,0-.15l.06-.24s0-.07,0-.1,0-.15.08-.22a1.45,1.45,0,0,1,.09-.22,2.73,2.73,0,0,1,.22-.41l.06-.1a1.09,1.09,0,0,1,.13-.17.76.76,0,0,1,.11-.14,2.42,2.42,0,0,1,.31-.33l0,0,.23-.18.07-.05v.05c0,.12.11.42.2.85a.36.36,0,0,0,0,.1c.05.25.1.54.14.85a.3.3,0,0,1,0,.1c0,.27.08.56.11.85v.1c0,.28,0,.57.06.85v.1C230.3,276.52,230.3,276.8,230.29,277.09Z" transform="translate(-7.17 -11.71)"/><polygon class="cls-16" points="228.57 263.83 233.29 263.83 233.29 268.83 230.93 267.94 228.57 268.59 228.57 263.83"/><path class="cls-44" d="M252.64,288.81a5,5,0,1,1-5-5A5,5,0,0,1,252.64,288.81Z" transform="translate(-7.17 -11.71)"/><path class="cls-44" d="M267.31,288.71a5,5,0,1,1-5-4.95A5,5,0,0,1,267.31,288.71Z" transform="translate(-7.17 -11.71)"/><path class="cls-44" d="M252.63,287.75s2.4-2.13,4.7,0" transform="translate(-7.17 -11.71)"/><rect class="cls-30" x="259.88" y="275.09" width="1.29" height="1.71" rx="0.6"/><rect class="cls-30" x="234.51" y="275.09" width="1.29" height="1.71" rx="0.6"/><path class="cls-21" d="M64.27,270.94V271l-.12,2.15,0,.55h0L64.06,275l-.56,10.82-.17,3.32a5.24,5.24,0,0,1-5.23,5H51.32a5.24,5.24,0,0,1-5.22-4.87l-1.05-15.19-.07-.78L44.83,271v-.1c.38-.27,4.59-.5,9.72-.5S63.89,270.67,64.27,270.94Z" transform="translate(-7.17 -11.71)"/><path class="cls-45" d="M61.55,278.11s2.29-4.8,5.61-3.54,2,11.63-2,11.5-4.57-2-4.57-2" transform="translate(-7.17 -11.71)"/><path class="cls-21" d="M64.3,271a.05.05,0,0,1,0,0c-.38.28-4.6.5-9.73.5s-9.27-.22-9.71-.49c0,0,0,0,0-.05a.07.07,0,0,1,0-.05c.38-.27,4.59-.5,9.72-.5s9.35.23,9.73.5A.07.07,0,0,1,64.3,271Z" transform="translate(-7.17 -11.71)"/><path class="cls-46" d="M64.3,271a.05.05,0,0,1,0,0c-.38.28-4.6.5-9.73.5s-9.27-.22-9.71-.49c0,0,0,0,0-.05a.07.07,0,0,1,0-.05c.38-.27,4.59-.5,9.72-.5s9.35.23,9.73.5A.07.07,0,0,1,64.3,271Z" transform="translate(-7.17 -11.71)"/><path class="cls-46" d="M62.45,271.3c-1.77.14-4.66.23-7.91.23-3.62,0-6.77-.12-8.45-.27.36-.22,3.88-.42,8.15-.42s7.86.2,8.18.42A.05.05,0,0,1,62.45,271.3Z" transform="translate(-7.17 -11.71)"/><path class="cls-37" d="M62.45,271.3c-1.77.14-4.66.23-7.91.23-3.62,0-6.77-.12-8.45-.27.36-.22,3.88-.42,8.15-.42s7.86.2,8.18.42A.05.05,0,0,1,62.45,271.3Z" transform="translate(-7.17 -11.71)"/><path class="cls-47" d="M64.15,273.18l0,.55h0a1.33,1.33,0,0,1-.34-.16,2.37,2.37,0,0,1-.3-.23.92.92,0,0,0-.44-.27c-.23,0-.44.17-.57.39a3.89,3.89,0,0,0-.19.41,5,5,0,0,1-.25.53,1.86,1.86,0,0,1-1.22.78,1.8,1.8,0,0,1-1.42-.28,3.67,3.67,0,0,1-.79-.88c-.3-.43-.58-.8-1-.88a1.27,1.27,0,0,0-1,.35,5.81,5.81,0,0,0-.59.62,3.27,3.27,0,0,1-.3.35,3.51,3.51,0,0,1-1.36,1,2.41,2.41,0,0,1-.78.13,2,2,0,0,1-.94-.22,3.35,3.35,0,0,1-1-1.07l-.15-.21c-.38-.53-.72-.8-1.09-.83-.57-.07-1.08.49-1.37,1l0,.08a1.67,1.67,0,0,1-.77.87,1.23,1.23,0,0,1-1.28-.36,3.56,3.56,0,0,1-.55-1l0-.08c-.1-.23-.25-.52-.45-.52s-.17.07-.3.18a2.12,2.12,0,0,0-.5.61l-.07-.78.23-.22a1.1,1.1,0,0,1,.64-.3c.38,0,.7.28.92.83l0,.08a2.83,2.83,0,0,0,.44.81.76.76,0,0,0,.72.24,1.35,1.35,0,0,0,.51-.64l.05-.09a2,2,0,0,1,1.87-1.3,2.23,2.23,0,0,1,1.46,1L52,274a2.73,2.73,0,0,0,.86.92,1.61,1.61,0,0,0,1.3.06,3,3,0,0,0,1.15-.84,2.28,2.28,0,0,0,.29-.33,6,6,0,0,1,.65-.68,1.78,1.78,0,0,1,1.46-.46,2.18,2.18,0,0,1,1.3,1.08,3.44,3.44,0,0,0,.68.77,1.33,1.33,0,0,0,1,.19,1.29,1.29,0,0,0,.87-.56,2.36,2.36,0,0,0,.22-.45,4,4,0,0,1,.22-.47,1.15,1.15,0,0,1,1.07-.64,1.3,1.3,0,0,1,.71.39,2,2,0,0,0,.24.19A.18.18,0,0,0,64.15,273.18Z" transform="translate(-7.17 -11.71)"/><path class="cls-2" d="M53.82,293.28c1.21,0,2.42,0,3.61-.09a10.49,10.49,0,0,0,1.77-.26,3.78,3.78,0,0,0,1.61-.71,0,0,0,0,1,0,0,0,0,0,0,1,0,0,3.28,3.28,0,0,1-1.58,1,9.38,9.38,0,0,1-1.81.37,15,15,0,0,1-3.67-.11.1.1,0,0,1-.09-.12A.11.11,0,0,1,53.82,293.28Z" transform="translate(-7.17 -11.71)"/><path class="cls-37" d="M473.4,69.13l-7.83,20.45s-7.82-2.25-11.62-3.9-12-.8-15-1.7a16.58,16.58,0,0,1-1.88-.65c-2.6-1.08-4.89-2.82-9.64-6.9-5.83-5-14.12-6.52-14.12-6.52l8.58-22.38s10.34,1.93,26.88,7.9S473.4,69.13,473.4,69.13Z" transform="translate(-7.17 -11.71)"/><path class="cls-48" d="M471.92,73l-1,2.67a22.93,22.93,0,0,1-5,.7A112.46,112.46,0,0,1,447,75.75a26.06,26.06,0,0,1-6.44-1.39h0a28.43,28.43,0,0,1-4.64-2.49,79,79,0,0,1-12-8.84A38.08,38.08,0,0,1,419,57.6a3.15,3.15,0,0,1-.57-1.08.63.63,0,0,1,.3-.77c.73-.4,2.52,0,3.54.39q11,4.11,22.18,7.91,13.24,4.55,26.64,8.68Z" transform="translate(-7.17 -11.71)"/><path class="cls-49" d="M473,70.17l-7.44,19.41s-7.82-2.25-11.62-3.9-12-.8-15-1.7a16.58,16.58,0,0,1-1.88-.65l9.8-25.58Z" transform="translate(-7.17 -11.71)"/><path class="cls-37" d="M399.37,39.39l55,1.23L491.31,75a.92.92,0,0,1-.69,1.58l-50.31-3.65L398.9,40.73A.75.75,0,0,1,399.37,39.39Z" transform="translate(-7.17 -11.71)"/><path class="cls-37" d="M450.76,56.82c-.27.72-1.49.91-2.72.44s-2-1.43-1.74-2.14,1.49-.91,2.72-.44S451,56.11,450.76,56.82Z" transform="translate(-7.17 -11.71)"/><path class="cls-50" d="M464.13,117.3a12,12,0,0,1-1.52,2.52.41.41,0,0,1-.43.14.35.35,0,0,1-.12-.07.38.38,0,0,1-.07-.55,11.89,11.89,0,0,0,1.38-2.26,12.71,12.71,0,0,0-.77-12.15,25.14,25.14,0,0,0-4.53-4.81A23.11,23.11,0,0,1,453,94.39c-2.73-5-1.31-10.84-.22-13.92A64.4,64.4,0,0,1,456,73.35c.91-1.83,1.86-3.72,2.63-5.63a8.48,8.48,0,0,0,.85-4.13,6.34,6.34,0,0,0-1.3-3,10.06,10.06,0,0,0-9-3.87h0l-.69-.7a10.83,10.83,0,0,1,10.34,4.11,7,7,0,0,1,1.45,3.35,9.32,9.32,0,0,1-.9,4.53c-.79,1.94-1.74,3.84-2.66,5.68a65.33,65.33,0,0,0-3.17,7c-1.05,3-2.42,8.6.16,13.28a22.14,22.14,0,0,0,5,5.51,26.92,26.92,0,0,1,4.67,5A13.54,13.54,0,0,1,464.13,117.3Z" transform="translate(-7.17 -11.71)"/><path class="cls-50" d="M463.26,132.5l-1.44-.59c0-.1.07-.21.1-.31.43-1.64.86-3.29,1.27-4.94a7.46,7.46,0,0,0,.32-2.29c-.4,1.52-.82,3-1.37,4.53a21.62,21.62,0,0,1-.93,2.16,5.68,5.68,0,0,0-.28.5l-5-2a51.5,51.5,0,0,1,3.38-7.31,44.91,44.91,0,0,0-4,7l-2.38-1s6.55-12.38,10.84-11.18S463.26,132.5,463.26,132.5Z" transform="translate(-7.17 -11.71)"/></g></g></svg>