<svg width="20" height="17" viewBox="0 0 20 17" fill="none" xmlns="http://www.w3.org/2000/svg">
<path d="M12.7273 10.5C10.3 10.5 5.45455 11.83 5.45455 14.5V16.5H20V14.5C20 11.83 15.1545 10.5 12.7273 10.5ZM4.54545 6.5V3.5H2.72727V6.5H0V8.5H2.72727V11.5H4.54545V8.5H7.27273V6.5M12.7273 8.5C13.6917 8.5 14.6166 8.07857 15.2986 7.32843C15.9805 6.57828 16.3636 5.56087 16.3636 4.5C16.3636 3.43913 15.9805 2.42172 15.2986 1.67157C14.6166 0.921427 13.6917 0.5 12.7273 0.5C11.7628 0.5 10.8379 0.921427 10.156 1.67157C9.47402 2.42172 9.09091 3.43913 9.09091 4.5C9.09091 5.56087 9.47402 6.57828 10.156 7.32843C10.8379 8.07857 11.7628 8.5 12.7273 8.5Z" fill="white"/>
</svg>
