<svg width="241" height="225" viewBox="0 0 241 225" fill="none" xmlns="http://www.w3.org/2000/svg">
<path d="M79.2799 22.7855C81.4475 21.863 83.582 20.8515 85.7891 20.031C95.0697 16.5873 104.698 14.7377 114.556 14.2056C125.841 13.5967 136.924 14.9564 147.751 18.2376C159.691 21.8565 170.565 27.5449 180.366 35.2788C188.86 41.9814 196.044 49.8931 201.956 58.9606C202.355 59.5727 202.983 60.1229 202.454 61.0575C202.238 61.4402 202.45 62.0671 202.469 62.6891C203.03 62.5736 203.494 62.4787 204.12 62.3495C205.496 64.927 206.887 67.5254 208.35 70.2669C206.982 70.4592 205.832 70.6802 204.676 70.742C204.377 70.7589 203.94 70.3466 203.755 70.0225C201.915 66.7895 200.265 63.4359 198.255 60.3159C196.532 57.6407 194.477 55.1679 192.454 52.6996C182.9 41.0389 171.208 32.1704 157.444 26.0667C146.634 21.2753 135.311 18.6519 123.495 18.1411C117.009 17.8606 110.589 18.3784 104.168 19.2739C99.8994 19.8693 95.7674 20.9831 91.6987 22.2711C87.6236 23.5623 83.5893 25.0789 79.7169 26.8862C75.8147 28.7091 72.0583 30.8867 68.3727 33.1299C63.415 36.1514 58.9568 39.8509 54.7036 43.8076C51.8783 46.4356 49.2885 49.2776 46.8702 52.2671C46.0571 53.2738 45.3253 53.7862 44.0833 53.2354C43.8884 53.1484 43.6498 53.1568 43.3742 53.1131C42.7646 54.0889 43.3672 55.0133 43.4194 55.9372C43.4336 56.2006 43.4684 56.5298 43.3357 56.7223C42.135 58.4973 40.899 60.2476 39.6051 62.1066C38.7695 61.4255 38.0311 61.8908 37.6696 62.6006C37.4975 62.9359 38.0146 63.6252 38.2971 64.352C35.1445 69.7214 32.259 75.5612 30.2874 81.7943C29.0306 85.7692 28.0564 89.8371 26.9834 93.8686C26.8087 94.5269 26.3908 94.8191 25.9335 95.27C24.917 96.2755 23.7042 95.851 22.4423 96.4265C22.82 94.4995 23.1213 92.7433 23.5143 91.0063C26.491 77.8706 31.9036 65.834 39.7695 54.908C45.4398 47.0293 52.1374 40.1549 59.8247 34.2466C60.2347 33.9304 60.6869 33.6221 61.1705 33.4557C62.1203 33.13 63.2149 33.054 63.3471 31.7037C63.3589 31.5762 63.622 31.466 63.776 31.3597C68.4985 28.1264 73.4609 25.3171 78.663 22.9294C78.8646 22.837 79.0947 22.8001 79.3097 22.7378C79.2686 22.8351 79.2156 22.9295 79.1889 23.0317C79.0938 23.3791 79.0081 23.7275 78.9178 24.0765C79.2638 24.1171 79.6817 24.2964 79.9398 24.1663C80.3127 23.9766 80.5691 23.5584 80.8758 23.2385C80.6344 23.0321 80.4191 22.7352 80.142 22.6483C79.8892 22.5717 79.5665 22.7292 79.2744 22.7794L79.2799 22.7855ZM68.289 32.112C69.0557 31.2629 69.8352 30.4235 70.553 29.5355C70.596 29.4837 70.1777 28.8469 69.9123 28.7949C69.1655 28.6482 67.3393 29.9528 67.09 30.6972C66.8008 31.5638 67.1718 32.0265 68.289 32.112ZM86.4316 21.7918C87.7163 22.467 88.9167 22.3807 89.6186 21.4446C89.8745 21.1043 89.9702 20.4364 89.8117 20.056C89.7028 19.8013 88.9999 19.6415 88.5965 19.696C87.4471 19.8529 86.8141 20.6626 86.4316 21.7918ZM25.0866 89.9593C26.3055 90.264 27.1412 89.9062 27.168 88.9758C27.18 88.6057 26.7516 88.0115 26.3937 87.8856C25.8076 87.6797 25.1427 88.7662 25.0866 89.9593ZM109.646 17.5316C109.946 17.0501 110.222 16.7573 110.289 16.4207C110.313 16.2984 109.763 15.8814 109.598 15.9412C109.272 16.058 109.032 16.4143 108.758 16.6703C108.998 16.9042 109.239 17.1381 109.646 17.5316Z" fill="#FF8080"/>
<path d="M102.25 209.524C102.736 209.034 103.119 208.722 103.407 208.334C103.61 208.06 103.679 207.689 103.809 207.362C103.409 207.21 102.95 206.854 102.621 206.948C101.998 207.129 101.354 207.474 100.888 207.924C99.9281 208.848 98.9665 208.976 97.6632 208.672C85.0933 205.739 73.523 200.576 62.9663 193.152C56.7834 188.804 51.1607 183.812 46.1442 178.145C46.0465 178.035 45.9649 177.909 45.9257 177.857C46.9433 177.055 47.9408 176.272 48.8739 175.535C51.6248 178.178 54.419 181.08 57.4392 183.721C71.0036 195.583 86.7014 202.964 104.463 205.922C105.611 206.113 106.776 206.215 107.922 206.418C108.608 206.539 109.422 206.287 109.711 207.448C109.859 208.047 110.69 207.791 111.236 207.366C111.561 207.112 112.031 206.866 112.418 206.891C119.769 207.393 127.078 207.094 134.36 205.972C134.798 205.904 135.311 206.127 135.752 206.305C136.5 206.607 137.105 206.659 137.485 205.773C137.566 205.585 137.804 205.39 138.004 205.339C140.119 204.806 142.243 204.299 144.364 203.797C144.574 203.747 144.851 203.701 145.017 203.795C145.695 204.18 146.022 203.857 146.528 203.383C147.011 202.933 147.793 202.778 148.463 202.562C159.251 199.119 169.074 193.861 177.945 186.825C190.301 177.025 199.61 164.857 205.988 150.434C206.733 148.748 207.388 147.024 208.121 145.23C208.993 145.572 209.707 145.257 209.846 144.345C209.906 143.945 209.395 143.459 209.115 142.965C210.135 138.763 211.196 134.341 212.301 129.933C212.368 129.667 212.753 129.352 213.038 129.294C214.104 129.08 215.188 128.966 216.516 128.78C216.106 130.881 215.723 132.838 215.326 134.871C214.693 134.77 214.156 134.685 213.513 134.581C213.286 135.771 213.334 136.798 214.073 137.767C214.269 138.026 214.353 138.508 214.266 138.829C211.782 147.935 208.032 156.494 203.063 164.507C196.503 175.087 188.243 184.119 178.282 191.576C170.06 197.728 161.138 202.6 151.354 205.725C146.456 207.29 141.402 208.362 136.418 209.646C136.021 209.747 135.603 209.767 135.207 209.823C134.488 208.265 134.251 208.271 132.932 209.41C132.376 209.891 131.624 210.342 130.918 210.421C121.525 211.487 112.154 211.312 102.828 209.674C102.692 209.649 102.56 209.604 102.245 209.52L102.25 209.524ZM195.356 171.459C196.669 171.735 197.421 171.402 197.438 170.43C197.444 170.054 197.005 169.466 196.64 169.334C196.082 169.135 195.383 170.318 195.356 171.459ZM202.37 159.152C201.971 159.984 201.668 160.463 201.534 160.988C201.498 161.135 202.141 161.616 202.166 161.597C202.639 161.176 203.088 160.719 203.467 160.215C203.496 160.177 202.951 159.711 202.37 159.154L202.37 159.152ZM96.3283 205.315C95.4521 205.434 94.6963 205.629 94.6054 206.608C94.5969 206.694 95.3399 207.008 95.6749 206.938C96.4863 206.764 96.942 206.286 96.3283 205.315V205.315ZM159.874 199.405L160.045 199.957C160.579 199.94 161.115 199.921 161.65 199.904L161.569 198.244C161.446 198.198 161.321 198.153 161.198 198.107C160.757 198.539 160.315 198.97 159.873 199.403L159.874 199.405Z" fill="#FF8080"/>
<path d="M63.8449 154.266L63.2984 150.377C63.7233 150.297 64.1121 150.203 64.5062 150.148C103.898 144.609 143.293 139.077 182.681 133.512C183.808 133.354 184.091 133.68 184.206 134.723C184.487 137.297 184.536 137.303 181.972 137.664C149.148 142.277 116.325 146.885 83.5009 151.496C77.4278 152.35 71.3554 153.208 65.2826 154.063C64.8437 154.125 64.4048 154.187 63.8449 154.266V154.266ZM105.273 148.299C106.647 146.864 106.704 146.325 105.661 145.082C104.151 145.97 103.985 147.164 105.273 148.299ZM83.2679 150.634C83.9648 150.134 84.9633 149.943 84.6319 148.852C84.5722 148.655 83.6323 148.467 83.3434 148.654C82.6297 149.115 82.5518 149.829 83.2679 150.634ZM93.7594 148.057C93.8857 148.078 94.0117 148.097 94.138 148.118C94.2394 147.784 94.524 147.323 94.3983 147.143C94.2095 146.872 93.7399 146.797 93.389 146.64C93.322 146.732 93.255 146.824 93.1905 146.917C93.381 147.298 93.5689 147.676 93.7594 148.057Z" fill="#FF8080"/>
<path d="M175.761 74.8011L55.1214 91.7559L54.5904 87.9774C54.982 87.904 55.4043 87.8058 55.8321 87.7456C84.4917 83.7224 113.154 79.7033 141.814 75.6777C152.509 74.1747 163.207 72.6757 173.895 71.1255C174.992 70.9668 175.39 71.2517 175.429 72.3262C175.457 73.1072 175.632 73.8834 175.761 74.8011ZM141.776 77.6874C142.213 77.1409 142.498 76.7805 142.786 76.422C142.5 76.2425 142.131 75.8529 141.942 75.9274C141.516 76.0948 141.177 76.4903 140.803 76.7922C141.063 77.0325 141.323 77.2729 141.774 77.6899L141.776 77.6874Z" fill="#FF8080"/>
<path d="M193.488 153.687L193.72 155.334C194.006 155.355 194.29 155.377 194.63 155.405C194.588 155.548 194.573 155.699 194.505 155.816C191.545 160.998 188.07 165.809 184.108 170.262C180.089 174.779 175.669 178.864 170.789 182.44C170 183.018 169.208 183.591 168.39 184.125C167.717 184.563 167.17 185.241 166.112 184.793C165.738 184.635 164.832 185.144 164.489 185.593C161.762 189.184 157.564 190.348 153.782 192.182C152.726 192.694 151.516 192.876 150.408 193.294C148.812 193.898 147.279 194.688 145.658 195.211C139.514 197.196 133.218 198.481 126.773 198.948C124.135 199.138 121.485 199.281 118.84 199.259C116.099 199.235 113.349 199.088 110.624 198.806C107.936 198.529 105.253 198.107 102.603 197.578C99.9532 197.052 97.3102 196.428 94.7226 195.645C84.0171 192.411 74.2738 187.314 65.53 180.31C60.247 176.078 55.4913 171.324 51.3594 165.955C50.9766 165.458 50.7227 164.773 50.6511 164.149C50.5697 163.44 50.2783 163.105 49.6623 162.817C49.1245 162.565 48.5365 162.199 48.2247 161.719C46.4494 158.983 44.7494 156.197 43.0068 153.401C44.822 152.635 45.0074 152.703 45.8207 154.119C55.9713 171.799 70.5151 184.389 89.5007 191.734C103.831 197.278 118.644 198.672 133.755 196.063C151.227 193.047 166.315 185.247 178.982 172.788C179.664 172.116 180.525 171.612 181.146 170.894C182.583 169.225 184.01 167.537 185.279 165.741C187.885 162.057 190.385 158.299 192.925 154.569C193.069 154.357 193.2 154.135 193.483 153.683L193.488 153.687Z" fill="#FF8080"/>
<path d="M136.544 179.446C134.227 178.591 132.166 177.887 130.157 177.062C129.12 176.636 128.317 176.641 127.396 177.381C125.672 178.766 123.843 180.018 121.827 181.496C121.844 180.514 121.841 179.762 121.877 179.011C121.958 177.281 122.097 175.554 122.126 173.825C122.132 173.467 121.843 172.984 121.542 172.761C119.693 171.401 117.802 170.101 115.926 168.777C115.784 168.676 115.659 168.549 115.368 168.297C117.739 167.648 119.922 166.984 122.14 166.471C123.156 166.237 123.637 165.748 123.923 164.763C124.549 162.6 125.303 160.474 126.076 158.113C127.162 159.716 128.157 161.152 129.119 162.607C130.778 165.113 130.77 165.105 133.746 165.028C135.496 164.983 137.248 164.991 139.264 164.971C137.677 166.919 136.283 168.682 134.827 170.395C134.196 171.138 133.915 171.772 134.344 172.792C135.055 174.488 135.552 176.274 136.132 178.025C136.259 178.41 136.36 178.803 136.546 179.443L136.544 179.446ZM132.983 170.421C133.424 169.885 133.724 169.518 134.026 169.151C133.694 168.968 133.301 168.575 133.05 168.654C132.655 168.773 132.358 169.211 132.02 169.515C132.285 169.764 132.549 170.013 132.985 170.423L132.983 170.421Z" fill="#FF8080"/>
<path d="M109.874 43.1336C111.308 45.2155 112.657 47.1287 113.956 49.0764C114.366 49.6891 114.768 49.9987 115.581 49.9668C117.971 49.8758 120.366 49.9191 123.05 49.908C121.606 51.7103 120.423 53.4004 119.016 54.8749C117.953 55.9876 117.8 56.9633 118.38 58.3577C119.156 60.2232 119.697 62.1882 120.426 64.3715C118.691 63.7436 117.106 63.3646 115.718 62.6193C113.443 61.4013 111.582 61.5805 109.707 63.4114C108.59 64.5019 107.175 65.2865 105.891 66.2061C105.866 66.2233 105.819 66.2117 105.624 66.2253C105.705 64.2827 105.627 62.3282 105.908 60.4285C106.17 58.6527 105.627 57.5872 104.096 56.7178C102.597 55.8668 101.239 54.7671 99.8248 53.7692C99.6575 53.6509 99.5225 53.4868 99.2353 53.2137C101.262 52.6543 103.107 52.0175 105.006 51.6545C106.698 51.332 107.661 50.6064 108.041 48.8255C108.447 46.9264 109.217 45.1045 109.869 43.132L109.874 43.1336ZM113.931 55.1183C114.603 54.7996 115.256 54.4905 115.684 54.2861C116.051 54.7197 116.331 55.2843 116.552 55.2625C116.986 55.2197 117.485 54.9322 117.78 54.5933C118.02 54.3171 118.068 53.8161 118.069 53.4155C118.07 53.0996 117.927 52.5683 117.741 52.5165C117.459 52.4396 116.901 52.6003 116.787 52.8246C116.431 53.5267 115.934 53.4524 115.302 53.4062C114.15 53.3187 113.755 53.8387 113.928 55.1186L113.931 55.1183Z" fill="#FF8080"/>
<path d="M195.818 71.9457C193.915 72.4099 193.926 72.4039 193.05 70.8681C192.51 69.9211 191.955 68.9786 191.372 68.0584C190.826 67.1948 190.109 66.3848 191.264 65.0487C189.228 65.479 188.837 64.0764 188.09 63.1152C186.381 60.9162 184.662 58.7255 183.075 56.6948C183.144 56.0695 183.202 55.5534 183.259 55.0351C182.745 54.9998 182.231 54.9668 181.521 54.9179C179.434 52.9551 177.194 50.7256 174.825 48.6444C167.371 42.0909 158.998 37.0097 149.707 33.5562C145.703 32.0688 141.525 31.052 137.417 29.8492C136.712 29.6439 135.98 29.5866 136.201 28.5304C136.234 28.3748 135.945 28.1501 135.803 27.9571C135.625 28.115 135.389 28.2419 135.284 28.4396C135.165 28.6601 135.163 28.944 135.078 29.3587C133.783 28.9001 132.243 29.4025 131.409 28.2933C130.553 28.3587 129.864 28.4922 129.186 28.4501C125.75 28.2397 122.316 27.9855 118.896 27.7455C119.015 27.2094 119.149 26.6092 119.287 25.9928C150.341 25.3282 181.396 43.8266 195.818 71.9457V71.9457Z" fill="#FF8080"/>
<path d="M139.218 41.938C140.53 43.8793 141.69 45.5331 142.776 47.2338C143.168 47.8468 143.602 48.0879 144.323 48.0689C146.407 48.014 148.494 48.0273 150.807 48.0134C149.689 49.413 148.756 50.7728 147.625 51.9363C146.448 53.1496 146.065 54.272 146.851 55.9005C147.546 57.3382 147.893 58.9437 148.48 60.7307C146.674 60.083 145.019 59.6177 143.482 58.9001C142.052 58.2338 140.96 58.3416 139.759 59.3982C138.499 60.5088 137.052 61.4078 135.471 62.5566C135.51 61.2904 135.377 60.1993 135.605 59.1902C136.268 56.2552 135.369 54.2262 132.584 52.9633C131.618 52.5248 130.812 51.7297 129.717 50.9409C131.839 50.3634 133.728 49.8164 135.636 49.3493C136.55 49.1248 137.111 48.7484 137.372 47.7462C137.854 45.8937 138.523 44.0927 139.221 41.9377L139.218 41.938ZM141.091 55.717C140.089 56.1941 139.496 57.1424 139.938 57.6225C140.135 57.8374 140.794 57.9439 140.991 57.7857C141.742 57.1837 141.547 56.4401 141.091 55.717V55.717Z" fill="#FF8080"/>
<path d="M108.918 171.274C107.478 173.074 106.258 174.696 104.924 176.215C104.351 176.865 104.355 177.418 104.613 178.144C105.271 180.019 105.888 181.91 106.599 184.025C104.91 183.413 103.349 183.01 101.944 182.297C100.248 181.435 98.9392 181.614 97.5403 182.904C96.3698 183.984 94.9626 184.809 93.5236 185.846C93.6285 183.733 93.6996 181.785 93.8423 179.843C93.8662 179.526 94.2889 179.252 94.3657 178.921C94.4832 178.408 94.4612 177.862 94.4984 177.33C94.0794 177.355 93.6601 177.393 93.2408 177.399C92.9149 177.404 92.5105 177.484 92.2741 177.329C90.8349 176.383 89.4351 175.376 87.8 174.238C89.4652 173.77 90.8959 173.21 92.3793 172.992C94.4133 172.695 95.5205 171.718 95.9062 169.668C96.1677 168.279 96.7645 166.953 97.2114 165.6C97.2208 165.569 97.2611 165.547 97.4409 165.364C98.3067 167.089 99.9227 168.253 100.235 170.33C100.299 170.749 101.487 171.243 102.179 171.279C104.348 171.386 106.527 171.292 108.92 171.274L108.918 171.274Z" fill="#FF8080"/>
<path d="M145.876 166.032C148.195 165.393 150.228 164.876 152.227 164.25C152.671 164.112 153.146 163.658 153.342 163.228C153.745 162.343 153.887 161.339 154.288 160.455C154.687 159.575 155.274 158.781 155.888 157.77C157.038 159.457 158.009 160.968 159.085 162.4C159.36 162.769 159.958 163.085 160.416 163.099C162.514 163.156 164.616 163.099 167.002 163.079C165.464 164.991 164.095 166.703 162.702 168.397C162.605 168.516 162.326 168.546 162.144 168.521C160.774 168.339 160.304 168.933 160.791 170.331C161.362 170.075 161.929 169.817 162.571 169.527C163.266 171.615 163.932 173.606 164.671 175.822C163.013 175.224 161.45 174.829 160.051 174.115C158.351 173.248 157.026 173.441 155.624 174.707C154.463 175.756 153.099 176.579 151.827 177.504C151.712 177.465 151.594 177.427 151.479 177.388C151.707 176.068 151.944 174.751 152.153 173.426C152.193 173.171 152.145 172.896 152.097 172.638C152.047 172.359 151.839 172.065 151.891 171.82C152.145 170.64 151.638 169.968 150.652 169.358C149.092 168.395 147.634 167.266 145.878 166.03L145.876 166.032Z" fill="#FF8080"/>
<path d="M45.0802 72.1577C44.9006 71.6109 44.7439 71.1296 44.5846 70.6463C44.3292 71.0711 44.1067 71.5189 43.8078 71.9109C43.5686 72.2237 43.2371 72.4648 42.7236 72.5804C43.2417 71.6198 43.7425 70.6502 44.2808 69.7028C48.5181 62.2543 53.7435 55.58 59.9363 49.6644C60.4234 49.1978 60.8518 48.9156 61.5874 49.0799C62.455 49.2738 63.3314 49.2055 63.8786 48.1104C63.5225 47.8676 63.1437 47.6096 62.5956 47.2359C78.4412 33.6027 96.7844 26.6269 117.633 26.0216C116.791 26.9888 116.154 28.0279 114.545 28.1122C101.318 28.7905 88.9646 32.5195 77.4731 39.0792C69.1017 43.8572 61.7881 49.9395 55.4768 57.2378C55.1213 57.6493 54.5566 57.8889 54.0664 58.1705C53.4325 58.5342 52.8002 58.845 53.091 59.7926C53.1536 59.9943 52.9524 60.3178 52.8026 60.5356C50.956 63.2388 49.233 66.0414 47.1805 68.5791C46.2681 69.7072 46.1599 71.196 45.0853 72.1616L45.0802 72.1577Z" fill="#FF8080"/>
<path d="M81.1612 50.1456C82.4421 52.0455 83.5945 53.6317 84.6017 55.3069C85.0933 56.1233 85.6852 56.2895 86.5398 56.2609C88.5177 56.198 90.4967 56.2082 92.7521 56.1864C91.2455 58.0593 89.8923 59.7391 88.5431 61.416C86.9376 60.342 86.4031 60.3896 85.049 61.8361C84.3618 62.5688 83.764 63.385 83.1152 64.1786C85.0816 65.0417 86.5084 64.665 88.3083 62.7509C88.6114 63.6075 88.8874 64.3856 89.1215 65.0437C88.8475 65.4666 88.6448 65.7788 88.442 66.0911C88.7232 66.2071 89.015 66.3011 89.2799 66.447C89.4508 66.5419 89.651 66.6831 89.7156 66.8502C89.9428 67.4429 90.1178 68.0544 90.4007 68.9299C88.6787 68.3116 87.083 67.9089 85.6543 67.183C84.0089 66.3457 82.7585 66.613 81.4229 67.7846C80.2173 68.8418 78.8378 69.7015 77.3645 70.7712C77.4625 68.4624 77.587 66.3422 77.6088 64.2226C77.6128 63.7964 77.3354 63.2199 76.9979 62.963C75.5018 61.8233 73.9346 60.7782 72.3959 59.6925C72.1956 59.5514 72.0143 59.3824 71.6992 59.1223C73.7685 58.5569 75.6662 57.9882 77.5911 57.5323C78.4973 57.318 78.9887 56.9149 79.2531 55.9854C79.7935 54.0789 80.4768 52.2142 81.1596 50.1504L81.1612 50.1456Z" fill="#FF8080"/>
<path d="M47.1475 173.309C46.161 174.186 45.2191 175.024 44.2099 175.918C38.8972 169.59 34.3962 162.651 30.704 154.903C32.0364 154.716 33.2352 154.52 34.4405 154.403C34.6455 154.383 34.9824 154.652 35.0907 154.87C38.3674 161.514 42.493 167.602 47.1519 173.34C47.1739 173.367 47.1754 173.41 47.1427 173.307L47.1475 173.309Z" fill="#FF8080"/>
<path d="M204.343 130.522C203.307 134.066 202.373 137.35 201.377 140.613C200.959 141.979 200.441 143.315 199.891 144.634C199.688 145.123 199.254 145.509 198.952 145.958C198.772 146.224 198.496 146.537 198.518 146.806C198.647 148.372 198.01 149.431 196.746 150.35C195.698 151.113 194.868 152.175 193.713 153.333C194.711 151.256 195.599 149.468 196.439 147.657C198.787 142.591 200.603 137.331 201.784 131.875C202.099 130.426 203.069 130.731 204.345 130.522L204.343 130.522Z" fill="#FF8080"/>
<path d="M42.0089 73.9623C42.779 75.5747 43.3392 74.2307 44.2067 73.9531C43.7542 74.8931 43.3685 75.6909 42.9883 76.4788C42.562 76.4678 42.1703 76.4588 41.4619 76.4394C42.7588 77.884 41.8224 79.0041 41.3668 80.1824C40.8509 81.5157 40.5432 82.9821 39.7806 84.1533C38.9318 85.4578 38.9852 86.9261 38.5088 88.2813C38.0135 89.6963 37.6917 91.1762 37.3306 92.6364C36.8811 94.4592 36.8997 94.4611 34.843 94.5648C36.3374 87.4058 38.722 80.6182 42.0064 73.9603L42.0089 73.9623Z" fill="#FF8080"/>
<path d="M25.667 139.967L21.8208 112.6L33.1259 111.011C35.1748 110.723 36.9952 110.844 38.5868 111.375C40.1862 111.895 41.4876 112.784 42.4911 114.042C43.4933 115.291 44.1259 116.851 44.3888 118.722C44.6555 120.619 44.4679 122.29 43.8259 123.734C43.1827 125.169 42.1483 126.341 40.7225 127.25C39.2956 128.15 37.5398 128.746 35.4551 129.039L28.3059 130.044L27.5735 124.832L33.4933 124C34.4911 123.86 35.3059 123.614 35.9377 123.262C36.5772 122.899 37.0331 122.426 37.3054 121.843C37.5765 121.251 37.6526 120.531 37.5336 119.685C37.4147 118.839 37.1427 118.164 36.7176 117.66C36.2913 117.148 35.7202 116.801 35.0043 116.62C34.2872 116.43 33.4342 116.405 32.4454 116.544L29.1848 117.002L32.2817 139.038L25.667 139.967ZM39.3167 125.294L47.8897 136.844L40.6736 137.858L32.2343 126.289L39.3167 125.294ZM50.5823 136.466L46.7361 109.098L65.8184 106.416L66.5734 111.788L54.1057 113.541L54.8945 119.153L66.3867 117.538L67.1435 122.923L55.6514 124.538L56.442 130.164L68.9097 128.412L69.6647 133.784L50.5823 136.466ZM81.079 104.272L87.6001 103.355L90.2594 122.277C90.4997 124.051 90.2943 125.661 89.6435 127.106C88.9914 128.542 87.9772 129.729 86.6011 130.668C85.2338 131.605 83.5836 132.209 81.6504 132.481C79.9399 132.721 78.3434 132.641 76.8609 132.241C75.3872 131.839 74.1479 131.069 73.1429 129.929C72.1467 128.788 71.5154 127.237 71.2489 125.276L77.8368 124.35C77.9624 125.05 78.1806 125.633 78.4912 126.098C78.8095 126.553 79.2045 126.874 79.6761 127.062C80.1476 127.25 80.6863 127.302 81.2921 127.217C81.9246 127.128 82.4404 126.919 82.8393 126.59C83.237 126.253 83.5097 125.801 83.6573 125.235C83.8138 124.668 83.8408 123.988 83.7383 123.194L81.079 104.272ZM95.5989 130.139L91.7526 102.772L110.835 100.09L111.59 105.462L99.1223 107.214L99.9111 112.826L111.403 111.211L112.16 116.596L100.668 118.212L101.459 123.837L113.926 122.085L114.681 127.457L95.5989 130.139ZM141.213 105.932L134.531 106.871C134.346 106.197 134.076 105.604 133.722 105.09C133.369 104.577 132.937 104.156 132.428 103.828C131.918 103.5 131.337 103.277 130.685 103.16C130.04 103.032 129.344 103.021 128.595 103.126C127.268 103.313 126.169 103.799 125.298 104.584C124.436 105.369 123.833 106.412 123.489 107.714C123.154 109.015 123.11 110.538 123.355 112.284C123.61 114.101 124.083 115.589 124.772 116.745C125.469 117.892 126.334 118.711 127.366 119.202C128.406 119.682 129.576 119.831 130.876 119.649C131.607 119.546 132.257 119.359 132.828 119.088C133.408 118.816 133.899 118.47 134.304 118.049C134.716 117.619 135.032 117.125 135.254 116.567C135.483 115.999 135.609 115.377 135.632 114.701L142.319 113.802C142.373 115.03 142.189 116.273 141.767 117.532C141.353 118.789 140.706 119.975 139.827 121.089C138.947 122.194 137.816 123.134 136.435 123.909C135.063 124.683 133.438 125.203 131.558 125.467C129.081 125.815 126.787 125.583 124.674 124.772C122.569 123.95 120.804 122.572 119.378 120.638C117.952 118.703 117.029 116.235 116.607 113.233C116.183 110.221 116.399 107.588 117.254 105.333C118.109 103.078 119.44 101.27 121.248 99.9072C123.055 98.5449 125.174 97.6929 127.606 97.3511C129.263 97.1182 130.828 97.1345 132.301 97.3999C133.772 97.6564 135.105 98.1505 136.298 98.8823C137.489 99.6051 138.509 100.556 139.356 101.737C140.203 102.917 140.822 104.315 141.213 105.932ZM143.464 100.982L142.709 95.6101L165.84 92.3592L166.595 97.7311L158.297 98.8974L161.388 120.893L154.867 121.809L151.776 99.8139L143.464 100.982ZM172.917 119.273L169.071 91.9052L188.153 89.2233L188.908 94.5953L176.441 96.3475L177.229 101.96L188.722 100.345L189.478 105.73L177.986 107.345L178.777 112.971L191.245 111.219L192 116.591L172.917 119.273ZM206.258 114.587L196.142 116.009L192.296 88.6411L202.398 87.2213C205.187 86.8294 207.665 87.0399 209.832 87.8527C212.007 88.6554 213.786 90.0042 215.17 91.8992C216.552 93.7853 217.443 96.1492 217.843 98.9911C218.243 101.842 218.04 104.369 217.232 106.572C216.433 108.773 215.1 110.564 213.231 111.944C211.362 113.315 209.037 114.196 206.258 114.587ZM201.964 109.44L205.211 108.983C206.744 108.768 208.004 108.327 208.991 107.662C209.986 106.986 210.673 106.022 211.051 104.77C211.437 103.507 211.491 101.891 211.215 99.9226C210.938 97.9538 210.442 96.4247 209.725 95.3353C209.008 94.237 208.073 93.5052 206.923 93.14C205.78 92.7646 204.425 92.6871 202.857 92.9075L199.703 93.3507L201.964 109.44Z" fill="#FF8080"/>
</svg>
