<svg width="1309" height="1138" viewBox="0 0 1309 1138" fill="none" xmlns="http://www.w3.org/2000/svg">
<path fill-rule="evenodd" clip-rule="evenodd" d="M367.894 985.26V1136.09H344.248V1076.43C344.248 1076.43 279.051 1067.55 287.558 1000.25H307.156C307.156 1000.25 302.49 1053.2 344.248 1049.87V985.26H367.894Z" fill="white"/>
<path fill-rule="evenodd" clip-rule="evenodd" d="M369.447 985.26C369.447 984.38 368.752 983.68 367.894 983.68H344.248C343.391 983.68 342.695 984.38 342.695 985.26V1048.38C335.411 1048.76 329.663 1047.32 325.141 1044.64C317.918 1040.42 313.844 1033.2 311.523 1025.85C307.564 1013.35 308.703 1000.39 308.703 1000.39C308.741 999.97 308.595 999.56 308.301 999.23C308.006 998.91 307.591 998.72 307.156 998.72H287.558C286.776 998.72 286.116 999.28 286.018 1000.07C283.408 1020.71 287.619 1035.98 294.739 1047.23C309.356 1070.32 336.382 1076.57 342.696 1077.73L342.695 1136.09C342.695 1136.97 343.391 1137.66 344.248 1137.66H367.894C368.752 1137.66 369.447 1136.97 369.447 1136.09V985.26ZM366.341 986.78C366.341 1001.73 366.341 1119.61 366.341 1134.56H345.801V1076.43C345.801 1075.64 345.227 1075 344.458 1074.9C344.458 1074.9 313.239 1070.65 297.364 1045.56C290.713 1035.06 286.787 1020.85 288.936 1001.83H305.51C305.343 1005.85 305.293 1016.45 308.562 1026.77C311.105 1034.82 315.654 1042.69 323.57 1047.32C328.849 1050.42 335.637 1052.09 344.373 1051.39C345.18 1051.35 345.801 1050.65 345.801 1049.87V986.78H366.341Z" fill="#A3C9D9"/>
<path fill-rule="evenodd" clip-rule="evenodd" d="M196.733 994.64C195.884 1001.45 198.005 1008.3 202.557 1013.46C207.109 1018.62 213.655 1021.56 220.532 1021.56C270.587 1021.56 394.448 1021.56 444.309 1021.56C456.991 1021.56 467.479 1011.69 468.245 999.03C470.059 968.73 466.177 919.57 420.071 927.87C420.071 927.87 434.918 789.62 365.98 785.47C308.369 781.96 300.673 853.61 300.673 853.61C300.673 853.61 259.173 840.43 240.987 875.93C222.8 911.39 233.528 959.34 233.528 959.34C233.528 959.34 200.775 961.84 196.733 994.64Z" fill="white"/>
<path fill-rule="evenodd" clip-rule="evenodd" d="M195.191 994.44C194.287 1001.69 196.546 1009.03 201.393 1014.51C206.24 1019.99 213.21 1023.13 220.531 1023.13C270.586 1023.13 394.448 1023.13 444.309 1023.13C457.81 1023.13 468.981 1012.61 469.795 999.15C470.531 986.86 470.331 971.55 466.855 958.13C463.646 945.72 457.639 934.96 447.205 929.4C440.652 925.94 432.333 924.45 421.806 926.02C422.665 916.27 425.712 873.11 416.306 837.01C409.046 809.16 394.35 785.63 366.073 783.9C336.5 782.13 319.714 799.57 310.345 817.5C302.817 831.93 300.118 846.64 299.37 851.63C291.108 849.58 256.085 843.05 239.604 875.21C223.208 907.2 229.991 949.19 231.675 958.01C224.687 959.1 198.818 965.02 195.191 994.44ZM198.273 994.84C202.16 963.29 233.645 960.91 233.645 960.91C234.095 960.87 234.507 960.63 234.775 960.27C235.044 959.91 235.141 959.46 235.043 959.02C235.043 959.02 224.411 911.63 242.368 876.62C259.983 842.29 300.203 855.1 300.203 855.1C300.648 855.22 301.131 855.18 301.522 854.9C301.912 854.66 302.167 854.25 302.217 853.77C302.217 853.77 304.115 836.16 313.098 818.95C321.981 801.95 337.847 785.31 365.886 787C392.761 788.65 406.403 811.34 413.298 837.77C423.849 878.27 418.525 927.71 418.525 927.71C418.471 928.19 418.652 928.68 419.012 929.04C419.368 929.36 419.861 929.48 420.344 929.4C430.988 927.51 439.296 928.72 445.747 932.14C455.431 937.3 460.872 947.42 463.846 958.9C467.24 972.04 467.411 986.99 466.699 998.95C465.977 1010.8 456.167 1020.03 444.309 1020.03C394.448 1020.03 270.586 1020.03 220.531 1020.03C214.1 1020.03 207.978 1017.25 203.721 1012.45C199.463 1007.62 197.479 1001.21 198.273 994.84Z" fill="#A3C9D9"/>
<path fill-rule="evenodd" clip-rule="evenodd" d="M286.042 928.74C285.872 929.8 285.159 930.73 284.151 931.19C283.143 931.61 281.98 931.51 281.068 930.91C274.222 926.19 261.882 915.18 269.706 900.55C270.365 899.35 271.746 898.65 273.121 898.93C278.224 900.04 289.843 905.13 286.042 928.74Z" fill="#004461"/>
<path fill-rule="evenodd" clip-rule="evenodd" d="M357.823 875.48C356.896 876.19 355.707 876.33 354.647 875.9C353.587 875.47 352.841 874.5 352.674 873.38C351.811 866.99 352.046 856.26 362.58 852.72C364.023 852.24 365.643 852.84 366.41 854.17C368.405 857.86 370.456 866.02 357.823 875.48Z" fill="#004461"/>
<path fill-rule="evenodd" clip-rule="evenodd" d="M360.602 972.84C359.524 973.19 358.35 972.96 357.527 972.22C356.668 971.51 356.261 970.39 356.419 969.3C357.622 961.84 361.729 948.41 375.991 948.74C377.438 948.77 378.706 949.75 379.029 951.17C380.079 955.86 380.115 966.71 360.602 972.84Z" fill="#004461"/>
<path fill-rule="evenodd" clip-rule="evenodd" d="M496.182 947.67L459.204 975.72L448.638 1012.98L486.116 1029.45L524.53 1002.24L496.182 947.67Z" fill="white"/>
<path fill-rule="evenodd" clip-rule="evenodd" d="M497.562 946.93C497.354 946.56 496.97 946.24 496.525 946.15C496.081 946.05 495.609 946.15 495.248 946.42L458.265 974.52C457.996 974.7 457.802 974.98 457.709 975.3L447.143 1012.56C446.935 1013.3 447.305 1014.09 448.013 1014.41L485.492 1030.89C485.992 1031.12 486.57 1031.03 487.015 1030.7L525.428 1003.49C526.062 1003.03 526.266 1002.19 525.909 1001.5L497.562 946.93ZM495.655 950.03L522.531 1001.73L485.936 1027.69L450.503 1012.1L460.556 976.65L495.655 950.03Z" fill="#000045"/>
<path fill-rule="evenodd" clip-rule="evenodd" d="M550.488 1020.47L552.6 1055.06H609.721V1020.47H550.488Z" fill="white"/>
<path fill-rule="evenodd" clip-rule="evenodd" d="M550.488 1018.91C550.062 1018.91 549.651 1019.07 549.354 1019.38C549.063 1019.69 548.912 1020.11 548.938 1020.58L551.045 1055.16C551.097 1055.99 551.778 1056.62 552.6 1056.62H609.721C610.579 1056.62 611.276 1055.94 611.276 1055.06V1020.47C611.276 1019.59 610.579 1018.91 609.721 1018.91H550.488ZM552.137 1022.03H608.166V1053.55H554.056L552.137 1022.03Z" fill="#000045"/>
<path fill-rule="evenodd" clip-rule="evenodd" d="M602.981 599.59L672.64 795.04L489.185 943.55C498.39 970.72 511.252 995.34 530.565 1015.48C530.565 1015.48 696.7 893.2 758.25 847.94C771.94 837.85 778.27 820.54 774.32 804.02C757.82 734.92 715.68 558.355 715.68 558.355L602.981 599.59Z" fill="white"/>
<path fill-rule="evenodd" clip-rule="evenodd" d="M602.449 598.11C601.648 598.39 601.236 599.31 601.519 600.1L670.81 794.53L488.208 942.35C487.699 942.77 487.505 943.46 487.713 944.06C496.992 971.42 509.974 996.22 529.445 1016.59C529.982 1017.14 530.856 1017.19 531.486 1016.72C531.486 1016.72 697.62 894.5 759.17 849.19C773.36 838.73 779.92 820.82 775.83 803.65C759.34 734.55 717.19 557.984 717.19 557.984C717.09 557.568 716.81 557.198 716.42 556.966C716.03 556.781 715.57 556.735 715.15 556.874L602.449 598.11ZM604.962 600.52L714.57 560.391L772.81 804.39C776.61 820.31 770.51 836.97 757.33 846.69C698.71 889.82 545.25 1002.75 530.75 1013.44C512.353 993.86 499.959 970.17 491.004 944.11C504.425 933.23 673.62 796.24 673.62 796.24C674.13 795.82 674.32 795.13 674.1 794.53L604.962 600.52Z" fill="#000045"/>
<path fill-rule="evenodd" clip-rule="evenodd" d="M526.229 630.09L535.841 1028.99C566.054 1034.54 591.679 1034.4 619.943 1028.99L629.87 605.01L550.054 588.9L526.229 630.09Z" fill="white"/>
<path fill-rule="evenodd" clip-rule="evenodd" d="M524.886 629.3C524.743 629.58 524.669 629.86 524.678 630.14L534.287 1029.04C534.306 1029.78 534.837 1030.38 535.563 1030.52C565.979 1036.07 591.781 1035.93 620.235 1030.52C620.952 1030.38 621.481 1029.78 621.495 1029.04L631.427 605.01C631.445 604.27 630.918 603.62 630.182 603.48L550.36 587.42C549.707 587.28 549.041 587.56 548.707 588.16L524.886 629.3ZM527.794 630.51L550.841 590.66C550.841 590.66 618.139 604.22 628.289 606.26C627.71 631.11 618.991 1003.3 618.422 1027.69C591.222 1032.74 566.392 1032.88 537.365 1027.69L527.794 630.51Z" fill="#000045"/>
<path fill-rule="evenodd" clip-rule="evenodd" d="M459.204 975.72C459.204 975.72 447.907 1011.96 493.253 1024.41C498.205 1025.75 499.862 1030.29 496.067 1038.94C492.277 1047.59 488.426 1081.38 504.985 1111.37C504.985 1111.37 514.297 1114.79 516.324 1117.25C517.694 1118.87 517.213 1126.83 516.755 1131.78C516.542 1134.09 514.603 1135.85 512.284 1135.85C500.006 1135.85 463.397 1135.85 453.622 1135.85C452.109 1135.85 450.698 1135.11 449.869 1133.86C427.987 1100.45 410.988 1066.8 396.434 1033.06C394.157 1027.74 395.183 1021.58 399.06 1017.28C413.311 1001.68 447.666 966.32 459.204 975.72Z" fill="#324C5B"/>
<path fill-rule="evenodd" clip-rule="evenodd" d="M535.843 1129.83C535.958 1133.2 538.731 1135.84 542.109 1135.84C559.437 1135.84 609.347 1135.84 624.208 1135.84C626.924 1135.84 629.331 1134.13 630.173 1131.54C631.876 1126.26 633.774 1116.54 630.442 1104.65C625.355 1086.51 620.251 1092.01 617.779 1066.61C614.683 1034.76 546.737 1036.71 545.705 1058.78C544.96 1074.7 547.376 1074.43 541.642 1085.77C536.532 1095.86 535.292 1113.12 535.843 1129.83Z" fill="#324C5B"/>
<path fill-rule="evenodd" clip-rule="evenodd" d="M558.657 1095.09C574.448 1089.18 589.898 1089.28 605.027 1095.09C605.825 1095.39 606.724 1094.99 607.028 1094.2C607.337 1093.4 606.937 1092.51 606.134 1092.21C590.289 1086.1 574.107 1085.95 557.563 1092.21C556.759 1092.51 556.355 1093.4 556.655 1094.2C556.959 1094.99 557.853 1095.39 558.657 1095.09Z" fill="white"/>
<path fill-rule="evenodd" clip-rule="evenodd" d="M556.365 1086.1C573.723 1080.13 590.697 1080.28 607.32 1086.1C608.13 1086.4 609.014 1085.95 609.298 1085.15C609.581 1084.36 609.153 1083.46 608.343 1083.17C591.06 1077.15 573.405 1077 555.356 1083.17C554.546 1083.46 554.114 1084.36 554.392 1085.15C554.671 1085.95 555.555 1086.4 556.365 1086.1Z" fill="white"/>
<path fill-rule="evenodd" clip-rule="evenodd" d="M492.764 1062.64C490.567 1063.83 484.812 1066.22 476.185 1065.72C475.331 1065.67 474.596 1066.32 474.546 1067.16C474.497 1068.06 475.153 1068.75 476.007 1068.8C485.484 1069.4 491.795 1066.67 494.21 1065.42C494.97 1065.03 495.263 1064.08 494.861 1063.34C494.463 1062.54 493.524 1062.24 492.764 1062.64Z" fill="white"/>
<path fill-rule="evenodd" clip-rule="evenodd" d="M494.135 1076.9C491.149 1078 486.413 1079.14 480.177 1078.79C479.322 1078.74 478.587 1079.39 478.537 1080.23C478.487 1081.13 479.143 1081.82 479.998 1081.87C486.796 1082.27 491.964 1081.03 495.219 1079.79C496.024 1079.49 496.431 1078.59 496.133 1077.8C495.835 1077 494.941 1076.61 494.135 1076.9Z" fill="white"/>
<path fill-rule="evenodd" clip-rule="evenodd" d="M496.58 1089.33C493.579 1090.37 488.997 1091.41 483.059 1091.07C482.204 1091.02 481.469 1091.66 481.419 1092.51C481.369 1093.4 482.025 1094.1 482.88 1094.15C489.35 1094.55 494.344 1093.4 497.619 1092.26C498.424 1091.96 498.851 1091.07 498.563 1090.27C498.28 1089.48 497.39 1089.03 496.58 1089.33Z" fill="white"/>
<path fill-rule="evenodd" clip-rule="evenodd" d="M589.17 251.726C589.17 251.726 552.353 250.865 532.657 291.621L584.129 331.55C584.129 331.55 621.631 313.618 609.636 267.207L589.17 251.726Z" fill="#000045"/>
<path fill-rule="evenodd" clip-rule="evenodd" d="M593.627 265.808L603.493 295.703C625.711 301.071 643.363 298.455 665.58 287.262L652.84 246.13L623.208 248.418L593.627 265.808Z" fill="white"/>
<path fill-rule="evenodd" clip-rule="evenodd" d="M592.843 264.475C592.211 264.829 591.914 265.597 592.125 266.288L602.028 296.185C602.178 296.694 602.586 297.075 603.117 297.214C625.726 302.677 643.667 300.043 666.25 288.658C666.95 288.308 667.29 287.543 667.04 286.815L654.34 245.684C654.13 244.994 653.44 244.524 652.72 244.588L623.082 246.876C622.867 246.863 622.647 246.957 622.424 247.086L592.843 264.475ZM595.49 266.526L623.695 249.947L651.74 247.777L663.68 286.47C642.668 296.843 625.779 299.29 604.683 294.382L595.49 266.526Z" fill="#000045"/>
<path fill-rule="evenodd" clip-rule="evenodd" d="M687.76 241.813C687.76 241.813 724.9 227.99 759.26 262.51L747.17 281.153L736.8 279.178L742.64 286.468L720.96 321.216C720.96 321.216 676.51 316.168 672.39 264.754L687.76 241.813Z" fill="#000045"/>
<path fill-rule="evenodd" clip-rule="evenodd" d="M667.63 265.936C665.57 264.588 665.03 261.798 666.39 259.731C669.94 254.305 676.51 244.281 680.1 238.803C681.42 236.788 684.19 236.168 686.25 237.516C688.31 238.864 688.85 241.653 687.52 243.668L673.81 264.596C672.46 266.663 669.69 267.284 667.63 265.936Z" fill="white"/>
<path fill-rule="evenodd" clip-rule="evenodd" d="M666.78 267.23C669.56 269.047 673.28 268.238 675.11 265.448C678.66 260.022 685.23 249.998 688.82 244.521C690.62 241.782 689.87 238.044 687.09 236.227C684.32 234.409 680.55 235.188 678.76 237.926C675.17 243.404 668.6 253.428 665.04 258.854C663.22 261.644 664.01 265.413 666.78 267.23ZM668.51 264.596C667.17 263.717 666.8 261.927 667.68 260.583L681.4 239.656C682.28 238.312 684.06 237.931 685.4 238.81C686.74 239.689 687.11 241.478 686.23 242.821L672.52 263.749C671.64 265.092 669.85 265.475 668.51 264.596Z" fill="#000045"/>
<path fill-rule="evenodd" clip-rule="evenodd" d="M656.24 183.915C656.24 183.915 664.79 186.141 674.61 192.406C684.44 198.671 682.67 223.785 679.47 228.722C676.24 233.649 666.57 240.767 659.52 241.181C659.52 241.181 653.41 250.852 641.445 261.619C629.483 272.386 605.497 279.371 583.311 266.677C573.994 261.334 568.717 250.623 566.075 242.397C563.467 234.171 553.114 200.337 553.114 200.337L572.039 156.684L632.285 154.683L651.01 185.389L656.24 183.915Z" fill="white"/>
<path fill-rule="evenodd" clip-rule="evenodd" d="M656.63 182.414C656.37 182.345 656.1 182.349 655.81 182.42L651.74 183.579L633.61 153.874C633.293 153.392 632.765 153.108 632.212 153.127L572 155.134C571.379 155.15 570.861 155.517 570.616 156.066L551.691 199.717C551.556 200.059 551.516 200.436 551.618 200.787C551.618 200.787 561.969 234.638 564.61 242.87C567.329 251.407 572.878 262.482 582.566 268.03C605.397 281.11 630.154 273.877 642.489 262.774C652.79 253.497 658.81 245.017 660.4 242.658C667.82 241.778 677.49 234.614 680.78 229.572C681.42 228.576 682.03 226.853 682.5 224.648C683.53 219.916 683.97 212.789 683.02 206.251C682.07 199.713 679.69 193.807 675.46 191.098C665.39 184.681 656.63 182.414 656.63 182.414ZM656.23 185.527C658.02 186.043 665.42 188.382 673.78 193.714C677.37 196.013 679.15 201.15 679.95 206.695C680.7 211.97 680.51 217.654 679.87 221.985C679.44 224.668 678.85 226.799 678.16 227.873C675.13 232.508 666.08 239.247 659.45 239.634C658.93 239.658 658.5 239.931 658.21 240.348C658.21 240.348 652.16 249.861 640.402 260.464C628.816 270.895 605.566 277.623 584.09 265.331C575.112 260.187 570.072 249.839 567.574 241.928C565.152 234.325 556.113 204.816 554.777 200.431L573.08 158.204L631.425 156.265L649.68 186.198C650.05 186.793 650.78 187.077 651.43 186.885L656.23 185.527Z" fill="#000045"/>
<path fill-rule="evenodd" clip-rule="evenodd" d="M668.83 200.417C668.83 200.417 661.02 203.864 653.55 212.029C652.98 212.663 653.03 213.647 653.67 214.226C654.27 214.802 655.28 214.763 655.85 214.129C662.84 206.503 670.1 203.254 670.1 203.254C670.85 202.9 671.2 201.981 670.88 201.202C670.52 200.417 669.59 200.063 668.83 200.417Z" fill="#000045"/>
<path fill-rule="evenodd" clip-rule="evenodd" d="M668.1 211.318C668.1 211.318 663.67 208.213 660.25 206.903C659.46 206.593 658.55 206.992 658.26 207.793C657.93 208.591 658.34 209.492 659.14 209.798C662.26 211.001 666.33 213.867 666.33 213.867C667.03 214.354 668.02 214.188 668.5 213.485C668.98 212.778 668.83 211.815 668.1 211.318Z" fill="#000045"/>
<path fill-rule="evenodd" clip-rule="evenodd" d="M589.566 224.721L588.932 236.706C588.867 237.559 589.514 238.292 590.396 238.346C591.245 238.39 591.957 237.732 592.021 236.879L592.689 224.9C592.721 224.041 592.074 223.308 591.225 223.264C590.376 223.217 589.63 223.871 589.566 224.721Z" fill="#000045"/>
<path fill-rule="evenodd" clip-rule="evenodd" d="M620.03 197.655C620.03 197.655 606.703 190.954 597.444 203.075C596.905 203.751 597.036 204.73 597.71 205.249C598.418 205.772 599.389 205.645 599.895 204.961C607.598 194.91 618.612 200.427 618.612 200.427C619.406 200.816 620.336 200.506 620.718 199.739C621.101 198.973 620.792 198.039 620.03 197.655Z" fill="#000045"/>
<path fill-rule="evenodd" clip-rule="evenodd" d="M596.533 252.833C596.533 252.833 611.403 254.016 615.409 239.298C615.654 238.469 615.163 237.612 614.343 237.386C613.491 237.167 612.639 237.651 612.428 238.476C609.083 250.689 596.802 249.731 596.802 249.731C595.919 249.671 595.175 250.308 595.11 251.162C595.045 252.016 595.683 252.765 596.533 252.833Z" fill="#000045"/>
<path fill-rule="evenodd" clip-rule="evenodd" d="M583.555 204.369C583.555 204.369 570.228 197.667 560.969 209.789C560.43 210.465 560.562 211.443 561.236 211.962C561.943 212.486 562.914 212.358 563.421 211.674C571.124 201.623 582.137 207.14 582.137 207.14C582.932 207.529 583.861 207.219 584.244 206.453C584.626 205.686 584.317 204.753 583.555 204.369Z" fill="#000045"/>
<path d="M604.46 220.292C602.371 219.882 601.008 217.869 601.414 215.794C601.821 213.72 603.844 212.37 605.933 212.78C608.023 213.189 609.386 215.203 608.979 217.277C608.573 219.352 606.55 220.701 604.46 220.292Z" fill="#000045"/>
<path d="M571.514 226.528C569.425 226.119 568.061 224.105 568.468 222.031C568.875 219.956 570.898 218.607 572.987 219.016C575.076 219.426 576.44 221.439 576.033 223.514C575.626 225.588 573.603 226.938 571.514 226.528Z" fill="#000045"/>
<path fill-rule="evenodd" clip-rule="evenodd" d="M649.97 192.725C649.97 192.725 650.53 264.005 648.69 262.001C646.338 259.388 638.902 191.302 638.902 191.302L619.377 189.407L611.293 167.81L609.145 189.567C609.145 189.567 569.483 199.452 548.8 206.626C548.8 206.626 528.583 145.507 594.169 127.567C641.532 114.647 700.44 154.527 683.31 238.221L667.76 262.671L656.45 259.833L652.83 249.514L652.5 241.985C652.5 241.985 655.89 234.368 656.21 225.483C656.21 225.483 677.82 224.241 678.68 208.336C680.04 183.237 649.97 192.725 649.97 192.725Z" fill="#000045"/>
<path fill-rule="evenodd" clip-rule="evenodd" d="M675.21 291.219C675.21 291.219 671.55 276.27 666.55 275.345C661.56 274.465 599.696 291.219 599.696 291.219C599.696 291.219 593.901 291.96 596.646 300.892C596.646 300.892 580.605 304.409 572.519 307.371L568.09 609.5C568.09 609.5 634.583 616.3 700.05 602.32L694.9 294.968L675.21 291.219Z" fill="white"/>
<path fill-rule="evenodd" clip-rule="evenodd" d="M676.46 289.877C675.86 287.656 674.22 282.195 671.96 278.4C670.49 275.901 668.67 274.142 666.83 273.818C665.77 273.633 662.27 274.142 657.37 275.16C639.414 278.863 601.278 289.183 599.367 289.692C598.798 289.785 596.433 290.386 595.146 292.932C594.429 294.367 594.017 296.496 594.73 299.735C590.467 300.707 578.596 303.53 571.992 305.891C571.385 306.122 570.978 306.678 570.969 307.326L566.535 609.5C566.526 610.28 567.132 610.98 567.933 611.07C567.933 611.07 634.666 617.87 700.37 603.85C701.1 603.71 701.61 603.06 701.6 602.32L696.46 294.968C696.44 294.228 695.92 293.58 695.2 293.441L676.46 289.877ZM673.7 291.59C673.85 292.192 674.32 292.608 674.92 292.747L693.37 296.264C693.37 296.264 698.11 579.64 698.47 601.07C639.238 613.48 579.517 608.99 569.664 608.11C569.664 608.11 573.769 328.106 574.056 308.483C582.331 305.659 596.984 302.373 596.984 302.373C597.405 302.281 597.77 302.049 597.988 301.679C598.205 301.263 598.261 300.846 598.131 300.429C597.21 297.421 597.321 295.524 597.923 294.32C598.608 292.978 599.899 292.747 599.899 292.747C599.969 292.747 600.038 292.747 600.103 292.7C600.103 292.7 639.636 282.01 658 278.168C662.3 277.289 665.35 276.734 666.28 276.873C666.75 276.965 667.18 277.289 667.61 277.706C668.21 278.307 668.77 279.094 669.29 279.973C671.98 284.509 673.7 291.59 673.7 291.59Z" fill="#000045"/>
<path fill-rule="evenodd" clip-rule="evenodd" d="M581.891 304.502C580.285 304.78 549.513 314.407 544.366 317.508L508.364 467.412V642.49C535.369 645.46 562.495 646.2 589.94 640.88C585.51 535.03 582.299 424.787 581.891 304.502Z" fill="#004461"/>
<path fill-rule="evenodd" clip-rule="evenodd" d="M681.98 292.515C686.06 428.073 684.62 535.77 681.98 637.4C709.79 638.75 737.171 635.46 764.051 626.67L733.69 307.742C718.44 300.475 700.8 295.847 681.98 292.515Z" fill="#004461"/>
<path fill-rule="evenodd" clip-rule="evenodd" d="M608.548 306.919C608.548 306.919 650.19 299.615 666.69 298.969C667.58 298.919 668.23 298.224 668.18 297.379C668.18 296.484 667.43 295.838 666.59 295.888C649.99 296.484 608.001 303.839 608.001 303.839C607.156 303.988 606.609 304.783 606.758 305.628C606.907 306.472 607.703 307.068 608.548 306.919Z" fill="#000045"/>
<path fill-rule="evenodd" clip-rule="evenodd" d="M411.178 209.996L418.773 257.944C418.907 258.823 419.703 259.378 420.55 259.24C421.397 259.101 421.976 258.314 421.841 257.481L414.242 209.487C414.108 208.654 413.312 208.099 412.465 208.191C411.618 208.33 411.039 209.163 411.178 209.996Z" fill="#DCDCE4"/>
<path fill-rule="evenodd" clip-rule="evenodd" d="M359.772 245.262L387.175 270.67C387.804 271.226 388.787 271.179 389.37 270.578C389.952 269.93 389.916 268.958 389.287 268.356L361.883 242.994C361.255 242.393 360.272 242.439 359.69 243.04C359.107 243.688 359.143 244.66 359.772 245.262Z" fill="#DCDCE4"/>
<path fill-rule="evenodd" clip-rule="evenodd" d="M464.828 229.48L454.664 257.156C454.368 257.989 454.78 258.869 455.585 259.146C456.391 259.47 457.284 259.054 457.58 258.267L467.743 230.544C468.035 229.711 467.623 228.832 466.818 228.554C466.012 228.231 465.119 228.647 464.828 229.48Z" fill="#DCDCE4"/>
<path fill-rule="evenodd" clip-rule="evenodd" d="M301.338 614L383.351 642.04C384.163 642.32 385.046 641.86 385.323 641.07C385.6 640.24 385.167 639.36 384.356 639.08L302.342 611.08C301.531 610.8 300.648 611.22 300.37 612.05C300.093 612.84 300.527 613.72 301.338 614Z" fill="#A3C9D9"/>
<path fill-rule="evenodd" clip-rule="evenodd" d="M1039.18 399.382L995.32 457.881C994.8 458.576 994.94 459.548 995.63 460.057C996.32 460.566 997.29 460.427 997.8 459.779L1041.66 401.28C1042.18 400.585 1042.04 399.613 1041.35 399.104C1040.66 398.595 1039.69 398.734 1039.18 399.382Z" fill="#A3C9D9"/>
<path fill-rule="evenodd" clip-rule="evenodd" d="M206.051 717.21C199.95 717.21 194.997 722.16 194.997 728.27C194.997 734.38 199.95 739.33 206.051 739.33C212.152 739.33 217.106 734.38 217.106 728.27C217.106 722.16 212.152 717.21 206.051 717.21ZM206.051 720.31C210.438 720.31 214 723.87 214 728.27C214 732.66 210.438 736.23 206.051 736.23C201.664 736.23 198.102 732.66 198.102 728.27C198.102 723.87 201.664 720.31 206.051 720.31Z" fill="#A3C9D9"/>
<path fill-rule="evenodd" clip-rule="evenodd" d="M1144.41 1040.34C1138.37 1040.34 1133.47 1045.25 1133.47 1051.26C1133.47 1057.28 1138.37 1062.18 1144.41 1062.18C1150.45 1062.18 1155.35 1057.28 1155.35 1051.26C1155.35 1045.25 1150.45 1040.34 1144.41 1040.34ZM1144.41 1043.44C1148.73 1043.44 1152.24 1046.96 1152.24 1051.26C1152.24 1055.57 1148.73 1059.08 1144.41 1059.08C1140.09 1059.08 1136.58 1055.57 1136.58 1051.26C1136.58 1046.96 1140.09 1043.44 1144.41 1043.44Z" fill="#A3C9D9"/>
<path d="M880.5 284.991C907.644 284.991 929.65 262.987 929.65 235.844C929.65 208.701 907.644 186.697 880.5 186.697C853.355 186.697 831.35 208.701 831.35 235.844C831.35 262.987 853.355 284.991 880.5 284.991Z" fill="#004461"/>
<path fill-rule="evenodd" clip-rule="evenodd" d="M903.92 228.783C903.92 227.028 903.23 225.32 901.98 224.086C900.73 222.853 899.04 222.141 897.28 222.141C888.36 222.141 872.63 222.141 863.72 222.141C861.95 222.141 860.27 222.853 859.02 224.086C857.77 225.32 857.07 227.028 857.07 228.783C857.07 236.753 857.07 250.036 857.07 258.006C857.07 259.762 857.77 261.47 859.02 262.703C860.27 263.937 861.95 264.648 863.72 264.648C872.63 264.648 888.36 264.648 897.28 264.648C899.04 264.648 900.73 263.937 901.98 262.703C903.23 261.47 903.92 259.762 903.92 258.006C903.92 250.036 903.92 236.753 903.92 228.783Z" fill="white"/>
<path fill-rule="evenodd" clip-rule="evenodd" d="M868.52 222.198C868.52 214.727 873.84 208.594 880.5 208.594C887.16 208.594 892.48 214.727 892.48 222.198C892.48 223.028 893.17 223.72 894.03 223.72C894.89 223.72 895.58 223.028 895.58 222.198C895.58 212.929 888.77 205.458 880.5 205.458C872.23 205.458 865.42 212.929 865.42 222.198C865.42 223.028 866.11 223.72 866.97 223.72C867.83 223.72 868.52 223.028 868.52 222.198Z" fill="white"/>
<path fill-rule="evenodd" clip-rule="evenodd" d="M885.521 241.055C885.521 238.262 883.27 236.027 880.5 236.027C877.72 236.027 875.48 238.262 875.48 241.055C875.48 242.557 875.48 244.268 875.48 245.769C875.48 248.563 877.72 250.797 880.5 250.797C883.27 250.797 885.521 248.563 885.521 245.769C885.521 244.268 885.521 242.557 885.521 241.055Z" fill="#000045"/>
<path d="M268.717 504.482C295.86 504.482 317.864 482.478 317.864 455.335C317.864 428.192 295.86 406.188 268.717 406.188C241.574 406.188 219.57 428.192 219.57 455.335C219.57 482.478 241.574 504.482 268.717 504.482Z" fill="#004461"/>
<path fill-rule="evenodd" clip-rule="evenodd" d="M268.717 444.838C257.495 444.838 247.552 447.805 241.383 452.329C236.95 455.55 234.426 459.603 234.426 463.945C234.426 468.252 236.95 472.305 241.383 475.526C247.552 480.049 257.495 483.017 268.717 483.017C279.94 483.017 289.883 480.049 296.052 475.526C300.485 472.305 303.009 468.252 303.009 463.945C303.009 459.603 300.485 455.55 296.052 452.329C289.883 447.805 279.94 444.838 268.717 444.838ZM268.717 447.95C279.178 447.95 288.47 450.628 294.22 454.826C297.734 457.396 299.904 460.507 299.904 463.945C299.904 467.347 297.734 470.46 294.22 473.029C288.47 477.227 279.178 479.905 268.717 479.905C258.257 479.905 248.965 477.227 243.215 473.029C239.7 470.46 237.531 467.347 237.531 463.945C237.531 460.507 239.7 457.396 243.215 454.826C248.965 450.628 258.257 447.95 268.717 447.95Z" fill="white"/>
<path d="M268.718 481.309C278.302 481.309 286.071 473.54 286.071 463.956C286.071 454.372 278.302 446.602 268.718 446.602C259.133 446.602 251.364 454.372 251.364 463.956C251.364 473.54 259.133 481.309 268.718 481.309Z" fill="white"/>
<path d="M268.717 473.991C274.272 473.991 278.774 469.489 278.774 463.935C278.774 458.381 274.272 453.878 268.717 453.878C263.163 453.878 258.661 458.381 258.661 463.935C258.661 469.489 263.163 473.991 268.717 473.991Z" fill="#000045"/>
<path d="M262.323 462.301C264.931 462.301 267.045 460.187 267.045 457.579C267.045 454.971 264.931 452.857 262.323 452.857C259.716 452.857 257.602 454.971 257.602 457.579C257.602 460.187 259.716 462.301 262.323 462.301Z" fill="white"/>
<path fill-rule="evenodd" clip-rule="evenodd" d="M268.872 438.566V429.248C268.872 428.409 268.176 427.695 267.319 427.695C266.462 427.695 265.766 428.409 265.766 429.248V438.566C265.766 439.405 266.462 440.119 267.319 440.119C268.176 440.119 268.872 439.405 268.872 438.566Z" fill="white"/>
<path fill-rule="evenodd" clip-rule="evenodd" d="M257.494 439.194L254.495 432.373C254.161 431.553 253.235 431.232 252.455 431.554C251.664 431.917 251.307 432.822 251.651 433.602L254.641 440.463C254.985 441.243 255.9 441.605 256.691 441.242C257.471 440.92 257.828 440.015 257.494 439.194Z" fill="white"/>
<path fill-rule="evenodd" clip-rule="evenodd" d="M279.998 440.463L282.987 433.602C283.331 432.822 282.974 431.917 282.184 431.554C281.404 431.232 280.478 431.553 280.144 432.373L277.144 439.194C276.81 440.015 277.167 440.92 277.948 441.242C278.738 441.605 279.654 441.243 279.998 440.463Z" fill="white"/>
<path fill-rule="evenodd" clip-rule="evenodd" d="M246.027 442.613L242.106 438.723C241.5 438.109 240.516 438.092 239.91 438.715C239.304 439.303 239.304 440.293 239.91 440.907L243.83 444.832C244.436 445.447 245.42 445.428 246.026 444.84C246.632 444.217 246.632 443.227 246.027 442.613Z" fill="white"/>
<path fill-rule="evenodd" clip-rule="evenodd" d="M290.806 444.832L294.726 440.907C295.332 440.293 295.332 439.303 294.726 438.715C294.12 438.092 293.136 438.109 292.53 438.723L288.609 442.613C288.004 443.227 288.004 444.217 288.61 444.84C289.216 445.428 290.2 445.447 290.806 444.832Z" fill="white"/>
<path fill-rule="evenodd" clip-rule="evenodd" d="M928.68 1127.72C763.57 1045.17 664.14 891.52 663.62 630.75L929.64 528.804L1195.67 630.75C1195.15 892.06 1095.33 1045.76 929.64 1128.22L928.68 1127.72Z" fill="white"/>
<path fill-rule="evenodd" clip-rule="evenodd" d="M927.98 1129.1L928.95 1129.6C929.39 1129.79 929.9 1129.79 930.34 1129.6C1096.49 1046.95 1196.7 892.8 1197.23 630.79C1197.23 630.1 1196.83 629.56 1196.23 629.31L930.2 527.323C929.85 527.225 929.45 527.225 929.09 527.323L663.06 629.31C662.46 629.56 662.06 630.1 662.06 630.79C662.59 892.26 762.4 1046.31 927.98 1129.1ZM929.37 1126.34C764.96 1044.14 665.96 891.17 665.17 631.83L929.64 530.481C942.58 535.416 1176.89 625.22 1194.12 631.83C1193.32 891.32 1094.21 1044.28 929.65 1126.44L929.37 1126.34Z" fill="#3D61FF"/>
<path fill-rule="evenodd" clip-rule="evenodd" d="M928.93 1050.65C806.34 989.36 732.53 875.29 732.14 681.68L929.65 605.99L1127.16 681.68C1126.77 875.69 1052.66 989.8 929.65 1051.02L928.93 1050.65Z" fill="#004461"/>
<path fill-rule="evenodd" clip-rule="evenodd" d="M827.81 826.87L898.19 885.51C908.37 893.98 923.41 893.01 932.38 883.24L1033.87 772.91C1043.15 762.82 1042.49 747.08 1032.4 737.78C1022.3 728.53 1006.57 729.17 997.29 739.26L911.82 832.2L859.62 788.69C849.08 779.94 833.4 781.38 824.62 791.88C815.85 802.44 817.27 818.13 827.81 826.87Z" fill="white"/>
<path fill-rule="evenodd" clip-rule="evenodd" d="M653.23 586.43C653.23 586.43 614.561 616.12 603.131 654.93C602.406 657.52 603.53 660.23 605.857 661.55C605.849 661.59 605.849 661.59 605.849 661.59C607.268 662.39 608.942 662.59 610.508 662.15C612.074 661.71 613.397 660.63 614.186 659.24C618.793 650.71 628.07 634.53 635.224 627.48C635.224 627.48 632.57 635.61 631.203 643.54C630.147 649.67 637.555 666.61 640.954 673.98C641.608 675.38 642.811 676.45 644.286 676.93C645.756 677.41 647.362 677.25 648.72 676.53C649.56 676.06 650.41 675.42 651.22 674.54C651.22 674.54 656.46 677.13 660.93 672.99C660.93 672.99 662.96 673.7 665.14 673.35C667.16 672.99 668.64 671.23 668.64 669.2C668.65 663.86 668.65 650.63 668.65 650.63V641.22L680.12 631.38L661.8 586.43H653.23Z" fill="white"/>
<path fill-rule="evenodd" clip-rule="evenodd" d="M653.23 584.88C652.89 584.88 652.56 584.99 652.28 585.19C652.28 585.19 613.198 615.24 601.641 654.5L601.637 654.54C600.812 657.44 601.872 660.51 604.223 662.35C604.45 662.86 605.088 662.94 605.088 662.94C606.865 663.94 608.966 664.18 610.93 663.62C612.891 663.06 614.553 661.75 615.541 660C615.545 660 615.549 659.96 615.549 659.96C619.172 653.3 625.687 641.78 631.761 633.85C631.031 636.64 630.242 639.99 629.672 643.26C629.33 645.25 629.76 648.32 630.701 651.83C632.753 659.48 637.141 669.44 639.544 674.62C640.381 676.41 641.919 677.81 643.8 678.41C645.681 679.04 647.733 678.84 649.47 677.89C650.18 677.49 650.91 676.97 651.61 676.33C653.5 676.93 657.56 677.69 661.32 674.7C662.25 674.9 663.79 675.14 665.39 674.86H665.4C668.16 674.42 670.19 672.03 670.19 669.2C670.2 663.9 670.2 650.63 670.2 650.63V641.94L681.13 632.58C681.64 632.14 681.81 631.42 681.56 630.82L663.23 585.83C663 585.23 662.43 584.88 661.8 584.88H653.23ZM607.284 660.55L606.734 660.27C606.698 660.27 606.662 660.23 606.622 660.19C604.921 659.24 604.096 657.25 604.622 655.37C615.238 619.35 649.62 591.25 653.77 587.98H660.75L678.26 630.94L667.64 640.03C667.29 640.35 667.1 640.79 667.1 641.23V650.63C667.1 650.63 667.1 663.86 667.08 669.2C667.08 670.48 666.16 671.59 664.89 671.79C663.11 672.11 661.44 671.51 661.44 671.51C660.9 671.31 660.29 671.47 659.87 671.83C656.21 675.26 651.92 673.15 651.92 673.15C651.3 672.83 650.55 672.95 650.08 673.47C649.39 674.22 648.68 674.78 647.972 675.18C646.988 675.7 645.832 675.82 644.768 675.46C643.704 675.1 642.835 674.34 642.361 673.31C640.01 668.24 635.71 658.48 633.701 651.03C632.904 648.04 632.442 645.49 632.733 643.82C634.08 636 636.702 627.95 636.702 627.95C636.921 627.28 636.65 626.52 636.041 626.16C635.431 625.76 634.646 625.88 634.136 626.36C626.895 633.49 617.49 649.87 612.823 658.48C612.233 659.52 611.249 660.31 610.085 660.63C609.157 660.91 608.177 660.87 607.284 660.55ZM606.734 660.27L606.758 660.31H606.786C606.949 660.39 607.113 660.47 607.284 660.55H607.288C607.591 660.83 607.766 661.35 607.212 662.35C607.603 661.63 607.407 660.79 606.786 660.31C606.726 660.27 606.67 660.27 606.614 660.23L606.734 660.27Z" fill="#000045"/>
<path fill-rule="evenodd" clip-rule="evenodd" d="M733.69 307.741C733.69 307.741 699.15 339.861 704.78 401.878L749.73 508.833C749.73 508.833 689.34 546.275 679.8 554.143C670.27 561.96 668.78 570.9 668.78 570.9L651.01 586.35L679.8 634.53C679.8 634.53 804.7 585.66 815.04 570.9C825.37 556.18 835.64 523.366 815.04 465.098C763.28 318.802 733.69 307.741 733.69 307.741Z" fill="#004461"/>
<path fill-rule="evenodd" clip-rule="evenodd" d="M703.35 402.48L747.78 508.186C739.47 513.37 687.6 545.72 678.82 552.94C670.24 559.975 667.88 567.94 667.37 570.06L649.99 585.15C649.42 585.66 649.3 586.49 649.68 587.14L678.47 635.32C678.91 636.06 679.86 636.29 680.6 635.88C681.34 635.41 681.58 634.49 681.14 633.75L653.01 586.63L669.8 572.1C670.08 571.87 670.26 571.55 670.32 571.17C670.32 571.17 671.77 562.75 680.79 555.347C690.3 547.479 750.55 510.13 750.55 510.13C751.2 509.714 751.46 508.927 751.16 508.232L706.22 401.276C705.88 400.49 704.97 400.12 704.18 400.443C703.39 400.767 703.02 401.693 703.35 402.48Z" fill="#000045"/>
<path fill-rule="evenodd" clip-rule="evenodd" d="M643.73 640.6V650.15C643.73 650.25 643.779 650.39 643.779 650.49L649.69 674.89C649.89 675.74 650.741 676.28 651.581 676.04C652.431 675.84 652.92 675.04 652.72 674.2L646.86 649.95V640.6C646.86 639.76 646.165 639.06 645.32 639.06C644.425 639.06 643.73 639.76 643.73 640.6Z" fill="#000045"/>
<path fill-rule="evenodd" clip-rule="evenodd" d="M656.05 640.6V650.15C656.05 650.2 656.05 650.29 656.1 650.34L659.38 673.25C659.53 674.1 660.33 674.64 661.17 674.54C662.02 674.45 662.61 673.65 662.46 672.81L659.18 650.05V640.6C659.18 639.76 658.49 639.06 657.64 639.06C656.75 639.06 656.05 639.76 656.05 640.6Z" fill="#000045"/>
<path fill-rule="evenodd" clip-rule="evenodd" d="M672.45 578.29C672.45 578.29 684.38 597.77 694.27 619.73C694.62 620.53 695.51 620.88 696.31 620.53C697.1 620.13 697.45 619.24 697.1 618.44C687.11 596.28 675.09 576.65 675.09 576.65C674.64 575.91 673.7 575.71 672.95 576.15C672.2 576.6 671.96 577.54 672.45 578.29Z" fill="#000045"/>
<path fill-rule="evenodd" clip-rule="evenodd" d="M749.97 510.311C749.97 510.311 767.41 507.28 778.69 519.256C779.29 519.902 780.23 519.902 780.88 519.355C781.53 518.759 781.53 517.765 780.93 517.119C768.61 503.95 749.43 507.28 749.43 507.28C748.58 507.429 748.03 508.224 748.18 509.069C748.33 509.914 749.13 510.46 749.97 510.311Z" fill="#000045"/>
<path fill-rule="evenodd" clip-rule="evenodd" d="M389.872 339.306C389.872 339.306 384.898 341.528 384.241 358.559C383.584 375.544 400.471 417.845 400.471 417.845C400.471 417.845 417.745 431.868 442.565 414.282L438.597 379.941L389.872 339.306Z" fill="white"/>
<path fill-rule="evenodd" clip-rule="evenodd" d="M390.866 338.148C390.412 337.732 389.783 337.639 389.243 337.917C389.243 337.917 383.398 340.138 382.689 358.466C382.025 375.682 399.029 418.4 399.029 418.4C399.127 418.631 399.287 418.863 399.492 419.048C399.492 419.048 417.544 433.904 443.464 415.53C443.928 415.206 444.175 414.651 444.109 414.096L440.137 379.755C440.092 379.339 439.895 378.968 439.591 378.737L390.866 338.148ZM389.92 341.388L437.123 380.727L440.918 413.54C419.45 428.258 404.064 418.493 401.752 416.873C400.035 412.522 385.18 374.479 385.793 358.604C386.078 351.246 387.179 346.71 388.332 344.026C388.86 342.776 389.471 341.897 389.92 341.388Z" fill="#000045"/>
<path fill-rule="evenodd" clip-rule="evenodd" d="M446.613 298.378C445.784 295.094 442.513 293.064 439.225 293.798C427.213 296.477 399.995 302.483 387.478 305.291C385.791 305.637 384.335 306.717 383.458 308.186C382.581 309.699 382.36 311.47 382.85 313.112C388.393 331.864 404.525 386.436 409.748 404.108C410.677 407.262 413.888 409.163 417.085 408.429C428.371 405.923 453.509 400.262 465.24 397.627C466.882 397.281 468.308 396.244 469.185 394.818C470.067 393.392 470.33 391.664 469.915 390.022C465.193 371.442 451.215 316.482 446.613 298.378Z" fill="#004461"/>
<path fill-rule="evenodd" clip-rule="evenodd" d="M397.083 361.288C397.083 361.288 417.718 343.008 437.434 323.153C438.526 322.088 440.03 321.487 441.58 321.533C443.131 321.579 444.584 322.319 445.588 323.476C447.06 325.235 447.199 327.734 445.935 329.586C440.997 337.037 428.635 355.226 421.989 361.288C421.989 361.288 437.461 348.931 447.407 342.082C448.513 341.341 449.855 341.11 451.137 341.434C452.415 341.712 453.526 342.498 454.201 343.655C454.257 343.702 454.312 343.794 454.363 343.887C455.488 345.738 455.247 348.144 453.771 349.718C448.101 355.873 434.231 370.823 428.603 375.358C428.603 375.358 443.469 363.371 451.397 356.984C452.554 356.059 454.081 355.735 455.53 356.059C456.974 356.429 458.177 357.401 458.783 358.789C459.468 360.317 459.204 362.075 458.103 363.371C452.41 369.943 435.175 389.798 435.175 389.798C442.631 384.707 448.666 380.171 456.145 373.553C457.001 372.812 458.168 372.535 459.269 372.813C460.371 373.09 461.264 373.923 461.657 374.988C462.301 376.747 462.046 378.69 460.968 380.218C457.409 385.123 448.8 396.323 439.16 403.497" fill="white"/>
<path fill-rule="evenodd" clip-rule="evenodd" d="M444.413 324.495C445.426 325.699 445.523 327.411 444.644 328.753C439.752 336.112 427.525 354.162 420.943 360.132C420.323 360.687 420.263 361.659 420.805 362.307C421.351 362.955 422.304 363.048 422.957 362.493C422.957 362.493 438.354 350.228 448.268 343.378C449.018 342.869 449.925 342.73 450.79 342.915C451.66 343.147 452.41 343.656 452.873 344.443L453.035 344.72C453.799 345.97 453.637 347.59 452.632 348.654C452.632 348.654 452.632 348.654 452.628 348.654C446.995 354.81 433.222 369.62 427.631 374.109C426.96 374.664 426.854 375.636 427.39 376.33C427.927 376.978 428.904 377.071 429.575 376.562C429.575 376.562 444.44 364.575 452.368 358.188C453.155 357.586 454.187 357.355 455.164 357.586C456.14 357.818 456.955 358.512 457.367 359.392C457.802 360.41 457.635 361.52 456.932 362.353L434.004 388.78C433.49 389.382 433.495 390.261 434.013 390.816C434.536 391.418 435.406 391.511 436.05 391.094C443.561 385.957 449.638 381.375 457.168 374.757C457.64 374.341 458.283 374.155 458.885 374.34C459.491 374.479 459.982 374.942 460.199 375.497L460.213 375.544C460.662 376.793 460.477 378.228 459.704 379.293C456.191 384.152 447.726 395.213 438.234 402.248C437.545 402.757 437.401 403.729 437.915 404.423C438.424 405.117 439.4 405.256 440.085 404.747C449.869 397.481 458.612 386.096 462.226 381.144C462.226 381.144 462.231 381.097 462.236 381.097C463.606 379.153 463.934 376.655 463.115 374.433L463.078 374.34C462.49 372.859 461.217 371.702 459.653 371.332C458.056 370.916 456.358 371.332 455.122 372.396H455.118C451.568 375.544 448.342 378.182 445.135 380.681L459.278 364.39C460.773 362.678 461.134 360.225 460.204 358.142C459.399 356.337 457.806 355.041 455.89 354.578C453.979 354.115 451.957 354.532 450.42 355.782L449.818 356.291C451.822 354.115 453.59 352.218 454.918 350.783C456.858 348.654 457.172 345.553 455.691 343.101C455.636 343.008 455.576 342.916 455.516 342.823C454.618 341.342 453.164 340.277 451.484 339.907C449.795 339.537 448.023 339.815 446.565 340.786C446.551 340.786 446.542 340.786 446.528 340.786C442.455 343.61 437.461 347.312 432.972 350.737C438.512 343.424 444.232 334.955 447.231 330.466C448.879 328.013 448.694 324.727 446.773 322.459H446.741C445.459 320.932 443.607 320.052 441.64 320.006C439.655 319.913 437.73 320.654 436.332 322.089C416.649 341.897 396.053 360.132 396.053 360.132C395.411 360.687 395.352 361.659 395.92 362.307C396.488 362.955 397.47 363.001 398.112 362.446C398.112 362.446 418.782 344.165 438.535 324.264C438.54 324.264 438.54 324.264 438.54 324.264C439.322 323.477 440.405 323.061 441.52 323.107C442.635 323.153 443.681 323.662 444.403 324.495H444.413ZM461.315 376.469C461.416 376.515 461.615 376.562 462 376.469C461.768 376.562 461.532 376.515 461.315 376.469ZM461.134 376.423H461.139H461.129H461.134ZM461.065 376.423H461.079H461.051H461.065ZM460.995 376.377H461.018H460.986H460.995ZM460.935 376.33L460.949 376.377L460.93 376.33H460.935ZM460.283 375.683C460.361 375.868 460.472 376.007 460.63 376.146C460.491 376.007 460.37 375.868 460.283 375.683ZM445.051 324.958H445.056C445.223 325.004 445.431 325.051 445.699 325.051C445.477 325.051 445.255 325.004 445.051 324.958ZM444.954 324.912H444.982H444.95H444.954ZM444.491 324.588C444.616 324.727 444.76 324.819 444.94 324.912C444.774 324.819 444.626 324.727 444.491 324.588Z" fill="#000045"/>
<path fill-rule="evenodd" clip-rule="evenodd" d="M546.588 316.72C546.588 316.72 535.198 317.831 515.561 355.458C495.924 393.038 471.496 440.986 471.496 440.986L502.639 554.143C502.639 554.143 540.294 486.758 553.1 456.073C565.91 425.342 546.588 316.72 546.588 316.72Z" fill="#004461"/>
<path fill-rule="evenodd" clip-rule="evenodd" d="M469.997 441.402L501.145 554.56C501.311 555.161 501.83 555.577 502.454 555.67C503.079 555.763 503.69 555.439 503.995 554.883C503.995 554.883 541.705 487.405 554.535 456.675C554.863 455.888 554.493 454.962 553.702 454.638C552.91 454.314 551.998 454.684 551.67 455.471C540.581 482.037 510.836 536.14 503.13 550.07L472.992 440.568C472.765 439.735 471.909 439.227 471.085 439.458C470.256 439.689 469.77 440.569 469.997 441.402Z" fill="#000045"/>
<path fill-rule="evenodd" clip-rule="evenodd" d="M398.871 413.68C398.871 413.68 395.39 414.42 395.947 420.668C396.503 426.916 401.087 438.486 401.087 438.486C401.087 438.486 398.732 441.68 399.777 449.594C400.821 457.508 438.623 541.509 458.316 558.355C478.013 575.2 499.062 566.55 507.272 545.073C515.483 523.644 475.209 436.728 462.092 426.222C456.367 421.64 452.762 424.602 452.762 424.602C452.762 424.602 445.885 405.719 439.211 407.941L398.871 413.68Z" fill="#004461"/>
<path fill-rule="evenodd" clip-rule="evenodd" d="M398.651 412.152C398.62 412.152 398.59 412.152 398.559 412.198C398.559 412.198 397.214 412.383 396.008 413.818C395.048 414.975 394.066 417.058 394.4 420.807C394.886 426.268 398.366 435.709 399.371 438.347C398.641 439.828 397.393 443.392 398.237 449.779C398.764 453.759 408.512 476.992 420.665 501.29C432.814 525.634 447.37 551.042 457.306 559.511C467.65 568.35 478.374 570.43 487.565 567.56C496.724 564.7 504.43 556.873 508.725 545.627C510.104 542.017 510.243 536.649 509.336 530.123C508.04 520.728 504.629 508.834 500.154 496.477C492.355 474.91 481.326 451.769 472.695 437.699C468.891 431.452 465.503 426.962 463.059 425.018C459.736 422.334 456.996 421.964 455.117 422.149C454.534 422.241 454.025 422.334 453.585 422.473C452.382 419.557 449.577 413.263 446.236 409.514C443.95 406.969 441.349 405.673 438.863 406.413C438.868 406.413 398.651 412.152 398.651 412.152ZM399.214 415.207L439.428 409.468C439.521 409.468 439.608 409.421 439.696 409.421C440.307 409.19 440.918 409.329 441.52 409.607C442.348 410.023 443.149 410.764 443.926 411.597C448.078 416.225 451.299 425.157 451.299 425.157C451.475 425.62 451.864 425.99 452.35 426.129C452.836 426.268 453.359 426.129 453.747 425.805C453.747 425.805 456.557 423.769 461.12 427.425C463.397 429.276 466.498 433.488 470.048 439.319C478.591 453.25 489.509 476.159 497.233 497.541C501.625 509.667 504.985 521.33 506.263 530.54C507.077 536.417 507.068 541.277 505.823 544.517C501.908 554.791 494.984 562.01 486.64 564.6C478.327 567.19 468.678 565.16 459.329 557.151C449.568 548.821 435.378 523.782 423.442 499.901C411.511 476.066 401.833 453.296 401.316 449.362C400.379 442.281 402.336 439.412 402.336 439.412C402.654 438.949 402.728 438.394 402.531 437.931C402.531 437.931 398.036 426.592 397.493 420.529C397.138 416.549 399.022 415.345 399.214 415.207Z" fill="#000045"/>
<path d="M393.578 318.428C395.653 318.428 397.334 316.747 397.334 314.672C397.334 312.597 395.653 310.915 393.578 310.915C391.504 310.915 389.822 312.597 389.822 314.672C389.822 316.747 391.504 318.428 393.578 318.428Z" fill="white"/>
<path fill-rule="evenodd" clip-rule="evenodd" d="M398.199 362.376C397.951 362.526 397.752 362.675 397.503 362.774L397.057 363.072L405.454 408.59L414.051 409.435L437.556 404.913C437.556 404.863 437.705 404.366 437.606 403.82C437.506 403.174 437.755 402.627 438.103 402.279C438.202 402.18 438.252 402.081 438.302 401.981C439.146 400.838 432.835 394.478 432.835 394.478L398.199 362.376Z" fill="white"/>
<path fill-rule="evenodd" clip-rule="evenodd" d="M408.884 438.207C408.884 438.207 429.804 437.81 445.954 431.449C446.749 431.151 447.147 430.257 446.849 429.462C446.551 428.667 445.607 428.269 444.812 428.567C429.158 434.729 408.785 435.126 408.785 435.126C407.94 435.126 407.244 435.822 407.294 436.717C407.294 437.561 407.989 438.257 408.884 438.207Z" fill="#000045"/>
</svg>
