<svg width="347" height="107" viewBox="0 0 347 107" fill="none" xmlns="http://www.w3.org/2000/svg">
<path d="M15.96 75L1.08 0.599999H14.16L22.44 48.6L22.56 51.12H22.68V48.6L30.24 3.96H40.08L47.28 48.6L47.4 51.12H47.52L47.64 48.6L55.2 0.599999H68.76L54.12 75H41.76L35.52 34.2L35.4 31.8H35.28L35.16 34.2L28.32 75H15.96ZM89.3625 75.6C84.0825 75.6 80.0825 74.96 77.3625 73.68C74.7225 72.4 72.9225 70.68 71.9625 68.52C71.0025 66.36 70.5225 64 70.5225 61.44V32.04C70.5225 29.4 71.0025 27.04 71.9625 24.96C72.9225 22.8 74.7625 21.08 77.4825 19.8C80.2825 18.52 84.3625 17.88 89.7225 17.88C94.5225 17.88 98.3225 18.52 101.123 19.8C103.923 21 105.883 22.64 107.003 24.72C108.203 26.8 108.803 29.16 108.803 31.8V43.08L96.0825 43.92V34.2C96.0825 32.52 95.5625 31.04 94.5225 29.76C93.5625 28.4 91.9225 27.72 89.6025 27.72C87.3625 27.72 85.7225 28.36 84.6825 29.64C83.7225 30.92 83.2425 32.44 83.2425 34.2V59.04C83.2425 60.72 83.7225 62.16 84.6825 63.36C85.6425 64.56 87.1625 65.16 89.2425 65.16C91.7225 65.16 93.4825 64.56 94.5225 63.36C95.5625 62.08 96.0825 60.52 96.0825 58.68V54.72L108.803 53.76V60.96C108.803 63.76 108.203 66.28 107.003 68.52C105.803 70.68 103.803 72.4 101.003 73.68C98.2025 74.96 94.3225 75.6 89.3625 75.6ZM71.9625 49.08V42.24H108.803V49.08H71.9625ZM117.534 0.239997H130.254V75H117.534V0.239997ZM157.8 75.6C152.52 75.6 148.52 74.96 145.8 73.68C143.16 72.4 141.36 70.68 140.4 68.52C139.44 66.36 138.96 64 138.96 61.44V32.04C138.96 29.4 139.44 27.04 140.4 24.96C141.36 22.8 143.2 21.08 145.92 19.8C148.72 18.52 152.8 17.88 158.16 17.88C162.96 17.88 166.76 18.52 169.56 19.8C172.36 21 174.32 22.64 175.44 24.72C176.64 26.8 177.24 29.16 177.24 31.8V40.68L164.52 41.76V34.2C164.52 32.52 164 31.04 162.96 29.76C162 28.4 160.36 27.72 158.04 27.72C155.8 27.72 154.16 28.36 153.12 29.64C152.16 30.92 151.68 32.44 151.68 34.2V59.04C151.68 60.72 152.16 62.16 153.12 63.36C154.08 64.56 155.6 65.16 157.68 65.16C160.16 65.16 161.92 64.56 162.96 63.36C164 62.08 164.52 60.52 164.52 58.68V52.08L177.24 51.12V60.96C177.24 63.76 176.64 66.28 175.44 68.52C174.24 70.68 172.24 72.4 169.44 73.68C166.64 74.96 162.76 75.6 157.8 75.6ZM203.503 75.6C198.223 75.6 194.223 74.96 191.503 73.68C188.863 72.4 187.063 70.68 186.103 68.52C185.143 66.36 184.663 64 184.663 61.44V32.04C184.663 29.4 185.143 27.04 186.103 24.96C187.063 22.8 188.903 21.08 191.623 19.8C194.423 18.52 198.503 17.88 203.863 17.88C208.663 17.88 212.463 18.52 215.263 19.8C218.063 21 220.023 22.64 221.143 24.72C222.343 26.8 222.943 29.16 222.943 31.8V60.96C222.943 63.76 222.343 66.28 221.143 68.52C219.943 70.68 217.943 72.4 215.143 73.68C212.343 74.96 208.463 75.6 203.503 75.6ZM203.383 65.16C205.863 65.16 207.623 64.56 208.663 63.36C209.703 62.08 210.223 60.52 210.223 58.68V34.2C210.223 32.52 209.703 31.04 208.663 29.76C207.703 28.4 206.063 27.72 203.743 27.72C201.503 27.72 199.863 28.36 198.823 29.64C197.863 30.92 197.383 32.44 197.383 34.2V59.04C197.383 60.72 197.863 62.16 198.823 63.36C199.783 64.56 201.303 65.16 203.383 65.16ZM231.675 75V18.48H242.115L243.315 24.36C244.515 22.2 246.235 20.56 248.475 19.44C250.795 18.24 253.515 17.64 256.635 17.64C259.835 17.64 262.355 18.12 264.195 19.08C266.035 20.04 267.355 21.28 268.155 22.8C269.035 24.24 269.555 25.8 269.715 27.48L267.075 29.88C267.715 26.44 268.835 23.88 270.435 22.2C272.035 20.44 273.875 19.24 275.955 18.6C278.115 17.96 280.195 17.64 282.195 17.64C285.955 17.64 288.755 18.32 290.595 19.68C292.515 20.96 293.795 22.56 294.435 24.48C295.075 26.32 295.395 28.12 295.395 29.88V75H282.675V34.56C282.675 32.16 282.115 30.44 280.995 29.4C279.955 28.36 278.435 27.84 276.435 27.84C274.515 27.84 272.955 28.36 271.755 29.4C270.555 30.44 269.955 32.16 269.955 34.56V75H257.235V34.08C257.235 31.92 256.675 30.36 255.555 29.4C254.515 28.36 252.915 27.84 250.755 27.84C248.995 27.84 247.595 28.28 246.555 29.16C245.595 30.04 244.875 31.24 244.395 32.76V75H231.675ZM322.683 75.6C317.403 75.6 313.403 74.96 310.683 73.68C308.043 72.4 306.243 70.68 305.283 68.52C304.323 66.36 303.843 64 303.843 61.44V32.04C303.843 29.4 304.323 27.04 305.283 24.96C306.243 22.8 308.083 21.08 310.803 19.8C313.603 18.52 317.683 17.88 323.043 17.88C327.843 17.88 331.643 18.52 334.443 19.8C337.243 21 339.203 22.64 340.323 24.72C341.523 26.8 342.123 29.16 342.123 31.8V43.08L329.403 43.92V34.2C329.403 32.52 328.883 31.04 327.843 29.76C326.883 28.4 325.243 27.72 322.923 27.72C320.683 27.72 319.043 28.36 318.003 29.64C317.043 30.92 316.563 32.44 316.563 34.2V59.04C316.563 60.72 317.043 62.16 318.003 63.36C318.963 64.56 320.483 65.16 322.563 65.16C325.043 65.16 326.803 64.56 327.843 63.36C328.883 62.08 329.403 60.52 329.403 58.68V54.72L342.123 53.76V60.96C342.123 63.76 341.523 66.28 340.323 68.52C339.123 70.68 337.123 72.4 334.323 73.68C331.523 74.96 327.643 75.6 322.683 75.6ZM305.283 49.08V42.24H342.123V49.08H305.283Z" fill="#2B3467"/>
<path d="M98.516 101.18C97.436 101.18 96.494 100.934 95.69 100.442C94.898 99.938 94.286 99.23 93.854 98.318C93.422 97.406 93.206 96.32 93.206 95.06C93.206 93.8 93.434 92.714 93.89 91.802C94.346 90.89 94.976 90.188 95.78 89.696C96.596 89.192 97.538 88.94 98.606 88.94C99.746 88.94 100.676 89.168 101.396 89.624C102.128 90.08 102.704 90.776 103.124 91.712L101.936 92.36C101.684 91.628 101.276 91.076 100.712 90.704C100.148 90.332 99.446 90.146 98.606 90.146C97.814 90.146 97.112 90.344 96.5 90.74C95.9 91.136 95.426 91.7 95.078 92.432C94.73 93.164 94.556 94.04 94.556 95.06C94.556 96.08 94.712 96.956 95.024 97.688C95.336 98.42 95.786 98.984 96.374 99.38C96.974 99.776 97.706 99.974 98.57 99.974C99.086 99.974 99.554 99.902 99.974 99.758C100.394 99.602 100.754 99.386 101.054 99.11C101.366 98.822 101.606 98.48 101.774 98.084C101.942 97.688 102.026 97.244 102.026 96.752V96.266H98.336V95.06H103.214V101H102.188L102.116 98.696L102.386 98.732C102.086 99.5 101.612 100.1 100.964 100.532C100.316 100.964 99.5 101.18 98.516 101.18ZM109.824 101.18C109.008 101.18 108.282 100.994 107.646 100.622C107.022 100.25 106.53 99.716 106.17 99.02C105.81 98.312 105.63 97.472 105.63 96.5C105.63 95.528 105.804 94.694 106.152 93.998C106.512 93.29 106.998 92.75 107.61 92.378C108.234 92.006 108.942 91.82 109.734 91.82C110.538 91.82 111.222 92 111.786 92.36C112.35 92.72 112.782 93.212 113.082 93.836C113.382 94.46 113.532 95.168 113.532 95.96C113.532 96.152 113.526 96.32 113.514 96.464C113.502 96.608 113.49 96.734 113.478 96.842H106.476V95.69H112.902L112.236 95.834C112.236 95.222 112.128 94.706 111.912 94.286C111.708 93.854 111.414 93.524 111.03 93.296C110.658 93.068 110.22 92.954 109.716 92.954C109.14 92.954 108.636 93.098 108.204 93.386C107.784 93.674 107.46 94.082 107.232 94.61C107.004 95.138 106.89 95.768 106.89 96.5C106.89 97.232 107.01 97.862 107.25 98.39C107.49 98.918 107.826 99.326 108.258 99.614C108.702 99.902 109.218 100.046 109.806 100.046C110.43 100.046 110.946 99.914 111.354 99.65C111.774 99.374 112.104 99.014 112.344 98.57L113.37 99.164C113.154 99.572 112.872 99.932 112.524 100.244C112.188 100.544 111.792 100.778 111.336 100.946C110.88 101.102 110.376 101.18 109.824 101.18ZM117.817 89.462V98.534C117.817 99.014 117.937 99.374 118.177 99.614C118.417 99.854 118.735 99.974 119.131 99.974C119.467 99.974 119.749 99.914 119.977 99.794C120.217 99.674 120.433 99.512 120.625 99.308L121.057 100.388C120.793 100.64 120.487 100.838 120.139 100.982C119.791 101.114 119.395 101.18 118.951 101.18C118.279 101.18 117.703 100.994 117.223 100.622C116.755 100.25 116.521 99.632 116.521 98.768V89.822L117.817 89.462ZM120.913 92V93.116H114.829V92H120.913ZM131.994 101.18C131.154 101.18 130.386 100.994 129.69 100.622C128.994 100.25 128.466 99.722 128.106 99.038L129.186 98.246C129.426 98.822 129.792 99.266 130.284 99.578C130.788 99.89 131.388 100.046 132.084 100.046C132.708 100.046 133.2 99.914 133.56 99.65C133.932 99.386 134.118 99.038 134.118 98.606C134.118 98.33 134.034 98.084 133.866 97.868C133.698 97.64 133.38 97.472 132.912 97.364L130.896 96.914C130.056 96.722 129.456 96.422 129.096 96.014C128.736 95.606 128.556 95.096 128.556 94.484C128.556 94.004 128.688 93.566 128.952 93.17C129.228 92.762 129.618 92.438 130.122 92.198C130.626 91.946 131.214 91.82 131.886 91.82C132.726 91.82 133.434 92 134.01 92.36C134.598 92.708 135.03 93.206 135.306 93.854L134.244 94.556C134.052 93.992 133.734 93.584 133.29 93.332C132.846 93.08 132.378 92.954 131.886 92.954C131.466 92.954 131.1 93.02 130.788 93.152C130.476 93.272 130.236 93.446 130.068 93.674C129.912 93.89 129.834 94.142 129.834 94.43C129.834 94.706 129.924 94.964 130.104 95.204C130.296 95.444 130.638 95.618 131.13 95.726L133.236 96.194C134.04 96.374 134.604 96.65 134.928 97.022C135.252 97.394 135.414 97.862 135.414 98.426C135.414 99.266 135.096 99.938 134.46 100.442C133.836 100.934 133.014 101.18 131.994 101.18ZM139.895 89.462V98.534C139.895 99.014 140.015 99.374 140.255 99.614C140.495 99.854 140.813 99.974 141.209 99.974C141.545 99.974 141.827 99.914 142.055 99.794C142.295 99.674 142.511 99.512 142.703 99.308L143.135 100.388C142.871 100.64 142.565 100.838 142.217 100.982C141.869 101.114 141.473 101.18 141.029 101.18C140.357 101.18 139.781 100.994 139.301 100.622C138.833 100.25 138.599 99.632 138.599 98.768V89.822L139.895 89.462ZM142.991 92V93.116H136.907V92H142.991ZM150.13 95.15C150.13 94.466 149.95 93.932 149.59 93.548C149.23 93.152 148.72 92.954 148.06 92.954C147.46 92.954 146.95 93.098 146.53 93.386C146.11 93.662 145.798 94.106 145.594 94.718L144.532 94.07C144.772 93.386 145.198 92.84 145.81 92.432C146.434 92.024 147.196 91.82 148.096 91.82C148.732 91.82 149.296 91.934 149.788 92.162C150.292 92.378 150.688 92.714 150.976 93.17C151.276 93.626 151.426 94.202 151.426 94.898V99.29C151.426 99.782 151.654 100.028 152.11 100.028C152.206 100.028 152.314 100.022 152.434 100.01C152.554 99.986 152.656 99.956 152.74 99.92L152.668 100.946C152.572 100.994 152.446 101.036 152.29 101.072C152.146 101.108 151.978 101.126 151.786 101.126C151.474 101.126 151.186 101.066 150.922 100.946C150.67 100.814 150.466 100.616 150.31 100.352C150.166 100.076 150.094 99.734 150.094 99.326V99.074L150.418 99.11C150.286 99.578 150.052 99.968 149.716 100.28C149.392 100.58 149.014 100.808 148.582 100.964C148.162 101.108 147.736 101.18 147.304 101.18C146.524 101.18 145.858 100.982 145.306 100.586C144.754 100.178 144.478 99.572 144.478 98.768C144.478 98.12 144.682 97.58 145.09 97.148C145.51 96.704 146.122 96.398 146.926 96.23L150.364 95.51V96.59L147.538 97.202C146.95 97.322 146.512 97.496 146.224 97.724C145.936 97.952 145.792 98.276 145.792 98.696C145.792 99.104 145.936 99.434 146.224 99.686C146.524 99.926 146.95 100.046 147.502 100.046C147.826 100.046 148.144 100.004 148.456 99.92C148.768 99.824 149.05 99.68 149.302 99.488C149.554 99.296 149.752 99.056 149.896 98.768C150.052 98.468 150.13 98.114 150.13 97.706V95.15ZM154.494 101V92H155.574L155.736 93.584C155.952 93.02 156.288 92.588 156.744 92.288C157.2 91.976 157.746 91.82 158.382 91.82C158.55 91.82 158.718 91.838 158.886 91.874C159.054 91.898 159.198 91.952 159.318 92.036L159.102 93.206C158.982 93.146 158.844 93.104 158.688 93.08C158.544 93.044 158.34 93.026 158.076 93.026C157.716 93.026 157.356 93.146 156.996 93.386C156.648 93.614 156.36 93.956 156.132 94.412C155.904 94.868 155.79 95.426 155.79 96.086V101H154.494ZM162.676 89.462V98.534C162.676 99.014 162.796 99.374 163.036 99.614C163.276 99.854 163.594 99.974 163.99 99.974C164.326 99.974 164.608 99.914 164.836 99.794C165.076 99.674 165.292 99.512 165.484 99.308L165.916 100.388C165.652 100.64 165.346 100.838 164.998 100.982C164.65 101.114 164.254 101.18 163.81 101.18C163.138 101.18 162.562 100.994 162.082 100.622C161.614 100.25 161.38 99.632 161.38 98.768V89.822L162.676 89.462ZM165.772 92V93.116H159.688V92H165.772ZM171.4 101.18C170.584 101.18 169.858 100.994 169.222 100.622C168.598 100.25 168.106 99.716 167.746 99.02C167.386 98.312 167.206 97.472 167.206 96.5C167.206 95.528 167.38 94.694 167.728 93.998C168.088 93.29 168.574 92.75 169.186 92.378C169.81 92.006 170.518 91.82 171.31 91.82C172.114 91.82 172.798 92 173.362 92.36C173.926 92.72 174.358 93.212 174.658 93.836C174.958 94.46 175.108 95.168 175.108 95.96C175.108 96.152 175.102 96.32 175.09 96.464C175.078 96.608 175.066 96.734 175.054 96.842H168.052V95.69H174.478L173.812 95.834C173.812 95.222 173.704 94.706 173.488 94.286C173.284 93.854 172.99 93.524 172.606 93.296C172.234 93.068 171.796 92.954 171.292 92.954C170.716 92.954 170.212 93.098 169.78 93.386C169.36 93.674 169.036 94.082 168.808 94.61C168.58 95.138 168.466 95.768 168.466 96.5C168.466 97.232 168.586 97.862 168.826 98.39C169.066 98.918 169.402 99.326 169.834 99.614C170.278 99.902 170.794 100.046 171.382 100.046C172.006 100.046 172.522 99.914 172.93 99.65C173.35 99.374 173.68 99.014 173.92 98.57L174.946 99.164C174.73 99.572 174.448 99.932 174.1 100.244C173.764 100.544 173.368 100.778 172.912 100.946C172.456 101.102 171.952 101.18 171.4 101.18ZM181.132 101.18C180.412 101.18 179.752 100.994 179.152 100.622C178.564 100.25 178.09 99.716 177.73 99.02C177.382 98.312 177.208 97.472 177.208 96.5C177.208 95.504 177.394 94.658 177.766 93.962C178.138 93.266 178.63 92.738 179.242 92.378C179.854 92.006 180.52 91.82 181.24 91.82C181.972 91.82 182.608 92.024 183.148 92.432C183.688 92.828 184.048 93.362 184.228 94.034L184.066 94.142V87.86H185.362V101H184.228L184.102 98.732L184.282 98.642C184.198 99.182 184 99.644 183.688 100.028C183.376 100.4 182.998 100.688 182.554 100.892C182.11 101.084 181.636 101.18 181.132 101.18ZM181.276 100.046C181.828 100.046 182.314 99.902 182.734 99.614C183.154 99.314 183.478 98.888 183.706 98.336C183.946 97.784 184.066 97.136 184.066 96.392C184.066 95.672 183.946 95.06 183.706 94.556C183.478 94.04 183.16 93.644 182.752 93.368C182.344 93.092 181.876 92.954 181.348 92.954C180.46 92.954 179.764 93.278 179.26 93.926C178.756 94.562 178.504 95.42 178.504 96.5C178.504 97.58 178.75 98.444 179.242 99.092C179.734 99.728 180.412 100.046 181.276 100.046ZM205.289 92H206.729L203.705 101H202.391L199.853 93.656L197.441 101H196.127L193.103 92H194.543L196.811 99.488L199.259 92H200.573L203.021 99.488L205.289 92ZM210.159 92V101H208.863V92H210.159ZM209.601 90.272C209.277 90.272 209.013 90.176 208.809 89.984C208.617 89.78 208.521 89.516 208.521 89.192C208.521 88.868 208.617 88.61 208.809 88.418C209.013 88.214 209.277 88.112 209.601 88.112C209.925 88.112 210.183 88.214 210.375 88.418C210.579 88.61 210.681 88.868 210.681 89.192C210.681 89.516 210.579 89.78 210.375 89.984C210.183 90.176 209.925 90.272 209.601 90.272ZM215.323 89.462V98.534C215.323 99.014 215.443 99.374 215.683 99.614C215.923 99.854 216.241 99.974 216.637 99.974C216.973 99.974 217.255 99.914 217.483 99.794C217.723 99.674 217.939 99.512 218.131 99.308L218.563 100.388C218.299 100.64 217.993 100.838 217.645 100.982C217.297 101.114 216.901 101.18 216.457 101.18C215.785 101.18 215.209 100.994 214.729 100.622C214.261 100.25 214.027 99.632 214.027 98.768V89.822L215.323 89.462ZM218.419 92V93.116H212.335V92H218.419ZM220.482 101V87.86H221.778V93.476C222.066 92.912 222.462 92.498 222.966 92.234C223.482 91.958 224.052 91.82 224.676 91.82C225.288 91.82 225.84 91.946 226.332 92.198C226.836 92.438 227.238 92.81 227.538 93.314C227.838 93.818 227.988 94.454 227.988 95.222V101H226.692V95.654C226.692 94.658 226.482 93.962 226.062 93.566C225.642 93.158 225.12 92.954 224.496 92.954C224.064 92.954 223.638 93.062 223.218 93.278C222.798 93.494 222.45 93.836 222.174 94.304C221.91 94.772 221.778 95.384 221.778 96.14V101H220.482ZM240.259 101.18C239.695 101.18 239.173 101.072 238.693 100.856C238.213 100.628 237.823 100.274 237.523 99.794C237.235 99.314 237.091 98.69 237.091 97.922V92H238.387V97.58C238.387 98.408 238.561 99.026 238.909 99.434C239.257 99.842 239.815 100.046 240.583 100.046C240.931 100.046 241.261 99.98 241.573 99.848C241.897 99.716 242.179 99.524 242.419 99.272C242.671 99.008 242.869 98.684 243.013 98.3C243.157 97.916 243.229 97.472 243.229 96.968V92H244.525V101H243.391L243.319 99.506C243.127 99.878 242.881 100.19 242.581 100.442C242.293 100.694 241.951 100.88 241.555 101C241.171 101.12 240.739 101.18 240.259 101.18ZM250.84 101.18C250 101.18 249.232 100.994 248.536 100.622C247.84 100.25 247.312 99.722 246.952 99.038L248.032 98.246C248.272 98.822 248.638 99.266 249.13 99.578C249.634 99.89 250.234 100.046 250.93 100.046C251.554 100.046 252.046 99.914 252.406 99.65C252.778 99.386 252.964 99.038 252.964 98.606C252.964 98.33 252.88 98.084 252.712 97.868C252.544 97.64 252.226 97.472 251.758 97.364L249.742 96.914C248.902 96.722 248.302 96.422 247.942 96.014C247.582 95.606 247.402 95.096 247.402 94.484C247.402 94.004 247.534 93.566 247.798 93.17C248.074 92.762 248.464 92.438 248.968 92.198C249.472 91.946 250.06 91.82 250.732 91.82C251.572 91.82 252.28 92 252.856 92.36C253.444 92.708 253.876 93.206 254.152 93.854L253.09 94.556C252.898 93.992 252.58 93.584 252.136 93.332C251.692 93.08 251.224 92.954 250.732 92.954C250.312 92.954 249.946 93.02 249.634 93.152C249.322 93.272 249.082 93.446 248.914 93.674C248.758 93.89 248.68 94.142 248.68 94.43C248.68 94.706 248.77 94.964 248.95 95.204C249.142 95.444 249.484 95.618 249.976 95.726L252.082 96.194C252.886 96.374 253.45 96.65 253.774 97.022C254.098 97.394 254.26 97.862 254.26 98.426C254.26 99.266 253.942 99.938 253.306 100.442C252.682 100.934 251.86 101.18 250.84 101.18Z" fill="#324C5B"/>
</svg>
