<svg width="347" height="109" viewBox="0 0 347 109" fill="none" xmlns="http://www.w3.org/2000/svg">
<path d="M15.96 75L1.08 0.599999H14.16L22.44 48.6L22.56 51.12H22.68V48.6L30.24 3.96H40.08L47.28 48.6L47.4 51.12H47.52L47.64 48.6L55.2 0.599999H68.76L54.12 75H41.76L35.52 34.2L35.4 31.8H35.28L35.16 34.2L28.32 75H15.96ZM89.3625 75.6C84.0825 75.6 80.0825 74.96 77.3625 73.68C74.7225 72.4 72.9225 70.68 71.9625 68.52C71.0025 66.36 70.5225 64 70.5225 61.44V32.04C70.5225 29.4 71.0025 27.04 71.9625 24.96C72.9225 22.8 74.7625 21.08 77.4825 19.8C80.2825 18.52 84.3625 17.88 89.7225 17.88C94.5225 17.88 98.3225 18.52 101.123 19.8C103.923 21 105.883 22.64 107.003 24.72C108.203 26.8 108.803 29.16 108.803 31.8V43.08L96.0825 43.92V34.2C96.0825 32.52 95.5625 31.04 94.5225 29.76C93.5625 28.4 91.9225 27.72 89.6025 27.72C87.3625 27.72 85.7225 28.36 84.6825 29.64C83.7225 30.92 83.2425 32.44 83.2425 34.2V59.04C83.2425 60.72 83.7225 62.16 84.6825 63.36C85.6425 64.56 87.1625 65.16 89.2425 65.16C91.7225 65.16 93.4825 64.56 94.5225 63.36C95.5625 62.08 96.0825 60.52 96.0825 58.68V54.72L108.803 53.76V60.96C108.803 63.76 108.203 66.28 107.003 68.52C105.803 70.68 103.803 72.4 101.003 73.68C98.2025 74.96 94.3225 75.6 89.3625 75.6ZM71.9625 49.08V42.24H108.803V49.08H71.9625ZM117.534 0.239997H130.254V75H117.534V0.239997ZM157.8 75.6C152.52 75.6 148.52 74.96 145.8 73.68C143.16 72.4 141.36 70.68 140.4 68.52C139.44 66.36 138.96 64 138.96 61.44V32.04C138.96 29.4 139.44 27.04 140.4 24.96C141.36 22.8 143.2 21.08 145.92 19.8C148.72 18.52 152.8 17.88 158.16 17.88C162.96 17.88 166.76 18.52 169.56 19.8C172.36 21 174.32 22.64 175.44 24.72C176.64 26.8 177.24 29.16 177.24 31.8V40.68L164.52 41.76V34.2C164.52 32.52 164 31.04 162.96 29.76C162 28.4 160.36 27.72 158.04 27.72C155.8 27.72 154.16 28.36 153.12 29.64C152.16 30.92 151.68 32.44 151.68 34.2V59.04C151.68 60.72 152.16 62.16 153.12 63.36C154.08 64.56 155.6 65.16 157.68 65.16C160.16 65.16 161.92 64.56 162.96 63.36C164 62.08 164.52 60.52 164.52 58.68V52.08L177.24 51.12V60.96C177.24 63.76 176.64 66.28 175.44 68.52C174.24 70.68 172.24 72.4 169.44 73.68C166.64 74.96 162.76 75.6 157.8 75.6ZM203.503 75.6C198.223 75.6 194.223 74.96 191.503 73.68C188.863 72.4 187.063 70.68 186.103 68.52C185.143 66.36 184.663 64 184.663 61.44V32.04C184.663 29.4 185.143 27.04 186.103 24.96C187.063 22.8 188.903 21.08 191.623 19.8C194.423 18.52 198.503 17.88 203.863 17.88C208.663 17.88 212.463 18.52 215.263 19.8C218.063 21 220.023 22.64 221.143 24.72C222.343 26.8 222.943 29.16 222.943 31.8V60.96C222.943 63.76 222.343 66.28 221.143 68.52C219.943 70.68 217.943 72.4 215.143 73.68C212.343 74.96 208.463 75.6 203.503 75.6ZM203.383 65.16C205.863 65.16 207.623 64.56 208.663 63.36C209.703 62.08 210.223 60.52 210.223 58.68V34.2C210.223 32.52 209.703 31.04 208.663 29.76C207.703 28.4 206.063 27.72 203.743 27.72C201.503 27.72 199.863 28.36 198.823 29.64C197.863 30.92 197.383 32.44 197.383 34.2V59.04C197.383 60.72 197.863 62.16 198.823 63.36C199.783 64.56 201.303 65.16 203.383 65.16ZM231.675 75V18.48H242.115L243.315 24.36C244.515 22.2 246.235 20.56 248.475 19.44C250.795 18.24 253.515 17.64 256.635 17.64C259.835 17.64 262.355 18.12 264.195 19.08C266.035 20.04 267.355 21.28 268.155 22.8C269.035 24.24 269.555 25.8 269.715 27.48L267.075 29.88C267.715 26.44 268.835 23.88 270.435 22.2C272.035 20.44 273.875 19.24 275.955 18.6C278.115 17.96 280.195 17.64 282.195 17.64C285.955 17.64 288.755 18.32 290.595 19.68C292.515 20.96 293.795 22.56 294.435 24.48C295.075 26.32 295.395 28.12 295.395 29.88V75H282.675V34.56C282.675 32.16 282.115 30.44 280.995 29.4C279.955 28.36 278.435 27.84 276.435 27.84C274.515 27.84 272.955 28.36 271.755 29.4C270.555 30.44 269.955 32.16 269.955 34.56V75H257.235V34.08C257.235 31.92 256.675 30.36 255.555 29.4C254.515 28.36 252.915 27.84 250.755 27.84C248.995 27.84 247.595 28.28 246.555 29.16C245.595 30.04 244.875 31.24 244.395 32.76V75H231.675ZM322.683 75.6C317.403 75.6 313.403 74.96 310.683 73.68C308.043 72.4 306.243 70.68 305.283 68.52C304.323 66.36 303.843 64 303.843 61.44V32.04C303.843 29.4 304.323 27.04 305.283 24.96C306.243 22.8 308.083 21.08 310.803 19.8C313.603 18.52 317.683 17.88 323.043 17.88C327.843 17.88 331.643 18.52 334.443 19.8C337.243 21 339.203 22.64 340.323 24.72C341.523 26.8 342.123 29.16 342.123 31.8V43.08L329.403 43.92V34.2C329.403 32.52 328.883 31.04 327.843 29.76C326.883 28.4 325.243 27.72 322.923 27.72C320.683 27.72 319.043 28.36 318.003 29.64C317.043 30.92 316.563 32.44 316.563 34.2V59.04C316.563 60.72 317.043 62.16 318.003 63.36C318.963 64.56 320.483 65.16 322.563 65.16C325.043 65.16 326.803 64.56 327.843 63.36C328.883 62.08 329.403 60.52 329.403 58.68V54.72L342.123 53.76V60.96C342.123 63.76 341.523 66.28 340.323 68.52C339.123 70.68 337.123 72.4 334.323 73.68C331.523 74.96 327.643 75.6 322.683 75.6ZM305.283 49.08V42.24H342.123V49.08H305.283Z" fill="#14134F"/>
<path d="M24.104 104L20.612 92.12H21.962L24.914 102.812L27.722 92.12H29.198L32.006 102.848L34.958 92.12H36.236L32.762 104H31.178L29.054 96.134L28.442 93.47H28.424L27.812 96.134L25.706 104H24.104ZM41.4622 104.18C40.6462 104.18 39.9202 103.994 39.2842 103.622C38.6602 103.25 38.1682 102.716 37.8082 102.02C37.4482 101.312 37.2682 100.472 37.2682 99.5C37.2682 98.528 37.4422 97.694 37.7902 96.998C38.1502 96.29 38.6362 95.75 39.2482 95.378C39.8722 95.006 40.5802 94.82 41.3722 94.82C42.1762 94.82 42.8602 95 43.4242 95.36C43.9882 95.72 44.4202 96.212 44.7202 96.836C45.0202 97.46 45.1702 98.168 45.1702 98.96C45.1702 99.152 45.1642 99.32 45.1522 99.464C45.1402 99.608 45.1282 99.734 45.1162 99.842H38.1142V98.69H44.5402L43.8742 98.834C43.8742 98.222 43.7662 97.706 43.5502 97.286C43.3462 96.854 43.0522 96.524 42.6682 96.296C42.2962 96.068 41.8582 95.954 41.3542 95.954C40.7782 95.954 40.2742 96.098 39.8422 96.386C39.4222 96.674 39.0982 97.082 38.8702 97.61C38.6422 98.138 38.5282 98.768 38.5282 99.5C38.5282 100.232 38.6482 100.862 38.8882 101.39C39.1282 101.918 39.4642 102.326 39.8962 102.614C40.3402 102.902 40.8562 103.046 41.4442 103.046C42.0682 103.046 42.5842 102.914 42.9922 102.65C43.4122 102.374 43.7422 102.014 43.9822 101.57L45.0082 102.164C44.7922 102.572 44.5102 102.932 44.1622 103.244C43.8262 103.544 43.4302 103.778 42.9742 103.946C42.5182 104.102 42.0142 104.18 41.4622 104.18ZM58.9527 98.15C58.9527 97.466 58.7727 96.932 58.4127 96.548C58.0527 96.152 57.5427 95.954 56.8827 95.954C56.2827 95.954 55.7727 96.098 55.3527 96.386C54.9327 96.662 54.6207 97.106 54.4167 97.718L53.3547 97.07C53.5947 96.386 54.0207 95.84 54.6327 95.432C55.2567 95.024 56.0187 94.82 56.9187 94.82C57.5547 94.82 58.1187 94.934 58.6107 95.162C59.1147 95.378 59.5107 95.714 59.7987 96.17C60.0987 96.626 60.2487 97.202 60.2487 97.898V102.29C60.2487 102.782 60.4767 103.028 60.9327 103.028C61.0287 103.028 61.1367 103.022 61.2567 103.01C61.3767 102.986 61.4787 102.956 61.5627 102.92L61.4907 103.946C61.3947 103.994 61.2687 104.036 61.1127 104.072C60.9687 104.108 60.8007 104.126 60.6087 104.126C60.2967 104.126 60.0087 104.066 59.7447 103.946C59.4927 103.814 59.2887 103.616 59.1327 103.352C58.9887 103.076 58.9167 102.734 58.9167 102.326V102.074L59.2407 102.11C59.1087 102.578 58.8747 102.968 58.5387 103.28C58.2147 103.58 57.8367 103.808 57.4047 103.964C56.9847 104.108 56.5587 104.18 56.1267 104.18C55.3467 104.18 54.6807 103.982 54.1287 103.586C53.5767 103.178 53.3007 102.572 53.3007 101.768C53.3007 101.12 53.5047 100.58 53.9127 100.148C54.3327 99.704 54.9447 99.398 55.7487 99.23L59.1867 98.51V99.59L56.3607 100.202C55.7727 100.322 55.3347 100.496 55.0467 100.724C54.7587 100.952 54.6147 101.276 54.6147 101.696C54.6147 102.104 54.7587 102.434 55.0467 102.686C55.3467 102.926 55.7727 103.046 56.3247 103.046C56.6487 103.046 56.9667 103.004 57.2787 102.92C57.5907 102.824 57.8727 102.68 58.1247 102.488C58.3767 102.296 58.5747 102.056 58.7187 101.768C58.8747 101.468 58.9527 101.114 58.9527 100.706V98.15ZM63.3162 104V95H64.3962L64.5582 96.584C64.7742 96.02 65.1102 95.588 65.5662 95.288C66.0222 94.976 66.5682 94.82 67.2042 94.82C67.3722 94.82 67.5402 94.838 67.7082 94.874C67.8762 94.898 68.0202 94.952 68.1402 95.036L67.9242 96.206C67.8042 96.146 67.6662 96.104 67.5102 96.08C67.3662 96.044 67.1622 96.026 66.8982 96.026C66.5382 96.026 66.1782 96.146 65.8182 96.386C65.4702 96.614 65.1822 96.956 64.9542 97.412C64.7262 97.868 64.6122 98.426 64.6122 99.086V104H63.3162ZM73.472 104.18C72.656 104.18 71.93 103.994 71.294 103.622C70.67 103.25 70.178 102.716 69.818 102.02C69.458 101.312 69.278 100.472 69.278 99.5C69.278 98.528 69.452 97.694 69.8 96.998C70.16 96.29 70.646 95.75 71.258 95.378C71.882 95.006 72.59 94.82 73.382 94.82C74.186 94.82 74.87 95 75.434 95.36C75.998 95.72 76.43 96.212 76.73 96.836C77.03 97.46 77.18 98.168 77.18 98.96C77.18 99.152 77.174 99.32 77.162 99.464C77.15 99.608 77.138 99.734 77.126 99.842H70.124V98.69H76.55L75.884 98.834C75.884 98.222 75.776 97.706 75.56 97.286C75.356 96.854 75.062 96.524 74.678 96.296C74.306 96.068 73.868 95.954 73.364 95.954C72.788 95.954 72.284 96.098 71.852 96.386C71.432 96.674 71.108 97.082 70.88 97.61C70.652 98.138 70.538 98.768 70.538 99.5C70.538 100.232 70.658 100.862 70.898 101.39C71.138 101.918 71.474 102.326 71.906 102.614C72.35 102.902 72.866 103.046 73.454 103.046C74.078 103.046 74.594 102.914 75.002 102.65C75.422 102.374 75.752 102.014 75.992 101.57L77.018 102.164C76.802 102.572 76.52 102.932 76.172 103.244C75.836 103.544 75.44 103.778 74.984 103.946C74.528 104.102 74.024 104.18 73.472 104.18ZM93.1225 93.344L93.4105 94.496C93.3985 94.496 93.3805 94.496 93.3565 94.496C93.3325 94.496 93.3085 94.496 93.2845 94.496C92.7205 94.496 92.2825 94.622 91.9705 94.874C91.6705 95.126 91.5205 95.516 91.5205 96.044L90.7465 95.63C90.7465 95.162 90.8485 94.76 91.0525 94.424C91.2565 94.076 91.5265 93.812 91.8625 93.632C92.2105 93.44 92.6005 93.344 93.0325 93.344C93.0565 93.344 93.0745 93.344 93.0865 93.344C93.0985 93.344 93.1105 93.344 93.1225 93.344ZM90.4225 102.92C91.2625 102.92 91.9165 103.118 92.3845 103.514C92.8525 103.898 93.0865 104.408 93.0865 105.044C93.0865 105.62 92.9005 106.118 92.5285 106.538C92.1685 106.958 91.6705 107.282 91.0345 107.51C90.4105 107.75 89.7025 107.87 88.9105 107.87C87.5665 107.87 86.5525 107.63 85.8685 107.15C85.1965 106.682 84.8605 106.106 84.8605 105.422C84.8605 104.942 85.0225 104.51 85.3465 104.126C85.6705 103.754 86.1865 103.538 86.8945 103.478L86.8045 103.73C86.4085 103.622 86.0725 103.436 85.7965 103.172C85.5205 102.908 85.3825 102.536 85.3825 102.056C85.3825 101.6 85.5505 101.192 85.8865 100.832C86.2345 100.472 86.7505 100.256 87.4345 100.184L88.3705 100.616H88.1365C87.5845 100.664 87.1765 100.808 86.9125 101.048C86.6605 101.276 86.5345 101.546 86.5345 101.858C86.5345 102.206 86.6605 102.47 86.9125 102.65C87.1645 102.83 87.5065 102.92 87.9385 102.92H90.4225ZM88.9285 106.808C89.5885 106.808 90.1405 106.73 90.5845 106.574C91.0285 106.43 91.3645 106.232 91.5925 105.98C91.8205 105.74 91.9345 105.476 91.9345 105.188C91.9345 104.828 91.7905 104.54 91.5025 104.324C91.2265 104.12 90.7645 104.018 90.1165 104.018H87.5065C87.0985 104.018 86.7505 104.126 86.4625 104.342C86.1745 104.57 86.0305 104.87 86.0305 105.242C86.0305 105.71 86.2885 106.088 86.8045 106.376C87.3205 106.664 88.0285 106.808 88.9285 106.808ZM88.8025 94.82C89.4985 94.82 90.1105 94.952 90.6385 95.216C91.1665 95.468 91.5805 95.822 91.8805 96.278C92.1805 96.722 92.3305 97.238 92.3305 97.826C92.3305 98.414 92.1745 98.936 91.8625 99.392C91.5625 99.848 91.1485 100.208 90.6205 100.472C90.0925 100.724 89.4865 100.85 88.8025 100.85C87.6745 100.85 86.7985 100.568 86.1745 100.004C85.5625 99.44 85.2565 98.714 85.2565 97.826C85.2565 97.238 85.4065 96.722 85.7065 96.278C86.0065 95.822 86.4205 95.468 86.9485 95.216C87.4885 94.952 88.1065 94.82 88.8025 94.82ZM88.8025 95.864C88.1665 95.864 87.6325 96.044 87.2005 96.404C86.7805 96.764 86.5705 97.238 86.5705 97.826C86.5705 98.414 86.7865 98.894 87.2185 99.266C87.6505 99.626 88.1785 99.806 88.8025 99.806C89.4265 99.806 89.9485 99.626 90.3685 99.266C90.8005 98.894 91.0165 98.414 91.0165 97.826C91.0165 97.238 90.8065 96.764 90.3865 96.404C89.9665 96.044 89.4385 95.864 88.8025 95.864ZM96.2863 90.86V101.75C96.2863 102.182 96.3523 102.506 96.4843 102.722C96.6163 102.938 96.8683 103.046 97.2403 103.046C97.4443 103.046 97.6123 103.028 97.7443 102.992C97.8763 102.956 98.0503 102.89 98.2663 102.794L98.0863 103.928C97.9303 104.012 97.7383 104.072 97.5103 104.108C97.2943 104.156 97.0843 104.18 96.8803 104.18C96.1603 104.18 95.6623 103.958 95.3863 103.514C95.1223 103.07 94.9903 102.5 94.9903 101.804V90.86H96.2863ZM105.166 98.15C105.166 97.466 104.986 96.932 104.626 96.548C104.266 96.152 103.756 95.954 103.096 95.954C102.496 95.954 101.986 96.098 101.566 96.386C101.146 96.662 100.834 97.106 100.63 97.718L99.5676 97.07C99.8076 96.386 100.234 95.84 100.846 95.432C101.47 95.024 102.232 94.82 103.132 94.82C103.768 94.82 104.332 94.934 104.824 95.162C105.328 95.378 105.724 95.714 106.012 96.17C106.312 96.626 106.462 97.202 106.462 97.898V102.29C106.462 102.782 106.69 103.028 107.146 103.028C107.242 103.028 107.35 103.022 107.47 103.01C107.59 102.986 107.692 102.956 107.776 102.92L107.704 103.946C107.608 103.994 107.482 104.036 107.326 104.072C107.182 104.108 107.014 104.126 106.822 104.126C106.51 104.126 106.222 104.066 105.958 103.946C105.706 103.814 105.502 103.616 105.346 103.352C105.202 103.076 105.13 102.734 105.13 102.326V102.074L105.454 102.11C105.322 102.578 105.088 102.968 104.752 103.28C104.428 103.58 104.05 103.808 103.618 103.964C103.198 104.108 102.772 104.18 102.34 104.18C101.56 104.18 100.894 103.982 100.342 103.586C99.7896 103.178 99.5136 102.572 99.5136 101.768C99.5136 101.12 99.7176 100.58 100.126 100.148C100.546 99.704 101.158 99.398 101.962 99.23L105.4 98.51V99.59L102.574 100.202C101.986 100.322 101.548 100.496 101.26 100.724C100.972 100.952 100.828 101.276 100.828 101.696C100.828 102.104 100.972 102.434 101.26 102.686C101.56 102.926 101.986 103.046 102.538 103.046C102.862 103.046 103.18 103.004 103.492 102.92C103.804 102.824 104.086 102.68 104.338 102.488C104.59 102.296 104.788 102.056 104.932 101.768C105.088 101.468 105.166 101.114 105.166 100.706V98.15ZM112.859 104.18C112.139 104.18 111.479 103.994 110.879 103.622C110.291 103.25 109.817 102.716 109.457 102.02C109.109 101.312 108.935 100.472 108.935 99.5C108.935 98.504 109.121 97.658 109.493 96.962C109.865 96.266 110.357 95.738 110.969 95.378C111.581 95.006 112.247 94.82 112.967 94.82C113.699 94.82 114.335 95.024 114.875 95.432C115.415 95.828 115.775 96.362 115.955 97.034L115.793 97.142V90.86H117.089V104H115.955L115.829 101.732L116.009 101.642C115.925 102.182 115.727 102.644 115.415 103.028C115.103 103.4 114.725 103.688 114.281 103.892C113.837 104.084 113.363 104.18 112.859 104.18ZM113.003 103.046C113.555 103.046 114.041 102.902 114.461 102.614C114.881 102.314 115.205 101.888 115.433 101.336C115.673 100.784 115.793 100.136 115.793 99.392C115.793 98.672 115.673 98.06 115.433 97.556C115.205 97.04 114.887 96.644 114.479 96.368C114.071 96.092 113.603 95.954 113.075 95.954C112.187 95.954 111.491 96.278 110.987 96.926C110.483 97.562 110.231 98.42 110.231 99.5C110.231 100.58 110.477 101.444 110.969 102.092C111.461 102.728 112.139 103.046 113.003 103.046ZM127.906 92.462V101.534C127.906 102.014 128.026 102.374 128.266 102.614C128.506 102.854 128.824 102.974 129.22 102.974C129.556 102.974 129.838 102.914 130.066 102.794C130.306 102.674 130.522 102.512 130.714 102.308L131.146 103.388C130.882 103.64 130.576 103.838 130.228 103.982C129.88 104.114 129.484 104.18 129.04 104.18C128.368 104.18 127.792 103.994 127.312 103.622C126.844 103.25 126.61 102.632 126.61 101.768V92.822L127.906 92.462ZM131.002 95V96.116H124.918V95H131.002ZM136.612 94.82C137.428 94.82 138.148 95.006 138.772 95.378C139.396 95.75 139.888 96.29 140.248 96.998C140.608 97.694 140.788 98.528 140.788 99.5C140.788 100.472 140.608 101.312 140.248 102.02C139.888 102.716 139.396 103.25 138.772 103.622C138.148 103.994 137.428 104.18 136.612 104.18C135.808 104.18 135.088 103.994 134.452 103.622C133.828 103.25 133.336 102.716 132.976 102.02C132.616 101.312 132.436 100.472 132.436 99.5C132.436 98.528 132.616 97.694 132.976 96.998C133.336 96.29 133.828 95.75 134.452 95.378C135.088 95.006 135.808 94.82 136.612 94.82ZM136.612 95.936C136.024 95.936 135.514 96.08 135.082 96.368C134.65 96.656 134.314 97.064 134.074 97.592C133.846 98.12 133.732 98.756 133.732 99.5C133.732 100.232 133.846 100.868 134.074 101.408C134.314 101.936 134.65 102.344 135.082 102.632C135.514 102.92 136.024 103.064 136.612 103.064C137.212 103.064 137.722 102.92 138.142 102.632C138.574 102.344 138.904 101.936 139.132 101.408C139.372 100.868 139.492 100.232 139.492 99.5C139.492 98.756 139.372 98.12 139.132 97.592C138.904 97.064 138.574 96.656 138.142 96.368C137.722 96.08 137.212 95.936 136.612 95.936ZM152.49 104.18C151.65 104.18 150.882 103.994 150.186 103.622C149.49 103.25 148.962 102.722 148.602 102.038L149.682 101.246C149.922 101.822 150.288 102.266 150.78 102.578C151.284 102.89 151.884 103.046 152.58 103.046C153.204 103.046 153.696 102.914 154.056 102.65C154.428 102.386 154.614 102.038 154.614 101.606C154.614 101.33 154.53 101.084 154.362 100.868C154.194 100.64 153.876 100.472 153.408 100.364L151.392 99.914C150.552 99.722 149.952 99.422 149.592 99.014C149.232 98.606 149.052 98.096 149.052 97.484C149.052 97.004 149.184 96.566 149.448 96.17C149.724 95.762 150.114 95.438 150.618 95.198C151.122 94.946 151.71 94.82 152.382 94.82C153.222 94.82 153.93 95 154.506 95.36C155.094 95.708 155.526 96.206 155.802 96.854L154.74 97.556C154.548 96.992 154.23 96.584 153.786 96.332C153.342 96.08 152.874 95.954 152.382 95.954C151.962 95.954 151.596 96.02 151.284 96.152C150.972 96.272 150.732 96.446 150.564 96.674C150.408 96.89 150.33 97.142 150.33 97.43C150.33 97.706 150.42 97.964 150.6 98.204C150.792 98.444 151.134 98.618 151.626 98.726L153.732 99.194C154.536 99.374 155.1 99.65 155.424 100.022C155.748 100.394 155.91 100.862 155.91 101.426C155.91 102.266 155.592 102.938 154.956 103.442C154.332 103.934 153.51 104.18 152.49 104.18ZM162.101 104.18C161.285 104.18 160.559 103.994 159.923 103.622C159.299 103.25 158.807 102.716 158.447 102.02C158.087 101.312 157.907 100.472 157.907 99.5C157.907 98.528 158.081 97.694 158.429 96.998C158.789 96.29 159.275 95.75 159.887 95.378C160.511 95.006 161.219 94.82 162.011 94.82C162.815 94.82 163.499 95 164.063 95.36C164.627 95.72 165.059 96.212 165.359 96.836C165.659 97.46 165.809 98.168 165.809 98.96C165.809 99.152 165.803 99.32 165.791 99.464C165.779 99.608 165.767 99.734 165.755 99.842H158.753V98.69H165.179L164.513 98.834C164.513 98.222 164.405 97.706 164.189 97.286C163.985 96.854 163.691 96.524 163.307 96.296C162.935 96.068 162.497 95.954 161.993 95.954C161.417 95.954 160.913 96.098 160.481 96.386C160.061 96.674 159.737 97.082 159.509 97.61C159.281 98.138 159.167 98.768 159.167 99.5C159.167 100.232 159.287 100.862 159.527 101.39C159.767 101.918 160.103 102.326 160.535 102.614C160.979 102.902 161.495 103.046 162.083 103.046C162.707 103.046 163.223 102.914 163.631 102.65C164.051 102.374 164.381 102.014 164.621 101.57L165.647 102.164C165.431 102.572 165.149 102.932 164.801 103.244C164.465 103.544 164.069 103.778 163.613 103.946C163.157 104.102 162.653 104.18 162.101 104.18ZM172.068 104.18C171.252 104.18 170.526 103.994 169.89 103.622C169.266 103.25 168.774 102.716 168.414 102.02C168.054 101.312 167.874 100.472 167.874 99.5C167.874 98.528 168.048 97.694 168.396 96.998C168.756 96.29 169.242 95.75 169.854 95.378C170.478 95.006 171.186 94.82 171.978 94.82C172.782 94.82 173.466 95 174.03 95.36C174.594 95.72 175.026 96.212 175.326 96.836C175.626 97.46 175.776 98.168 175.776 98.96C175.776 99.152 175.77 99.32 175.758 99.464C175.746 99.608 175.734 99.734 175.722 99.842H168.72V98.69H175.146L174.48 98.834C174.48 98.222 174.372 97.706 174.156 97.286C173.952 96.854 173.658 96.524 173.274 96.296C172.902 96.068 172.464 95.954 171.96 95.954C171.384 95.954 170.88 96.098 170.448 96.386C170.028 96.674 169.704 97.082 169.476 97.61C169.248 98.138 169.134 98.768 169.134 99.5C169.134 100.232 169.254 100.862 169.494 101.39C169.734 101.918 170.07 102.326 170.502 102.614C170.946 102.902 171.462 103.046 172.05 103.046C172.674 103.046 173.19 102.914 173.598 102.65C174.018 102.374 174.348 102.014 174.588 101.57L175.614 102.164C175.398 102.572 175.116 102.932 174.768 103.244C174.432 103.544 174.036 103.778 173.58 103.946C173.124 104.102 172.62 104.18 172.068 104.18ZM191.009 95L186.959 105.548C186.767 106.052 186.551 106.478 186.311 106.826C186.083 107.174 185.801 107.432 185.465 107.6C185.141 107.78 184.739 107.87 184.259 107.87C183.887 107.87 183.539 107.81 183.215 107.69C182.891 107.582 182.609 107.432 182.369 107.24L182.747 106.124C182.963 106.34 183.197 106.496 183.449 106.592C183.713 106.688 183.965 106.736 184.205 106.736C184.529 106.736 184.823 106.634 185.087 106.43C185.351 106.226 185.597 105.824 185.825 105.224L186.293 103.982L185.411 101.822L182.693 95H184.151L186.419 101.12L186.905 102.614L187.499 100.958L189.623 95H191.009ZM196.466 94.82C197.282 94.82 198.002 95.006 198.626 95.378C199.25 95.75 199.742 96.29 200.102 96.998C200.462 97.694 200.642 98.528 200.642 99.5C200.642 100.472 200.462 101.312 200.102 102.02C199.742 102.716 199.25 103.25 198.626 103.622C198.002 103.994 197.282 104.18 196.466 104.18C195.662 104.18 194.942 103.994 194.306 103.622C193.682 103.25 193.19 102.716 192.83 102.02C192.47 101.312 192.29 100.472 192.29 99.5C192.29 98.528 192.47 97.694 192.83 96.998C193.19 96.29 193.682 95.75 194.306 95.378C194.942 95.006 195.662 94.82 196.466 94.82ZM196.466 95.936C195.878 95.936 195.368 96.08 194.936 96.368C194.504 96.656 194.168 97.064 193.928 97.592C193.7 98.12 193.586 98.756 193.586 99.5C193.586 100.232 193.7 100.868 193.928 101.408C194.168 101.936 194.504 102.344 194.936 102.632C195.368 102.92 195.878 103.064 196.466 103.064C197.066 103.064 197.576 102.92 197.996 102.632C198.428 102.344 198.758 101.936 198.986 101.408C199.226 100.868 199.346 100.232 199.346 99.5C199.346 98.756 199.226 98.12 198.986 97.592C198.758 97.064 198.428 96.656 197.996 96.368C197.576 96.08 197.066 95.936 196.466 95.936ZM206.386 104.18C205.822 104.18 205.3 104.072 204.82 103.856C204.34 103.628 203.95 103.274 203.65 102.794C203.362 102.314 203.218 101.69 203.218 100.922V95H204.514V100.58C204.514 101.408 204.688 102.026 205.036 102.434C205.384 102.842 205.942 103.046 206.71 103.046C207.058 103.046 207.388 102.98 207.7 102.848C208.024 102.716 208.306 102.524 208.546 102.272C208.798 102.008 208.996 101.684 209.14 101.3C209.284 100.916 209.356 100.472 209.356 99.968V95H210.652V104H209.518L209.446 102.506C209.254 102.878 209.008 103.19 208.708 103.442C208.42 103.694 208.078 103.88 207.682 104C207.298 104.12 206.866 104.18 206.386 104.18ZM224.184 104.18C223.44 104.18 222.78 103.976 222.204 103.568C221.64 103.148 221.256 102.608 221.052 101.948L221.214 101.714L221.106 104H219.972V90.86H221.268V97.124L221.106 96.89C221.346 96.278 221.742 95.78 222.294 95.396C222.846 95.012 223.482 94.82 224.202 94.82C224.922 94.82 225.576 95.006 226.164 95.378C226.764 95.75 227.238 96.284 227.586 96.98C227.946 97.676 228.126 98.516 228.126 99.5C228.126 100.472 227.946 101.312 227.586 102.02C227.238 102.716 226.764 103.25 226.164 103.622C225.576 103.994 224.916 104.18 224.184 104.18ZM224.04 103.046C224.916 103.046 225.6 102.728 226.092 102.092C226.584 101.444 226.83 100.58 226.83 99.5C226.83 98.42 226.584 97.562 226.092 96.926C225.612 96.278 224.934 95.954 224.058 95.954C223.506 95.954 223.02 96.104 222.6 96.404C222.18 96.704 221.85 97.124 221.61 97.664C221.382 98.192 221.268 98.816 221.268 99.536C221.268 100.244 221.382 100.862 221.61 101.39C221.85 101.918 222.18 102.326 222.6 102.614C223.02 102.902 223.5 103.046 224.04 103.046ZM235.912 98.15C235.912 97.466 235.732 96.932 235.372 96.548C235.012 96.152 234.502 95.954 233.842 95.954C233.242 95.954 232.732 96.098 232.312 96.386C231.892 96.662 231.58 97.106 231.376 97.718L230.314 97.07C230.554 96.386 230.98 95.84 231.592 95.432C232.216 95.024 232.978 94.82 233.878 94.82C234.514 94.82 235.078 94.934 235.57 95.162C236.074 95.378 236.47 95.714 236.758 96.17C237.058 96.626 237.208 97.202 237.208 97.898V102.29C237.208 102.782 237.436 103.028 237.892 103.028C237.988 103.028 238.096 103.022 238.216 103.01C238.336 102.986 238.438 102.956 238.522 102.92L238.45 103.946C238.354 103.994 238.228 104.036 238.072 104.072C237.928 104.108 237.76 104.126 237.568 104.126C237.256 104.126 236.968 104.066 236.704 103.946C236.452 103.814 236.248 103.616 236.092 103.352C235.948 103.076 235.876 102.734 235.876 102.326V102.074L236.2 102.11C236.068 102.578 235.834 102.968 235.498 103.28C235.174 103.58 234.796 103.808 234.364 103.964C233.944 104.108 233.518 104.18 233.086 104.18C232.306 104.18 231.64 103.982 231.088 103.586C230.536 103.178 230.26 102.572 230.26 101.768C230.26 101.12 230.464 100.58 230.872 100.148C231.292 99.704 231.904 99.398 232.708 99.23L236.146 98.51V99.59L233.32 100.202C232.732 100.322 232.294 100.496 232.006 100.724C231.718 100.952 231.574 101.276 231.574 101.696C231.574 102.104 231.718 102.434 232.006 102.686C232.306 102.926 232.732 103.046 233.284 103.046C233.608 103.046 233.926 103.004 234.238 102.92C234.55 102.824 234.832 102.68 235.084 102.488C235.336 102.296 235.534 102.056 235.678 101.768C235.834 101.468 235.912 101.114 235.912 100.706V98.15ZM243.803 94.82C244.403 94.82 244.931 94.922 245.387 95.126C245.855 95.318 246.251 95.594 246.575 95.954C246.899 96.302 247.157 96.722 247.349 97.214L246.125 97.808C245.957 97.208 245.675 96.752 245.279 96.44C244.883 96.116 244.379 95.954 243.767 95.954C243.191 95.954 242.687 96.098 242.255 96.386C241.835 96.662 241.511 97.064 241.283 97.592C241.055 98.12 240.941 98.756 240.941 99.5C240.941 100.232 241.055 100.868 241.283 101.408C241.523 101.936 241.853 102.344 242.273 102.632C242.705 102.908 243.209 103.046 243.785 103.046C244.241 103.046 244.637 102.974 244.973 102.83C245.309 102.674 245.585 102.452 245.801 102.164C246.017 101.876 246.167 101.528 246.251 101.12L247.439 101.534C247.259 102.086 247.001 102.56 246.665 102.956C246.329 103.352 245.915 103.658 245.423 103.874C244.943 104.078 244.397 104.18 243.785 104.18C242.981 104.18 242.267 103.994 241.643 103.622C241.019 103.25 240.527 102.716 240.167 102.02C239.819 101.312 239.645 100.472 239.645 99.5C239.645 98.528 239.825 97.694 240.185 96.998C240.545 96.29 241.037 95.75 241.661 95.378C242.285 95.006 242.999 94.82 243.803 94.82ZM257.431 95L253.705 98.87L253.399 99.176L250.645 102.056V100.436L255.793 95H257.431ZM251.257 90.86V104H249.961V90.86H251.257ZM253.813 98.204L257.611 104H256.045L252.751 98.942L253.813 98.204ZM275.865 95H277.305L274.281 104H272.967L270.429 96.656L268.017 104H266.703L263.679 95H265.119L267.387 102.488L269.835 95H271.149L273.597 102.488L275.865 95ZM280.735 95V104H279.439V95H280.735ZM280.177 93.272C279.853 93.272 279.589 93.176 279.385 92.984C279.193 92.78 279.097 92.516 279.097 92.192C279.097 91.868 279.193 91.61 279.385 91.418C279.589 91.214 279.853 91.112 280.177 91.112C280.501 91.112 280.759 91.214 280.951 91.418C281.155 91.61 281.257 91.868 281.257 92.192C281.257 92.516 281.155 92.78 280.951 92.984C280.759 93.176 280.501 93.272 280.177 93.272ZM285.899 92.462V101.534C285.899 102.014 286.019 102.374 286.259 102.614C286.499 102.854 286.817 102.974 287.213 102.974C287.549 102.974 287.831 102.914 288.059 102.794C288.299 102.674 288.515 102.512 288.707 102.308L289.139 103.388C288.875 103.64 288.569 103.838 288.221 103.982C287.873 104.114 287.477 104.18 287.033 104.18C286.361 104.18 285.785 103.994 285.305 103.622C284.837 103.25 284.603 102.632 284.603 101.768V92.822L285.899 92.462ZM288.995 95V96.116H282.911V95H288.995ZM291.058 104V90.86H292.354V96.476C292.642 95.912 293.038 95.498 293.542 95.234C294.058 94.958 294.628 94.82 295.252 94.82C295.864 94.82 296.416 94.946 296.908 95.198C297.412 95.438 297.814 95.81 298.114 96.314C298.414 96.818 298.564 97.454 298.564 98.222V104H297.268V98.654C297.268 97.658 297.058 96.962 296.638 96.566C296.218 96.158 295.696 95.954 295.072 95.954C294.64 95.954 294.214 96.062 293.794 96.278C293.374 96.494 293.026 96.836 292.75 97.304C292.486 97.772 292.354 98.384 292.354 99.14V104H291.058ZM310.835 104.18C310.271 104.18 309.749 104.072 309.269 103.856C308.789 103.628 308.399 103.274 308.099 102.794C307.811 102.314 307.667 101.69 307.667 100.922V95H308.963V100.58C308.963 101.408 309.137 102.026 309.485 102.434C309.833 102.842 310.391 103.046 311.159 103.046C311.507 103.046 311.837 102.98 312.149 102.848C312.473 102.716 312.755 102.524 312.995 102.272C313.247 102.008 313.445 101.684 313.589 101.3C313.733 100.916 313.805 100.472 313.805 99.968V95H315.101V104H313.967L313.895 102.506C313.703 102.878 313.457 103.19 313.157 103.442C312.869 103.694 312.527 103.88 312.131 104C311.747 104.12 311.315 104.18 310.835 104.18ZM321.416 104.18C320.576 104.18 319.808 103.994 319.112 103.622C318.416 103.25 317.888 102.722 317.528 102.038L318.608 101.246C318.848 101.822 319.214 102.266 319.706 102.578C320.21 102.89 320.81 103.046 321.506 103.046C322.13 103.046 322.622 102.914 322.982 102.65C323.354 102.386 323.54 102.038 323.54 101.606C323.54 101.33 323.456 101.084 323.288 100.868C323.12 100.64 322.802 100.472 322.334 100.364L320.318 99.914C319.478 99.722 318.878 99.422 318.518 99.014C318.158 98.606 317.978 98.096 317.978 97.484C317.978 97.004 318.11 96.566 318.374 96.17C318.65 95.762 319.04 95.438 319.544 95.198C320.048 94.946 320.636 94.82 321.308 94.82C322.148 94.82 322.856 95 323.432 95.36C324.02 95.708 324.452 96.206 324.728 96.854L323.666 97.556C323.474 96.992 323.156 96.584 322.712 96.332C322.268 96.08 321.8 95.954 321.308 95.954C320.888 95.954 320.522 96.02 320.21 96.152C319.898 96.272 319.658 96.446 319.49 96.674C319.334 96.89 319.256 97.142 319.256 97.43C319.256 97.706 319.346 97.964 319.526 98.204C319.718 98.444 320.06 98.618 320.552 98.726L322.658 99.194C323.462 99.374 324.026 99.65 324.35 100.022C324.674 100.394 324.836 100.862 324.836 101.426C324.836 102.266 324.518 102.938 323.882 103.442C323.258 103.934 322.436 104.18 321.416 104.18Z" fill="#324C5B"/>
</svg>
