<svg width="233" height="246" viewBox="0 0 233 246" fill="none" xmlns="http://www.w3.org/2000/svg">
<g filter="url(#filter0_d_3_66301)">
<path opacity="0.67" d="M93.4514 229.938H123.818C129.688 229.938 134.49 224.991 134.49 218.944V162.972C134.49 156.925 129.688 151.979 123.818 151.979H93.4538C87.5833 151.979 82.781 156.925 82.781 162.972V218.944C82.7786 224.991 87.5809 229.938 93.4514 229.938Z" fill="#A7ADFF"/>
<path d="M38.7105 229.938H69.0744C74.9449 229.938 79.7472 224.992 79.7472 218.945V118.616C79.7472 112.569 74.9449 107.622 69.0744 107.622H38.7105C32.84 107.622 28.0377 112.569 28.0377 118.616V218.945C28.0353 224.992 32.84 229.938 38.7105 229.938Z" fill="#E3E5FC"/>
<path d="M148.095 229.938H178.459C184.329 229.938 189.132 224.991 189.132 218.944V184.948C189.132 178.901 184.329 173.954 178.459 173.954H148.095C142.224 173.954 137.422 178.901 137.422 184.948V218.944C137.42 224.991 142.224 229.938 148.095 229.938Z" fill="#E3E5FC"/>
<path d="M10.6729 78.0075H66.5035C72.374 78.0075 77.1763 73.0608 77.1763 67.0137V54.736C77.1763 48.6889 72.374 43.7422 66.5035 43.7422H10.6729C4.80242 43.7422 0.0001297 48.6889 0.0001297 54.736V67.0137C0.0001297 73.0608 4.80242 78.0075 10.6729 78.0075Z" fill="#FDC510"/>
<path opacity="0.67" d="M24.2157 66.6126H80.0462C85.9167 66.6126 90.719 61.6658 90.719 55.6187V28.6989C90.719 22.6518 85.9167 17.7051 80.0462 17.7051H24.2157C18.3451 17.7051 13.5429 22.6518 13.5429 28.6989V55.6187C13.5405 61.6658 18.3451 66.6126 24.2157 66.6126Z" fill="#0112FF"/>
<path d="M75.5693 52.7258C69.9314 60.7194 59.071 62.4922 51.3133 56.6847L71.726 27.7402C79.4861 33.5453 81.2072 44.7323 75.5693 52.7258Z" fill="white"/>
<path d="M69.9005 26.3732L60.5476 39.6338L47.4249 29.8137C52.7471 22.5709 62.7339 21.0084 69.9005 26.3732Z" fill="white"/>
<path d="M45.8937 31.953C45.9578 31.8626 46.0314 31.7819 46.0978 31.6914L59.2205 41.5115L49.4853 55.315C42.2308 49.8865 40.6214 39.4282 45.8937 31.953Z" fill="white"/>
<path d="M21.8727 37.477H36.3033C37.0416 37.477 37.6445 36.8559 37.6445 36.0954C37.6445 35.335 37.0416 34.7139 36.3033 34.7139H21.8727C21.1344 34.7139 20.5315 35.335 20.5315 36.0954C20.5315 36.8559 21.1344 37.477 21.8727 37.477Z" fill="white"/>
<path d="M21.8727 42.1694H36.3033C37.0416 42.1694 37.6445 41.5483 37.6445 40.7878C37.6445 40.0273 37.0416 39.4062 36.3033 39.4062H21.8727C21.1344 39.4062 20.5315 40.0273 20.5315 40.7878C20.5315 41.5458 21.1344 42.1694 21.8727 42.1694Z" fill="white"/>
<path d="M21.8727 46.8598H36.3033C37.0416 46.8598 37.6445 46.2387 37.6445 45.4782C37.6445 44.7178 37.0416 44.0967 36.3033 44.0967H21.8727C21.1344 44.0967 20.5315 44.7178 20.5315 45.4782C20.5315 46.2387 21.1344 46.8598 21.8727 46.8598Z" fill="white"/>
<path d="M21.8727 51.5493H36.3033C37.0416 51.5493 37.6445 50.9282 37.6445 50.1677C37.6445 49.4072 37.0416 48.7861 36.3033 48.7861H21.8727C21.1344 48.7861 20.5315 49.4072 20.5315 50.1677C20.5315 50.9282 21.1344 51.5493 21.8727 51.5493Z" fill="white"/>
<path d="M192.757 214.172C193.827 213.551 195.413 213.894 195.923 215.045C197.348 212.324 196.633 209.013 196.279 205.944C196.154 204.844 196.09 203.677 196.552 202.677C197.018 201.677 198.183 200.941 199.185 201.347C201.234 202.176 200.578 206.374 202.765 206.629C204.006 206.773 204.809 205.384 205.504 204.316C206.461 202.846 207.809 201.653 209.364 200.9C209.912 200.635 210.646 200.457 211.054 200.919C211.434 201.347 211.261 202.024 211.054 202.562C210.352 204.389 209.499 206.154 208.512 207.832C208.374 208.067 208.227 208.331 208.284 208.6C208.412 209.211 209.283 209.12 209.844 208.881C211.866 208.013 213.889 207.147 215.911 206.279C216.486 206.829 216.251 207.844 215.754 208.468C215.258 209.091 214.558 209.539 214.147 210.226C213.53 211.263 213.711 212.583 213.575 213.791C213.44 215.001 212.623 216.383 211.451 216.226C212.412 216.681 212.443 218.187 211.79 219.043C211.137 219.899 210.081 220.288 209.101 220.699C208.123 221.112 207.092 221.665 206.67 222.662C206.309 223.511 206.473 224.494 206.295 225.401C205.319 230.372 198.527 232.306 195.712 228.352C193.747 225.601 188.531 216.627 192.757 214.172Z" fill="#978CFF"/>
<path d="M218.278 228.36C218.646 227.944 219.037 227.463 218.997 226.903C218.945 226.172 218.109 225.702 217.414 225.854C216.718 226.005 216.189 226.602 215.854 227.248C215.807 226.377 215.598 225.516 215.242 224.724C215.104 224.416 214.848 224.071 214.527 224.145C214.34 224.189 214.214 224.365 214.121 224.538C213.746 225.245 213.663 226.113 213.898 226.881C213.478 225.35 212.22 224.093 210.722 223.707C210.534 223.658 210.325 223.626 210.152 223.717C209.758 223.927 209.877 224.533 210.055 224.954C210.893 226.939 211.814 229.351 213.49 230.766C215.14 232.155 217.243 229.529 218.278 228.36Z" fill="#FDC510"/>
<path d="M198.418 230.927C198.615 230.927 198.793 230.793 198.848 230.587L203.814 211.426C203.878 211.182 203.736 210.93 203.498 210.866C203.263 210.8 203.016 210.947 202.955 211.192L197.989 230.353C197.925 230.597 198.067 230.849 198.304 230.913C198.342 230.922 198.38 230.927 198.418 230.927Z" fill="white"/>
<path d="M201.526 218.943C201.592 218.943 201.661 218.928 201.723 218.894L208.253 215.536C208.474 215.424 208.562 215.148 208.453 214.923C208.343 214.695 208.075 214.605 207.857 214.717L201.326 218.075C201.105 218.187 201.018 218.463 201.127 218.688C201.205 218.85 201.362 218.943 201.526 218.943Z" fill="white"/>
<path d="M199.79 225.638C199.859 225.638 199.928 225.621 199.994 225.587C200.213 225.469 200.298 225.195 200.184 224.97L197.478 219.574C197.364 219.349 197.098 219.261 196.88 219.378C196.662 219.496 196.576 219.769 196.69 219.994L199.396 225.391C199.472 225.548 199.629 225.638 199.79 225.638Z" fill="white"/>
<path d="M40.7402 212.91C40.7948 212.715 40.8422 212.517 40.885 212.316C41.3977 209.851 40.7425 207.003 38.7817 205.494C36.8589 204.012 33.7682 203.719 33.0299 201.364C32.5053 199.696 33.5474 197.992 34.2714 196.405C34.9954 194.818 35.2281 192.529 33.7468 191.666C32.5338 190.959 30.9314 191.72 29.6472 191.165C27.4609 190.221 27.7861 186.389 25.6306 185.374C24.2182 184.709 22.5304 185.668 21.0277 185.267C18.8533 184.685 18.2836 181.699 18.8129 179.452C19.3423 177.202 20.534 175.028 20.2729 172.73C19.5654 166.473 5.21317 161.91 4.95441 170.255C4.8832 172.547 6.3716 174.532 7.22144 176.652C8.07128 178.772 7.90985 181.838 5.81612 182.619C4.39894 183.147 2.43576 182.467 1.56693 183.738C-0.0354118 186.083 5.48378 187.905 5.15619 190.751C4.93068 192.705 2.28146 193.067 0.987717 194.517C-0.714333 196.424 0.524818 199.684 2.57819 201.178C4.63157 202.672 7.23093 203.105 9.48846 204.244C10.3929 204.699 11.3092 205.359 11.5751 206.357C12.1733 208.594 9.33654 210.057 7.10987 210.401C4.8832 210.746 1.98948 211.622 1.99186 213.942C1.99423 215.801 3.99776 216.916 5.75677 217.341C7.5158 217.767 9.54781 218.065 10.5424 219.618C11.492 221.104 11.0505 223.102 11.5656 224.799C12.7288 228.628 24.9446 230.986 28.7309 230.034C34.6774 228.543 33.0584 223.381 37.2174 218.757C38.7485 217.062 40.1277 215.123 40.7402 212.91Z" fill="#FDC510"/>
<path d="M33.7896 230.399C33.9368 230.399 34.0816 230.323 34.1671 230.184L43.5058 214.759C43.6364 214.544 43.5723 214.263 43.3634 214.128C43.1568 213.996 42.8815 214.06 42.7509 214.275L33.4122 229.7C33.2816 229.915 33.3457 230.196 33.5546 230.33C33.6258 230.374 33.7089 230.399 33.7896 230.399Z" fill="white"/>
<path d="M36.8282 225.379C36.8661 225.379 36.9041 225.374 36.9421 225.364C37.1795 225.301 37.3219 225.049 37.2578 224.804L35.627 218.447C35.5653 218.202 35.3231 218.055 35.0834 218.121C34.846 218.185 34.7036 218.437 34.7677 218.681L36.3985 225.039C36.4507 225.244 36.6311 225.379 36.8282 225.379Z" fill="white"/>
<path d="M40.6784 219.021C40.7022 219.021 40.7259 219.019 40.7497 219.016L45.8677 218.177C46.1098 218.138 46.276 217.904 46.238 217.654C46.2 217.405 45.9745 217.231 45.7276 217.273L40.6096 218.111C40.3675 218.151 40.2013 218.385 40.2393 218.635C40.2725 218.86 40.4624 219.021 40.6784 219.021Z" fill="white"/>
<path d="M29.3196 232C29.3671 232 29.417 231.993 29.4644 231.976C29.6971 231.893 29.8205 231.633 29.7398 231.394L14.9389 187.186C14.8582 186.946 14.6042 186.822 14.3739 186.902C14.1413 186.986 14.0178 187.245 14.0985 187.484L28.8995 231.692C28.9612 231.883 29.1345 232 29.3196 232Z" fill="white"/>
<path d="M23.264 214.974C23.4895 214.974 23.6818 214.798 23.7055 214.561C23.7316 214.309 23.5512 214.084 23.3067 214.059L13.6712 213.067C13.4339 213.042 13.2083 213.226 13.1846 213.477C13.1585 213.729 13.3389 213.954 13.5834 213.979L23.2189 214.971C23.2331 214.974 23.2497 214.974 23.264 214.974Z" fill="white"/>
<path d="M19.2783 201.941C19.4896 201.941 19.6747 201.787 19.7151 201.567C19.7602 201.317 19.5988 201.078 19.359 201.034L11.1906 199.483C10.9437 199.437 10.7182 199.601 10.6731 199.85C10.628 200.1 10.7894 200.339 11.0292 200.383L19.1976 201.934C19.2237 201.938 19.2498 201.941 19.2783 201.941Z" fill="white"/>
<path d="M21.2628 207.843C21.3815 207.843 21.5002 207.794 21.5881 207.699L28.3606 200.246C28.5292 200.06 28.5197 199.771 28.3393 199.598C28.1589 199.424 27.8788 199.436 27.7102 199.62L20.9376 207.073C20.7691 207.259 20.7786 207.547 20.959 207.721C21.0445 207.802 21.1536 207.843 21.2628 207.843Z" fill="white"/>
<path d="M147.893 78.0589L167.817 83.9739C169.659 84.5217 171.599 83.4164 172.13 81.5189L176.213 66.9281C176.745 65.0306 175.672 63.0328 173.83 62.4851L153.906 56.57C152.064 56.0223 150.125 57.1275 149.593 59.025L145.51 73.6159C144.981 75.5134 146.054 77.5111 147.893 78.0589Z" fill="#FDC510"/>
<path d="M175.133 64.4242L153.5 37.4775L150.725 43.7398L154.946 44.0944L172.069 64.4242H175.133Z" fill="#FDC510"/>
<path d="M126.446 134.232L129.881 146.497L134.258 145.812L129.883 133.222C129.883 133.222 127.438 133.263 126.446 134.232Z" fill="#EAC2AB"/>
<path d="M112.3 149.407C112.3 149.407 115.402 150.571 121.418 151.251C127.433 151.93 135.499 151.561 136.943 151.109C139.138 150.424 137.795 143.504 135.784 143.421C133.774 143.338 132.867 146.108 129.429 143.462C126.486 141.196 123.879 145.135 118.541 145.993C113.202 146.854 111.039 147.196 112.3 149.407Z" fill="#FDC510"/>
<path d="M121.13 134.848C120.212 124.763 116.839 110.444 118.939 100.296C121.076 89.9796 128.226 86.4438 135.333 79.0787C142.676 71.4666 142.642 78.7437 142.642 78.7437L143.295 80.9224C139.827 83.9056 149.906 85.8569 146.526 88.933C142.884 92.2464 140.033 93.8945 136.515 97.3325C132.031 101.714 129.619 99.8291 130.111 106.267C130.251 108.094 133.408 124.744 134.336 131.749C135.409 139.858 140.814 137.386 126.244 139.968C117.183 141.57 121.703 141.159 121.13 134.848Z" fill="white"/>
<path d="M156.615 153.3L156.79 165.835L161.149 166.209L160.159 153.141C160.159 153.141 157.811 152.608 156.615 153.3Z" fill="#EAC2AB"/>
<path d="M139.411 170.444C139.411 170.444 142.54 171.412 148.508 171.732C154.476 172.053 161.13 172.151 162.324 171.278C163.518 170.405 164.156 163.155 162.169 163.189C160.183 163.223 159.463 166.006 155.914 163.597C152.873 161.533 150.552 165.566 145.346 166.722C140.14 167.879 138.032 168.338 139.411 170.444Z" fill="#FDC510"/>
<path d="M147.219 158.865C147.338 158.391 147.798 157.975 148.185 157.56C151.739 153.745 149.897 149.104 148.508 145.013C145.211 135.308 145.125 124.999 144.005 114.939C142.913 105.119 140.197 95.5259 136.233 86.4247C134.792 83.1187 132.705 77.9812 138.414 78.0937C141.118 78.1475 143.689 77.634 146.224 76.7708C147.559 76.316 146.082 76.1131 147.559 76.316C152.593 77.0105 155.898 85.4148 155.447 88.6034C154.547 94.9513 154.922 100.842 155.722 107.283C156.855 116.413 156.874 125.732 159.563 134.537C160.881 138.853 162.284 143.142 163.66 147.439C164.465 149.945 167.672 155.202 166.585 157.765C165.092 161.284 155.478 160.063 152.413 160.484C150.11 160.795 146.813 160.477 147.219 158.865Z" fill="white"/>
<path d="M137.144 30.5161L138.467 39.8374C140.803 40.5 143.252 41.7618 145.716 41.7593C145.605 40.0305 143.846 38.0523 143.039 36.4214C142.058 34.4431 141.368 32.394 141.477 30.1737C141.762 24.3711 137.144 30.5161 137.144 30.5161Z" fill="#D4A79A"/>
<path d="M133.042 12.4482C133.047 12.458 129.242 14.9424 131.26 20.8868C133.418 27.2469 136.53 32.5727 138.526 32.0225C144.048 30.4991 145.69 26.5231 147.357 23.0924C149.401 18.8841 143.825 9.45525 143.825 9.45525L139.148 7.48438L133.042 12.4482Z" fill="#EAC2AB"/>
<path d="M125.987 12.0496C125.432 10.7243 126.054 8.23505 127.008 7.31564C127.376 6.96108 127.858 6.71411 128.361 6.72144C128.739 6.72633 129.123 6.87305 129.489 6.78257C130.59 6.51359 130.588 5.6113 131.599 5.20783C132.352 4.90706 133.152 5.52082 133.954 5.63819C134.562 5.72622 135.162 5.52327 135.751 5.35454C137.408 4.88017 138.901 3.97787 140.613 3.64042C142.056 3.35677 143.59 3.39345 144.966 3.97053C146.403 4.57206 147.502 5.79958 148.157 7.26918C148.548 8.14702 148.736 9.14469 148.563 10.0886C148.705 9.31341 150.196 10.0152 150.452 10.2964C151.456 11.3992 153.985 14.6269 153.621 16.0305C153.334 17.1431 154.227 18.1505 153.973 19.2754C153.671 20.6154 150.027 21.3905 149.375 22.6107C148.624 24.0094 146.97 24.8236 145.465 24.5718C145.816 23.332 146.163 22.0654 146.137 20.7645C146.108 19.4637 147.388 13.4826 140.667 12.7441C137.997 12.4507 135.008 14.8128 132.383 15.1233C131.136 15.27 129.864 15.1356 128.651 14.7712C127.713 14.49 126.721 13.2576 126.139 12.3455C126.08 12.2502 126.03 12.1523 125.987 12.0496Z" fill="#4B369D"/>
<path d="M130.234 11.448C128.582 10.5384 128.103 8.48192 127.934 6.65532C127.751 4.66977 127.787 4.31521 129.522 2.91653C130.192 2.37612 131.849 1.79905 131.851 1.79905C136.048 0.351456 140.793 -0.690222 145.192 0.554412C149.235 1.69879 152.026 5.03167 153.413 8.74112C154.118 10.6264 154.509 12.6535 154.519 14.6586C154.528 16.8594 153.64 19.3022 155.141 21.2388C154.588 21.2804 154.025 21.2266 153.493 21.0774C155.796 21.4222 159.264 22.0091 159.347 24.8333C159.383 26.0706 158.547 27.149 157.842 28.1833C157.137 29.2177 156.515 30.5088 157.004 31.6531C157.621 33.0983 159.765 33.668 160.04 35.211C160.368 37.0449 158.571 37.8836 157.845 39.3117C156.931 41.1114 157.807 43.2045 158.015 45.0702C158.203 46.7257 156.617 47.4861 155.582 48.474C152.582 51.3374 152.62 54.592 155.903 57.7562C155.969 57.8198 155.943 57.9445 155.896 58.0227C155.846 58.1059 155.739 58.1401 155.642 58.1646C151.4 59.2331 145.887 55.2865 144.909 51.3521C144.468 49.5793 145.593 47.9214 145.099 46.2171C144.57 44.3856 142.453 43.6984 141.042 42.6348C138.448 40.681 135.673 37.2992 136.055 33.9174C136.288 31.8585 136.959 29.538 138.434 27.8605C139.723 26.391 143.573 25.5889 143.533 23.3931C143.516 22.4223 142.704 21.6716 142.092 20.8989C140.542 18.9403 143.514 17.2335 142.047 16.2114C141.102 15.5536 139.984 15.0914 138.835 14.8934C137.617 14.6831 136.375 14.485 135.428 13.6585C134.543 12.8858 133.32 11.1399 131.951 11.2573C130.241 11.404 128.278 10.9932 127.393 9.57984" fill="#4B369D"/>
<path d="M135.129 57.9269C135.739 52.3052 132.917 43.358 136.321 38.7928C136.67 38.3257 137.045 37.8587 137.55 37.553C143.953 33.6846 148.385 39.6951 150.431 44.9841C152.204 49.569 151.986 53.7895 152.119 58.5724C152.34 66.6344 154.288 74.4788 156.776 82.1422C157.664 84.876 157.899 88.0597 155.39 88.4754C151.998 89.0354 151.267 85.0129 148.029 83.9737C145.071 83.0249 142.683 83.6069 139.452 83.7781C137.85 83.8637 132.615 82.8489 132.933 79.9781C133.691 73.1779 134.825 67.3117 134.863 62.5753C134.875 61.0446 134.961 59.4869 135.129 57.9269Z" fill="#D7384E"/>
<path d="M143.796 43.1878C143.796 43.1878 145.643 51.4796 147.587 61.5858C149.531 71.6945 146.647 79.3188 146.647 79.3188C146.227 80.4338 145.795 81.5464 145.325 82.6248C144.404 84.7497 144.1 86.1631 144.458 88.464C144.76 90.4031 144.124 92.1124 142.742 93.5746C141.754 94.6188 140.515 95.4281 139.661 96.5872C139.523 96.773 139.295 96.9833 139.089 96.8757C138.913 96.7852 138.92 96.5456 138.951 96.3549C139.231 94.6359 139.511 92.9169 139.794 91.1978C139.848 90.8628 139.903 90.5156 139.822 90.1855C139.741 89.8554 139.487 89.5424 139.138 89.4862C138.721 89.4201 138.343 89.7258 138.037 90.007C137.572 90.4374 137.249 92.0048 136.39 91.4106C136.029 89.9043 137.479 87.0629 138.376 85.8354C139.26 84.4465 140.95 84.7253 141.474 83.2434C142.039 81.6442 142.602 80.0475 143.148 78.4434C147.017 62.5248 141.562 55.9886 141.562 55.9886C141.562 55.9886 142.759 54.9592 141.904 47.0488C141.045 39.1433 143.796 43.1878 143.796 43.1878Z" fill="#EAC2AB"/>
<path d="M139.461 55.3378C139.461 55.3378 135.027 40.72 141.251 40.989C147.475 41.258 149.5 58.14 149.5 58.14L139.293 57.5532L139.461 55.3378Z" fill="#F44E4E"/>
</g>
<defs>
<filter id="filter0_d_3_66301" x="0.00012207" y="0" width="233" height="246" filterUnits="userSpaceOnUse" color-interpolation-filters="sRGB">
<feFlood flood-opacity="0" result="BackgroundImageFix"/>
<feColorMatrix in="SourceAlpha" type="matrix" values="0 0 0 0 0 0 0 0 0 0 0 0 0 0 0 0 0 0 127 0" result="hardAlpha"/>
<feOffset dx="10" dy="10"/>
<feGaussianBlur stdDeviation="2"/>
<feColorMatrix type="matrix" values="0 0 0 0 0 0 0 0 0 0 0 0 0 0 0 0 0 0 0.25 0"/>
<feBlend mode="normal" in2="BackgroundImageFix" result="effect1_dropShadow_3_66301"/>
<feBlend mode="normal" in="SourceGraphic" in2="effect1_dropShadow_3_66301" result="shape"/>
</filter>
</defs>
</svg>
