<svg width="549" height="107" viewBox="0 0 549 107" fill="none" xmlns="http://www.w3.org/2000/svg">
<path d="M53.384 66.34C49.1 66.34 46.89 64.538 45.904 63.688C45.564 63.416 45.428 63.212 45.734 62.668L46.958 60.56C47.23 60.084 47.808 60.084 48.114 60.322C49.508 61.376 51.038 62.43 53.248 62.43C55.016 62.43 56.342 61.274 56.342 59.812C56.342 58.078 54.88 56.888 52.024 55.732C48.828 54.44 45.632 52.4 45.632 48.388C45.632 45.362 47.876 41.86 53.282 41.86C56.75 41.86 59.402 43.628 60.082 44.138C60.422 44.342 60.524 44.92 60.286 45.26L58.994 47.198C58.722 47.606 58.212 47.878 57.804 47.606C56.342 46.688 54.948 45.736 53.078 45.736C51.14 45.736 50.086 46.824 50.086 48.116C50.086 49.714 51.344 50.802 54.098 51.924C57.396 53.25 61.204 55.222 61.204 59.608C61.204 63.11 58.178 66.34 53.384 66.34ZM65.2261 61.308V54.1H63.6961C63.2881 54.1 62.9821 53.726 62.9821 53.352V51.04C62.9821 50.598 63.2881 50.292 63.6961 50.292H65.2261V45.94C65.2261 45.532 65.6001 45.192 65.9741 45.192H68.7621C69.1701 45.192 69.4761 45.532 69.4761 45.94V50.292H73.1481C73.5561 50.292 73.8961 50.598 73.8961 51.04V53.352C73.8961 53.726 73.5561 54.1 73.1481 54.1H69.4761V61.172C69.4761 62.226 69.9861 62.464 70.7681 62.464C71.4481 62.464 72.7401 62.09 73.1481 61.954C73.5901 61.784 73.9641 61.988 74.0321 62.362L74.4741 64.436C74.5761 64.844 74.4061 65.15 74.0321 65.354C73.4881 65.66 71.2441 66.374 69.6121 66.374C66.1101 66.374 65.2261 64.028 65.2261 61.308ZM76.4681 58.146C76.4681 53.726 79.7321 49.952 84.3901 49.952C88.4701 49.952 91.5981 52.978 91.5981 57.228C91.5981 57.466 91.5641 58.01 91.5301 58.248C91.4961 58.656 91.1221 58.962 90.7821 58.962H80.7181C80.7521 60.9 82.3501 62.6 84.6281 62.6C86.1921 62.6 87.2801 62.022 87.9941 61.444C88.3681 61.138 88.7761 61.104 89.0141 61.444L90.3401 63.212C90.6121 63.518 90.6461 63.892 90.2721 64.232C88.9121 65.388 86.9741 66.374 84.4241 66.374C79.7321 66.374 76.4681 62.634 76.4681 58.146ZM80.9561 56.174H87.3141C87.2461 54.644 86.0221 53.454 84.2881 53.454C82.3841 53.454 81.1601 54.61 80.9561 56.174ZM110.595 58.18C110.595 62.77 107.501 66.374 102.809 66.374C101.245 66.374 99.7494 66 99.0354 65.728V73.344C99.0354 73.718 98.6614 74.092 98.2874 74.092H95.5334C95.1254 74.092 94.7854 73.718 94.7854 73.344V51.04C94.7854 50.632 95.1254 50.292 95.5334 50.292H96.7914C97.1654 50.292 97.4034 50.598 97.5394 51.04L97.9474 52.298C97.9474 52.298 99.7494 49.952 103.081 49.952C107.365 49.952 110.595 53.42 110.595 58.18ZM99.0354 56.004V61.614C99.0354 61.614 100.327 62.498 102.299 62.498C104.883 62.498 106.209 60.39 106.209 58.18C106.209 55.97 104.951 53.828 102.503 53.828C100.463 53.828 99.3754 55.12 99.0354 56.004ZM123.265 61.308V54.1H121.735C121.327 54.1 121.021 53.726 121.021 53.352V51.04C121.021 50.598 121.327 50.292 121.735 50.292H123.265V45.94C123.265 45.532 123.639 45.192 124.013 45.192H126.801C127.209 45.192 127.515 45.532 127.515 45.94V50.292H131.187C131.595 50.292 131.935 50.598 131.935 51.04V53.352C131.935 53.726 131.595 54.1 131.187 54.1H127.515V61.172C127.515 62.226 128.025 62.464 128.807 62.464C129.487 62.464 130.779 62.09 131.187 61.954C131.629 61.784 132.003 61.988 132.071 62.362L132.513 64.436C132.615 64.844 132.445 65.15 132.071 65.354C131.527 65.66 129.283 66.374 127.651 66.374C124.149 66.374 123.265 64.028 123.265 61.308ZM134.507 58.112C134.507 53.692 138.111 49.952 142.531 49.952C146.985 49.952 150.589 53.692 150.589 58.112C150.589 62.6 146.985 66.374 142.531 66.374C138.111 66.374 134.507 62.6 134.507 58.112ZM138.451 58.112C138.451 60.526 140.253 62.498 142.531 62.498C144.809 62.498 146.645 60.526 146.645 58.112C146.645 55.732 144.809 53.828 142.531 53.828C140.253 53.828 138.451 55.732 138.451 58.112ZM167.493 65.966L160.455 51.21C160.217 50.734 160.421 50.292 160.999 50.292H164.229C164.603 50.292 164.807 50.462 164.943 50.734L168.207 58.486C168.241 58.486 168.275 58.486 168.275 58.486L171.743 50.734C171.947 50.326 172.287 50.292 172.729 50.292H175.585C176.163 50.292 176.401 50.734 176.129 51.21L169.057 65.966C168.921 66.17 168.717 66.374 168.377 66.374H168.173C167.833 66.374 167.629 66.17 167.493 65.966ZM177.406 58.146C177.406 53.726 180.67 49.952 185.328 49.952C189.408 49.952 192.536 52.978 192.536 57.228C192.536 57.466 192.502 58.01 192.468 58.248C192.434 58.656 192.06 58.962 191.72 58.962H181.656C181.69 60.9 183.288 62.6 185.566 62.6C187.13 62.6 188.218 62.022 188.932 61.444C189.306 61.138 189.714 61.104 189.952 61.444L191.278 63.212C191.55 63.518 191.584 63.892 191.21 64.232C189.85 65.388 187.912 66.374 185.362 66.374C180.67 66.374 177.406 62.634 177.406 58.146ZM181.894 56.174H188.252C188.184 54.644 186.96 53.454 185.226 53.454C183.322 53.454 182.098 54.61 181.894 56.174ZM195.723 65.252V51.04C195.723 50.598 196.097 50.292 196.471 50.292H197.729C198.103 50.292 198.273 50.462 198.409 50.802L198.987 52.332C199.531 51.55 200.993 49.952 203.407 49.952C205.277 49.952 206.807 50.462 206.365 51.482L205.345 53.794C205.175 54.168 204.801 54.304 204.427 54.134C204.053 53.964 203.679 53.828 202.965 53.828C201.265 53.828 200.245 54.916 199.973 55.46V65.252C199.973 65.83 199.599 66 199.089 66H196.471C196.097 66 195.723 65.66 195.723 65.252ZM208.871 65.252V51.04C208.871 50.598 209.245 50.292 209.619 50.292H212.373C212.747 50.292 213.121 50.598 213.121 51.04V65.252C213.121 65.66 212.747 66 212.373 66H209.619C209.245 66 208.871 65.66 208.871 65.252ZM210.945 47.606C209.415 47.606 208.259 46.382 208.259 44.886C208.259 43.39 209.415 42.2 210.945 42.2C212.475 42.2 213.665 43.39 213.665 44.886C213.665 46.382 212.475 47.606 210.945 47.606ZM218.763 65.252V54.1H217.131C216.689 54.1 216.383 53.726 216.383 53.352V51.04C216.383 50.598 216.689 50.292 217.131 50.292H218.763V48.66C218.763 44.546 221.109 41.86 225.495 41.86C228.113 41.86 230.527 42.982 231.513 43.526C231.853 43.73 231.921 44.206 231.751 44.546L230.799 46.62C230.527 47.164 230.051 47.164 229.609 46.926C228.861 46.518 227.195 45.736 225.529 45.736C223.455 45.736 223.013 46.756 223.013 48.524V50.292H233.009C233.417 50.292 233.757 50.598 233.757 51.04V65.252C233.757 65.66 233.417 66 233.009 66H230.255C229.779 66 229.507 65.66 229.507 65.252V54.1H223.013V65.252C223.013 66 222.503 66 221.891 66H219.511C219.103 66 218.763 65.66 218.763 65.252ZM237.105 58.146C237.105 53.726 240.369 49.952 245.027 49.952C249.107 49.952 252.235 52.978 252.235 57.228C252.235 57.466 252.201 58.01 252.167 58.248C252.133 58.656 251.759 58.962 251.419 58.962H241.355C241.389 60.9 242.987 62.6 245.265 62.6C246.829 62.6 247.917 62.022 248.631 61.444C249.005 61.138 249.413 61.104 249.651 61.444L250.977 63.212C251.249 63.518 251.283 63.892 250.909 64.232C249.549 65.388 247.611 66.374 245.061 66.374C240.369 66.374 237.105 62.634 237.105 58.146ZM241.593 56.174H247.951C247.883 54.644 246.659 53.454 244.925 53.454C243.021 53.454 241.797 54.61 241.593 56.174ZM254.47 58.146C254.47 53.556 257.564 49.952 262.256 49.952C263.82 49.952 265.316 50.326 266.03 50.598V42.948C266.03 42.574 266.404 42.2 266.778 42.2H269.532C269.94 42.2 270.28 42.574 270.28 42.948V65.252C270.28 65.66 269.94 66 269.532 66H268.274C267.9 66 267.662 65.694 267.526 65.252L267.118 64.028C267.118 64.028 265.316 66.374 261.984 66.374C257.7 66.374 254.47 62.906 254.47 58.146ZM266.03 60.322V54.712C266.03 54.712 264.738 53.828 262.766 53.828C260.182 53.828 258.856 55.936 258.856 58.146C258.856 60.356 260.114 62.498 262.562 62.498C264.602 62.498 265.69 61.206 266.03 60.322ZM286.249 65.082L281.353 51.312C281.149 50.768 281.421 50.292 282.033 50.292H285.297C285.637 50.292 285.875 50.462 285.943 50.734L288.765 60.118H288.833L292.403 50.734C292.641 50.326 292.913 50.292 293.389 50.292H296.279C296.891 50.292 297.197 50.802 296.959 51.312L287.711 73.616C287.609 73.854 287.337 74.092 287.031 74.092H283.767C283.155 74.092 282.849 73.582 283.087 73.038L286.249 65.082ZM298.431 58.112C298.431 53.692 302.035 49.952 306.455 49.952C310.909 49.952 314.513 53.692 314.513 58.112C314.513 62.6 310.909 66.374 306.455 66.374C302.035 66.374 298.431 62.6 298.431 58.112ZM302.375 58.112C302.375 60.526 304.177 62.498 306.455 62.498C308.733 62.498 310.569 60.526 310.569 58.112C310.569 55.732 308.733 53.828 306.455 53.828C304.177 53.828 302.375 55.732 302.375 58.112ZM317.707 59.37V51.04C317.707 50.598 318.047 50.292 318.455 50.292H321.209C321.617 50.292 321.957 50.598 321.957 51.04V59.37C321.957 61.444 322.671 62.498 324.609 62.498C326.343 62.498 327.159 60.934 327.397 59.574V51.04C327.397 50.428 327.601 50.292 328.247 50.292H330.899C331.307 50.292 331.647 50.598 331.647 51.04V65.252C331.647 65.66 331.307 66 330.899 66H329.675C329.301 66 329.029 65.728 328.927 65.422L328.485 64.096C327.669 64.946 326.037 66.374 323.623 66.374C318.761 66.374 317.707 63.348 317.707 59.37ZM336.006 65.252V51.04C336.006 50.598 336.38 50.292 336.754 50.292H338.012C338.386 50.292 338.556 50.462 338.692 50.802L339.27 52.332C339.814 51.55 341.276 49.952 343.69 49.952C345.56 49.952 347.09 50.462 346.648 51.482L345.628 53.794C345.458 54.168 345.084 54.304 344.71 54.134C344.336 53.964 343.962 53.828 343.248 53.828C341.548 53.828 340.528 54.916 340.256 55.46V65.252C340.256 65.83 339.882 66 339.372 66H336.754C336.38 66 336.006 65.66 336.006 65.252ZM355.64 58.146C355.64 53.522 359.312 49.952 363.97 49.952C366.418 49.952 368.322 51.006 369.818 52.604C370.158 52.944 369.988 53.386 369.648 53.726L368.22 55.29C367.88 55.664 367.506 55.494 367.2 55.188C366.452 54.474 365.534 53.828 364.072 53.828C361.624 53.828 359.924 55.732 359.924 58.146C359.924 60.594 361.59 62.498 364.038 62.498C365.772 62.498 366.69 61.546 367.37 60.764C367.608 60.492 368.084 60.424 368.356 60.662L369.886 61.954C370.26 62.294 370.43 62.668 370.158 63.076C368.832 65.15 366.724 66.374 363.936 66.374C359.346 66.374 355.64 62.872 355.64 58.146ZM372.142 58.146C372.142 53.726 375.406 49.952 380.064 49.952C384.144 49.952 387.272 52.978 387.272 57.228C387.272 57.466 387.238 58.01 387.204 58.248C387.17 58.656 386.796 58.962 386.456 58.962H376.392C376.426 60.9 378.024 62.6 380.302 62.6C381.866 62.6 382.954 62.022 383.668 61.444C384.042 61.138 384.45 61.104 384.688 61.444L386.014 63.212C386.286 63.518 386.32 63.892 385.946 64.232C384.586 65.388 382.648 66.374 380.098 66.374C375.406 66.374 372.142 62.634 372.142 58.146ZM376.63 56.174H382.988C382.92 54.644 381.696 53.454 379.962 53.454C378.058 53.454 376.834 54.61 376.63 56.174ZM390.459 65.252V51.04C390.459 50.598 390.833 50.292 391.207 50.292H392.465C392.839 50.292 393.009 50.462 393.145 50.802L393.723 52.332C394.267 51.55 395.729 49.952 398.143 49.952C400.013 49.952 401.543 50.462 401.101 51.482L400.081 53.794C399.911 54.168 399.537 54.304 399.163 54.134C398.789 53.964 398.415 53.828 397.701 53.828C396.001 53.828 394.981 54.916 394.709 55.46V65.252C394.709 65.83 394.335 66 393.825 66H391.207C390.833 66 390.459 65.66 390.459 65.252ZM404.662 61.308V54.1H403.132C402.724 54.1 402.418 53.726 402.418 53.352V51.04C402.418 50.598 402.724 50.292 403.132 50.292H404.662V45.94C404.662 45.532 405.036 45.192 405.41 45.192H408.198C408.606 45.192 408.912 45.532 408.912 45.94V50.292H412.584C412.992 50.292 413.332 50.598 413.332 51.04V53.352C413.332 53.726 412.992 54.1 412.584 54.1H408.912V61.172C408.912 62.226 409.422 62.464 410.204 62.464C410.884 62.464 412.176 62.09 412.584 61.954C413.026 61.784 413.4 61.988 413.468 62.362L413.91 64.436C414.012 64.844 413.842 65.15 413.468 65.354C412.924 65.66 410.68 66.374 409.048 66.374C405.546 66.374 404.662 64.028 404.662 61.308ZM416.856 65.252V51.04C416.856 50.598 417.23 50.292 417.604 50.292H420.358C420.732 50.292 421.106 50.598 421.106 51.04V65.252C421.106 65.66 420.732 66 420.358 66H417.604C417.23 66 416.856 65.66 416.856 65.252ZM418.93 47.606C417.4 47.606 416.244 46.382 416.244 44.886C416.244 43.39 417.4 42.2 418.93 42.2C420.46 42.2 421.65 43.39 421.65 44.886C421.65 46.382 420.46 47.606 418.93 47.606ZM426.747 65.252V54.1H425.115C424.673 54.1 424.367 53.726 424.367 53.352V51.04C424.367 50.598 424.673 50.292 425.115 50.292H426.747V48.66C426.747 44.546 429.093 41.86 433.479 41.86C436.097 41.86 438.511 42.982 439.497 43.526C439.837 43.73 439.905 44.206 439.735 44.546L438.783 46.62C438.511 47.164 438.035 47.164 437.593 46.926C436.845 46.518 435.179 45.736 433.513 45.736C431.439 45.736 430.997 46.756 430.997 48.524V50.292H440.993C441.401 50.292 441.741 50.598 441.741 51.04V65.252C441.741 65.66 441.401 66 440.993 66H438.239C437.763 66 437.491 65.66 437.491 65.252V54.1H430.997V65.252C430.997 66 430.487 66 429.875 66H427.495C427.087 66 426.747 65.66 426.747 65.252ZM445.089 58.146C445.089 53.522 448.761 49.952 453.419 49.952C455.867 49.952 457.771 51.006 459.267 52.604C459.607 52.944 459.437 53.386 459.097 53.726L457.669 55.29C457.329 55.664 456.955 55.494 456.649 55.188C455.901 54.474 454.983 53.828 453.521 53.828C451.073 53.828 449.373 55.732 449.373 58.146C449.373 60.594 451.039 62.498 453.487 62.498C455.221 62.498 456.139 61.546 456.819 60.764C457.057 60.492 457.533 60.424 457.805 60.662L459.335 61.954C459.709 62.294 459.879 62.668 459.607 63.076C458.281 65.15 456.173 66.374 453.385 66.374C448.795 66.374 445.089 62.872 445.089 58.146ZM461.555 61.002C461.555 58.214 463.833 56.072 467.811 56.072C469.409 56.072 470.837 56.514 470.837 56.514C470.905 54.508 470.327 53.556 468.661 53.556C467.233 53.556 465.159 53.862 464.241 54.134C463.731 54.304 463.425 53.93 463.357 53.454L463.017 51.686C462.881 51.108 463.187 50.836 463.527 50.734C463.867 50.598 466.349 49.952 468.899 49.952C473.795 49.952 474.815 52.502 474.815 56.786V65.252C474.815 65.66 474.475 66 474.067 66H472.911C472.639 66 472.435 65.898 472.231 65.456L471.789 64.402C470.871 65.286 469.307 66.374 466.859 66.374C463.731 66.374 461.555 64.368 461.555 61.002ZM465.635 61.002C465.635 62.328 466.451 63.212 467.913 63.212C469.307 63.212 470.531 62.124 470.735 61.546V59.234C470.735 59.234 469.681 58.758 468.423 58.758C466.621 58.758 465.635 59.608 465.635 61.002ZM480.099 61.308V54.1H478.569C478.161 54.1 477.855 53.726 477.855 53.352V51.04C477.855 50.598 478.161 50.292 478.569 50.292H480.099V45.94C480.099 45.532 480.473 45.192 480.847 45.192H483.635C484.043 45.192 484.349 45.532 484.349 45.94V50.292H488.021C488.429 50.292 488.769 50.598 488.769 51.04V53.352C488.769 53.726 488.429 54.1 488.021 54.1H484.349V61.172C484.349 62.226 484.859 62.464 485.641 62.464C486.321 62.464 487.613 62.09 488.021 61.954C488.463 61.784 488.837 61.988 488.905 62.362L489.347 64.436C489.449 64.844 489.279 65.15 488.905 65.354C488.361 65.66 486.117 66.374 484.485 66.374C480.983 66.374 480.099 64.028 480.099 61.308ZM491.341 58.146C491.341 53.726 494.605 49.952 499.263 49.952C503.343 49.952 506.471 52.978 506.471 57.228C506.471 57.466 506.437 58.01 506.403 58.248C506.369 58.656 505.995 58.962 505.655 58.962H495.591C495.625 60.9 497.223 62.6 499.501 62.6C501.065 62.6 502.153 62.022 502.867 61.444C503.241 61.138 503.649 61.104 503.887 61.444L505.213 63.212C505.485 63.518 505.519 63.892 505.145 64.232C503.785 65.388 501.847 66.374 499.297 66.374C494.605 66.374 491.341 62.634 491.341 58.146ZM495.829 56.174H502.187C502.119 54.644 500.895 53.454 499.161 53.454C497.257 53.454 496.033 54.61 495.829 56.174Z" fill="white"/>
<path d="M549 95.75C549 101.966 545.404 107 540.964 107H540.429C539.243 107 538.286 105.659 538.286 104C538.286 102.341 539.243 101 540.429 101H540.964C543.033 101 544.714 98.6469 544.714 95.75V95H540.429C538.065 95 536.143 92.3094 536.143 89V83C536.143 79.6906 538.065 77 540.429 77H544.714C547.078 77 549 79.6906 549 83V95.75ZM531.857 95.75C531.857 101.966 528.261 107 523.821 107H523.286C522.1 107 521.143 105.659 521.143 104C521.143 102.341 522.1 101 523.286 101H523.821C525.891 101 527.571 98.6469 527.571 95.75V95H523.286C520.922 95 519 92.3094 519 89V83C519 79.6906 520.922 77 523.286 77H527.571C529.935 77 531.857 79.6906 531.857 83V95.75Z" fill="white"/>
<path d="M0 11.25C0 5.03437 3.59598 0 8.03571 0H8.57143C9.7567 0 10.7143 1.34062 10.7143 3C10.7143 4.65938 9.7567 6 8.57143 6H8.03571C5.96652 6 4.28571 8.35312 4.28571 11.25V12H8.57143C10.9353 12 12.8571 14.6906 12.8571 18V24C12.8571 27.3094 10.9353 30 8.57143 30H4.28571C1.92188 30 0 27.3094 0 24V11.25ZM17.1429 11.25C17.1429 5.03437 20.7388 0 25.1786 0H25.7143C26.8996 0 27.8571 1.34062 27.8571 3C27.8571 4.65938 26.8996 6 25.7143 6H25.1786C23.1094 6 21.4286 8.35312 21.4286 11.25V12H25.7143C28.0781 12 30 14.6906 30 18V24C30 27.3094 28.0781 30 25.7143 30H21.4286C19.0647 30 17.1429 27.3094 17.1429 24V11.25Z" fill="white"/>
</svg>
