<svg width="20" height="17" viewBox="0 0 20 17" fill="none" xmlns="http://www.w3.org/2000/svg">
<path d="M10.2186 14.0111H1.20219C0.883346 14.0111 0.577566 13.8941 0.352112 13.6857C0.126658 13.4773 0 13.1947 0 12.9V1.78891C0 1.49422 0.126658 1.21161 0.352112 1.00323C0.577566 0.794859 0.883346 0.677795 1.20219 0.677795H18.0328C18.3516 0.677795 18.6574 0.794859 18.8829 1.00323C19.1083 1.21161 19.235 1.49422 19.235 1.78891V7.55002C18.4342 6.60737 17.2693 5.98818 15.9851 5.82249C14.7008 5.65679 13.397 5.95749 12.3475 6.66142C11.2981 7.36535 10.5845 8.41776 10.3568 9.59762C10.1291 10.7775 10.4048 11.993 11.1262 12.9889L10.5672 13.6222L10.2186 14.0111ZM3.00546 4.01113V4.90002H13.224V4.01113H3.00546ZM3.00546 7.12224H9.61749V6.23335H3.00546V7.12224ZM3.00546 11.0111H9.01639V10.1222H3.00546V11.0111Z" fill="white"/>
<path d="M19.133 10.45C19.1346 9.86425 18.9789 9.28727 18.6797 8.77083C18.3806 8.2544 17.9475 7.81467 17.4191 7.49109C16.8908 7.16751 16.2839 6.9702 15.6527 6.91686C15.0215 6.86353 14.3859 6.95583 13.8029 7.18549C13.2198 7.41515 12.7076 7.77499 12.3121 8.23273C11.9166 8.69046 11.6502 9.23178 11.5368 9.80811C11.4235 10.3844 11.4667 10.9778 11.6626 11.5349C11.8585 12.092 12.2009 12.5954 12.6592 13L11.4931 14.3167L12.0341 16.3223L14.2341 13.8445C14.9305 14.0348 15.6716 14.0348 16.368 13.8445L18.568 16.3223L19.109 14.3167L17.9428 13C18.3179 12.6717 18.6167 12.2764 18.8213 11.838C19.0259 11.3997 19.132 10.9274 19.133 10.45ZM12.6773 10.45C12.6701 9.9685 12.8181 9.49587 13.1023 9.09227C13.3866 8.68866 13.7943 8.3723 14.2736 8.18343C14.7529 7.99456 15.2821 7.9417 15.794 8.03157C16.3059 8.12145 16.7773 8.35001 17.1483 8.68817C17.5193 9.02634 17.7731 9.45884 17.8774 9.93067C17.9817 10.4025 17.9318 10.8923 17.7341 11.3379C17.5364 11.7835 17.1998 12.1646 16.7671 12.4329C16.3344 12.7012 15.8251 12.8444 15.304 12.8445C14.6137 12.846 13.9507 12.5951 13.4597 12.1465C12.9687 11.6979 12.6896 11.0881 12.6833 10.45H12.6773Z" fill="white"/>
</svg>
