<svg width="20" height="20" viewBox="0 0 20 20" fill="none" xmlns="http://www.w3.org/2000/svg">
<path d="M5.83355 16.6667V7.47917C5.83355 7.02083 6.00021 6.63195 6.33355 6.3125C6.66688 5.99306 7.06271 5.83333 7.52105 5.83333H16.6669C17.1252 5.83333 17.5177 5.99639 17.8444 6.3225C18.171 6.64861 18.3341 7.04111 18.3335 7.5V13.4792C18.3335 13.7014 18.2919 13.9133 18.2085 14.115C18.1252 14.3167 18.0072 14.4936 17.8544 14.6458L14.646 17.8542C14.4933 18.0069 14.316 18.125 14.1144 18.2083C13.9127 18.2917 13.701 18.3333 13.4794 18.3333H7.50022C7.04188 18.3333 6.64938 18.17 6.32271 17.8433C5.99605 17.5167 5.83299 17.1244 5.83355 16.6667ZM1.68771 5.20833C1.60438 4.75 1.69466 4.33667 1.95855 3.96833C2.22244 3.6 2.58355 3.37445 3.04188 3.29167L12.0835 1.6875C12.5419 1.60417 12.9552 1.69445 13.3235 1.95833C13.6919 2.22222 13.9174 2.58333 14.0002 3.04167L14.2085 4.16667H7.50022C6.58355 4.16667 5.79883 4.49306 5.14605 5.14583C4.49327 5.79861 4.16688 6.58333 4.16688 7.5V15.4583C3.94466 15.3333 3.75355 15.1667 3.59355 14.9583C3.43355 14.75 3.33299 14.5139 3.29188 14.25L1.68771 5.20833ZM11.2502 12.9167V14.5833C11.2502 14.8194 11.3302 15.0175 11.4902 15.1775C11.6502 15.3375 11.848 15.4172 12.0835 15.4167C12.3197 15.4167 12.5177 15.3367 12.6777 15.1767C12.8377 15.0167 12.9174 14.8189 12.9169 14.5833V12.9167H14.5835C14.8197 12.9167 15.0177 12.8367 15.1777 12.6767C15.3377 12.5167 15.4174 12.3189 15.4169 12.0833C15.4169 11.8472 15.3369 11.6492 15.1769 11.4892C15.0169 11.3292 14.8191 11.2494 14.5835 11.25H12.9169V9.58333C12.9169 9.34722 12.8369 9.14917 12.6769 8.98917C12.5169 8.82917 12.3191 8.74945 12.0835 8.75C11.8474 8.75 11.6494 8.83 11.4894 8.99C11.3294 9.15 11.2497 9.34778 11.2502 9.58333V11.25H9.58355C9.34744 11.25 9.14938 11.33 8.98938 11.49C8.82938 11.65 8.74966 11.8478 8.75021 12.0833C8.75021 12.3194 8.83021 12.5175 8.99021 12.6775C9.15021 12.8375 9.34799 12.9172 9.58355 12.9167H11.2502Z" fill="#004461"/>
</svg>
