<svg width="17" height="15" viewBox="0 0 17 15" fill="none" xmlns="http://www.w3.org/2000/svg">
<path d="M0.25 4.16667H10.3333V6H0.25V4.16667ZM0.25 2.33333H10.3333V0.5H0.25V2.33333ZM0.25 9.66667H6.66667V7.83333H0.25V9.66667ZM14.0092 6.7975L14.66 6.14667C14.7448 6.06169 14.8455 5.99427 14.9564 5.94827C15.0673 5.90227 15.1862 5.87859 15.3062 5.87859C15.4263 5.87859 15.5452 5.90227 15.6561 5.94827C15.767 5.99427 15.8677 6.06169 15.9525 6.14667L16.6033 6.7975C16.9608 7.155 16.9608 7.7325 16.6033 8.09L15.9525 8.74083L14.0092 6.7975ZM13.3583 7.44833L8.5 12.3067V14.25H10.4433L15.3017 9.39167L13.3583 7.44833Z" fill="#004461"/>
</svg>
