<svg width="56" height="56" viewBox="0 0 56 56" fill="none" xmlns="http://www.w3.org/2000/svg">
<path d="M6 14C6 11.8783 6.84285 9.84344 8.34315 8.34315C9.84344 6.84285 11.8783 6 14 6H20.686C21.2164 6 21.7251 6.21071 22.1002 6.58579C22.4753 6.96086 22.686 7.46957 22.686 8C22.686 8.53043 22.4753 9.03914 22.1002 9.41421C21.7251 9.78929 21.2164 10 20.686 10H14C12.9391 10 11.9217 10.4214 11.1716 11.1716C10.4214 11.9217 10 12.9391 10 14V20.682C10 21.2124 9.78929 21.7211 9.41421 22.0962C9.03914 22.4713 8.53043 22.682 8 22.682C7.46957 22.682 6.96086 22.4713 6.58579 22.0962C6.21071 21.7211 6 21.2124 6 20.682V14ZM33.318 8C33.318 7.46957 33.5287 6.96086 33.9038 6.58579C34.2789 6.21071 34.7876 6 35.318 6H42C44.1217 6 46.1566 6.84285 47.6569 8.34315C49.1571 9.84344 50 11.8783 50 14V20.682C50 21.2124 49.7893 21.7211 49.4142 22.0962C49.0391 22.4713 48.5304 22.682 48 22.682C47.4696 22.682 46.9609 22.4713 46.5858 22.0962C46.2107 21.7211 46 21.2124 46 20.682V14C46 12.9391 45.5786 11.9217 44.8284 11.1716C44.0783 10.4214 43.0609 10 42 10H35.318C34.7876 10 34.2789 9.78929 33.9038 9.41421C33.5287 9.03914 33.318 8.53043 33.318 8ZM8 33.318C8.53043 33.318 9.03914 33.5287 9.41421 33.9038C9.78929 34.2789 10 34.7876 10 35.318V42C10 43.0609 10.4214 44.0783 11.1716 44.8284C11.9217 45.5786 12.9391 46 14 46H20.682C21.2124 46 21.7211 46.2107 22.0962 46.5858C22.4713 46.9609 22.682 47.4696 22.682 48C22.682 48.5304 22.4713 49.0391 22.0962 49.4142C21.7211 49.7893 21.2124 50 20.682 50H14C11.8783 50 9.84344 49.1571 8.34315 47.6569C6.84285 46.1566 6 44.1217 6 42V35.318C6 34.7876 6.21071 34.2789 6.58579 33.9038C6.96086 33.5287 7.46957 33.318 8 33.318ZM48 33.318C48.5304 33.318 49.0391 33.5287 49.4142 33.9038C49.7893 34.2789 50 34.7876 50 35.318V42C50 44.1217 49.1571 46.1566 47.6569 47.6569C46.1566 49.1571 44.1217 50 42 50H35.318C34.7876 50 34.2789 49.7893 33.9038 49.4142C33.5287 49.0391 33.318 48.5304 33.318 48C33.318 47.4696 33.5287 46.9609 33.9038 46.5858C34.2789 46.2107 34.7876 46 35.318 46H42C43.0609 46 44.0783 45.5786 44.8284 44.8284C45.5786 44.0783 46 43.0609 46 42V35.318C46 34.7876 46.2107 34.2789 46.5858 33.9038C46.9609 33.5287 47.4696 33.318 48 33.318ZM28 32C29.0609 32 30.0783 31.5786 30.8284 30.8284C31.5786 30.0783 32 29.0609 32 28C32 26.9391 31.5786 25.9217 30.8284 25.1716C30.0783 24.4214 29.0609 24 28 24C26.9391 24 25.9217 24.4214 25.1716 25.1716C24.4214 25.9217 24 26.9391 24 28C24 29.0609 24.4214 30.0783 25.1716 30.8284C25.9217 31.5786 26.9391 32 28 32ZM25.236 16C24.6786 16 24.1322 16.1553 23.6581 16.4486C23.184 16.7418 22.801 17.1613 22.552 17.66L21.382 20H20C18.9391 20 17.9217 20.4214 17.1716 21.1716C16.4214 21.9217 16 22.9391 16 24V34C16 35.0609 16.4214 36.0783 17.1716 36.8284C17.9217 37.5786 18.9391 38 20 38H36C37.0609 38 38.0783 37.5786 38.8284 36.8284C39.5786 36.0783 40 35.0609 40 34V24C40 22.9391 39.5786 21.9217 38.8284 21.1716C38.0783 20.4214 37.0609 20 36 20H34.618L33.448 17.66C33.199 17.1613 32.816 16.7418 32.3419 16.4486C31.8678 16.1553 31.3214 16 30.764 16H25.236ZM28 22C28.7879 22 29.5681 22.1552 30.2961 22.4567C31.0241 22.7583 31.6855 23.2002 32.2426 23.7574C32.7998 24.3145 33.2417 24.9759 33.5433 25.7039C33.8448 26.4319 34 27.2121 34 28C34 28.7879 33.8448 29.5681 33.5433 30.2961C33.2417 31.0241 32.7998 31.6855 32.2426 32.2426C31.6855 32.7998 31.0241 33.2417 30.2961 33.5433C29.5681 33.8448 28.7879 34 28 34C26.4087 34 24.8826 33.3679 23.7574 32.2426C22.6321 31.1174 22 29.5913 22 28C22 26.4087 22.6321 24.8826 23.7574 23.7574C24.8826 22.6321 26.4087 22 28 22Z" fill="white"/>
</svg>
