<svg width="172" height="96" viewBox="0 0 172 96" fill="none" xmlns="http://www.w3.org/2000/svg">
<path d="M85.6725 59.7386C85.6421 59.7158 85.6118 59.6893 85.5928 59.6741C85.6269 59.7007 85.6535 59.7234 85.6725 59.7386Z" fill="#DA3925"/>
<path d="M85.7364 59.7914C85.7364 59.7914 85.706 59.7687 85.6719 59.7383C85.6985 59.7611 85.725 59.7801 85.7364 59.7914Z" fill="#DA3925"/>
<path d="M33.7601 25.1973C33.7601 25.1973 31.6958 30.3899 35.7866 33.6957L36.0545 33.9033C38.4093 29.2503 33.7601 25.1973 33.7601 25.1973Z" fill="#DA3925"/>
<path d="M38.3036 39.1676L38.5036 39.4393C42.0245 35.5901 38.6394 30.4352 38.6394 30.4352C38.6394 30.4352 35.2544 34.8769 38.3036 39.1676Z" fill="#DA3925"/>
<path d="M45.8513 51.3229L46.108 51.6701C50.5761 46.768 46.2551 40.2168 46.2551 40.2168C46.2551 40.2168 41.9606 45.8774 45.8476 51.3229H45.8513Z" fill="#DA3925"/>
<path d="M41.8737 45.6056L42.1303 45.9528C46.5946 41.0432 42.2661 34.4995 42.2661 34.4995C42.2661 34.4995 37.9754 40.1639 41.8737 45.6056Z" fill="#DA3925"/>
<path d="M50.4363 55.8853L50.7118 56.2589C55.5158 50.9832 50.8665 43.9414 50.8665 43.9414C50.8665 43.9414 46.2475 50.0322 50.4325 55.8891L50.4363 55.8853Z" fill="#DA3925"/>
<path d="M56.5574 60.2967L56.9008 60.6628C61.4444 54.4286 55.6215 47.4056 55.6215 47.4056C55.6215 47.4056 51.3723 54.4927 56.5612 60.2929L56.5574 60.2967Z" fill="#DA3925"/>
<path d="M62.6103 51.8058C62.6103 51.8058 59.2969 59.6853 65.4594 64.8667L65.8632 65.195C69.603 58.1457 62.6103 51.8058 62.6103 51.8058Z" fill="#DA3925"/>
<path d="M69.9911 53.7568C69.9911 53.7568 67.6061 62.5421 74.8365 67.1423L75.3083 67.4291C78.2631 59.4627 69.9911 53.7568 69.9911 53.7568Z" fill="#DA3925"/>
<path d="M30.1523 36.141C30.1523 36.141 33.6921 41.194 38.5678 39.3449L38.3904 39.0581C35.5337 34.6391 30.1523 36.1448 30.1523 36.1448V36.141Z" fill="#DA3925"/>
<path d="M34.9795 51.2134C34.9795 51.2134 41.6213 55.3909 46.4252 50.8172L46.0743 50.5681C40.5457 46.7981 34.9795 51.2134 34.9795 51.2134Z" fill="#DA3925"/>
<path d="M30.5674 43.9074C30.5674 43.9074 36.2657 49.3001 41.8735 45.749L41.5754 45.4358C36.8884 40.6582 30.5674 43.9074 30.5674 43.9074Z" fill="#DA3925"/>
<path d="M38.6659 57.908C38.6659 57.908 46.319 61.4591 50.8249 55.9268L50.4135 55.7079C44.0019 52.4361 38.6621 57.908 38.6621 57.908H38.6659Z" fill="#DA3925"/>
<path d="M43.8213 63.0252C43.8213 63.0252 52.0744 66.9122 56.9765 60.9534L56.535 60.7157C49.6215 57.142 43.8213 63.0252 43.8213 63.0252Z" fill="#DA3925"/>
<path d="M52.4551 68.482C52.4551 68.482 61.2554 71.8972 65.882 65.3951L65.4103 65.1799C58.0176 61.9911 52.4551 68.482 52.4551 68.482Z" fill="#DA3925"/>
<path d="M61.9834 73.6255C61.9834 73.6255 71.897 75.2784 75.316 67.4969L74.7764 67.3762C66.3798 65.6516 61.9834 73.6255 61.9834 73.6255Z" fill="#DA3925"/>
<path d="M45.8482 50.7228C38.5649 42.0621 36.1685 33.3259 36.1459 33.2391L35.6289 33.3788C35.6515 33.4656 38.0705 42.2999 45.4217 51.0512C52.2069 59.127 64.7055 68.7915 85.7026 68.9651V68.4292C64.9244 68.2556 52.5617 58.7043 45.8482 50.7228Z" fill="#DA3925"/>
<path d="M85.7998 59.7386C85.8302 59.7158 85.8606 59.6893 85.8795 59.6741C85.8454 59.7007 85.8188 59.7234 85.7998 59.7386Z" fill="#DA3925"/>
<path d="M85.7354 59.7914C85.7354 59.7914 85.7657 59.7687 85.7999 59.7383C85.7733 59.7611 85.7467 59.7801 85.7354 59.7914Z" fill="#DA3925"/>
<path d="M135.417 33.9071L135.685 33.6995C139.775 30.3937 137.711 25.201 137.711 25.201C137.711 25.201 133.062 29.254 135.417 33.9071Z" fill="#DA3925"/>
<path d="M132.968 39.4393L133.168 39.1676C136.217 34.8806 132.832 30.4352 132.832 30.4352C132.832 30.4352 129.447 35.5901 132.968 39.4393Z" fill="#DA3925"/>
<path d="M125.363 51.6699L125.62 51.3228C129.511 45.8773 125.212 40.2167 125.212 40.2167C125.212 40.2167 120.892 46.7679 125.36 51.6699H125.363Z" fill="#DA3925"/>
<path d="M129.337 45.9489L129.594 45.6017C133.488 40.16 129.202 34.4956 129.202 34.4956C129.202 34.4956 124.873 41.0393 129.337 45.9489Z" fill="#DA3925"/>
<path d="M120.759 56.255L121.034 55.8814C125.219 50.0245 120.6 43.9337 120.6 43.9337C120.6 43.9337 115.951 50.9755 120.755 56.2512L120.759 56.255Z" fill="#DA3925"/>
<path d="M114.57 60.6665L114.913 60.3004C120.098 54.5002 115.853 47.4131 115.853 47.4131C115.853 47.4131 110.03 54.436 114.574 60.6702L114.57 60.6665Z" fill="#DA3925"/>
<path d="M105.608 65.195L106.012 64.8667C112.174 59.6853 108.861 51.8058 108.861 51.8058C108.861 51.8058 101.868 58.1457 105.608 65.195Z" fill="#DA3925"/>
<path d="M96.1621 67.429L96.6339 67.1422C103.868 62.542 101.479 53.7567 101.479 53.7567C101.479 53.7567 93.2073 59.4626 96.1621 67.429Z" fill="#DA3925"/>
<path d="M133.085 39.0544L132.907 39.3412C137.783 41.1904 141.323 36.1373 141.323 36.1373C141.323 36.1373 135.941 34.6316 133.085 39.0507V39.0544Z" fill="#DA3925"/>
<path d="M125.397 50.5681L125.046 50.8172C129.854 55.3909 136.492 51.2134 136.492 51.2134C136.492 51.2134 130.925 46.7981 125.397 50.5681Z" fill="#DA3925"/>
<path d="M129.896 45.4358L129.598 45.749C135.202 49.3001 140.904 43.9074 140.904 43.9074C140.904 43.9074 134.583 40.6582 129.896 45.4358Z" fill="#DA3925"/>
<path d="M121.058 55.704L120.646 55.9229C125.152 61.459 132.805 57.9041 132.805 57.9041C132.805 57.9041 127.469 52.4322 121.054 55.704H121.058Z" fill="#DA3925"/>
<path d="M114.937 60.7157L114.495 60.9534C119.397 66.9084 127.65 63.0252 127.65 63.0252C127.65 63.0252 121.846 57.142 114.937 60.7157Z" fill="#DA3925"/>
<path d="M106.062 65.1799L105.59 65.3951C110.22 71.8972 119.017 68.482 119.017 68.482C119.017 68.482 113.454 61.9911 106.062 65.1799Z" fill="#DA3925"/>
<path d="M96.6978 67.3761L96.1582 67.4969C99.5772 75.2783 109.491 73.6255 109.491 73.6255C109.491 73.6255 105.098 65.6553 96.6978 67.3761Z" fill="#DA3925"/>
<path d="M125.624 50.7228C118.91 58.7043 106.544 68.2556 85.7656 68.4292V68.9651C106.766 68.7915 119.265 59.127 126.05 51.0512C133.401 42.3036 135.82 33.4693 135.843 33.3788L135.326 33.2391C135.303 33.3259 132.907 42.0621 125.624 50.7228Z" fill="#DA3925"/>
<path d="M154.689 62.5459C154.591 62.327 154.587 62.078 154.682 61.8553C156.818 56.7796 158.844 51.6851 160.769 46.5792C153.221 49.1114 145.561 51.4134 137.802 53.4701C141.421 54.8928 145.081 56.2664 148.791 57.5834C149.059 57.591 149.229 57.6966 149.357 57.9117C149.357 57.9117 149.364 57.9268 149.372 57.9344C149.463 58.0514 149.531 58.1872 149.553 58.3344C149.561 58.3797 149.557 58.4287 149.557 58.474C149.621 58.7382 149.678 59.059 149.742 59.4514C150.648 64.7724 151.565 70.0971 152.489 75.4143C162.712 72.5916 168.72 69.8066 171.475 68.4254C165.965 66.7347 160.542 64.9271 155.21 63.0101C154.98 62.927 154.791 62.7572 154.693 62.5383L154.689 62.5459Z" fill="#004461"/>
<path d="M136.998 61.7949C141.209 60.4741 144.304 59.3005 146.172 58.5533C142.756 57.3155 139.379 56.0287 136.039 54.7003C136.356 57.0664 136.677 59.4326 136.998 61.7949Z" fill="#004461"/>
<path d="M16.7893 61.8553C16.8837 62.078 16.8799 62.327 16.7818 62.5459C16.6837 62.7648 16.4988 62.9346 16.2648 63.0176C10.9325 64.9347 5.50965 66.7423 0 68.4329C2.75105 69.8103 8.73242 72.584 18.9102 75.3992C19.8989 69.7084 20.8801 64.0176 21.8499 58.3231C21.8952 58.0589 22.0612 57.8249 22.3028 57.6966C22.4122 57.6363 22.5367 57.6098 22.6575 57.5948C26.3746 56.2739 30.0465 54.9003 33.673 53.4701C25.9105 51.4096 18.2498 49.1114 10.7061 46.5792C12.6307 51.6851 14.6572 56.7759 16.7931 61.8553H16.7893Z" fill="#004461"/>
<path d="M34.4925 61.6478C34.8057 59.3307 35.1189 57.0174 35.4284 54.7003C32.115 56.0174 28.7677 57.2929 25.3789 58.5231C28.3715 59.6439 31.4093 60.6892 34.4925 61.644V61.6478Z" fill="#004461"/>
<path d="M150.776 76.8067C150.727 76.5161 150.678 76.2218 150.625 75.9237C149.647 70.1536 148.485 63.1496 147.987 60.1381C147.964 60.0098 147.946 59.8815 147.927 59.7683C147.436 59.9721 146.787 60.2362 145.983 60.5495C145.164 60.8665 144.183 61.2401 143.051 61.6476C141.428 62.2325 139.485 62.893 137.243 63.5911C136.949 63.6817 136.651 63.7722 136.349 63.8666C136.055 63.9571 135.756 64.0477 135.451 64.1383C124.639 67.3611 107.521 71.1348 86.4261 71.1688C69.1613 71.2065 52.055 68.7272 36.0468 63.9798C35.7487 63.893 35.4468 63.8062 35.1486 63.7156C34.8505 63.6251 34.5524 63.5345 34.2543 63.4439C32.19 62.8099 30.1447 62.1307 28.1219 61.4212C27.1747 61.0891 26.2313 60.7457 25.2916 60.3985C24.6878 60.1759 24.0803 59.9532 23.4802 59.723C23.4614 59.8476 23.4387 59.9683 23.4199 60.0928C22.5481 65.3647 21.6651 70.6404 20.7745 75.9123C20.7254 76.2067 20.6764 76.501 20.6235 76.7992C20.5745 77.0935 20.5254 77.3879 20.4726 77.686C20.1141 79.8144 19.7518 81.939 19.3857 84.0674C29.8654 88.2675 52.4701 95.9244 85.6978 95.9999C118.926 95.9282 141.53 88.2751 152.014 84.0787C151.825 82.9617 151.417 80.5804 150.931 77.7049C150.882 77.4143 150.832 77.1199 150.78 76.818L150.776 76.8067Z" fill="#004461"/>
<path d="M53.0381 83.554C52.5515 84.1084 51.9831 84.5065 51.3329 84.7483C50.6826 84.99 49.9943 85.0234 49.2681 84.8483C48.6279 84.694 48.0929 84.4456 47.6632 84.1029C47.2388 83.7616 46.9173 83.3597 46.6986 82.8971C46.48 82.4346 46.3548 81.9263 46.3233 81.3722C46.2971 80.8194 46.3534 80.2552 46.4921 79.6796C46.6166 79.1631 46.8192 78.6769 47.0999 78.2208C47.3872 77.7607 47.7376 77.3698 48.1509 77.0482C48.5496 76.7401 49.0028 76.5249 49.5105 76.4025C50.0248 76.276 50.5644 76.2808 51.1293 76.4169C51.7103 76.5569 52.1859 76.7683 52.5561 77.0511C52.9262 77.3338 53.2022 77.665 53.3839 78.0447C53.5588 78.4056 53.6561 78.8047 53.6759 79.2421C53.7011 79.6808 53.656 80.1396 53.5406 80.6184L53.4123 81.151L48.1427 79.881C48.017 80.4028 47.9513 80.8879 47.9457 81.3363C47.9455 81.7859 48.0141 82.1981 48.1515 82.5727C48.2861 82.9353 48.5008 83.2489 48.7957 83.5135C49.0918 83.7727 49.4739 83.9587 49.942 84.0715C50.4208 84.1869 50.8589 84.1758 51.2564 84.0382C51.6605 83.8965 52.094 83.5741 52.5568 83.0709L53.0381 83.554ZM51.9859 80.09C52.0585 79.7887 52.1094 79.4594 52.1386 79.1022C52.1732 78.7462 52.1618 78.4389 52.1046 78.1804C52.0405 77.9031 51.9197 77.6605 51.7421 77.4526C51.5645 77.2447 51.3062 77.0999 50.9673 77.0183C50.4024 76.8821 49.8746 77.0054 49.3839 77.3881C48.8999 77.7666 48.5407 78.3717 48.3061 79.2031L51.9859 80.09Z" fill="white"/>
<path d="M61.4568 83.1421L56.5857 82.2771L56.8136 80.9939L61.6846 81.859L61.4568 83.1421Z" fill="white"/>
<path d="M69.8833 88.3995C69.1845 88.3249 68.5278 88.1157 67.9134 87.7719C67.3044 87.4287 66.7799 86.972 66.3399 86.4019C65.9053 85.8325 65.5819 85.1607 65.3695 84.3867C65.1577 83.6073 65.1017 82.7498 65.2015 81.8144C65.3013 80.8789 65.5348 80.0468 65.9019 79.318C66.2697 78.5836 66.736 77.9683 67.301 77.4721C67.8598 76.9807 68.4963 76.6229 69.2103 76.3986C69.9243 76.1742 70.6693 76.1034 71.4452 76.1862C72.0229 76.2479 72.5381 76.3752 72.9905 76.5681C73.443 76.7611 73.8673 77.0095 74.2634 77.3133L74.6617 76.7882L75.322 76.8586L74.9507 81.043L74.2738 80.9708C74.2292 80.5542 74.1441 80.0999 74.0185 79.6079C73.8935 79.1104 73.7303 78.684 73.529 78.3286C73.3048 77.9262 73.0222 77.6011 72.6814 77.3532C72.3411 77.0999 71.9371 76.9483 71.4694 76.8984C70.9356 76.8414 70.425 76.9066 69.9375 77.0939C69.4556 77.2818 69.0221 77.5889 68.6371 78.0153C68.2704 78.427 67.9596 78.967 67.7046 79.6355C67.4496 80.304 67.2769 81.0619 67.1865 81.9093C67.1067 82.6576 67.1268 83.3555 67.247 84.0027C67.3732 84.6451 67.5872 85.2216 67.8889 85.7324C68.1912 86.2377 68.5676 86.648 69.0181 86.9632C69.4742 87.279 69.9993 87.4686 70.5936 87.532C71.0393 87.5795 71.4566 87.5545 71.8455 87.4568C72.2349 87.3537 72.5795 87.2012 72.8793 86.9995C73.1803 86.7867 73.4517 86.5374 73.6937 86.2516C73.9357 85.9657 74.1421 85.6483 74.3129 85.2992L74.9002 85.6624C74.3031 86.773 73.5872 87.5369 72.7524 87.9543C71.9182 88.3662 70.9618 88.5146 69.8833 88.3995Z" fill="white"/>
<path d="M85.28 87.0957C84.9164 87.7375 84.4408 88.2428 83.8532 88.6117C83.2657 88.9806 82.5986 89.1532 81.8519 89.1295C81.1937 89.1086 80.6194 88.9741 80.129 88.7259C79.6441 88.478 79.2476 88.1498 78.9394 87.7414C78.6313 87.3329 78.4054 86.8607 78.2619 86.3246C78.1239 85.7887 78.0643 85.2248 78.0831 84.633C78.1 84.102 78.1995 83.5848 78.3816 83.0812C78.5694 82.5722 78.833 82.1183 79.1723 81.7194C79.5 81.3367 79.9 81.0338 80.3722 80.8107C80.85 80.5823 81.3794 80.4773 81.9601 80.4958C82.5575 80.5147 83.0661 80.625 83.486 80.8266C83.9059 81.0282 84.2435 81.2964 84.4986 81.6312C84.7432 81.949 84.9196 82.32 85.028 82.7442C85.1418 83.1686 85.1909 83.627 85.1753 84.1192L85.1579 84.6668L79.7402 84.4947C79.7232 85.0312 79.7575 85.5195 79.8431 85.9596C79.9343 86.3999 80.0853 86.7895 80.296 87.1284C80.5015 87.456 80.7755 87.7194 81.118 87.9186C81.4607 88.1122 81.8726 88.2166 82.3538 88.2319C82.846 88.2475 83.2728 88.1476 83.634 87.9321C84.0009 87.7112 84.3597 87.3073 84.7106 86.7205L85.28 87.0957ZM83.5456 83.918C83.5554 83.6082 83.5383 83.2755 83.4943 82.9197C83.4557 82.5642 83.3822 82.2656 83.2736 82.0241C83.1544 81.7656 82.9868 81.5527 82.7707 81.3852C82.5545 81.2178 82.2722 81.1286 81.9238 81.1175C81.343 81.099 80.8513 81.327 80.4487 81.8014C80.0517 82.2705 79.823 82.936 79.7623 83.7977L83.5456 83.918Z" fill="white"/>
<path d="M94.5441 81.6931C94.552 81.9752 94.4899 82.2288 94.3579 82.454C94.2256 82.6736 94.0157 82.7874 93.7281 82.7955C93.4183 82.8042 93.1782 82.7307 93.0077 82.575C92.8428 82.419 92.7576 82.2443 92.7522 82.0507C92.7487 81.929 92.7539 81.8181 92.7677 81.7181C92.787 81.6179 92.8036 81.5178 92.8174 81.4177C92.5574 81.425 92.2561 81.5387 91.9135 81.7587C91.571 81.9787 91.2834 82.2857 91.0509 82.6798L91.1848 87.4425C91.1902 87.6362 91.2306 87.7928 91.3059 87.9125C91.3868 88.032 91.5083 88.1199 91.6704 88.1763C91.8103 88.2277 91.9884 88.2642 92.2049 88.2858C92.427 88.3072 92.6184 88.3212 92.7791 88.3278L92.7945 88.8754L88.4798 88.9967L88.4644 88.4491C88.5913 88.4344 88.721 88.4197 88.8535 88.4049C88.9914 88.39 89.1097 88.3645 89.2084 88.3285C89.3619 88.2744 89.4729 88.1854 89.5414 88.0617C89.6152 87.9323 89.6494 87.768 89.6438 87.5689L89.5017 82.5157C89.4969 82.3442 89.4507 82.1767 89.363 82.0131C89.2809 81.8493 89.1666 81.7196 89.0199 81.6241C88.913 81.5607 88.7872 81.5172 88.6426 81.4936C88.4978 81.4644 88.3423 81.4466 88.1761 81.4402L88.1609 80.9009L90.8774 80.6419L90.9968 80.7548L91.0292 81.9081L91.0707 81.9069C91.4011 81.4492 91.7732 81.0983 92.1871 80.8542C92.6009 80.61 92.9821 80.483 93.3306 80.4733C93.6791 80.4635 93.9644 80.5689 94.1865 80.7897C94.4142 81.0102 94.5334 81.3114 94.5441 81.6931Z" fill="white"/>
<path d="M102.611 87.8844C102.264 88.0617 101.935 88.2127 101.623 88.3374C101.311 88.4675 100.924 88.551 100.46 88.5877C99.7761 88.6419 99.2799 88.5091 98.9714 88.1894C98.668 87.8637 98.4915 87.3864 98.4416 86.7575L98.0037 81.2299L96.5308 81.3466L96.4678 80.5522L97.9738 80.4329L97.7726 77.8925L99.2786 77.7732L99.4799 80.3136L101.822 80.1281L101.885 80.9224L99.5594 81.1067L99.9206 85.6661C99.9477 86.0081 99.9815 86.2941 100.022 86.5241C100.067 86.7481 100.144 86.9419 100.251 87.1054C100.352 87.2584 100.494 87.3693 100.677 87.4381C100.86 87.5068 101.101 87.5294 101.399 87.5058C101.537 87.4949 101.737 87.4679 102 87.4248C102.268 87.3758 102.456 87.3277 102.563 87.2803L102.611 87.8844Z" fill="white"/>
<path d="M109.444 87.4449L105.514 87.9308L105.447 87.3871C105.572 87.3605 105.7 87.3336 105.83 87.3063C105.966 87.2783 106.081 87.2417 106.176 87.1966C106.324 87.1281 106.426 87.0291 106.482 86.8994C106.544 86.7636 106.562 86.5968 106.537 86.3991L105.917 81.3822C105.895 81.2064 105.834 81.0522 105.734 80.9196C105.639 80.7809 105.514 80.6709 105.359 80.5897C105.247 80.5367 105.089 80.5004 104.886 80.481C104.682 80.456 104.497 80.4482 104.331 80.4576L104.264 79.9221L107.109 79.3863L107.238 79.4874L108.058 86.1108C108.081 86.303 108.137 86.4578 108.224 86.5753C108.316 86.6921 108.446 86.7709 108.613 86.8116C108.74 86.8461 108.863 86.8727 108.982 86.8914C109.101 86.9046 109.232 86.9078 109.376 86.9012L109.444 87.4449ZM106.993 76.1471C107.031 76.4601 106.961 76.7476 106.781 77.0096C106.607 77.2654 106.368 77.412 106.066 77.4493C105.786 77.484 105.528 77.4044 105.292 77.2105C105.061 77.0104 104.928 76.7676 104.893 76.482C104.855 76.18 104.924 75.9038 105.1 75.6535C105.281 75.4025 105.511 75.2597 105.791 75.2251C106.104 75.1864 106.373 75.2619 106.597 75.4516C106.826 75.6352 106.958 75.867 106.993 76.1471Z" fill="white"/>
<path d="M116.521 74.303C116.562 74.5486 116.531 74.7669 116.429 74.958C116.326 75.1491 116.141 75.267 115.873 75.3116C115.704 75.3399 115.548 75.3295 115.405 75.2804C115.268 75.2304 115.135 75.1545 115.005 75.0526C114.876 74.9508 114.752 74.8312 114.634 74.6938C114.516 74.5565 114.416 74.4469 114.335 74.365C113.972 74.4425 113.731 74.7464 113.612 75.2768C113.498 75.8009 113.531 76.6033 113.711 77.684L113.849 78.511L115.929 78.1637L116.06 78.9497L113.98 79.297L114.948 85.0937C114.98 85.2847 115.042 85.4343 115.133 85.5426C115.229 85.6499 115.362 85.7204 115.53 85.754C115.669 85.7812 115.851 85.793 116.074 85.7893C116.297 85.7801 116.489 85.7678 116.649 85.7523L116.739 86.2926L112.482 87.0035L112.391 86.4632C112.515 86.4313 112.642 86.399 112.771 86.3662C112.905 86.3325 113.019 86.291 113.112 86.2419C113.257 86.1672 113.354 86.064 113.405 85.932C113.461 85.7937 113.472 85.6263 113.439 85.4298L112.458 79.5513L110.861 79.8179L110.73 79.0319L112.326 78.7653L112.24 78.2495C112.035 77.0213 112.186 75.9751 112.692 75.1106C113.203 74.2398 113.936 73.7247 114.892 73.5652C115.377 73.4841 115.759 73.5185 116.037 73.6686C116.314 73.8186 116.476 74.03 116.521 74.303Z" fill="white"/>
<path d="M120.087 88.415C120.027 88.1449 120.051 87.9072 120.158 87.7019C120.272 87.5008 120.44 87.3755 120.661 87.3262C120.834 87.2877 120.99 87.287 121.129 87.3241C121.267 87.3613 121.397 87.4203 121.517 87.5013C121.616 87.5642 121.727 87.6557 121.85 87.7757C121.973 87.8957 122.072 87.9956 122.146 88.0754C122.384 87.8693 122.62 87.4169 122.856 86.7181C123.097 86.0181 123.249 85.4172 123.313 84.9154C122.515 83.7496 121.795 82.708 121.154 81.7906C120.513 80.8732 119.846 79.9249 119.151 78.9457C118.993 78.7201 118.778 78.5668 118.505 78.4859C118.23 78.3997 117.967 78.3647 117.716 78.381L117.597 77.8463L121.243 77.034L121.369 77.6011C121.208 77.6426 121.022 77.7211 120.809 77.8364C120.596 77.9464 120.498 78.0419 120.516 78.1229C120.523 78.1553 120.546 78.2069 120.584 78.2777C120.628 78.3473 120.675 78.419 120.726 78.4928C121.05 78.9819 121.536 79.6845 122.182 80.6007C122.827 81.5115 123.333 82.2435 123.7 82.7967C123.814 82.1646 123.933 81.5118 124.055 80.8382C124.181 80.1581 124.312 79.3606 124.449 78.4458C124.464 78.3347 124.486 78.1823 124.517 77.9884C124.546 77.7891 124.546 77.6246 124.517 77.495C124.486 77.3546 124.333 77.2526 124.058 77.1891C123.787 77.119 123.538 77.0952 123.311 77.1175L123.195 76.599L126.161 75.9383L126.273 76.4406C126.117 76.5037 125.924 76.6458 125.696 76.8668C125.466 77.0824 125.319 77.3505 125.254 77.6711C124.943 79.3051 124.674 80.7911 124.444 82.1291C124.221 83.4659 124.043 84.4522 123.913 85.0879C123.741 85.92 123.567 86.5767 123.391 87.0582C123.221 87.5439 123.037 87.9365 122.837 88.2361C122.639 88.5184 122.446 88.7201 122.257 88.8415C122.076 88.967 121.877 89.0539 121.661 89.102C121.239 89.1959 120.885 89.17 120.597 89.0243C120.315 88.8774 120.145 88.6743 120.087 88.415Z" fill="white"/>
<path d="M98.1504 34.3673L104.385 31.42C104.385 31.42 110.106 32.8352 109.468 38.9222L102.532 42.8809L98.1504 34.3673Z" fill="#A81E13"/>
<path d="M98.7254 36.4505C89.8759 41.096 82.6794 42.3715 77.1094 42.0922C68.5166 41.6658 63.7919 37.5524 62.8258 36.4505C61.2333 34.6315 63.5126 21.1933 63.5126 21.1933L64.4221 15.6949C64.4221 15.6949 70.6714 15.8233 77.6868 16.1818C85.9248 16.6044 95.2158 17.3441 96.6875 18.5705C99.4159 20.8423 98.7254 36.4467 98.7254 36.4467V36.4505Z" fill="#1A1A1A"/>
<path d="M98.7244 36.4505C89.8749 41.096 82.6784 42.3715 77.1084 42.0922C78.433 34.575 78.0216 22.4575 77.6858 16.1855C85.9238 16.6082 95.2148 17.3479 96.6865 18.5743C99.4149 20.8461 98.7244 36.4505 98.7244 36.4505Z" fill="#333333"/>
<path d="M103.635 42.1298L85.6415 54.3945H85.5886L84.6377 54.2926C76.109 59.4097 75.626 40.8618 75.626 40.8618C75.626 40.8618 94.1173 34.3446 98.7212 34.3446C102.419 34.3446 103.344 39.3712 103.567 41.3487C103.62 41.8317 103.631 42.1336 103.631 42.1336L103.635 42.1298Z" fill="#D8C29F"/>
<path d="M103.634 42.13L85.6407 54.3947H85.5879L86.603 52.1417L103.566 41.3451C103.619 41.8281 103.63 42.13 103.63 42.13H103.634Z" fill="#CCB492"/>
<path d="M91.1026 36.3373C91.1026 36.3373 80.1814 42.0847 80.1738 42.0884C80.087 42.1337 79.9851 42.3375 79.9285 42.413C79.7021 42.7224 79.5021 43.047 79.3285 43.3904C78.7775 44.4848 78.3322 45.7565 78.2379 46.983C78.1737 47.8509 78.2869 48.8359 78.57 49.6585C78.6832 49.9831 78.7285 50.3378 78.8643 50.6548C79.1436 51.319 79.5549 52.0888 80.0266 52.636C80.2455 52.8926 80.5021 53.1304 80.7852 53.3115C81.9701 54.07 83.7173 53.504 83.9362 52.0247C84.0419 51.3001 83.9098 50.5756 84.2117 49.8812C84.4721 49.2849 85.1287 48.5717 85.8495 48.651C87.2458 48.8057 86.2042 51.7605 86.0193 52.5379C85.608 54.2587 83.4343 54.9078 81.8644 54.9946C80.921 55.0474 79.9851 54.8172 79.3398 54.0927C78.9813 53.6927 78.7285 53.2172 78.5021 52.7379C78.3964 52.5153 78.2832 52.2926 78.1926 52.0624C78.1058 51.8435 78.0945 51.602 77.9964 51.3907C77.7398 50.836 77.536 50.2322 77.2982 49.6661C77.068 49.1189 76.9171 48.534 76.7473 47.9679C76.3322 46.598 76.0529 45.1716 75.9435 43.7413C75.8755 42.8734 75.868 42.0092 75.951 41.1412L91.1063 36.3335L91.1026 36.3373Z" fill="#BCA37E"/>
<path d="M83.5738 1L45.1836 13.2722L80.4793 27.6614L117.292 15.6949L83.5738 1Z" fill="#333333" stroke="black" stroke-width="0.09" stroke-miterlimit="10"/>
<path d="M80.4898 28.7823L80.4785 27.6615L117.288 15.6949V16.7516L80.4898 28.7823Z" fill="#666666" stroke="black" stroke-width="0.09" stroke-miterlimit="10"/>
<path d="M45.202 13.2532V14.3476L80.4978 28.7821V27.6613L45.1982 13.2645" fill="#4D4D4D"/>
<path d="M45.202 13.2532V14.3476L80.4978 28.7821V27.6613L45.1982 13.2645" stroke="black" stroke-width="0.09" stroke-miterlimit="10"/>
<path d="M78.5651 11.9325L57.1152 18.1252L57.87 18.4308L78.8935 12.3287C78.8935 12.3287 79.7048 11.3891 78.5651 11.9325Z" fill="#E2C340"/>
<path d="M84.1124 45.6017L85.1955 44.9074C87.471 46.632 87.2861 54.104 84.9879 54.8361C82.6897 55.5682 80.8066 55.7757 79.2405 54.2625C77.6744 52.7454 75.897 47.5226 75.7913 45.7451C75.6856 43.9677 75.6328 40.8582 75.6328 40.8582L91.8863 35.6995L91.1014 36.3335L75.946 41.1412C76.1536 45.8961 76.4668 47.2546 76.5725 47.515C76.6781 47.7754 78.6631 54.987 81.2368 55.0399C83.8105 55.0927 84.9841 54.0474 84.9841 54.0474C85.5917 53.4285 85.7464 53.187 85.8408 52.7417C87.0446 46.9943 83.9765 42.5639 81.233 42.7073C78.2669 42.8658 78.6027 47.9339 78.7046 48.666C78.8103 49.3981 80.0028 53.4737 82.0406 53.4737C84.0784 53.4737 84.0596 48.9792 84.0596 48.9792L85.9389 47.749L86.1163 48.6509L84.6747 49.3151C84.6747 49.3151 84.1992 53.2624 82.9425 53.7492C81.6897 54.236 79.9462 53.5756 79.0745 51.451C78.2027 49.3264 78.0631 48.6283 78.3424 44.8659C78.3424 44.8659 79.0028 40.5336 82.9312 42.8582C82.9312 42.8582 84.3577 43.6507 85.1917 44.9036" fill="#FCE5C8"/>
<path d="M105.726 31.0654L115.134 22.2386L116.284 23.2613L105.726 31.0654Z" fill="#BCA37E"/>
<path d="M126.519 29.7257C126.455 30.1597 126.334 30.5295 126.183 30.8465L108.446 39.4619C108.446 39.4619 108.454 39.4506 108.454 39.4204C108.454 39.3034 108.435 38.9563 108.371 38.4694C108.141 36.7448 107.227 33.1145 103.639 31.7975L116.284 23.2613C116.284 23.2613 122.87 19.1857 125.587 25.1444C126.504 27.1558 126.681 28.6426 126.519 29.7295V29.7257Z" fill="#D8C29F"/>
<path d="M103.068 42.5036C103.068 42.5036 110.072 43.1828 112.005 45.3263L112.318 42.8809L116.971 41.8771L108.446 39.4657L103.068 42.5073V42.5036Z" fill="#960D06"/>
<path d="M126.518 29.7256C126.454 30.1596 126.333 30.5294 126.182 30.8464L108.521 39.4618L108.453 39.4203L108.366 38.4693L126.518 29.7256Z" fill="#CCB492"/>
<path d="M59.5982 33.5635C59.5982 33.5635 59.7039 39.7147 54.998 42.3111C55.0735 42.1677 55.1414 41.9978 55.2056 41.8092C55.6509 40.4997 55.8094 38.0581 55.1565 33.5635C55.0697 33.3182 55.0282 33.0654 55.0282 32.7899C55.0282 31.8427 55.5981 31.0351 56.4019 30.6615V27.2388C56.4019 26.7972 56.6811 26.4199 57.0623 26.2651V18.1063L57.8661 18.4309V26.2802C58.2133 26.4425 58.4925 26.8086 58.4925 27.2388V30.7219C59.2246 31.1182 59.7341 31.8955 59.7341 32.7937C59.7341 33.0654 59.685 33.3182 59.5982 33.5635Z" fill="#E2C340"/>
<path d="M58.9719 33.6012C58.9719 33.6012 59.0624 38.9938 55.2057 41.809C55.651 40.4996 55.8095 38.0617 55.1566 33.5672C55.0698 33.3219 55.0283 33.0691 55.0283 32.7936C55.0283 31.8464 55.5982 31.0388 56.402 30.6652V27.2424C56.402 26.8009 56.6812 26.4235 57.0624 26.2688V18.11L57.5529 18.31L57.236 26.3216C57.5831 26.4839 57.8624 26.85 57.8624 27.2802V30.7633C58.5945 31.1596 59.1039 31.9369 59.1039 32.8351C59.1039 33.1068 59.0549 33.3597 58.9681 33.6049L58.9719 33.6012Z" fill="#E9CA4D"/>
<path d="M78.5655 11.7928L57.0703 18.1063L57.5571 18.3063L78.9806 12.1136C78.9806 12.1136 79.524 11.5135 78.5655 11.7966V11.7928Z" fill="#E9CA4D"/>
</svg>
