<svg width="56" height="56" viewBox="0 0 56 56" fill="none" xmlns="http://www.w3.org/2000/svg">
<path d="M35.6768 20.6498L24.6402 31.7098L20.3235 27.3698C19.8841 26.9305 19.2882 26.6836 18.6668 26.6836C18.0455 26.6836 17.4496 26.9305 17.0102 27.3698C16.5708 27.8092 16.324 28.4051 16.324 29.0265C16.324 29.3342 16.3846 29.6388 16.5023 29.9231C16.62 30.2073 16.7926 30.4656 17.0102 30.6832L22.9835 36.6565C23.2004 36.8752 23.4585 37.0488 23.7428 37.1672C24.0272 37.2857 24.3322 37.3467 24.6402 37.3467C24.9482 37.3467 25.2532 37.2857 25.5375 37.1672C25.8219 37.0488 26.0799 36.8752 26.2968 36.6565L38.9902 23.9632C39.2077 23.7456 39.3803 23.4873 39.4981 23.2031C39.6158 22.9188 39.6764 22.6142 39.6764 22.3065C39.6764 21.9988 39.6158 21.6942 39.4981 21.4099C39.3803 21.1257 39.2077 20.8674 38.9902 20.6498C38.7726 20.4323 38.5143 20.2597 38.2301 20.142C37.9458 20.0242 37.6412 19.9636 37.3335 19.9636C37.0258 19.9636 36.7212 20.0242 36.4369 20.142C36.1527 20.2597 35.8944 20.4323 35.6768 20.6498ZM28.0002 4.6665C24.936 4.6665 21.9018 5.27004 19.0709 6.44265C16.24 7.61526 13.6677 9.33398 11.501 11.5007C7.12517 15.8765 4.66684 21.8115 4.66684 27.9998C4.64644 33.3878 6.51202 38.6131 9.94018 42.7698L5.27351 47.4365C4.94974 47.7646 4.73042 48.1813 4.64321 48.6339C4.556 49.0866 4.60482 49.5549 4.78351 49.9798C4.97731 50.3997 5.29149 50.7525 5.68615 50.9934C6.08082 51.2344 6.53818 51.3526 7.00018 51.3332H28.0002C34.1886 51.3332 40.1235 48.8748 44.4993 44.499C48.8752 40.1231 51.3335 34.1882 51.3335 27.9998C51.3335 21.8115 48.8752 15.8765 44.4993 11.5007C40.1235 7.12483 34.1886 4.6665 28.0002 4.6665ZM28.0002 46.6665H12.6235L14.7935 44.4965C15.2281 44.0593 15.472 43.4679 15.472 42.8515C15.472 42.2351 15.2281 41.6437 14.7935 41.2065C11.7382 38.1546 9.83558 34.1378 9.40979 29.8404C8.98399 25.543 10.0614 21.2309 12.4584 17.6387C14.8554 14.0466 18.4237 11.3967 22.5554 10.1404C26.6871 8.88421 31.1265 9.09938 35.1173 10.7493C39.1082 12.3992 42.4035 15.3818 44.4419 19.1889C46.4802 22.996 47.1355 27.3921 46.2961 31.6282C45.4567 35.8643 43.1746 39.6783 39.8384 42.4204C36.5023 45.1625 32.3186 46.6631 28.0002 46.6665Z" fill="white"/>
</svg>
