<svg width="1728" height="384" viewBox="0 0 1728 384" fill="none" xmlns="http://www.w3.org/2000/svg">
<g filter="url(#filter0_d_73_31107)">
<g clip-path="url(#clip0_73_31107)">
<rect width="1728" height="384" fill="#004461"/>
<path d="M456.82 204.34C457.53 205.692 456.89 207.306 455.39 207.937C453.89 208.577 452.1 208 451.4 206.648C450.69 205.296 451.33 203.682 452.83 203.051C454.33 202.411 456.12 202.988 456.82 204.34Z" fill="white"/>
<path d="M268.14 156.052C268.85 157.404 268.21 159.017 266.71 159.648C265.21 160.279 263.42 159.711 262.72 158.359C262.02 157.007 262.65 155.394 264.15 154.763C265.65 154.123 267.44 154.699 268.14 156.052Z" fill="white"/>
<path d="M535.12 59.3934C535.59 60.2948 535.16 61.3675 534.17 61.7912C533.18 62.2148 531.98 61.8272 531.51 60.9348C531.04 60.0334 531.47 58.9607 532.46 58.5371C533.45 58.1134 534.65 58.501 535.12 59.3934Z" fill="white"/>
<path d="M596.59 260.642C597.06 261.543 596.63 262.616 595.64 263.04C594.64 263.463 593.45 263.076 592.98 262.183C592.51 261.282 592.94 260.209 593.93 259.786C594.93 259.362 596.12 259.75 596.59 260.642Z" fill="white"/>
<path d="M571.14 136.365C571.61 137.266 571.179 138.339 570.189 138.763C569.189 139.186 568 138.799 567.53 137.907C567.06 137.005 567.489 135.932 568.479 135.509C569.479 135.085 570.67 135.473 571.14 136.365Z" fill="white"/>
<path d="M275.95 304.297C276.42 305.199 275.99 306.271 275 306.695C274 307.119 272.81 306.731 272.34 305.839C271.87 304.946 272.3 303.865 273.29 303.441C274.28 303.017 275.48 303.405 275.95 304.297Z" fill="white"/>
<path d="M74.4393 241.018C74.9093 241.92 74.4793 242.993 73.4893 243.416C72.4893 243.84 71.2993 243.452 70.8293 242.56C70.3593 241.658 70.7893 240.586 71.7793 240.162C72.7793 239.738 73.9693 240.126 74.4393 241.018Z" fill="white"/>
<path d="M417.77 47.7114C418.01 48.1621 417.79 48.7029 417.29 48.9102C416.79 49.1266 416.19 48.9283 415.96 48.4776C415.72 48.0269 415.94 47.486 416.44 47.2787C416.94 47.0624 417.54 47.2607 417.77 47.7114Z" fill="white"/>
<path d="M100.11 20.3266C100.35 20.7773 100.13 21.3182 99.6295 21.5255C99.1295 21.7418 98.5295 21.5435 98.2995 21.0928C98.0595 20.6421 98.2795 20.1013 98.7795 19.8939C99.2795 19.6776 99.8795 19.8759 100.11 20.3266Z" fill="white"/>
<path d="M151.07 128.721C151.31 129.172 151.089 129.713 150.589 129.92C150.089 130.136 149.489 129.938 149.259 129.487C149.019 129.037 149.24 128.496 149.74 128.288C150.24 128.072 150.84 128.27 151.07 128.721Z" fill="white"/>
<path d="M13.8097 181.634C14.0497 182.084 13.8297 182.625 13.3297 182.833C12.8297 183.049 12.2297 182.851 11.9997 182.4C11.7597 181.949 11.9797 181.408 12.4797 181.201C12.9797 180.985 13.5797 181.183 13.8097 181.634Z" fill="white"/>
<path d="M71.5294 117.571C71.7694 118.021 71.5495 118.562 71.0495 118.77C70.5495 118.986 69.9495 118.788 69.7195 118.337C69.4795 117.886 69.6994 117.345 70.1994 117.138C70.6994 116.922 71.2994 117.12 71.5294 117.571Z" fill="white"/>
<path d="M2.47965 353.586C2.71965 354.037 2.49965 354.578 1.99965 354.785C1.49965 355.002 0.899647 354.803 0.669647 354.353C0.429647 353.902 0.64965 353.361 1.14965 353.154C1.64965 352.937 2.24965 353.136 2.47965 353.586Z" fill="white"/>
<path d="M199.699 335.477C199.939 335.928 199.719 336.469 199.219 336.676C198.719 336.892 198.119 336.694 197.889 336.243C197.649 335.793 197.869 335.252 198.369 335.044C198.869 334.828 199.469 335.026 199.699 335.477Z" fill="white"/>
<path d="M458.01 380.575C458.25 381.025 458.03 381.566 457.53 381.774C457.03 381.99 456.43 381.792 456.2 381.341C455.96 380.89 456.18 380.349 456.68 380.142C457.18 379.926 457.78 380.124 458.01 380.575Z" fill="white"/>
<path d="M96.4601 316.421C96.7001 316.872 96.4801 317.413 95.9801 317.62C95.4801 317.837 94.8801 317.638 94.6501 317.188C94.4101 316.737 94.6301 316.196 95.1301 315.989C95.6301 315.772 96.2301 315.971 96.4601 316.421Z" fill="white"/>
<path d="M348.21 373.192C348.45 373.643 348.23 374.183 347.73 374.391C347.23 374.607 346.63 374.409 346.4 373.958C346.16 373.507 346.38 372.966 346.88 372.759C347.38 372.543 347.98 372.741 348.21 373.192Z" fill="white"/>
<path d="M627.59 126.918C627.83 127.369 627.61 127.909 627.11 128.117C626.61 128.333 626.01 128.135 625.78 127.684C625.54 127.233 625.76 126.693 626.26 126.485C626.76 126.269 627.36 126.467 627.59 126.918Z" fill="white"/>
<path d="M470.269 147.173C470.509 147.624 470.289 148.164 469.789 148.372C469.289 148.588 468.689 148.39 468.459 147.939C468.229 147.488 468.439 146.947 468.939 146.74C469.439 146.524 470.039 146.722 470.269 147.173Z" fill="white"/>
<path d="M346.449 224.315C346.689 224.766 346.469 225.307 345.969 225.514C345.469 225.731 344.869 225.532 344.639 225.082C344.399 224.631 344.619 224.09 345.119 223.883C345.619 223.666 346.219 223.865 346.449 224.315Z" fill="white"/>
<path d="M321.9 6.28265C322.14 6.73336 321.92 7.27422 321.42 7.48154C320.92 7.69788 320.32 7.49956 320.09 7.04885C319.85 6.59815 320.07 6.05732 320.57 5.84999C321.07 5.63365 321.67 5.83195 321.9 6.28265Z" fill="white"/>
<path d="M709.9 109.35C710.14 109.8 709.92 110.341 709.42 110.548C708.92 110.765 708.32 110.566 708.09 110.116C707.85 109.665 708.07 109.124 708.57 108.917C709.07 108.701 709.67 108.899 709.9 109.35Z" fill="white"/>
<path d="M671.909 215.698C672.149 216.148 671.929 216.689 671.429 216.897C670.929 217.113 670.329 216.915 670.099 216.464C669.859 216.013 670.079 215.472 670.579 215.265C671.079 215.049 671.679 215.247 671.909 215.698Z" fill="white"/>
<path d="M297.569 59.7724C297.809 60.2231 297.589 60.764 297.089 60.9713C296.589 61.1786 295.989 60.9893 295.759 60.5386C295.519 60.0879 295.739 59.5471 296.239 59.3397C296.739 59.1234 297.339 59.3217 297.569 59.7724Z" fill="white"/>
</g>
</g>
<defs>
<filter id="filter0_d_73_31107" x="-4" y="0" width="1736" height="392" filterUnits="userSpaceOnUse" color-interpolation-filters="sRGB">
<feFlood flood-opacity="0" result="BackgroundImageFix"/>
<feColorMatrix in="SourceAlpha" type="matrix" values="0 0 0 0 0 0 0 0 0 0 0 0 0 0 0 0 0 0 127 0" result="hardAlpha"/>
<feOffset dy="4"/>
<feGaussianBlur stdDeviation="2"/>
<feComposite in2="hardAlpha" operator="out"/>
<feColorMatrix type="matrix" values="0 0 0 0 0 0 0 0 0 0 0 0 0 0 0 0 0 0 0.25 0"/>
<feBlend mode="normal" in2="BackgroundImageFix" result="effect1_dropShadow_73_31107"/>
<feBlend mode="normal" in="SourceGraphic" in2="effect1_dropShadow_73_31107" result="shape"/>
</filter>
<clipPath id="clip0_73_31107">
<rect width="1728" height="384" fill="white"/>
</clipPath>
</defs>
</svg>
