<svg width="1728" height="1037" viewBox="0 0 1728 1037" fill="none" xmlns="http://www.w3.org/2000/svg">
<g clip-path="url(#clip0_73_30706)">
<rect width="2208" height="1037" fill="white"/>
<path d="M424.762 510.538C425.423 512.617 424.827 515.099 423.431 516.069C422.034 517.053 420.368 516.166 419.716 514.087C419.055 512.007 419.651 509.526 421.047 508.556C422.444 507.572 424.11 508.459 424.762 510.538Z" fill="#004461"/>
<path d="M249.103 436.281C249.764 438.361 249.168 440.842 247.771 441.812C246.375 442.782 244.708 441.909 244.057 439.83C243.405 437.751 243.991 435.269 245.388 434.299C246.784 433.315 248.451 434.202 249.103 436.281Z" fill="#004461"/>
<path d="M66.8147 828.499C67.4757 830.578 66.8798 833.059 65.4834 834.03C64.0869 835.014 62.4204 834.127 61.7687 832.047C61.1077 829.968 61.7035 827.487 63.1 826.517C64.4965 825.546 66.163 826.42 66.8147 828.499Z" fill="#004461"/>
<path d="M497.658 287.642C498.096 289.028 497.696 290.677 496.774 291.329C495.852 291.98 494.735 291.384 494.298 290.012C493.86 288.626 494.26 286.976 495.182 286.325C496.104 285.673 497.221 286.269 497.658 287.642Z" fill="#004461"/>
<path d="M96.2991 145.06C96.7367 146.446 96.3363 148.095 95.4147 148.747C94.493 149.398 93.3758 148.802 92.9382 147.43C92.5007 146.044 92.901 144.394 93.8227 143.743C94.7537 143.091 95.8615 143.687 96.2991 145.06Z" fill="#004461"/>
<path d="M554.886 597.119C555.324 598.505 554.923 600.155 554.002 600.806C553.071 601.458 551.963 600.862 551.525 599.489C551.088 598.103 551.488 596.454 552.41 595.802C553.341 595.151 554.448 595.747 554.886 597.119Z" fill="#004461"/>
<path d="M531.193 406.007C531.63 407.393 531.23 409.043 530.308 409.694C529.377 410.346 528.269 409.75 527.832 408.377C527.394 406.991 527.794 405.342 528.716 404.69C529.647 404.039 530.755 404.635 531.193 406.007Z" fill="#004461"/>
<path d="M256.373 664.251C256.811 665.637 256.411 667.287 255.489 667.938C254.558 668.59 253.45 667.994 253.012 666.621C252.575 665.249 252.975 663.586 253.897 662.934C254.819 662.283 255.936 662.879 256.373 664.251Z" fill="#004461"/>
<path d="M68.7698 566.941C69.2074 568.328 68.807 569.977 67.8854 570.629C66.9544 571.28 65.8465 570.684 65.4089 569.312C64.9714 567.926 65.3717 566.276 66.2934 565.625C67.2244 564.973 68.3322 565.569 68.7698 566.941Z" fill="#004461"/>
<path d="M388.407 269.676C388.63 270.369 388.425 271.201 387.96 271.52C387.494 271.853 386.936 271.548 386.722 270.855C386.498 270.161 386.703 269.33 387.168 269.011C387.634 268.678 388.192 268.983 388.407 269.676Z" fill="#004461"/>
<path d="M364.49 17.1568C364.713 17.8499 364.508 18.6816 364.043 19.0004C363.577 19.3192 363.019 19.0281 362.805 18.335C362.581 17.642 362.786 16.8103 363.251 16.4914C363.717 16.1588 364.275 16.4637 364.49 17.1568Z" fill="#004461"/>
<path d="M146.489 124.891C146.712 125.584 146.507 126.416 146.042 126.735C145.576 127.067 145.018 126.762 144.804 126.069C144.58 125.376 144.785 124.544 145.25 124.226C145.716 123.907 146.275 124.198 146.489 124.891Z" fill="#004461"/>
<path d="M75.6869 28.5103C75.9103 29.2034 75.7055 30.0351 75.24 30.3539C74.7745 30.6866 74.2159 30.3817 74.0018 29.6886C73.7784 28.9955 73.9832 28.1638 74.4487 27.845C74.9142 27.5123 75.4728 27.8172 75.6869 28.5103Z" fill="#004461"/>
<path d="M282.711 86.7984C282.935 87.4915 282.73 88.3232 282.264 88.642C281.799 88.9747 281.24 88.6697 281.026 87.9766C280.803 87.2835 281.008 86.4519 281.473 86.133C281.939 85.8004 282.497 86.1053 282.711 86.7984Z" fill="#004461"/>
<path d="M243.694 0.800355C243.917 1.49344 243.712 2.32514 243.247 2.64396C242.781 2.97664 242.223 2.67169 242.009 1.9786C241.785 1.28551 241.99 0.453807 242.456 0.134987C242.921 -0.197695 243.48 0.107268 243.694 0.800355Z" fill="#004461"/>
<path d="M92.6683 227.565C92.8918 228.258 92.687 229.09 92.2215 229.409C91.756 229.741 91.1974 229.436 90.9832 228.743C90.7598 228.05 90.9646 227.218 91.4301 226.9C91.8956 226.567 92.4542 226.872 92.6683 227.565Z" fill="#004461"/>
<path d="M140.112 394.253C140.335 394.946 140.13 395.777 139.665 396.096C139.199 396.429 138.641 396.124 138.427 395.431C138.203 394.738 138.408 393.906 138.873 393.587C139.339 393.254 139.898 393.559 140.112 394.253Z" fill="#004461"/>
<path d="M12.3236 475.621C12.547 476.314 12.3422 477.145 11.8767 477.464C11.4112 477.797 10.8526 477.492 10.6385 476.799C10.4151 476.106 10.6199 475.274 11.0854 474.955C11.5509 474.623 12.1095 474.928 12.3236 475.621Z" fill="#004461"/>
<path d="M66.0609 377.105C66.2843 377.798 66.0795 378.63 65.614 378.949C65.1485 379.281 64.5899 378.976 64.3758 378.283C64.1524 377.59 64.3572 376.758 64.8227 376.44C65.2882 376.107 65.8468 376.412 66.0609 377.105Z" fill="#004461"/>
<path d="M1.77576 740.047C1.9992 740.74 1.79438 741.572 1.32888 741.891C0.863385 742.224 0.304789 741.919 0.0906608 741.226C-0.132777 740.533 0.0720441 739.701 0.537539 739.382C1.00303 739.049 1.56163 739.354 1.77576 740.047Z" fill="#004461"/>
<path d="M185.386 712.199C185.61 712.892 185.405 713.724 184.939 714.042C184.474 714.375 183.915 714.07 183.701 713.377C183.478 712.684 183.682 711.852 184.148 711.533C184.613 711.201 185.172 711.506 185.386 712.199Z" fill="#004461"/>
<path d="M425.87 781.549C426.093 782.242 425.888 783.074 425.423 783.393C424.957 783.726 424.399 783.421 424.184 782.728C423.961 782.034 424.166 781.203 424.631 780.884C425.097 780.551 425.655 780.856 425.87 781.549Z" fill="#004461"/>
<path d="M89.2699 682.895C89.4933 683.588 89.2885 684.42 88.823 684.739C88.3575 685.071 87.7989 684.766 87.5848 684.073C87.3614 683.38 87.5662 682.549 88.0317 682.23C88.4972 681.897 89.0558 682.202 89.2699 682.895Z" fill="#004461"/>
<path d="M323.647 770.197C323.87 770.89 323.665 771.722 323.2 772.04C322.734 772.373 322.176 772.068 321.962 771.375C321.738 770.682 321.943 769.85 322.409 769.531C322.874 769.199 323.433 769.504 323.647 770.197Z" fill="#004461"/>
<path d="M583.747 391.48C583.971 392.173 583.766 393.005 583.301 393.324C582.835 393.656 582.276 393.351 582.062 392.658C581.839 391.965 582.044 391.133 582.509 390.815C582.975 390.482 583.533 390.787 583.747 391.48Z" fill="#004461"/>
<path d="M437.283 422.628C437.507 423.321 437.302 424.152 436.837 424.471C436.371 424.804 435.812 424.499 435.598 423.806C435.384 423.113 435.58 422.281 436.045 421.962C436.511 421.629 437.069 421.934 437.283 422.628Z" fill="#004461"/>
<path d="M322.008 541.256C322.232 541.949 322.027 542.781 321.561 543.1C321.096 543.433 320.537 543.128 320.323 542.435C320.1 541.742 320.304 540.91 320.77 540.591C321.235 540.258 321.794 540.563 322.008 541.256Z" fill="#004461"/>
<path d="M299.153 205.968C299.376 206.661 299.171 207.493 298.706 207.812C298.24 208.145 297.682 207.84 297.468 207.147C297.244 206.453 297.449 205.622 297.914 205.303C298.38 204.97 298.939 205.275 299.153 205.968Z" fill="#004461"/>
<path d="M660.377 364.463C660.601 365.156 660.396 365.988 659.93 366.307C659.465 366.64 658.906 366.335 658.692 365.642C658.469 364.949 658.674 364.117 659.139 363.798C659.605 363.465 660.163 363.77 660.377 364.463Z" fill="#004461"/>
<path d="M625.009 528.004C625.233 528.698 625.028 529.529 624.562 529.848C624.097 530.181 623.538 529.876 623.324 529.183C623.101 528.49 623.305 527.658 623.771 527.339C624.236 527.006 624.795 527.311 625.009 528.004Z" fill="#004461"/>
<path d="M445.327 175.168C445.551 175.861 445.346 176.692 444.881 177.011C444.415 177.344 443.857 177.039 443.642 176.346C443.419 175.653 443.624 174.821 444.089 174.502C444.555 174.169 445.113 174.474 445.327 175.168Z" fill="#004461"/>
<path d="M276.501 288.223C276.725 288.916 276.52 289.748 276.054 290.067C275.589 290.386 275.03 290.095 274.816 289.401C274.593 288.708 274.798 287.877 275.263 287.558C275.729 287.225 276.287 287.53 276.501 288.223Z" fill="#004461"/>
<path d="M514.445 156.232C514.668 156.925 514.463 157.757 513.998 158.076C513.532 158.408 512.974 158.103 512.76 157.41C512.536 156.717 512.741 155.885 513.206 155.567C513.672 155.234 514.231 155.539 514.445 156.232Z" fill="#004461"/>
<path d="M360.468 149.814C360.692 150.507 360.487 151.339 360.021 151.658C359.556 151.99 358.997 151.685 358.783 150.992C358.56 150.299 358.764 149.467 359.23 149.149C359.695 148.816 360.254 149.121 360.468 149.814Z" fill="#004461"/>
<g style="mix-blend-mode:darken" opacity="0.7">
<g opacity="0.1">
<path d="M1502.73 603.982L1595.7 588.756L1578.5 484.158L1502.73 603.982Z" fill="#004461" fill-opacity="0.4"/>
</g>
<g opacity="0.2">
<path d="M737.814 964.901L725.521 940.216L774.482 940.995L737.814 964.901Z" fill="#004461" fill-opacity="0.4"/>
</g>
<g opacity="0.2">
<path d="M1022.81 843.113L1066.99 885.564L1102.75 819.93L1022.81 843.113Z" fill="#004461" fill-opacity="0.4"/>
</g>
<g opacity="0.75">
<path d="M598.886 902.972L598.142 903.808L707.811 1005.14L708.556 1004.3L598.886 902.972Z" fill="#004461" fill-opacity="0.4"/>
</g>
<g opacity="0.3">
<path d="M708.247 1004.17L708.066 1005.29L827.894 1025.45L828.075 1024.34L708.247 1004.17Z" fill="#004461" fill-opacity="0.4"/>
</g>
<g opacity="0.1">
<path d="M1457.76 872.168C1457.62 877.315 1451.46 971.145 1451.46 971.145L1527.78 878.523L1457.75 872.168H1457.76Z" fill="#004461" fill-opacity="0.4"/>
</g>
<g opacity="0.05">
<path d="M1582.23 771.229L1689.27 816.66L1678.42 734.591L1582.23 771.229Z" fill="#004461" fill-opacity="0.4"/>
</g>
<g opacity="0.2">
<path d="M1235.85 962.689L1307.8 1016.35L1320.97 903.048L1235.85 962.689Z" fill="#004461" fill-opacity="0.4"/>
</g>
<g opacity="0.2">
<path d="M1387.81 724.26L1463.95 767.264L1469.46 691.889L1387.81 724.26Z" fill="#004461" fill-opacity="0.4"/>
</g>
<g opacity="0.1">
<path d="M1676.81 647.122L1734.85 619.22L1678.42 734.586L1676.81 647.122Z" fill="#004461" fill-opacity="0.4"/>
</g>
<path d="M1474.46 689.471C1475.77 692.293 1474.59 695.656 1471.81 696.988C1469.04 698.32 1465.74 697.112 1464.43 694.291C1463.12 691.469 1464.31 688.105 1467.08 686.773C1469.85 685.441 1473.16 686.649 1474.46 689.471Z" fill="#004461" fill-opacity="0.4"/>
<path d="M1467.93 862.21C1470.54 867.842 1468.17 874.57 1462.64 877.233C1457.11 879.897 1450.5 877.482 1447.88 871.849C1445.27 866.217 1447.64 859.49 1453.17 856.826C1458.7 854.162 1465.31 856.578 1467.93 862.21Z" fill="#004461" fill-opacity="0.4"/>
<path d="M936.082 872.584C937.933 876.568 936.26 881.331 932.336 883.205C928.423 885.09 923.756 883.386 921.905 879.39C920.054 875.406 921.728 870.642 925.652 868.769C929.565 866.884 934.231 868.588 936.082 872.584Z" fill="#004461" fill-opacity="0.4"/>
<path d="M1587.24 768.822C1588.55 771.643 1587.36 775.007 1584.59 776.339C1581.82 777.671 1578.51 776.463 1577.21 773.641C1575.9 770.819 1577.09 767.456 1579.86 766.124C1582.63 764.792 1585.93 766 1587.24 768.822Z" fill="#004461" fill-opacity="0.4"/>
<path d="M1692.27 815.21C1693.06 816.903 1692.35 818.923 1690.69 819.713C1689.03 820.515 1687.04 819.792 1686.27 818.099C1685.49 816.406 1686.19 814.386 1687.85 813.595C1689.51 812.805 1691.5 813.516 1692.27 815.21Z" fill="#004461" fill-opacity="0.4"/>
<path d="M1681.49 739.281C1678.94 741.008 1675.5 740.309 1673.81 737.713C1672.11 735.116 1672.8 731.617 1675.35 729.89C1677.9 728.164 1681.33 728.863 1683.03 731.459C1684.73 734.055 1684.04 737.554 1681.49 739.281Z" fill="#004461" fill-opacity="0.4"/>
<path d="M1590.58 693.854C1591.42 689.575 1588.7 685.411 1584.49 684.553C1580.29 683.695 1576.2 686.468 1575.36 690.746C1574.52 695.025 1577.24 699.189 1581.44 700.047C1585.65 700.905 1589.73 698.132 1590.58 693.854Z" fill="#004461" fill-opacity="0.4"/>
<path d="M1361.04 832.875C1359.51 833.913 1357.45 833.484 1356.43 831.938C1355.41 830.38 1355.83 828.281 1357.35 827.243C1358.88 826.204 1360.94 826.633 1361.96 828.179C1362.98 829.737 1362.56 831.836 1361.04 832.875Z" fill="#004461" fill-opacity="0.4"/>
<path d="M1454.53 975.848C1451.99 977.575 1448.55 976.875 1446.85 974.279C1445.16 971.683 1445.84 968.184 1448.39 966.457C1450.94 964.73 1454.38 965.43 1456.08 968.026C1457.77 970.622 1457.08 974.121 1454.53 975.848Z" fill="#004461" fill-opacity="0.4"/>
<path d="M1070.07 890.26C1067.52 891.987 1064.08 891.287 1062.39 888.691C1060.69 886.095 1061.38 882.596 1063.93 880.869C1066.48 879.142 1069.92 879.842 1071.61 882.438C1073.31 885.034 1072.62 888.533 1070.07 890.26Z" fill="#004461" fill-opacity="0.4"/>
<path d="M777.552 945.691C775.003 947.417 771.566 946.718 769.871 944.122C768.175 941.526 768.862 938.027 771.411 936.3C773.961 934.573 777.397 935.272 779.093 937.869C780.789 940.465 780.101 943.964 777.552 945.691Z" fill="#004461" fill-opacity="0.4"/>
<path d="M1679.77 534.873C1681.08 537.695 1679.89 541.059 1677.12 542.391C1674.35 543.722 1671.05 542.515 1669.74 539.693C1668.43 536.871 1669.62 533.508 1672.39 532.176C1675.16 530.844 1678.46 532.052 1679.77 534.873Z" fill="#004461" fill-opacity="0.4"/>
<path d="M1312.81 1013.94C1314.12 1016.77 1312.93 1020.13 1310.16 1021.46C1307.39 1022.79 1304.09 1021.59 1302.78 1018.76C1301.47 1015.94 1302.66 1012.58 1305.43 1011.25C1308.2 1009.91 1311.5 1011.12 1312.81 1013.94Z" fill="#004461" fill-opacity="0.4"/>
<path d="M1138.72 965.072C1140.02 967.893 1138.84 971.257 1136.07 972.589C1133.3 973.921 1129.99 972.713 1128.69 969.891C1127.38 967.069 1128.56 963.706 1131.33 962.374C1134.11 961.042 1137.41 962.25 1138.72 965.072Z" fill="#004461" fill-opacity="0.4"/>
<path d="M876.281 961.312C877.589 964.134 876.403 967.497 873.632 968.829C870.861 970.161 867.558 968.953 866.25 966.131C864.942 963.31 866.128 959.946 868.899 958.614C871.67 957.282 874.973 958.49 876.281 961.312Z" fill="#004461" fill-opacity="0.4"/>
<path d="M603.526 901.016C604.834 903.838 603.648 907.201 600.877 908.533C598.106 909.865 594.803 908.657 593.495 905.835C592.187 903.014 593.373 899.65 596.144 898.318C598.915 896.986 602.219 898.194 603.526 901.016Z" fill="#004461" fill-opacity="0.4"/>
<path d="M1186.09 908.918C1186.88 910.611 1186.17 912.631 1184.51 913.421C1182.84 914.211 1180.86 913.5 1180.08 911.807C1179.31 910.114 1180.01 908.094 1181.67 907.304C1183.33 906.513 1185.32 907.224 1186.09 908.918Z" fill="#004461" fill-opacity="0.4"/>
<path d="M861.393 839.615C862.18 841.308 861.471 843.328 859.808 844.118C858.146 844.908 856.162 844.197 855.386 842.504C854.61 840.811 855.308 838.791 856.971 838.001C858.633 837.211 860.617 837.922 861.393 839.615Z" fill="#004461" fill-opacity="0.4"/>
<path d="M740.819 963.457C741.606 965.15 740.897 967.17 739.234 967.96C737.571 968.75 735.587 968.039 734.811 966.346C734.035 964.653 734.734 962.633 736.397 961.843C738.059 961.041 740.043 961.764 740.819 963.457Z" fill="#004461" fill-opacity="0.4"/>
<path d="M1240.86 960.285C1242.17 963.107 1240.98 966.471 1238.21 967.803C1235.44 969.134 1232.14 967.927 1230.83 965.105C1229.52 962.283 1230.71 958.92 1233.48 957.588C1236.25 956.256 1239.55 957.464 1240.86 960.285Z" fill="#004461" fill-opacity="0.4"/>
<path d="M1244.7 854.853C1246.52 858.804 1244.86 863.51 1240.99 865.373C1237.11 867.235 1232.49 865.542 1230.66 861.603C1228.83 857.652 1230.5 852.946 1234.36 851.083C1238.23 849.221 1242.87 850.914 1244.7 854.853Z" fill="#004461" fill-opacity="0.4"/>
<path d="M1325.99 900.644C1327.3 903.466 1326.11 906.829 1323.34 908.161C1320.57 909.493 1317.26 908.285 1315.96 905.463C1314.65 902.642 1315.84 899.278 1318.61 897.946C1321.38 896.614 1324.68 897.822 1325.99 900.644Z" fill="#004461" fill-opacity="0.4"/>
<path d="M1532.79 876.116C1534.1 878.938 1532.91 882.302 1530.14 883.634C1527.37 884.966 1524.07 883.758 1522.76 880.936C1521.45 878.114 1522.64 874.751 1525.41 873.419C1528.18 872.087 1531.48 873.295 1532.79 876.116Z" fill="#004461" fill-opacity="0.4"/>
<path d="M1468.96 764.847C1470.27 767.669 1469.08 771.032 1466.31 772.364C1463.54 773.696 1460.23 772.488 1458.93 769.667C1457.62 766.845 1458.8 763.481 1461.57 762.149C1464.35 760.817 1467.65 762.025 1468.96 764.847Z" fill="#004461" fill-opacity="0.4"/>
<path d="M1600.7 586.353C1602.01 589.175 1600.83 592.538 1598.06 593.87C1595.28 595.202 1591.98 593.994 1590.67 591.172C1589.36 588.351 1590.55 584.987 1593.32 583.655C1596.09 582.323 1599.4 583.531 1600.7 586.353Z" fill="#004461" fill-opacity="0.4"/>
<path d="M1709.05 395.386C1709.83 397.079 1709.12 399.1 1707.46 399.89C1705.8 400.68 1703.81 399.969 1703.04 398.276C1702.25 396.583 1702.96 394.562 1704.62 393.772C1706.29 392.982 1708.27 393.693 1709.05 395.386Z" fill="#004461" fill-opacity="0.4"/>
<path d="M1505.73 602.538C1506.52 604.231 1505.81 606.251 1504.15 607.041C1502.49 607.831 1500.5 607.12 1499.73 605.427C1498.95 603.734 1499.65 601.714 1501.31 600.924C1502.97 600.122 1504.96 600.845 1505.73 602.538Z" fill="#004461" fill-opacity="0.4"/>
<path d="M1291.22 753.64C1292 755.333 1291.29 757.354 1289.63 758.144C1287.97 758.934 1285.98 758.223 1285.21 756.53C1284.43 754.837 1285.13 752.816 1286.79 752.026C1288.46 751.236 1290.44 751.947 1291.22 753.64Z" fill="#004461" fill-opacity="0.4"/>
<path d="M1611.53 964.393C1612.32 966.086 1611.61 968.107 1609.95 968.897C1608.29 969.698 1606.3 968.976 1605.53 967.283C1604.75 965.59 1605.45 963.569 1607.11 962.779C1608.77 961.989 1610.76 962.7 1611.53 964.393Z" fill="#004461" fill-opacity="0.4"/>
<path d="M1051.11 936.186C1051.89 937.879 1051.18 939.9 1049.52 940.69C1047.86 941.491 1045.87 940.769 1045.1 939.076C1044.32 937.383 1045.02 935.362 1046.68 934.572C1048.35 933.782 1050.33 934.493 1051.11 936.186Z" fill="#004461" fill-opacity="0.4"/>
<path d="M1499.84 467.253C1500.62 468.946 1499.91 470.966 1498.25 471.756C1496.59 472.557 1494.6 471.835 1493.83 470.142C1493.05 468.449 1493.75 466.429 1495.41 465.638C1497.08 464.837 1499.06 465.559 1499.84 467.253Z" fill="#004461" fill-opacity="0.4"/>
<path d="M1198.23 689.405C1199.02 691.098 1198.31 693.118 1196.65 693.908C1194.98 694.699 1193 693.987 1192.22 692.294C1191.45 690.601 1192.14 688.581 1193.81 687.791C1195.47 687.001 1197.45 687.712 1198.23 689.405Z" fill="#004461" fill-opacity="0.4"/>
<path d="M1026.74 969.044C1027.53 970.738 1026.82 972.758 1025.16 973.548C1023.49 974.338 1021.51 973.627 1020.73 971.934C1019.96 970.241 1020.66 968.221 1022.32 967.43C1023.98 966.64 1025.97 967.351 1026.74 969.044Z" fill="#004461" fill-opacity="0.4"/>
<path d="M796.639 865.211C797.426 866.905 796.717 868.925 795.054 869.715C793.392 870.505 791.408 869.794 790.632 868.101C789.856 866.408 790.554 864.388 792.217 863.597C793.879 862.807 795.864 863.518 796.639 865.211Z" fill="#004461" fill-opacity="0.4"/>
<path d="M1076.21 776.926C1077 778.619 1076.29 780.64 1074.63 781.43C1072.96 782.231 1070.98 781.509 1070.2 779.816C1069.43 778.123 1070.13 776.102 1071.79 775.312C1073.45 774.522 1075.44 775.233 1076.21 776.926Z" fill="#004461" fill-opacity="0.4"/>
<path d="M1611.44 327.123C1611.96 328.252 1611.48 329.595 1610.38 330.126C1609.27 330.656 1607.95 330.171 1607.43 329.053C1606.91 327.936 1607.39 326.582 1608.49 326.051C1609.6 325.521 1610.91 326.006 1611.44 327.123Z" fill="#004461" fill-opacity="0.4"/>
<path d="M1689.25 310.924C1689.77 312.053 1689.29 313.396 1688.19 313.927C1687.09 314.457 1685.77 313.972 1685.25 312.854C1684.73 311.726 1685.2 310.382 1686.3 309.852C1687.41 309.321 1688.73 309.807 1689.25 310.924Z" fill="#004461" fill-opacity="0.4"/>
<path d="M1257.26 559.184C1257.79 560.313 1257.31 561.656 1256.21 562.186C1255.1 562.717 1253.78 562.231 1253.26 561.114C1252.74 559.985 1253.22 558.642 1254.32 558.112C1255.42 557.581 1256.74 558.067 1257.26 559.184Z" fill="#004461" fill-opacity="0.4"/>
<path d="M1336.86 648.714C1337.38 649.843 1336.91 651.186 1335.81 651.717C1334.7 652.247 1333.38 651.762 1332.86 650.644C1332.34 649.516 1332.82 648.172 1333.91 647.642C1335.02 647.111 1336.34 647.597 1336.86 648.714Z" fill="#004461" fill-opacity="0.4"/>
<path d="M895.923 1016.81C896.444 1017.94 895.967 1019.28 894.87 1019.81C893.761 1020.34 892.442 1019.86 891.921 1018.74C891.4 1017.61 891.877 1016.27 892.974 1015.74C894.083 1015.21 895.402 1015.69 895.923 1016.81Z" fill="#004461" fill-opacity="0.4"/>
<path d="M705.481 897.303C706.002 898.432 705.526 899.775 704.428 900.305C703.32 900.836 702.001 900.351 701.48 899.233C700.959 898.104 701.435 896.761 702.533 896.231C703.641 895.7 704.96 896.186 705.481 897.303Z" fill="#004461" fill-opacity="0.4"/>
<path d="M727.507 939.719C728.028 940.848 727.551 942.191 726.454 942.721C725.356 943.252 724.026 942.767 723.505 941.649C722.984 940.52 723.461 939.177 724.558 938.647C725.667 938.116 726.986 938.602 727.507 939.719Z" fill="#004461" fill-opacity="0.4"/>
<path d="M1026.95 841.306C1028 843.586 1027.05 846.295 1024.81 847.367C1022.57 848.44 1019.91 847.469 1018.86 845.189C1017.81 842.909 1018.76 840.2 1021 839.128C1023.24 838.056 1025.9 839.026 1026.95 841.306Z" fill="#004461" fill-opacity="0.4"/>
<path d="M944.34 911.794C944.861 912.923 944.384 914.266 943.287 914.797C942.178 915.327 940.859 914.842 940.338 913.724C939.817 912.596 940.294 911.253 941.391 910.722C942.489 910.192 943.819 910.677 944.34 911.794Z" fill="#004461" fill-opacity="0.4"/>
<path d="M815.483 970.859C816.248 972.518 815.55 974.494 813.931 975.272C812.302 976.051 810.362 975.34 809.597 973.692C808.833 972.033 809.531 970.058 811.149 969.279C812.779 968.5 814.718 969.211 815.483 970.859Z" fill="#004461" fill-opacity="0.4"/>
<path d="M1206.63 808.37C1207.15 809.499 1206.68 810.842 1205.58 811.373C1204.47 811.903 1203.15 811.418 1202.63 810.301C1202.11 809.172 1202.58 807.829 1203.68 807.298C1204.79 806.768 1206.11 807.253 1206.63 808.37Z" fill="#004461" fill-opacity="0.4"/>
<path d="M1383.79 537.334C1384.06 537.899 1383.82 538.576 1383.26 538.836C1382.71 539.106 1382.04 538.858 1381.79 538.294C1381.52 537.729 1381.77 537.052 1382.32 536.793C1382.87 536.533 1383.54 536.77 1383.79 537.334Z" fill="#004461" fill-opacity="0.4"/>
<path d="M1406.9 652.721C1407.17 653.285 1406.93 653.963 1406.37 654.222C1405.82 654.493 1405.15 654.245 1404.9 653.68C1404.63 653.116 1404.88 652.439 1405.43 652.179C1405.98 651.908 1406.65 652.157 1406.9 652.721Z" fill="#004461" fill-opacity="0.4"/>
<path d="M1132.93 648.42C1133.2 648.985 1132.95 649.662 1132.4 649.921C1131.84 650.192 1131.18 649.944 1130.92 649.38C1130.66 648.815 1130.9 648.138 1131.46 647.878C1132.01 647.608 1132.68 647.856 1132.93 648.42Z" fill="#004461" fill-opacity="0.4"/>
<path d="M1133.81 822.435C1134.07 822.999 1133.83 823.676 1133.28 823.936C1132.72 824.207 1132.06 823.959 1131.8 823.394C1131.54 822.83 1131.78 822.153 1132.33 821.893C1132.89 821.622 1133.55 821.871 1133.81 822.435Z" fill="#004461" fill-opacity="0.4"/>
<path d="M996.836 771.958C997.102 772.523 996.858 773.2 996.304 773.46C995.75 773.73 995.085 773.482 994.83 772.918C994.564 772.353 994.807 771.676 995.362 771.417C995.916 771.157 996.581 771.394 996.836 771.958Z" fill="#004461" fill-opacity="0.4"/>
<path d="M920.496 696.469C920.873 696.954 920.796 697.665 920.308 698.049C919.831 698.433 919.133 698.354 918.756 697.857C918.379 697.372 918.457 696.661 918.945 696.277C919.421 695.893 920.12 695.972 920.496 696.469Z" fill="#004461" fill-opacity="0.4"/>
<path d="M884.451 796.057C884.827 796.542 884.75 797.253 884.262 797.637C883.785 798.021 883.087 797.942 882.71 797.445C882.333 796.96 882.411 796.249 882.899 795.865C883.375 795.481 884.074 795.56 884.451 796.057Z" fill="#004461" fill-opacity="0.4"/>
<path d="M742.017 843.755C742.394 844.241 742.316 844.952 741.829 845.335C741.352 845.719 740.654 845.64 740.277 845.144C739.9 844.658 739.977 843.947 740.465 843.563C740.942 843.18 741.64 843.259 742.017 843.755Z" fill="#004461" fill-opacity="0.4"/>
<path d="M762.998 726.947C763.375 727.432 763.298 728.143 762.81 728.527C762.333 728.911 761.635 728.832 761.258 728.335C760.881 727.838 760.959 727.138 761.447 726.755C761.923 726.371 762.622 726.45 762.998 726.947Z" fill="#004461" fill-opacity="0.4"/>
<path d="M643.376 870.236C643.642 870.8 643.398 871.477 642.844 871.737C642.29 872.008 641.625 871.759 641.37 871.195C641.104 870.631 641.348 869.954 641.902 869.694C642.456 869.423 643.121 869.671 643.376 870.236Z" fill="#004461" fill-opacity="0.4"/>
<path d="M764.239 912.042C764.505 912.607 764.261 913.284 763.707 913.544C763.153 913.814 762.488 913.566 762.233 913.002C761.967 912.437 762.211 911.76 762.765 911.501C763.319 911.23 763.984 911.478 764.239 912.042Z" fill="#004461" fill-opacity="0.4"/>
<path d="M642.267 982.081C642.533 982.646 642.289 983.323 641.735 983.583C641.18 983.853 640.515 983.605 640.26 983.041C639.994 982.476 640.238 981.799 640.792 981.54C641.347 981.269 642.012 981.517 642.267 982.081Z" fill="#004461" fill-opacity="0.4"/>
<path d="M600.223 942.283C600.489 942.847 600.245 943.524 599.691 943.784C599.136 944.055 598.471 943.806 598.216 943.242C597.95 942.678 598.194 942 598.748 941.741C599.303 941.47 599.968 941.718 600.223 942.283Z" fill="#004461" fill-opacity="0.4"/>
<path d="M752.113 1035.39C752.379 1035.95 752.135 1036.63 751.581 1036.89C751.027 1037.16 750.362 1036.91 750.107 1036.35C749.841 1035.78 750.085 1035.11 750.639 1034.85C751.193 1034.58 751.858 1034.82 752.113 1035.39Z" fill="#004461" fill-opacity="0.4"/>
<path d="M1170.79 778.313C1171.06 778.877 1170.82 779.554 1170.26 779.814C1169.71 780.085 1169.04 779.837 1168.79 779.272C1168.52 778.708 1168.77 778.031 1169.32 777.771C1169.87 777.5 1170.54 777.748 1170.79 778.313Z" fill="#004461" fill-opacity="0.4"/>
<path d="M1509.25 540.855C1509.51 541.419 1509.27 542.096 1508.72 542.356C1508.16 542.627 1507.5 542.379 1507.24 541.814C1506.98 541.25 1507.22 540.573 1507.77 540.313C1508.33 540.042 1508.99 540.29 1509.25 540.855Z" fill="#004461" fill-opacity="0.4"/>
<path d="M1663.95 388.873C1664.22 389.438 1663.98 390.115 1663.42 390.375C1662.87 390.645 1662.2 390.397 1661.95 389.833C1661.68 389.268 1661.93 388.591 1662.48 388.332C1663.03 388.061 1663.7 388.309 1663.95 388.873Z" fill="#004461" fill-opacity="0.4"/>
<path d="M1609.69 432.397C1609.96 432.961 1609.72 433.638 1609.16 433.898C1608.61 434.169 1607.94 433.921 1607.69 433.356C1607.42 432.792 1607.66 432.115 1608.22 431.855C1608.77 431.584 1609.44 431.832 1609.69 432.397Z" fill="#004461" fill-opacity="0.4"/>
<path d="M1500.35 394.404C1500.61 394.968 1500.37 395.645 1499.81 395.905C1499.26 396.176 1498.6 395.927 1498.34 395.363C1498.07 394.799 1498.32 394.121 1498.87 393.862C1499.43 393.591 1500.09 393.839 1500.35 394.404Z" fill="#004461" fill-opacity="0.4"/>
<path d="M1682.5 213.785C1682.76 214.35 1682.52 215.027 1681.96 215.287C1681.41 215.558 1680.74 215.309 1680.49 214.745C1680.22 214.181 1680.47 213.503 1681.02 213.244C1681.58 212.973 1682.24 213.221 1682.5 213.785Z" fill="#004461" fill-opacity="0.4"/>
<path d="M1274.08 738.469C1274.35 739.033 1274.1 739.711 1273.55 739.97C1272.99 740.241 1272.33 739.993 1272.07 739.428C1271.81 738.864 1272.05 738.187 1272.61 737.927C1273.16 737.656 1273.83 737.905 1274.08 738.469Z" fill="#004461" fill-opacity="0.4"/>
<path d="M936.869 956.209C937.135 956.774 936.891 957.451 936.337 957.711C935.783 957.981 935.118 957.733 934.863 957.169C934.597 956.604 934.841 955.927 935.395 955.668C935.949 955.397 936.614 955.645 936.869 956.209Z" fill="#004461" fill-opacity="0.4"/>
<path d="M593.972 1022.47C594.238 1023.03 593.994 1023.71 593.44 1023.97C592.885 1024.24 592.22 1023.99 591.965 1023.43C591.711 1022.86 591.943 1022.18 592.497 1021.92C593.052 1021.65 593.717 1021.9 593.972 1022.47Z" fill="#004461" fill-opacity="0.4"/>
<path d="M1686.12 953.681C1686.39 954.245 1686.14 954.923 1685.59 955.182C1685.04 955.453 1684.37 955.205 1684.12 954.64C1683.85 954.076 1684.09 953.399 1684.65 953.139C1685.2 952.868 1685.87 953.117 1686.12 953.681Z" fill="#004461" fill-opacity="0.4"/>
<path d="M1561.63 947.802C1561.9 948.366 1561.65 949.044 1561.1 949.303C1560.55 949.574 1559.88 949.326 1559.63 948.762C1559.36 948.197 1559.6 947.52 1560.16 947.26C1560.71 946.989 1561.38 947.238 1561.63 947.802Z" fill="#004461" fill-opacity="0.4"/>
<path d="M1493.77 990.601C1494.04 991.165 1493.8 991.843 1493.24 992.102C1492.69 992.373 1492.02 992.125 1491.77 991.56C1491.5 990.996 1491.74 990.319 1492.3 990.059C1492.85 989.788 1493.52 990.037 1493.77 990.601Z" fill="#004461" fill-opacity="0.4"/>
<path d="M1165.41 1018.28C1166.02 1018.21 1166.56 1018.65 1166.64 1019.27C1166.71 1019.89 1166.27 1020.45 1165.66 1020.53C1165.05 1020.59 1164.51 1020.15 1164.43 1019.53C1164.37 1018.91 1164.8 1018.36 1165.41 1018.28Z" fill="#004461" fill-opacity="0.4"/>
<path d="M1125.45 931.096C1126.06 931.028 1126.6 931.468 1126.68 932.089C1126.76 932.71 1126.31 933.263 1125.7 933.342C1125.09 933.421 1124.55 932.969 1124.47 932.349C1124.41 931.728 1124.84 931.175 1125.45 931.096Z" fill="#004461" fill-opacity="0.4"/>
<path d="M964.148 995.139C964.758 995.071 965.301 995.511 965.379 996.132C965.445 996.753 965.013 997.306 964.403 997.385C963.793 997.453 963.25 997.012 963.173 996.392C963.106 995.771 963.539 995.218 964.148 995.139Z" fill="#004461" fill-opacity="0.4"/>
<path d="M1448.27 600.8C1448.79 601.929 1448.32 603.272 1447.22 603.803C1446.11 604.333 1444.79 603.848 1444.27 602.73C1443.75 601.602 1444.23 600.258 1445.32 599.728C1446.43 599.197 1447.75 599.683 1448.27 600.8Z" fill="#004461" fill-opacity="0.4"/>
<path d="M1730.65 461.833C1731.44 463.526 1730.73 465.546 1729.06 466.336C1727.4 467.126 1725.42 466.415 1724.64 464.722C1723.86 463.029 1724.56 461.009 1726.23 460.219C1727.89 459.428 1729.87 460.14 1730.65 461.833Z" fill="#004461" fill-opacity="0.4"/>
<path d="M1581.52 482.713C1582.3 484.407 1581.59 486.427 1579.93 487.217C1578.27 488.007 1576.29 487.296 1575.51 485.603C1574.73 483.91 1575.43 481.889 1577.09 481.099C1578.76 480.309 1580.74 481.02 1581.52 482.713Z" fill="#004461" fill-opacity="0.4"/>
<path d="M830.713 1022.97C831.5 1024.67 830.79 1026.69 829.128 1027.48C827.465 1028.27 825.481 1027.56 824.705 1025.86C823.918 1024.17 824.627 1022.15 826.29 1021.36C827.953 1020.57 829.937 1021.28 830.713 1022.97Z" fill="#004461" fill-opacity="0.4"/>
<path d="M950.857 798.699C951.644 800.392 950.935 802.412 949.272 803.202C947.609 804.004 945.625 803.281 944.849 801.588C944.074 799.895 944.772 797.875 946.435 797.085C948.097 796.283 950.081 797.006 950.857 798.699Z" fill="#004461" fill-opacity="0.4"/>
<path d="M711.566 1004.01C712.353 1005.7 711.644 1007.72 709.981 1008.51C708.318 1009.3 706.334 1008.59 705.558 1006.9C704.783 1005.21 705.481 1003.19 707.144 1002.4C708.806 1001.61 710.79 1002.32 711.566 1004.01Z" fill="#004461" fill-opacity="0.4"/>
<path d="M686.172 945.713C686.959 947.407 686.249 949.427 684.587 950.217C682.924 951.018 680.94 950.296 680.164 948.603C679.377 946.91 680.086 944.89 681.749 944.099C683.412 943.309 685.396 944.02 686.172 945.713Z" fill="#004461" fill-opacity="0.4"/>
<path d="M1390.82 722.815C1391.61 724.508 1390.9 726.529 1389.24 727.319C1387.57 728.12 1385.59 727.398 1384.81 725.705C1384.04 724.011 1384.74 721.991 1386.4 721.201C1388.06 720.411 1390.05 721.122 1390.82 722.815Z" fill="#004461" fill-opacity="0.4"/>
<path d="M1105.75 818.484C1106.54 820.177 1105.83 822.198 1104.17 822.988C1102.5 823.789 1100.52 823.067 1099.74 821.374C1098.97 819.68 1099.67 817.66 1101.33 816.87C1102.99 816.069 1104.98 816.791 1105.75 818.484Z" fill="#004461" fill-opacity="0.4"/>
<path d="M1622.3 890.803C1620.77 891.841 1618.71 891.412 1617.69 889.866C1616.67 888.308 1617.09 886.209 1618.61 885.17C1620.13 884.132 1622.2 884.561 1623.22 886.107C1624.24 887.665 1623.82 889.764 1622.3 890.803Z" fill="#004461" fill-opacity="0.4"/>
<g opacity="0.3">
<path d="M1310.56 1017.71L1133.39 967.972L1133.27 967.836L1065.55 884.684L1067.1 885.023L1182.91 909.764L1237.46 857.651L1326.94 863.916L1359.25 829.174L1384.61 867.956L1456.9 873.013L1463.4 766.688L1492.53 767.659L1468.68 691.324H1469.44L1582.79 691.696L1628.36 669.788L1594 586.105L1658.06 655.521L1734.44 618.804L1772.58 538.338L1674.07 537.841L1705.69 395.872L1806.82 468.696L1774.34 537.209L1844.32 537.559L1830.15 362.676L1899.64 381.018L1859.39 259.568L1860.54 260.076L1982.22 314.097L2183.17 371.954L2182.96 372.53L2046.34 745.988L2035.2 522.694L1972.85 401.515L1901.35 382.632L1953.24 539.23L1845.52 538.688L1849.37 586.32L1995.67 616.231L1995.18 616.942L1930.48 710.591L1930.22 710.614L1727.16 730.4L1804.38 814.094L1676.71 734.181L1724.8 729.497L1657.79 656.887L1629.78 670.352L1690.28 817.706L1582.09 771.79L1494.07 768.844L1528.55 879.153L1527.74 879.097L1457.95 874.209L1451.91 972.859L1384 869.029L1327.4 865.067L1236.68 962.622L1310.56 1017.71ZM1134.02 966.978L1305.03 1014.98L1235.01 962.768L1235.44 962.305L1325.96 864.965L1237.87 858.802L1183.24 910.983L1182.97 910.926L1068.43 886.456L1134.02 966.99V966.978ZM1385.4 869.13L1451.01 969.439L1456.84 874.13L1385.4 869.13ZM1458.02 873.081L1527.01 877.912L1492.9 768.799L1464.46 767.851L1458.02 873.081ZM1328.38 864.006L1383.23 867.844L1359.11 830.957L1328.38 864.006ZM1493.72 767.693L1582.34 770.661L1582.43 770.706L1688.22 815.607L1628.77 670.827L1583.01 692.814H1582.89L1470.19 692.441L1493.71 767.681L1493.72 767.693ZM1680.11 734.983L1797.9 808.699L1725.77 730.535L1680.13 734.983H1680.11ZM1900.92 381.357L1973.61 400.545L1973.72 400.77L2036.3 522.389V522.513L2047.19 740.479L2181.72 372.711L1981.86 315.158L1861.25 261.623L1900.92 381.357ZM1658.85 656.368L1726.2 729.35L1929.87 709.507L1993.78 616.987L1849.47 587.482L1856.45 673.603L1805.46 577.324L1848.24 586.071L1844.41 538.665L1773.81 538.315L1735.27 619.617L1735.09 619.707L1658.87 656.356L1658.85 656.368ZM1807.55 578.915L1854.91 668.321L1848.34 587.257L1807.55 578.915ZM1597.39 591.399L1629.37 669.291L1657 656.007L1597.39 591.399ZM1845.43 537.559L1951.68 538.09L1900.06 382.293L1831.38 364.166L1845.43 537.571V537.559ZM1675.45 536.713L1773.1 537.198L1805.4 469.058L1706.38 397.768L1675.44 536.713H1675.45Z" fill="#004461" fill-opacity="0.4"/>
</g>
<path d="M1237.16 963.196L1132.43 968.095L1183.07 909.537L1183.49 909.955L1237.17 963.196H1237.16ZM1134.99 966.853L1234.55 962.192L1183.12 911.185L1134.98 966.853H1134.99Z" fill="#004461" fill-opacity="0.4"/>
<path d="M1236.17 963.162L1235.54 962.225L1320.66 902.584L1321.29 903.521L1236.17 963.162Z" fill="#004461" fill-opacity="0.4"/>
<g opacity="0.3">
<path d="M1182.68 910.747L1101.6 819.479L1204.44 808.79L1288.3 754.363L1288.61 754.691L1358.87 828.384L1358.08 829.174L1288.14 755.808L1204.81 809.885L1204.68 809.896L1103.89 820.37L1183.5 909.99L1182.68 910.747Z" fill="#004461" fill-opacity="0.4"/>
</g>
<g opacity="0.6">
<path d="M1307.15 1017.15L1320.38 903.373L1238.21 859.15L1236.4 962.709L1235.3 962.686L1237.14 857.298L1321.57 902.741L1321.52 903.124L1308.44 1015.56L1451.14 970.655L1527.32 878.214L1555.5 822.647L1357 830.706L1358.71 829.679L1387.34 723.828L1387.6 723.727L1468.91 691.479L1468.96 690.847L1469.41 691.174L1596.4 587.434L1583.46 692.314L1582.78 770.399L1677.85 734.19L1674.17 535.536L1735.2 618.756L1856.72 670.801L1856.05 671.399L1689.49 817.195H1689.3L1556.8 822.579L1528.22 878.868L1451.8 971.615L1451.64 971.66L1307.16 1017.11L1307.15 1017.15ZM1557.37 821.451L1689.05 816.1L1854.63 671.151L1734.48 619.693L1734.4 619.569L1675.34 539.035L1678.97 734.98L1678.61 735.115L1582.62 771.674L1557.37 821.439V821.451ZM1361.37 829.408L1556.09 821.496L1581.51 771.403L1469.93 692.901L1464.48 767.588L1464.22 767.735L1361.37 829.397V829.408ZM1388.26 724.686L1360.08 828.878L1463.41 766.934L1468.83 692.743L1388.27 724.686H1388.26ZM1470.36 691.863L1581.67 770.173L1582.36 692.269L1594.97 590.087L1470.37 691.863H1470.36Z" fill="#004461" fill-opacity="0.4"/>
</g>
<path d="M1620.67 888.566L1620.4 888.544L1525.38 878.848L1527.59 878.002L1691.42 815.223L1620.67 888.566ZM1530.2 878.205L1620.25 887.393L1687.11 818.09L1530.2 878.216V878.205Z" fill="#004461" fill-opacity="0.4"/>
<g opacity="0.8">
<path d="M1750.35 884.04L1688.74 816.904L1688.72 816.734L1677.84 734.485L1677.92 734.338L1734.43 618.814L1734.57 618.735L1805.96 577.808L1805.56 468.887H1806.67L1807.06 578.474L1735.27 619.627L1678.99 734.688L1689.79 816.396L1750.23 882.268L1800.78 810.978L1874.26 745.253L1874.57 745.377L1945.4 773.73L2044.78 743.255L1929.97 710.59L1854.32 670.905L1855.48 670.453L1993.93 616.331L1951.88 538.777L1951.92 538.586L1972.68 400.95L1973.77 401.119L1953.04 538.563L1995.52 616.918L1857.03 671.051L1930.38 709.529L2048.75 743.221L1945.35 774.927L1874.48 746.551L1801.56 811.791L1750.35 884.04Z" fill="#004461" fill-opacity="0.4"/>
</g>
<path d="M1801.53 811.948L1801.17 811.971L1689.29 817.219L1689.24 816.091L1800.76 810.853L1854.72 671.92L1678.61 735.117L1678.23 734.056L1856.63 670.035L1801.53 811.948Z" fill="#004461" fill-opacity="0.4"/>
<path d="M1237.74 859.332L1204.17 809.646L1205.08 809.014L1237.6 857.108L1287.82 754.621L1288.06 754.542L1387.87 723.649L1388.08 723.762L1464.21 766.766L1463.68 767.76L1387.75 724.868L1288.6 755.558L1237.74 859.332Z" fill="#004461" fill-opacity="0.4"/>
<g opacity="0.3">
<path d="M1607.76 967.168L1607.87 966.423L1448.86 971.795L1620.31 887.413H1620.43L1709.57 884.094L1800.89 810.875L1801 810.841L1949.44 772.69L1750.55 883.643L1608.82 966.299L1607.74 967.156L1607.76 967.168ZM1454.06 970.486L1608.04 965.283L1619.75 888.948L1454.07 970.486H1454.06ZM1620.92 888.519L1609.27 964.504L1708.08 885.28L1620.92 888.519ZM1709.97 885.212L1614.77 961.536L1748.05 883.801L1709.97 885.212ZM1711.44 884.027L1750.12 882.593L1941.29 775.964L1801.38 811.925L1711.44 884.038V884.027Z" fill="#004461" fill-opacity="0.4"/>
</g>
<g opacity="0.3">
<path d="M1503.2 604.299L1502.26 603.679L1578.81 482.624L1596.25 588.667L1595.15 588.847L1578.19 485.683L1503.2 604.299Z" fill="#004461" fill-opacity="0.4"/>
</g>
<g opacity="0.6">
<path d="M1469.96 692.089L1468.93 691.683L1502.32 603.485L1502.63 603.429L1595.48 588.214L1673.65 537.32L1577.42 484.203L1705.87 396.276L1831.49 362.629L1831.28 363.543L1806.58 469.258L1806.34 469.371L1674.99 537.771L1595.88 589.286L1595.77 589.308L1503.12 604.49L1469.95 692.078L1469.96 692.089ZM1579.58 484.101L1674.77 536.643L1805.63 468.502L1830.01 364.209L1706.27 397.348L1579.58 484.101Z" fill="#004461" fill-opacity="0.4"/>
</g>
<path d="M1706.54 397.089L1705.55 396.57L1767.7 273.066L1831.22 363.093L1830.32 363.759L1767.86 275.234L1706.54 397.089Z" fill="#004461" fill-opacity="0.4"/>
<path d="M1457.49 866.697L1307.46 1016.09L1308.24 1016.9L1458.27 867.504L1457.49 866.697Z" fill="#004461" fill-opacity="0.4"/>
<g opacity="0.3">
<path d="M1502.34 603.603L1387.43 723.885L1388.22 724.672L1503.13 604.39L1502.34 603.603Z" fill="#004461" fill-opacity="0.4"/>
</g>
<g opacity="0.8">
<path d="M1451.21 971.653L1320.21 903.298L1358.13 830.891L1237.66 858.804L1237.52 858.771L1103.01 820.586L1067.13 886.48L1022.67 843.759L928.334 877.27L775.557 941.155L813.688 972.511L708.341 1005.31L708.02 1004.23L811.371 972.048L773.407 940.839L774.271 940.478L927.946 876.209L1022.94 842.472L1023.18 842.698L1066.86 884.652L1102.47 819.266L1237.69 857.642L1360.25 829.232L1321.72 902.813L1451.72 970.649L1451.21 971.653Z" fill="#004461" fill-opacity="0.4"/>
</g>
<g opacity="0.3">
<path d="M726.044 939.918L725.056 940.429L737.352 965.11L738.341 964.6L726.044 939.918Z" fill="#004461" fill-opacity="0.4"/>
</g>
<g opacity="0.75">
<path d="M828.142 1025.71L827.699 1025.42L737.571 965.406L682.57 947.945L598.262 903.925L598.76 902.92L682.98 946.906L738.059 964.379L738.114 964.424L827.865 1024.18L870.695 963.555L857.837 841.123L858.935 840.999L871.848 963.871L871.715 964.04L828.142 1025.71Z" fill="#004461" fill-opacity="0.4"/>
</g>
<g opacity="0.3">
<path d="M1047.85 938.139L927.503 877.031L927.614 876.591L947.311 799.996L948.386 800.29L928.8 876.433L1048.35 937.123L1047.85 938.139Z" fill="#004461" fill-opacity="0.4"/>
</g>
<path d="M827.477 1025.12L811.814 971.808L870.95 963.196L927.869 876.149L928.19 876.172L1067.78 885.044L1048.81 937.281L1133.88 966.943L1133.53 968.004L1047.38 937.98L1066.21 886.082L928.434 877.312L871.593 964.234L871.349 964.279L813.244 972.745L828.541 1024.79L827.477 1025.12Z" fill="#004461" fill-opacity="0.4"/>
<g opacity="0.3">
<path d="M871.592 964.18L870.949 963.254L942.222 912.157L942.466 912.214L1048.22 937.079L1047.97 938.185L942.455 913.365L871.592 964.18Z" fill="#004461" fill-opacity="0.4"/>
</g>
<g opacity="0.3">
<path d="M708.054 1005.87L681.928 946.977L725.434 939.663L725.611 940.781L683.535 947.846L708.298 1003.67L737.439 964.472L737.516 964.416L774.184 940.521L774.782 941.469L738.192 965.319L708.054 1005.87Z" fill="#004461" fill-opacity="0.4"/>
</g>
<g opacity="0.3">
<path d="M941.812 912.956L928.699 876.656L858.146 841.565L858.634 840.549L929.586 875.844L929.663 876.058L942.854 912.561L941.812 912.956Z" fill="#004461" fill-opacity="0.4"/>
</g>
<path d="M857.968 840.621L774.059 940.558L774.901 941.291L858.811 841.355L857.968 840.621Z" fill="#004461" fill-opacity="0.4"/>
<g opacity="0.3">
<path d="M1022.74 843.723L947.819 800.775L858.612 841.578L858.157 840.551L947.875 799.522L948.019 799.613L1105.51 819.726L1022.73 843.734L1022.74 843.723ZM950.579 801.069L1022.88 842.515L1099.99 820.155L950.579 801.08V801.069Z" fill="#004461" fill-opacity="0.4"/>
</g>
<g opacity="0.75">
<path d="M774.47 941.556L725.366 940.755L598.36 903.97L598.66 902.887L725.599 939.649L774.492 940.428L774.47 941.556Z" fill="#004461" fill-opacity="0.4"/>
</g>
<g opacity="0.1">
<path d="M858.391 841.059L929.143 876.252L864.908 903.183L858.391 841.059Z" fill="#004461" fill-opacity="0.4"/>
</g>
<g opacity="0.3">
<path d="M1806.06 468.38L1578.46 483.651L1578.53 484.778L1806.13 469.506L1806.06 468.38Z" fill="#004461" fill-opacity="0.4"/>
</g>
</g>
<path d="M576.345 869.245L584.402 859.716L561.703 856.004L556.002 866.322L576.345 869.245Z" fill="url(#paint0_linear_73_30706)"/>
<path d="M584.402 859.716L583.426 840.194L562.416 836L561.703 856.003L584.402 859.716Z" fill="url(#paint1_linear_73_30706)"/>
<path d="M561.703 856.003L562.416 836L557.025 847.804L556.002 866.322L561.703 856.003Z" fill="#F1F2F2"/>
<path d="M476.125 878.621L495.211 880.316L489.98 863.145L470.898 861.45L476.125 878.621Z" fill="url(#paint2_linear_73_30706)"/>
<path d="M467.227 892.352L476.125 878.621L470.897 861.45L461.999 875.181L467.227 892.352Z" fill="url(#paint3_linear_73_30706)"/>
<path d="M486.309 894.046L495.211 880.316L476.125 878.621L467.227 892.351L486.309 894.046Z" fill="url(#paint4_linear_73_30706)"/>
<path d="M564.688 948.555L548.792 932.651L517.576 930.138L535.515 945.154L564.688 948.555Z" fill="url(#paint5_linear_73_30706)"/>
<path d="M564.688 948.555L573.408 916.987L559.436 898.327L548.792 932.651L564.688 948.555Z" fill="url(#paint6_linear_73_30706)"/>
<path d="M548.792 932.651L559.436 898.327L529.068 898.544L517.576 930.138L548.792 932.651Z" fill="url(#paint7_linear_73_30706)"/>
</g>
<defs>
<linearGradient id="paint0_linear_73_30706" x1="576.338" y1="869.256" x2="562.277" y2="855.421" gradientUnits="userSpaceOnUse">
<stop stop-color="#6E7F96" stop-opacity="0"/>
<stop offset="1" stop-color="#BAC4D4"/>
</linearGradient>
<linearGradient id="paint1_linear_73_30706" x1="561.536" y1="836.891" x2="584.567" y2="859.552" gradientUnits="userSpaceOnUse">
<stop stop-color="#E2E7EC"/>
<stop offset="1" stop-color="#A3B7CF"/>
</linearGradient>
<linearGradient id="paint2_linear_73_30706" x1="483.052" y1="880.316" x2="483.052" y2="861.45" gradientUnits="userSpaceOnUse">
<stop stop-color="#A3B7CF"/>
<stop offset="1" stop-color="white"/>
</linearGradient>
<linearGradient id="paint3_linear_73_30706" x1="473.909" y1="883.721" x2="464.445" y2="870.828" gradientUnits="userSpaceOnUse">
<stop stop-color="#CBD6E2"/>
<stop offset="1" stop-color="white"/>
</linearGradient>
<linearGradient id="paint4_linear_73_30706" x1="495.211" y1="886.332" x2="467.227" y2="886.332" gradientUnits="userSpaceOnUse">
<stop stop-color="#57667A"/>
<stop offset="1" stop-color="#004461"/>
</linearGradient>
<linearGradient id="paint5_linear_73_30706" x1="558.791" y1="957.294" x2="528.14" y2="927.137" gradientUnits="userSpaceOnUse">
<stop stop-color="#57667A"/>
<stop offset="1" stop-color="#004461"/>
</linearGradient>
<linearGradient id="paint6_linear_73_30706" x1="561.1" y1="948.555" x2="561.1" y2="898.327" gradientUnits="userSpaceOnUse">
<stop stop-color="#A3B7CF"/>
<stop offset="1" stop-color="#E2E7EC"/>
</linearGradient>
<linearGradient id="paint7_linear_73_30706" x1="549.23" y1="932.6" x2="529.521" y2="899.923" gradientUnits="userSpaceOnUse">
<stop stop-color="#D8E1EB"/>
<stop offset="1" stop-color="white"/>
</linearGradient>
<clipPath id="clip0_73_30706">
<rect width="2208" height="1037" fill="white"/>
</clipPath>
</defs>
</svg>
