<svg width="1728" height="1117" viewBox="0 0 1728 1117" fill="none" xmlns="http://www.w3.org/2000/svg">
<g clip-path="url(#clip0_3_66653)">
<rect width="1728" height="1117" fill="white"/>
<rect width="1728" height="1117" fill="url(#paint0_linear_3_66653)"/>
<g style="mix-blend-mode:screen" opacity="0.3">
<path d="M1551.46 370.437C1629.52 292.375 1629.52 165.812 1551.46 87.7497C1473.4 9.68778 1346.84 9.68779 1268.77 87.7497C1190.71 165.812 1190.71 292.375 1268.77 370.437C1346.84 448.499 1473.4 448.499 1551.46 370.437Z" fill="white"/>
</g>
<g style="mix-blend-mode:screen" opacity="0.2">
<path d="M1716.18 257.642C1786.03 187.785 1786.03 74.524 1716.18 4.66701C1646.32 -65.19 1533.06 -65.1899 1463.2 4.66703C1393.34 74.524 1393.34 187.785 1463.2 257.642C1533.06 327.499 1646.32 327.499 1716.18 257.642Z" fill="white"/>
</g>
<g style="mix-blend-mode:screen" opacity="0.3">
<path d="M1418.81 86.16C1476.57 86.16 1523.39 39.3379 1523.39 -18.42C1523.39 -76.1779 1476.57 -123 1418.81 -123C1361.05 -123 1314.23 -76.1779 1314.23 -18.42C1314.23 39.3379 1361.05 86.16 1418.81 86.16Z" fill="white"/>
</g>
<g style="mix-blend-mode:screen" opacity="0.5">
<path d="M1774.69 414.709C1824.35 365.057 1824.35 284.557 1774.69 234.906C1725.04 185.254 1644.54 185.254 1594.89 234.906C1545.24 284.557 1545.24 365.057 1594.89 414.709C1644.54 464.36 1725.04 464.36 1774.69 414.709Z" fill="white"/>
</g>
<g style="mix-blend-mode:screen" opacity="0.2">
<path d="M1213.83 528.92C1323.64 528.92 1412.66 439.901 1412.66 330.09C1412.66 220.279 1323.64 131.26 1213.83 131.26C1104.02 131.26 1015 220.279 1015 330.09C1015 439.901 1104.02 528.92 1213.83 528.92Z" fill="white"/>
</g>
<g style="mix-blend-mode:screen" opacity="0.25">
<path d="M1348.87 205.824C1408.21 146.484 1408.21 50.2747 1348.87 -9.06548C1289.53 -68.4056 1193.32 -68.4056 1133.98 -9.06547C1074.64 50.2747 1074.64 146.484 1133.98 205.824C1193.32 265.164 1289.53 265.164 1348.87 205.824Z" fill="white"/>
</g>
</g>
<defs>
<linearGradient id="paint0_linear_3_66653" x1="-521.5" y1="433" x2="2218" y2="454" gradientUnits="userSpaceOnUse">
<stop stop-color="#CEF4FF"/>
<stop offset="0.501123" stop-color="#D4CEFF"/>
<stop offset="1" stop-color="#FFE4F6"/>
</linearGradient>
<clipPath id="clip0_3_66653">
<rect width="1728" height="1117" fill="white"/>
</clipPath>
</defs>
</svg>
