<svg width="1728" height="1117" viewBox="0 0 1728 1117" fill="none" xmlns="http://www.w3.org/2000/svg">
<g clip-path="url(#clip0_73_30988)">
<rect width="1728" height="1117" fill="url(#paint0_radial_73_30988)"/>
<rect width="1728" height="1117" fill="#F3FBFF"/>
<path d="M1419.45 805.132C1417.36 739.547 1469.64 707.289 1546.46 715.495C1536.51 775.074 1485.37 833.318 1419.45 805.132Z" fill="#59889C"/>
<path d="M1419.45 805.132C1442.87 790.53 1494.84 748.115 1530.39 725.742" stroke="#CED3F8" stroke-width="2" stroke-linecap="round" stroke-linejoin="round"/>
<path d="M1468.94 769.429L1499.1 781.135" stroke="#CED3F8" stroke-width="2" stroke-linecap="round" stroke-linejoin="round"/>
<path d="M1484.15 757.862L1487.37 730.604" stroke="#CED3F8" stroke-width="2" stroke-linecap="round" stroke-linejoin="round"/>
<path d="M1511.73 738.957L1523.52 740.753" stroke="#CED3F8" stroke-width="2" stroke-linecap="round" stroke-linejoin="round"/>
<path d="M1448.58 784.627L1448.13 749.389" stroke="#CED3F8" stroke-width="2" stroke-linecap="round" stroke-linejoin="round"/>
<path d="M1448.69 202.462C1448.69 202.462 1448.65 202.462 1448.63 202.462C1435.26 199.937 1427.16 195.49 1423.87 188.874C1418.6 178.274 1426.04 163.298 1434.65 145.953C1446.66 121.793 1460.26 94.4095 1447.52 67.1615C1447.43 66.9837 1447.52 66.7702 1447.69 66.6849C1447.87 66.5995 1448.08 66.6849 1448.16 66.8556C1461.05 94.4166 1446.76 123.166 1435.29 146.266C1426.76 163.44 1419.39 178.266 1424.5 188.554C1427.68 194.957 1435.62 199.275 1448.75 201.758C1448.95 201.794 1449.07 201.979 1449.04 202.171C1449 202.341 1448.86 202.462 1448.69 202.462Z" fill="url(#paint1_linear_73_30988)"/>
<path d="M1402.73 57.5853C1398.46 57.5853 1394.5 56.8169 1390.8 55.2873C1373.98 48.3366 1365.98 26.958 1358.24 6.28365C1352.3 -9.58137 1346.69 -24.5713 1337.54 -31.3229C1337.39 -31.4367 1337.35 -31.6643 1337.47 -31.8208C1337.58 -31.9774 1337.81 -32.0129 1337.96 -31.8991C1347.28 -25.0195 1352.92 -9.93709 1358.91 6.03464C1366.6 26.5667 1374.55 47.7959 1391.08 54.6328C1400.41 58.4959 1411.5 57.379 1424.99 51.2179C1425.17 51.1397 1425.38 51.2179 1425.46 51.3958C1425.54 51.5736 1425.46 51.7871 1425.28 51.8653C1416.93 55.6857 1409.46 57.5853 1402.74 57.5853H1402.73Z" fill="url(#paint2_linear_73_30988)"/>
<path d="M1502.03 53.8858C1489.99 53.8858 1475.9 51.7444 1459.59 47.4544C1459.4 47.4046 1459.28 47.2125 1459.33 47.0205C1459.38 46.8284 1459.58 46.7145 1459.77 46.7643C1493.64 55.6644 1517.86 55.3016 1533.84 45.6403C1550.95 35.3031 1555.29 16.4643 1559.11 -0.154863C1559.95 -3.76184 1560.73 -7.16962 1561.62 -10.3355C1561.67 -10.5276 1561.87 -10.6343 1562.06 -10.5845C1562.25 -10.5347 1562.36 -10.3355 1562.31 -10.1434C1561.42 -6.99886 1560.64 -3.59821 1559.81 0.00165378C1556.14 15.9307 1551.58 35.7513 1534.21 46.245C1525.8 51.3317 1515.13 53.8787 1502.03 53.8787V53.8858Z" fill="url(#paint3_linear_73_30988)"/>
<path opacity="0.3" d="M1438.94 67.0047C1438.94 67.2893 1438.6 67.524 1438.19 67.524C1437.78 67.524 1437.44 67.2893 1437.44 67.0047C1437.44 66.7201 1437.78 66.4854 1438.19 66.4854C1438.6 66.4854 1438.94 66.7201 1438.94 67.0047Z" fill="black"/>
<path d="M1376.53 128.046C1360.9 128.046 1342.35 125.265 1320.95 119.701C1320.75 119.651 1320.64 119.459 1320.69 119.267C1320.74 119.075 1320.93 118.961 1321.12 119.011C1367.72 131.134 1400.72 130.024 1419.22 115.717C1435.9 102.819 1437.83 81.739 1437.83 67.0051C1437.83 66.8059 1437.98 66.6494 1438.18 66.6494C1438.38 66.6494 1438.54 66.8059 1438.54 67.0051C1438.54 81.8884 1436.58 103.189 1419.65 116.279C1409.51 124.119 1395.08 128.046 1376.52 128.046H1376.53Z" fill="url(#paint4_linear_73_30988)"/>
<path d="M1626.01 95.9743L1587.9 99.3038L1598.35 65.5746L1636.45 62.2451L1626.01 95.9743Z" fill="url(#paint5_linear_73_30988)"/>
<path d="M1643.77 122.945L1626.01 95.9743L1636.45 62.2451L1654.21 89.2156L1643.77 122.945Z" fill="url(#paint6_linear_73_30988)"/>
<path d="M1605.68 126.275L1587.9 99.3041L1626.01 95.9746L1643.77 122.945L1605.68 126.275Z" fill="url(#paint7_linear_73_30988)"/>
<path d="M1278.49 161.328L1326.96 146.743L1353.84 131.22L1298.81 147.056L1278.49 161.328Z" fill="url(#paint8_linear_73_30988)"/>
<path d="M1261 108.403L1278.49 161.327L1298.81 147.056L1277.31 85.168L1261 108.403Z" fill="url(#paint9_linear_73_30988)"/>
<path d="M1277.31 85.1685L1298.81 147.056L1353.84 131.22L1332.04 75.1729L1277.31 85.1685Z" fill="url(#paint10_linear_73_30988)"/>
<path opacity="0.3" d="M1316.19 146.679C1316.24 146.835 1315.98 147.077 1315.6 147.227C1315.21 147.376 1314.85 147.376 1314.79 147.219C1314.73 147.063 1315 146.821 1315.38 146.672C1315.77 146.522 1316.13 146.522 1316.19 146.672V146.679Z" fill="black"/>
<path opacity="0.3" d="M1615.12 111.249C1615.12 111.533 1614.78 111.768 1614.37 111.768C1613.96 111.768 1613.62 111.533 1613.62 111.249C1613.62 110.964 1613.96 110.729 1614.37 110.729C1614.78 110.729 1615.12 110.964 1615.12 111.249Z" fill="black"/>
<path d="M1318.89 300.207C1318.73 300.207 1318.58 300.143 1318.48 300.015C1300.19 277.74 1306.62 249.809 1313.44 220.227C1319.18 195.32 1325.11 169.566 1315.09 147.277C1314.97 147.006 1315.09 146.693 1315.36 146.572C1315.63 146.451 1315.94 146.572 1316.07 146.843C1326.23 169.459 1320.26 195.391 1314.48 220.469C1307.73 249.78 1301.35 277.469 1319.3 299.339C1319.49 299.567 1319.46 299.901 1319.23 300.093C1319.13 300.171 1319.01 300.214 1318.89 300.214V300.207Z" fill="url(#paint11_linear_73_30988)"/>
<path d="M1534.25 182.599C1523.99 182.599 1513.01 180.849 1501.37 177.349C1501.18 177.292 1501.07 177.093 1501.13 176.908C1501.19 176.723 1501.39 176.609 1501.57 176.673C1528.19 184.67 1551.28 183.467 1570.22 173.095C1584.38 165.333 1603.48 148.265 1614.04 111.022C1614.09 110.83 1614.28 110.723 1614.48 110.78C1614.67 110.837 1614.78 111.029 1614.72 111.221C1604.09 148.707 1584.84 165.902 1570.56 173.728C1559.75 179.647 1547.62 182.614 1534.25 182.614L1534.25 182.599Z" fill="url(#paint12_linear_73_30988)"/>
<path d="M1649.15 246.28L1620.48 241.2L1633.67 208.937L1662.34 214.016L1649.15 246.28Z" fill="url(#paint13_linear_73_30988)"/>
<path d="M1666.97 261.989L1649.15 246.28L1662.34 214.017L1680.17 229.725L1666.97 261.989Z" fill="url(#paint14_linear_73_30988)"/>
<path d="M1638.31 256.909L1620.48 241.2L1649.15 246.28L1666.97 261.988L1638.31 256.909Z" fill="url(#paint15_linear_73_30988)"/>
<path d="M1449.2 233.345L1480.93 202.106L1543.26 197.169L1507.44 226.665L1449.2 233.345Z" fill="url(#paint16_linear_73_30988)"/>
<path d="M1449.2 233.345L1431.79 171.337L1459.68 134.684L1480.93 202.106L1449.2 233.345Z" fill="url(#paint17_linear_73_30988)"/>
<path d="M1480.93 202.106L1459.68 134.684L1520.31 135.11L1543.25 197.169L1480.93 202.106Z" fill="url(#paint18_linear_73_30988)"/>
<path opacity="0.3" d="M1497.2 215.894C1497.27 216.086 1496.88 216.392 1496.34 216.584C1495.8 216.776 1495.3 216.776 1495.24 216.584C1495.18 216.392 1495.56 216.086 1496.1 215.894C1496.64 215.702 1497.14 215.702 1497.2 215.894Z" fill="black"/>
<path opacity="0.3" d="M1644.24 251.758C1644.19 251.957 1643.71 252.021 1643.14 251.907C1642.58 251.794 1642.15 251.538 1642.19 251.338C1642.24 251.139 1642.72 251.075 1643.29 251.189C1643.86 251.303 1644.28 251.559 1644.24 251.758Z" fill="black"/>
<path d="M1434.85 313.93C1434.73 313.93 1434.63 313.895 1434.53 313.823C1434.29 313.646 1434.24 313.311 1434.42 313.076C1446.36 297.14 1463.44 287.394 1486.62 283.282C1507.01 279.667 1529.28 280.735 1550.82 281.773C1572 282.791 1592.02 283.758 1608.31 280.158C1626.48 276.146 1637.41 267.004 1642.7 251.381C1642.79 251.103 1643.1 250.954 1643.38 251.046C1643.65 251.139 1643.8 251.445 1643.71 251.722C1631.84 286.732 1592.46 284.84 1550.76 282.833C1529.28 281.802 1507.07 280.735 1486.81 284.327C1463.9 288.39 1447.04 298.001 1435.27 313.71C1435.17 313.852 1435.01 313.923 1434.85 313.923V313.93Z" fill="url(#paint19_linear_73_30988)"/>
<path d="M1423.06 385.579C1422.86 385.579 1422.67 385.465 1422.57 385.273C1413.37 366.064 1428.81 357.662 1448.36 347.019C1480.63 329.454 1524.83 305.407 1495.72 216.407C1495.62 216.129 1495.78 215.823 1496.06 215.731C1496.34 215.638 1496.64 215.795 1496.73 216.072C1509.74 255.827 1509.48 286.255 1495.93 309.092C1484.33 328.664 1464.67 339.357 1448.88 347.951C1429.08 358.729 1414.77 366.512 1423.54 384.803C1423.66 385.067 1423.55 385.387 1423.29 385.515C1423.21 385.55 1423.14 385.565 1423.06 385.565V385.579Z" fill="url(#paint20_linear_73_30988)"/>
</g>
<defs>
<radialGradient id="paint0_radial_73_30988" cx="0" cy="0" r="1" gradientUnits="userSpaceOnUse" gradientTransform="translate(1175.5 558) rotate(90.8551) scale(435.548 725.655)">
<stop stop-color="#C9D9E0"/>
<stop offset="1" stop-color="white"/>
</radialGradient>
<linearGradient id="paint1_linear_73_30988" x1="1442.86" y1="136.021" x2="1435.03" y2="194.715" gradientUnits="userSpaceOnUse">
<stop stop-color="white"/>
<stop offset="1" stop-color="#C3CDD9"/>
</linearGradient>
<linearGradient id="paint2_linear_73_30988" x1="1384.68" y1="31.9024" x2="1412.19" y2="58.937" gradientUnits="userSpaceOnUse">
<stop stop-color="white"/>
<stop offset="1" stop-color="#BEC8D4"/>
</linearGradient>
<linearGradient id="paint3_linear_73_30988" x1="1523.18" y1="-21.1066" x2="1517.73" y2="-2.80139" gradientUnits="userSpaceOnUse">
<stop stop-color="#CBD6E2"/>
<stop offset="1" stop-color="white"/>
</linearGradient>
<linearGradient id="paint4_linear_73_30988" x1="1349.78" y1="96.0175" x2="1395.31" y2="97.0846" gradientUnits="userSpaceOnUse">
<stop stop-color="#C3CDD9"/>
<stop offset="1" stop-color="white"/>
</linearGradient>
<linearGradient id="paint5_linear_73_30988" x1="1612.18" y1="99.3038" x2="1612.18" y2="62.2451" gradientUnits="userSpaceOnUse">
<stop stop-color="#A3B7CF"/>
<stop offset="1" stop-color="white"/>
</linearGradient>
<linearGradient id="paint6_linear_73_30988" x1="1630.43" y1="105.991" x2="1648.93" y2="80.3796" gradientUnits="userSpaceOnUse">
<stop stop-color="#CBD6E2"/>
<stop offset="1" stop-color="white"/>
</linearGradient>
<linearGradient id="paint7_linear_73_30988" x1="1587.9" y1="111.121" x2="1643.77" y2="111.121" gradientUnits="userSpaceOnUse">
<stop stop-color="#57667A"/>
<stop offset="1" stop-color="#BAC4D4"/>
</linearGradient>
<linearGradient id="paint8_linear_73_30988" x1="1316.16" y1="159.471" x2="1316.16" y2="132.024" gradientUnits="userSpaceOnUse">
<stop stop-color="#57667A"/>
<stop offset="1" stop-color="#BAC4D4"/>
</linearGradient>
<linearGradient id="paint9_linear_73_30988" x1="1279.9" y1="85.168" x2="1279.9" y2="161.327" gradientUnits="userSpaceOnUse">
<stop stop-color="#CBD5E1"/>
<stop offset="1" stop-color="#A3B7CF"/>
</linearGradient>
<linearGradient id="paint10_linear_73_30988" x1="1341.07" y1="132.415" x2="1283.06" y2="84.2437" gradientUnits="userSpaceOnUse">
<stop stop-color="#CBD6E2"/>
<stop offset="1" stop-color="white"/>
</linearGradient>
<linearGradient id="paint11_linear_73_30988" x1="1315.03" y1="229.198" x2="1312.86" y2="284.022" gradientUnits="userSpaceOnUse">
<stop stop-color="white"/>
<stop offset="1" stop-color="#CBD6E2"/>
</linearGradient>
<linearGradient id="paint12_linear_73_30988" x1="1573.57" y1="97.7251" x2="1568.89" y2="111.641" gradientUnits="userSpaceOnUse">
<stop stop-color="#CBD6E2"/>
<stop offset="1" stop-color="white"/>
</linearGradient>
<linearGradient id="paint13_linear_73_30988" x1="1647.76" y1="245.049" x2="1635" y2="210.004" gradientUnits="userSpaceOnUse">
<stop stop-color="#A3B7CF"/>
<stop offset="1" stop-color="white"/>
</linearGradient>
<linearGradient id="paint14_linear_73_30988" x1="1676.55" y1="226.104" x2="1652.76" y2="249.894" gradientUnits="userSpaceOnUse">
<stop stop-color="white"/>
<stop offset="1" stop-color="#CBD6E2"/>
</linearGradient>
<linearGradient id="paint15_linear_73_30988" x1="1620.48" y1="251.594" x2="1666.97" y2="251.594" gradientUnits="userSpaceOnUse">
<stop stop-color="#57667A"/>
<stop offset="1" stop-color="#BAC4D4"/>
</linearGradient>
<linearGradient id="paint16_linear_73_30988" x1="1460.97" y1="250.512" x2="1521.19" y2="190.297" gradientUnits="userSpaceOnUse">
<stop stop-color="#57667A"/>
<stop offset="1" stop-color="#BAC4D4"/>
</linearGradient>
<linearGradient id="paint17_linear_73_30988" x1="1456.36" y1="233.345" x2="1456.36" y2="134.684" gradientUnits="userSpaceOnUse">
<stop stop-color="#A3B7CF"/>
<stop offset="1" stop-color="#E2E7EC"/>
</linearGradient>
<linearGradient id="paint18_linear_73_30988" x1="1480.06" y1="202.007" x2="1518.48" y2="137.266" gradientUnits="userSpaceOnUse">
<stop stop-color="#D8E1EB"/>
<stop offset="1" stop-color="white"/>
</linearGradient>
<linearGradient id="paint19_linear_73_30988" x1="1454.13" y1="291.47" x2="1512.8" y2="285.252" gradientUnits="userSpaceOnUse">
<stop stop-color="#C3CDD9"/>
<stop offset="1" stop-color="white"/>
</linearGradient>
<linearGradient id="paint20_linear_73_30988" x1="1419.85" y1="300.641" x2="1506.3" y2="300.641" gradientUnits="userSpaceOnUse">
<stop stop-color="#CBD6E2"/>
<stop offset="1" stop-color="white"/>
</linearGradient>
<clipPath id="clip0_73_30988">
<rect width="1728" height="1117" fill="white"/>
</clipPath>
</defs>
</svg>
