<svg width="1728" height="1117" viewBox="0 0 1728 1117" fill="none" xmlns="http://www.w3.org/2000/svg">
<g clip-path="url(#clip0_299_29544)">
<rect width="1728" height="1117" fill="white"/>
<rect x="-341" width="1728" height="1117" fill="white"/>
<path d="M2065.1 182.055C2053.27 161 2040.32 140.648 2026.31 121.092C1861.65 -104.806 1420.61 -227.848 1202.03 5.67839C1149.95 61.4196 1131.8 128.602 1096.74 192.441C1016.99 337.602 868.084 424.412 774.619 558.836C702.212 663.072 711.866 796.47 752.233 909.272C796.129 1031.7 873.391 1117.19 996.949 1182.11C1135.47 1254.96 1283.61 1234.74 1433.34 1209.39C1500.66 1197.98 1570.11 1186.36 1638.96 1190.71C1725.14 1196.16 1810.25 1218.11 1895.84 1228.85C1984.79 1239.93 2077.07 1242.55 2162.74 1218.37C2437.1 1140.95 2502.11 778.075 2389.28 570.19C2349.33 496.611 2281.64 439.873 2218.8 382.254C2150.88 320.176 2109.36 259.33 2065.1 182.055Z" fill="#004461"/>
<path opacity="0.8" d="M2065.1 182.055C2053.27 161 2040.32 140.648 2026.31 121.092C1861.65 -104.806 1420.61 -227.848 1202.03 5.67839C1149.95 61.4196 1131.8 128.602 1096.74 192.441C1016.99 337.602 868.084 424.412 774.619 558.836C702.212 663.072 711.866 796.47 752.233 909.272C796.129 1031.7 873.391 1117.19 996.949 1182.11C1135.47 1254.96 1283.61 1234.74 1433.34 1209.39C1500.66 1197.98 1570.11 1186.36 1638.96 1190.71C1725.14 1196.16 1810.25 1218.11 1895.84 1228.85C1984.79 1239.93 2077.07 1242.55 2162.74 1218.37C2437.1 1140.95 2502.11 778.075 2389.28 570.19C2349.33 496.611 2281.64 439.873 2218.8 382.254C2150.88 320.176 2109.36 259.33 2065.1 182.055Z" fill="white"/>
</g>
<defs>
<clipPath id="clip0_299_29544">
<rect width="1728" height="1117" fill="white"/>
</clipPath>
</defs>
</svg>
